<?xml version="1.0" encoding="UTF-8" standalone="no"?>
<svg width="34px" height="23px" viewBox="0 0 34 23" version="1.1" xmlns="http://www.w3.org/2000/svg" xmlns:xlink="http://www.w3.org/1999/xlink">
    <!-- Generator: sketchtool 40.1 (33804) - http://www.bohemiancoding.com/sketch -->
    <title>746A571E-66D5-457E-B92C-5D396565EDB8</title>
    <desc>Created with sketchtool.</desc>
    <defs></defs>
    <g id="Symbols" stroke="none" stroke-width="1" fill="none" fill-rule="evenodd">
        <g id="Footer" transform="translate(-712.000000, -417.000000)" fill="#636262">
            <g id="G+" transform="translate(712.000000, 417.000000)">
                <path d="M0.00689430073,11.5146823 C-0.212959111,5.58562557 4.85725853,0.106455314 10.651585,0.0353682752 C13.6048036,-0.222632937 16.4779431,0.952043103 18.7128767,2.86791338 C17.7960929,3.90041534 16.8632932,4.92098661 15.8669156,5.87643618 C13.8993974,4.65204893 11.5305133,3.7189694 9.23103104,4.54765537 C5.52215737,5.62937144 3.27606115,10.1148145 4.64856766,13.831225 C5.78520494,17.7126768 10.3943613,19.8428024 14.0066548,18.2122745 C15.8771075,17.5262597 17.1103249,15.7585289 17.6514652,13.8590633 C15.5077731,13.8153174 13.3635957,13.8426586 11.2199036,13.7820109 C11.214565,12.4756001 11.2092264,11.1741605 11.214565,9.86774974 C14.7894883,9.8622815 18.3697501,9.85134503 21.950012,9.88415444 C22.1698654,13.0850597 21.7088041,16.5106596 19.6772227,19.0797352 C16.8953248,22.7469316 11.7557053,23.8231795 7.57460788,22.3845369 C3.13725745,20.8917091 -0.0896858956,16.3128089 0.00689430073,11.5146823 L0.00689430073,11.5146823 Z" id="Shape"></path>
                <path d="M28.0152422,7 L30.9897379,7 C30.9951708,7.99517054 31.0046783,8.99532146 31.0101112,9.99003924 C32.0047789,10 33.0048795,10.0049804 34,10.0099608 L34,12.9900392 C33.0053323,12.9950196 32.0052317,13 31.0101112,13.0049804 C31.0001509,14.0051313 30.9951708,14.9998491 30.9897379,16 C29.9950702,15.9950196 28.999497,16 28.0098093,16 C28.0003018,14.9998491 28.0003018,14.0051313 27.9898888,13.0099608 C26.9952211,12.9995472 25.9951205,12.9950196 25,12.9895865 L25,10.009508 C25.9951205,10.0045276 26.990241,9.99954724 27.9898888,9.98958648 C27.994869,8.99532146 28.0048292,7.99517054 28.0152422,7 L28.0152422,7 Z" id="Shape"></path>
            </g>
        </g>
    </g>
</svg>