<?xml version="1.0" encoding="UTF-8" standalone="no"?>
<svg width="24px" height="22px" viewBox="0 0 24 22" version="1.1" xmlns="http://www.w3.org/2000/svg" xmlns:xlink="http://www.w3.org/1999/xlink">
    <!-- Generator: sketchtool 40.1 (33804) - http://www.bohemiancoding.com/sketch -->
    <title>1C7589A4-EA27-455A-9FBB-53F92013A6C7</title>
    <desc>Created with sketchtool.</desc>
    <defs></defs>
    <g id="Symbols" stroke="none" stroke-width="1" fill="none" fill-rule="evenodd">
        <g id="Footer" transform="translate(-826.000000, -418.000000)" fill="#636262">
            <path d="M848.226761,440 L827.774441,440 C826.794113,440 826,439.293236 826,438.421683 L826,419.577096 C826,418.706764 826.794113,418 827.774441,418 L848.226761,418 C849.205887,418 850,418.706764 850,419.577096 L850,438.421683 C850,439.293236 849.205887,440 848.226761,440 L848.226761,440 Z M830.159183,436.375853 L833.693648,436.375853 L833.693648,426.443322 L830.159183,426.443322 L830.159183,436.375853 L830.159183,436.375853 Z M831.950443,421.655884 C830.740652,421.655884 829.951344,422.396826 829.951344,423.372136 C829.951344,424.324252 830.717825,425.088387 831.903589,425.088387 L831.926415,425.088387 C833.159033,425.088387 833.925514,424.324252 833.925514,423.372136 C833.903889,422.396826 833.159033,421.655884 831.950443,421.655884 L831.950443,421.655884 Z M846.437904,430.681463 C846.437904,427.629806 844.693498,426.210176 842.368824,426.210176 C840.492266,426.210176 839.653702,427.173279 839.183962,427.850746 L839.183962,426.443322 L835.649497,426.443322 C835.696351,427.375909 835.649497,436.375853 835.649497,436.375853 L839.183962,436.375853 L839.183962,430.829163 C839.183962,430.533762 839.206788,430.235921 839.300496,430.024746 C839.555188,429.431504 840.137859,428.817511 841.11338,428.817511 C842.392852,428.817511 842.903439,429.728125 842.903439,431.06353 L842.903439,436.375853 L846.437904,436.375853 L846.437904,430.681463 L846.437904,430.681463 Z M839.159934,427.883704 C839.167142,427.872718 839.176753,427.861732 839.183962,427.850746 L839.183962,427.883704 L839.159934,427.883704 L839.159934,427.883704 Z" id="IN"></path>
        </g>
    </g>
</svg>