<?xml version="1.0" encoding="UTF-8" standalone="no"?>
<svg width="19px" height="24px" viewBox="0 0 19 24" version="1.1" xmlns="http://www.w3.org/2000/svg" xmlns:xlink="http://www.w3.org/1999/xlink">
    <!-- Generator: sketchtool 40.1 (33804) - http://www.bohemiancoding.com/sketch -->
    <title>669E7843-FA20-446F-A759-D6012E17D241</title>
    <desc>Created with sketchtool.</desc>
    <defs></defs>
    <g id="Symbols" stroke="none" stroke-width="1" fill="none" fill-rule="evenodd">
        <g id="Footer" transform="translate(-880.000000, -418.000000)" fill="#636262">
            <path d="M890.703904,435.101247 C889.26857,434.990238 888.665465,434.278493 887.539806,433.595178 C886.921133,436.841179 886.165053,439.952819 883.925579,441.578358 C883.233465,436.672297 884.94023,432.987336 885.732862,429.075957 C884.3818,426.801624 885.895314,422.223852 888.744999,423.351881 C892.252278,424.738818 885.708494,431.808541 890.101476,432.691537 C894.687709,433.613454 896.559973,424.733741 893.715703,421.845474 C889.606335,417.675525 881.754133,421.75071 882.719709,427.720157 C882.954927,429.17952 884.463026,429.622541 883.322137,431.636274 C880.692101,431.053814 879.907591,428.979501 880.008447,426.214088 C880.171238,421.687421 884.075848,418.517908 887.992303,418.079286 C892.945408,417.524918 897.594253,419.898076 898.235939,424.557074 C898.957837,429.815454 895.99985,435.510085 890.703904,435.101247 L890.703904,435.101247 L890.703904,435.101247 Z" id="Pinterest"></path>
        </g>
    </g>
</svg>