<?xml version="1.0" encoding="UTF-8" standalone="no"?>
<svg width="27px" height="20px" viewBox="0 0 27 20" version="1.1" xmlns="http://www.w3.org/2000/svg" xmlns:xlink="http://www.w3.org/1999/xlink">
    <!-- Generator: sketchtool 40.1 (33804) - http://www.bohemiancoding.com/sketch -->
    <title>9A518864-5B6C-400C-8F65-E55D619B58E6</title>
    <desc>Created with sketchtool.</desc>
    <defs></defs>
    <g id="Symbols" stroke="none" stroke-width="1" fill="none" fill-rule="evenodd">
        <g id="Footer" transform="translate(-929.000000, -420.000000)" fill="#A72729">
            <path d="M956,422.302281 C955.006521,422.693487 953.9385,422.954695 952.819069,423.073758 C953.962919,422.466296 954.840727,421.504076 955.25457,420.359618 C954.182692,420.920912 952.997715,421.329127 951.735625,421.550243 C950.726723,420.595313 949.285986,420 947.693593,420 C944.634758,420 942.152989,422.197798 942.152989,424.907078 C942.152989,425.292209 942.201828,425.667621 942.296935,426.026023 C937.69326,425.820701 933.611386,423.867103 930.878998,420.899044 C930.40218,421.624353 930.129712,422.466296 930.129712,423.366555 C930.129712,425.067448 931.107768,426.571524 932.593488,427.451129 C931.68612,427.424401 930.83273,427.2045 930.08473,426.836378 L930.08473,426.899554 C930.08473,429.27716 931.993288,431.259916 934.527751,431.710653 C934.063785,431.822426 933.572829,431.880742 933.069021,431.880742 C932.711729,431.880742 932.364718,431.851584 932.026704,431.795698 C932.731007,433.743221 934.777085,435.163467 937.201019,435.20356 C935.305312,436.519323 932.917365,437.302949 930.321211,437.302949 C929.873953,437.302949 929.433121,437.279865 929,437.234913 C931.450923,438.626001 934.363243,439.44 937.491479,439.44 C947.680741,439.44 953.25219,431.960927 953.25219,425.476878 C953.25219,425.263051 953.245764,425.052869 953.235482,424.841472 C954.317641,424.148966 955.25714,423.285155 956,422.302281 L956,422.302281 Z" id="TW"></path>
        </g>
    </g>
</svg>