<?xml version="1.0" encoding="UTF-8" standalone="no"?>
<svg width="20px" height="24px" viewBox="0 0 20 24" version="1.1" xmlns="http://www.w3.org/2000/svg" xmlns:xlink="http://www.w3.org/1999/xlink">
    <!-- Generator: sketchtool 40.1 (33804) - http://www.bohemiancoding.com/sketch -->
    <title>014063AF-073E-4951-B79C-51B35DE51C76</title>
    <desc>Created with sketchtool.</desc>
    <defs></defs>
    <g id="Symbols" stroke="none" stroke-width="1" fill="none" fill-rule="evenodd">
        <g id="Footer" transform="translate(-776.000000, -417.000000)" fill="#636262">
            <path d="M781.857,417 L780.955,420.467 L780.016,417 L778.624,417 C778.904,417.818 779.194,418.64 779.473,419.46 C779.897,420.693 780.161,421.621 780.282,422.254 L780.282,425.831 L781.604,425.831 L781.604,422.254 L783.195,417 L781.857,417 L781.857,417 Z M786.729,421.395 C786.729,420.693 786.608,420.177 786.358,419.845 C786.029,419.395 785.564,419.17 784.968,419.17 C784.373,419.17 783.908,419.395 783.578,419.845 C783.324,420.179 783.206,420.693 783.206,421.395 L783.206,423.7 C783.206,424.399 783.324,424.918 783.578,425.248 C783.908,425.697 784.373,425.922 784.968,425.922 C785.564,425.922 786.029,425.697 786.358,425.248 C786.608,424.918 786.729,424.399 786.729,423.7 L786.729,421.395 L786.729,421.395 Z M791.138,419.25 L789.946,419.25 L789.946,424.28 C789.682,424.653 789.432,424.838 789.192,424.838 C789.033,424.838 788.939,424.744 788.912,424.558 C788.898,424.52 788.898,424.375 788.898,424.095 L788.898,419.25 L787.709,419.25 L787.709,424.453 C787.709,424.918 787.75,425.233 787.814,425.433 C787.935,425.765 788.199,425.922 788.584,425.922 C789.019,425.922 789.47,425.658 789.946,425.113 L789.946,425.831 L791.138,425.831 L791.138,419.25 L791.138,419.25 Z M795.189,428.711 C794.95,427.672 794.1,426.907 793.077,426.791 C790.656,426.522 788.206,426.52 785.765,426.522 C783.326,426.52 780.875,426.522 778.453,426.791 C777.432,426.907 776.582,427.672 776.345,428.711 C776.004,430.19 776,431.804 776,433.327 C776,434.848 776,436.464 776.339,437.941 C776.579,438.98 777.427,439.745 778.45,439.861 C780.871,440.131 783.322,440.132 785.762,440.131 C788.203,440.132 790.652,440.131 793.074,439.861 C794.097,439.745 794.945,438.98 795.184,437.941 C795.525,436.464 795.525,434.848 795.525,433.327 C795.525,431.804 795.528,430.19 795.189,428.711 L795.189,428.711 Z M793.77,436.75 C793.443,437.224 792.96,437.457 792.343,437.457 C791.726,437.457 791.255,437.235 790.914,436.789 C790.664,436.464 790.537,435.95 790.537,435.259 L790.537,432.977 C790.537,432.281 790.65,431.773 790.9,431.442 C791.241,430.996 791.71,430.774 792.313,430.774 C792.906,430.774 793.376,430.996 793.705,431.442 C793.953,431.773 794.07,432.281 794.07,432.977 L794.07,434.325 L791.71,434.325 L791.71,435.481 C791.71,436.083 791.909,436.383 792.313,436.383 C792.605,436.383 792.773,436.226 792.841,435.911 C792.852,435.847 792.867,435.584 792.867,435.112 L794.07,435.112 L794.07,435.283 C794.07,435.665 794.056,435.925 794.046,436.044 C794.006,436.305 793.913,436.542 793.77,436.75 L793.77,436.75 Z M791.712,433.343 L792.892,433.343 L792.892,432.742 C792.892,432.138 792.694,431.837 792.303,431.837 C791.909,431.837 791.712,432.138 791.712,432.742 L791.712,433.343 L791.712,433.343 Z M788.556,437.457 C788.136,437.457 787.73,437.223 787.335,436.736 L787.335,437.368 L786.155,437.368 L786.155,428.627 L787.335,428.627 L787.335,431.481 C787.716,431.012 788.122,430.774 788.556,430.774 C789.024,430.774 789.341,431.022 789.498,431.511 C789.577,431.773 789.617,432.203 789.617,432.82 L789.617,435.413 C789.617,436.014 789.577,436.448 789.498,436.724 C789.341,437.208 789.024,437.457 788.556,437.457 L788.556,437.457 Z M788.437,432.726 C788.437,432.138 788.264,431.837 787.925,431.837 C787.73,431.837 787.533,431.93 787.335,432.124 L787.335,436.093 C787.533,436.291 787.73,436.383 787.925,436.383 C788.265,436.383 788.437,436.093 788.437,435.506 L788.437,432.726 L788.437,432.726 Z M783.954,436.656 C783.485,437.194 783.04,437.457 782.606,437.457 C782.226,437.457 781.964,437.301 781.845,436.972 C781.78,436.775 781.74,436.464 781.74,436.004 L781.74,430.855 L782.92,430.855 L782.92,435.649 C782.92,435.925 782.92,436.069 782.931,436.107 C782.961,436.291 783.05,436.383 783.207,436.383 C783.445,436.383 783.692,436.201 783.954,435.831 L783.954,430.855 L785.136,430.855 L785.136,437.368 L783.954,437.368 L783.954,436.656 L783.954,436.656 Z M780.156,437.368 L778.843,437.368 L778.843,429.856 L777.455,429.856 L777.455,428.627 L781.569,428.627 L781.569,429.856 L780.156,429.856 L780.156,437.368 L780.156,437.368 Z M784.968,424.838 C784.583,424.838 784.398,424.534 784.398,423.923 L784.398,421.156 C784.398,420.548 784.583,420.243 784.968,420.243 C785.351,420.243 785.536,420.548 785.536,421.156 L785.536,423.923 C785.536,424.534 785.351,424.838 784.968,424.838 L784.968,424.838 Z" id="YTBE"></path>
        </g>
    </g>
</svg>