<?xml version="1.0" encoding="UTF-8" standalone="no"?>
<svg width="30px" height="26px" viewBox="0 0 30 26" version="1.1" xmlns="http://www.w3.org/2000/svg" xmlns:xlink="http://www.w3.org/1999/xlink">
    <!-- Generator: sketchtool 40.1 (33804) - http://www.bohemiancoding.com/sketch -->
    <title>0C92851B-3665-455A-A17E-4763EF9C5E50</title>
    <desc>Created with sketchtool.</desc>
    <defs></defs>
    <g id="Web-Design" stroke="none" stroke-width="1" fill="none" fill-rule="evenodd">
        <g id="LAB-Article-inner-d" transform="translate(-1268.000000, -559.000000)" fill="#658D1B">
            <g id="Group-5" transform="translate(1113.000000, 559.000000)">
                <path d="M182.559357,2.40625 C180.989442,0.8625 178.911052,0.01875 176.692831,0.01875 C174.474611,0.01875 172.389865,0.86875 170.81995,2.4125 L170.000035,3.21875 L169.167408,2.4 C167.597492,0.85625 165.506391,0 163.28817,0 C161.076306,0 158.99156,0.85 157.428001,2.3875 C155.858086,3.93125 154.993679,5.98125 155.000035,8.1625 C155.000035,10.34375 155.870798,12.3875 157.440713,13.93125 L169.377153,25.66875 C169.542408,25.83125 169.764865,25.91875 169.980967,25.91875 C170.197069,25.91875 170.419526,25.8375 170.584781,25.675 L182.546645,13.95625 C184.11656,12.4125 184.980967,10.3625 184.980967,8.18125 C184.987323,6 184.129272,3.95 182.559357,2.40625 L182.559357,2.40625 Z M181.339018,12.7625 L169.980967,23.8875 L158.64834,12.74375 C157.402577,11.51875 156.716136,9.89375 156.716136,8.1625 C156.716136,6.43125 157.396221,4.80625 158.641984,3.5875 C159.881391,2.36875 161.533933,1.69375 163.28817,1.69375 C165.048764,1.69375 166.707662,2.36875 167.953425,3.59375 L169.389865,5.00625 C169.72673,5.3375 170.266984,5.3375 170.603848,5.00625 L172.027577,3.60625 C173.27334,2.38125 174.932238,1.70625 176.686475,1.70625 C178.440713,1.70625 180.093255,2.38125 181.339018,3.6 C182.584781,4.825 183.264865,6.45 183.264865,8.18125 C183.271221,9.9125 182.584781,11.5375 181.339018,12.7625 L181.339018,12.7625 Z" id="Add-to-bookmarks"></path>
            </g>
        </g>
    </g>
</svg>