<?xml version="1.0" encoding="UTF-8" standalone="no"?>
<svg width="69px" height="75px" viewBox="0 0 69 75" version="1.1" xmlns="http://www.w3.org/2000/svg" xmlns:xlink="http://www.w3.org/1999/xlink">
    <!-- Generator: sketchtool 40.1 (33804) - http://www.bohemiancoding.com/sketch -->
    <title>68A27A24-916B-4623-9CB3-547BBB5D564A</title>
    <desc>Created with sketchtool.</desc>
    <defs></defs>
    <g id="Web-Design" stroke="none" stroke-width="1" fill="none" fill-rule="evenodd">
        <g id="Product-line-professionals" transform="translate(-1032.000000, -4527.000000)">
            <g id="Group-21" transform="translate(1002.000000, 4527.000000)">
                <g id="africa-map" transform="translate(30.000000, 0.000000)">
                    <g id="Capa_1">
                        <g id="Africa">
                            <path d="M68.2275412,52.1845088 C68.0548516,51.643262 67.5551703,51.2794081 66.9845934,51.2794081 C66.704044,51.2794081 66.4358159,51.3680101 66.2094808,51.5352015 L62.1498544,54.5370907 C61.2363626,55.2128463 60.5715742,56.1882242 60.2783242,57.2837531 L58.8560522,62.5991184 C58.4924753,63.9583753 59.2035165,65.3852645 60.509967,65.9176322 L61.2539918,66.2208438 C61.5946319,66.3595088 61.9527115,66.4299748 62.3187527,66.4299748 C63.3833242,66.4299748 64.3447747,65.8428212 64.8275852,64.8972922 L68.0957967,58.4992443 C68.9480604,56.8307305 69.1036896,54.9292821 68.53425,53.1449622 L68.2275412,52.1845088 L68.2275412,52.1845088 Z" id="Shape" fill="#000000"></path>
                            <path d="M66.7446099,57.8138539 L63.4763984,64.2119018 C63.2534753,64.6479219 62.8099038,64.9188287 62.3189423,64.9188287 C62.1508022,64.9188287 61.9856951,64.886335 61.8283599,64.8221033 L61.0843352,64.5188917 C60.4817225,64.2732997 60.1539725,63.6153023 60.3217335,62.9882872 L61.7440055,57.6731108 C61.9491099,56.9062972 62.4142912,56.2235516 63.0538681,55.7506927 L66.873511,52.9265743 L67.0896099,53.6032746 C67.5373516,55.0065491 67.414706,56.5018262 66.7446099,57.8138539 L66.7446099,57.8138539 Z" id="Path" fill="#FFFFFF"></path>
                            <path d="M57.9217088,48.5743073 C57.4152033,45.4539673 58.670283,42.3289043 61.1969341,40.4185768 L65.0127857,37.5338161 C66.9167308,36.0942695 68.2078269,34.0122166 68.6483654,31.6711587 L68.8405797,30.6494962 C69.067294,29.4440176 68.7465577,28.2117128 67.9606401,27.268073 C67.1747225,26.3244332 66.0185934,25.7833753 64.7881566,25.7833753 C62.9793709,25.7833753 60.6456923,24.4892947 59.6923929,22.9575567 L54.1740989,14.0924433 C51.1936401,9.30453401 46.6538571,5.53526448 41.3789588,3.47418136 C41.1099725,3.36933249 40.827717,3.31624685 40.5399643,3.31624685 C39.7318681,3.31624685 38.9730577,3.74603275 38.5594368,4.43803526 L37.9158791,5.51467254 C37.4055824,6.36838791 36.4687747,6.89867758 35.4711181,6.8988665 C35.0806236,6.8988665 34.6997967,6.81952141 34.3388736,6.66328715 L32.3793874,5.81429471 C31.6173544,5.48406801 31.0401429,4.84080605 30.7956099,4.04924433 C30.5510769,3.25768262 30.6651923,2.40207809 31.1089533,1.70176322 C31.2909313,1.41479849 31.3129203,1.05982368 31.1682857,0.752078086 C31.0238407,0.445277078 30.7368462,0.235768262 30.3998077,0.19175063 C29.271544,0.0447732997 28.1368352,-0.018324937 27.0157747,0.00453400504 L20.3540522,0.140176322 C15.0385879,0.248047859 10.2394863,3.02928212 7.51626099,7.57953401 L1.35820055,17.868136 C-0.369642857,20.7549748 -0.270313187,24.4229849 1.61126374,27.2129093 L4.64100824,31.7053526 C5.81476648,33.4458438 7.77121978,34.4848866 9.87439286,34.4848866 C10.1428104,34.4848866 10.414261,34.4675063 10.6809725,34.4335013 L20.4035275,33.1860831 C21.7192665,33.0168136 23.0405027,33.5085642 23.9255604,34.488665 C24.651956,35.2926952 25.0136374,36.3149244 24.956011,37.3872166 C24.7397225,37.6983627 24.6364121,38.068073 24.6682582,38.4381612 C24.7086346,38.9085642 24.9645412,39.3419395 25.3696319,39.6268262 L27.2997363,40.9847607 C29.5450797,42.5642947 30.4883324,45.4760705 29.5937967,48.065932 L28.9553571,49.9141058 C27.8416896,53.1381612 27.8977995,56.6692065 29.1130714,59.8566121 L33.486989,71.3282116 C34.2277912,73.2710327 36.0525,74.5845718 38.1357692,74.6746851 L42.0871566,74.8458438 C42.1629808,74.8492443 42.2386154,74.8507557 42.3140604,74.8507557 C43.6169093,74.8507557 44.8645962,74.3688287 45.8277527,73.4939547 L49.1027885,70.5177582 C50.409239,69.3306045 51.2234011,67.7110202 51.3953324,65.956927 L51.6127582,63.7345088 C51.7822253,62.0028967 52.7260467,60.4768262 54.2019643,59.547733 L55.2090989,58.9139169 C57.6290275,57.3906801 58.8971868,54.5873426 58.439967,51.7715365 L57.9217088,48.5743073 L57.9217088,48.5743073 Z M20.3849505,1.6511335 L27.0466731,1.51549118 C27.8469973,1.49905542 28.6533874,1.52984887 29.4624313,1.60673804 C29.0967692,2.52034005 29.050706,3.53765743 29.3462308,4.49395466 C29.7211813,5.70755668 30.6064286,6.69389169 31.7748791,7.2 L33.7343654,8.04899244 C34.2871236,8.28872796 34.8713489,8.41001259 35.4713077,8.41001259 C37.0003022,8.40982368 38.4364121,7.59672544 39.2189176,6.28790932 L39.8626648,5.21127204 C40.0040769,4.97437028 40.2637747,4.82739295 40.5403434,4.82739295 C40.6383462,4.82739295 40.7346429,4.84571788 40.8373846,4.88557935 C45.7979918,6.8238665 50.07675,10.3764484 52.8856566,14.888728 L55.1882473,18.5879093 L47.8238242,31.7412469 L42.7578214,23.4612091 L43.0281346,18.8799748 C43.0446264,18.6005668 42.9049203,18.3349496 42.6647473,18.1898615 L34.7037775,13.37267 C34.3644643,13.1675063 33.9237363,13.2578086 33.6932308,13.5793451 L32.6618324,15.0183249 L30.1238077,13.638665 C29.8866676,13.5096348 29.5985357,13.5166247 29.367272,13.6562343 L21.8654176,18.1953401 L9.16600549,7.80585642 C11.6676346,4.03243073 15.8137005,1.7440806 20.3849505,1.6511335 L20.3849505,1.6511335 Z M20.9314533,31.640932 C20.692228,31.640932 20.4495907,31.6564232 20.2099863,31.6870277 L10.4874313,32.9342569 C10.2847912,32.9603275 10.0785495,32.9733627 9.87458242,32.9733627 C8.27715659,32.9733627 6.79119231,32.184068 5.89968956,30.8620277 L2.86994505,26.3695844 C1.31403297,24.0625315 1.23176374,21.0292821 2.66067033,18.6421285 L8.3671978,9.10768262 L21.3181566,19.7032746 C21.5666703,19.9065491 21.916978,19.931864 22.1927885,19.7650504 L29.7805137,15.1736146 L32.1185522,16.4448363 L31.8531676,27.2935768 L25.2483132,33.7065491 C25.1853791,33.6285264 25.1201703,33.5520151 25.0526868,33.4773929 C23.9985412,32.3102645 22.4962747,31.640932 20.9314533,31.640932 L20.9314533,31.640932 Z M30.3895714,50.4058564 L31.028011,48.5576826 C32.1407308,45.336272 30.9673516,41.7143577 28.1745577,39.75 L26.2442637,38.3920655 C26.205783,38.3648615 26.1815192,38.334068 26.1794341,38.309131 C26.1771593,38.284194 26.1959258,38.2498111 26.2292885,38.2165617 C26.3519341,38.0939547 26.4290852,37.9333753 26.447283,37.761272 C26.5458544,36.827267 26.4012198,35.8928841 26.0448462,35.043136 L33.1327005,28.161272 C33.2746813,28.0233627 33.3569505,27.8357683 33.3616896,27.6383501 L33.6403434,16.2527078 L34.5178187,15.0285264 L41.4870082,19.245529 L41.2297747,23.6087531 C41.2206758,23.7623426 41.258967,23.9149874 41.3393407,24.0462846 L48.3013269,35.4247481 L45.8709725,50.2261965 L39.8353681,51.5338791 C39.4877143,51.6092569 39.2392005,51.9154912 39.2382527,52.2698992 L39.2249835,56.540932 L29.7880962,56.356927 C29.5287775,54.365932 29.7266786,52.3254408 30.3895714,50.4058564 L30.3895714,50.4058564 Z M48.0814368,69.4008816 L44.8065907,72.3770781 C44.0837967,73.0335642 43.1382692,73.3802267 42.1535027,73.3358312 L38.2021154,73.1646725 C36.7244918,73.1006297 35.4303626,72.1690806 34.9049011,70.7911209 L30.5309835,59.3195214 C30.3503324,58.845529 30.2007692,58.3626574 30.0773654,57.8743073 L42.847294,58.1232997 L50.0644286,63.9906801 L49.8862418,65.8099496 C49.7510852,67.1911209 49.1101813,68.4663098 48.0814368,69.4008816 L48.0814368,69.4008816 Z M54.4000549,57.636272 L53.3927308,58.2700882 C51.900511,59.2093829 50.8385934,60.6298489 50.3580577,62.2790932 L43.6030714,56.7872796 C43.471706,56.6805416 43.3081154,56.6206549 43.1386484,56.6174433 L40.7412775,56.5707809 L40.7526511,52.8819899 L46.6966978,51.5941436 C47.0007527,51.5282116 47.2337225,51.2839421 47.283956,50.9777078 L49.843022,35.3928212 C49.8722143,35.2146725 49.8365769,35.031801 49.7421758,34.8776448 L48.7303022,33.2238665 L56.1023077,20.0573048 L58.403761,23.7544081 C59.6396951,25.7397355 62.4440522,27.2948992 64.7883462,27.2948992 C65.5661126,27.2948992 66.2972473,27.6370277 66.7940852,28.2336272 C67.2907335,28.8300378 67.4933736,29.6093199 67.3502555,30.3714106 L67.1580412,31.393073 C66.787261,33.3646096 65.6999423,35.1179471 64.0966401,36.3302267 L60.2807885,39.2149874 C57.306206,41.4638539 55.828772,45.1428212 56.4251291,48.815932 L56.943956,52.0133501 C57.3035522,54.2297229 56.3051374,56.4370277 54.4000549,57.636272 L54.4000549,57.636272 Z" id="Shape" fill="#000000"></path>
                        </g>
                    </g>
                </g>
            </g>
        </g>
    </g>
</svg>