<?xml version="1.0" encoding="UTF-8" standalone="no"?>
<svg width="23px" height="23px" viewBox="0 0 23 23" version="1.1" xmlns="http://www.w3.org/2000/svg" xmlns:xlink="http://www.w3.org/1999/xlink">
    <!-- Generator: sketchtool 40.1 (33804) - http://www.bohemiancoding.com/sketch -->
    <title>8A7D4082-9563-477A-9C37-34EA4BDF60B9</title>
    <desc>Created with sketchtool.</desc>
    <defs></defs>
    <g id="Web-Design" stroke="none" stroke-width="1" fill="none" fill-rule="evenodd">
        <g id="Produktai-d" transform="translate(-395.000000, -471.000000)" fill="#8B5B29">
            <g id="Group-23-Copy" transform="translate(395.000000, 471.000000)">
                <path d="M22.3331905,10.3042391 L17.6903888,10.3042391 L17.6903888,7.90140732 C17.6903888,7.40382658 17.2902738,7.00368303 16.7920933,7.00368303 C16.2943412,7.00368303 15.8942834,7.40382658 15.8942834,7.90140732 L15.8942834,10.3042391 L13.9399139,10.3042391 L13.9399139,6.02662682 C13.9399139,5.52821793 13.5397133,5.12816005 13.0417898,5.12816005 C12.543638,5.12816005 12.1434087,5.52821793 12.1434087,6.02662682 L12.1434087,10.3042391 L10.1890393,10.3042391 L10.1890393,6.02662682 C10.1890393,5.52821793 9.78898144,5.12816005 9.29162916,5.12816005 C8.79330594,5.12816005 8.39333373,5.52821793 8.39333373,6.02662682 L8.39333373,10.3042391 L8.37651353,10.3042391 L6.43922132,10.3042391 L6.43922132,7.90140732 C6.43922132,7.40382658 6.03907776,7.00368303 5.54124001,7.00368303 C5.04331659,7.00368303 4.6432016,7.40382658 4.6432016,7.90140732 L4.6432016,10.3042391 L0.000399800867,10.3042391 C0.217434557,7.56894434 1.41669437,5.11002622 3.24552632,3.28113716 C5.27240249,1.25440378 8.0731789,0 11.166581,0 C14.2599831,0 17.0607595,1.25440378 19.088064,3.28113716 C20.9167246,5.11002622 22.1159844,7.56894434 22.3331905,10.3042391 L22.3331905,10.3042391 Z M-1.75859327e-13,12.1006586 L4.6432016,12.1006586 L4.6432016,14.5033476 C4.6432016,15.001014 5.04331659,15.4006721 5.54124001,15.4006721 C6.03907776,15.4006721 6.43922132,14.9995576 6.43922132,14.5033476 L6.43922132,12.1006586 L8.37651353,12.1006586 L8.39333373,12.1006586 L8.39333373,16.3781281 C8.39333373,16.8760515 8.79330594,17.2763378 9.29162916,17.2763378 C9.78898144,17.2763378 10.1890393,16.8743381 10.1890393,16.3781281 L10.1890393,12.1006586 L12.1434087,12.1006586 L12.1434087,16.3781281 C12.1434087,16.8760515 12.543638,17.2763378 13.0417898,17.2763378 C13.5397133,17.2763378 13.9399139,16.8743381 13.9399139,16.3781281 L13.9399139,12.1006586 L15.8942834,12.1006586 L15.8942834,14.5033476 C15.8942834,15.001014 16.2943412,15.4006721 16.7920933,15.4006721 C17.2902738,15.4006721 17.6903888,14.9995576 17.6903888,14.5033476 L17.6903888,12.1006586 L22.3333333,12.1006586 C22.1164699,14.836039 20.9167246,17.2944717 19.088064,19.1233607 C17.0607595,21.1506653 14.2599831,22.4044122 11.166581,22.4044122 C8.0731789,22.4044122 5.27240249,21.1506653 3.24552632,19.1233607 C1.41669437,17.2944717 0.216863413,14.836039 -1.75859327e-13,12.1006586 L-1.75859327e-13,12.1006586 Z" id="Agro"></path>
            </g>
        </g>
    </g>
</svg>