<?xml version="1.0" encoding="UTF-8"?>
<svg width="16px" height="16px" viewBox="0 0 16 16" version="1.1" xmlns="http://www.w3.org/2000/svg" xmlns:xlink="http://www.w3.org/1999/xlink">
    <!-- Generator: sketchtool 41.2 (35397) - http://www.bohemiancoding.com/sketch -->
    <title>241EA35F-F267-4871-A8A2-1EE7EC8C707B</title>
    <desc>Created with sketchtool.</desc>
    <defs></defs>
    <g id="Web-Design" stroke="none" stroke-width="1" fill="none" fill-rule="evenodd">
        <g id="Produktai-d" transform="translate(-739.000000, -370.000000)" fill="#FFFFFF">
            <g id="Home-Copy" transform="translate(719.000000, 358.000000)">
                <g id="Home">
                    <g id="All-articles" transform="translate(20.000000, 12.000000)">
                        <path d="M4,2 C4,0.8954305 3.1045695,0 2,0 C0.8954305,0 0,0.8954305 0,2 C0,3.1045695 0.8954305,4 2,4 C3.1045695,4 4,3.1045695 4,2 Z M0.8,2 C0.8,1.3372583 1.3372583,0.8 2,0.8 C2.6627417,0.8 3.2,1.3372583 3.2,2 C3.2,2.6627417 2.6627417,3.2 2,3.2 C1.3372583,3.2 0.8,2.6627417 0.8,2 Z" id="Oval-2"></path>
                        <path d="M4,8 C4,6.8954305 3.1045695,6 2,6 C0.8954305,6 0,6.8954305 0,8 C0,9.1045695 0.8954305,10 2,10 C3.1045695,10 4,9.1045695 4,8 Z M0.8,8 C0.8,7.3372583 1.3372583,6.8 2,6.8 C2.6627417,6.8 3.2,7.3372583 3.2,8 C3.2,8.6627417 2.6627417,9.2 2,9.2 C1.3372583,9.2 0.8,8.6627417 0.8,8 Z" id="Oval-2-Copy-2"></path>
                        <path d="M4,14 C4,12.8954305 3.1045695,12 2,12 C0.8954305,12 0,12.8954305 0,14 C0,15.1045695 0.8954305,16 2,16 C3.1045695,16 4,15.1045695 4,14 Z M0.8,14 C0.8,13.3372583 1.3372583,12.8 2,12.8 C2.6627417,12.8 3.2,13.3372583 3.2,14 C3.2,14.6627417 2.6627417,15.2 2,15.2 C1.3372583,15.2 0.8,14.6627417 0.8,14 Z" id="Oval-2-Copy-6"></path>
                        <path d="M10,2 C10,0.8954305 9.1045695,0 8,0 C6.8954305,0 6,0.8954305 6,2 C6,3.1045695 6.8954305,4 8,4 C9.1045695,4 10,3.1045695 10,2 Z M6.8,2 C6.8,1.3372583 7.3372583,0.8 8,0.8 C8.6627417,0.8 9.2,1.3372583 9.2,2 C9.2,2.6627417 8.6627417,3.2 8,3.2 C7.3372583,3.2 6.8,2.6627417 6.8,2 Z" id="Oval-2-Copy"></path>
                        <path d="M16,2 C16,0.8954305 15.1045695,0 14,0 C12.8954305,0 12,0.8954305 12,2 C12,3.1045695 12.8954305,4 14,4 C15.1045695,4 16,3.1045695 16,2 Z M12.8,2 C12.8,1.3372583 13.3372583,0.8 14,0.8 C14.6627417,0.8 15.2,1.3372583 15.2,2 C15.2,2.6627417 14.6627417,3.2 14,3.2 C13.3372583,3.2 12.8,2.6627417 12.8,2 Z" id="Oval-2-Copy-4"></path>
                        <path d="M16,8 C16,6.8954305 15.1045695,6 14,6 C12.8954305,6 12,6.8954305 12,8 C12,9.1045695 12.8954305,10 14,10 C15.1045695,10 16,9.1045695 16,8 Z M12.8,8 C12.8,7.3372583 13.3372583,6.8 14,6.8 C14.6627417,6.8 15.2,7.3372583 15.2,8 C15.2,8.6627417 14.6627417,9.2 14,9.2 C13.3372583,9.2 12.8,8.6627417 12.8,8 Z" id="Oval-2-Copy-7"></path>
                        <path d="M10,8 C10,6.8954305 9.1045695,6 8,6 C6.8954305,6 6,6.8954305 6,8 C6,9.1045695 6.8954305,10 8,10 C9.1045695,10 10,9.1045695 10,8 Z M6.8,8 C6.8,7.3372583 7.3372583,6.8 8,6.8 C8.6627417,6.8 9.2,7.3372583 9.2,8 C9.2,8.6627417 8.6627417,9.2 8,9.2 C7.3372583,9.2 6.8,8.6627417 6.8,8 Z" id="Oval-2-Copy-3"></path>
                        <path d="M10,14 C10,12.8954305 9.1045695,12 8,12 C6.8954305,12 6,12.8954305 6,14 C6,15.1045695 6.8954305,16 8,16 C9.1045695,16 10,15.1045695 10,14 Z M6.8,14 C6.8,13.3372583 7.3372583,12.8 8,12.8 C8.6627417,12.8 9.2,13.3372583 9.2,14 C9.2,14.6627417 8.6627417,15.2 8,15.2 C7.3372583,15.2 6.8,14.6627417 6.8,14 Z" id="Oval-2-Copy-8"></path>
                        <path d="M16,14 C16,12.8954305 15.1045695,12 14,12 C12.8954305,12 12,12.8954305 12,14 C12,15.1045695 12.8954305,16 14,16 C15.1045695,16 16,15.1045695 16,14 Z M12.8,14 C12.8,13.3372583 13.3372583,12.8 14,12.8 C14.6627417,12.8 15.2,13.3372583 15.2,14 C15.2,14.6627417 14.6627417,15.2 14,15.2 C13.3372583,15.2 12.8,14.6627417 12.8,14 Z" id="Oval-2-Copy-9"></path>
                    </g>
                </g>
            </g>
        </g>
    </g>
</svg>