<?xml version="1.0" encoding="UTF-8" standalone="no"?>
<svg width="60px" height="89px" viewBox="0 0 60 89" version="1.1" xmlns="http://www.w3.org/2000/svg" xmlns:xlink="http://www.w3.org/1999/xlink">
    <!-- Generator: sketchtool 40.1 (33804) - http://www.bohemiancoding.com/sketch -->
    <title>D6615410-8430-47E9-966F-C2784B991F38</title>
    <desc>Created with sketchtool.</desc>
    <defs></defs>
    <g id="Web-Design" stroke="none" stroke-width="1" fill="none" fill-rule="evenodd">
        <g id="Product-line-professionals" transform="translate(-1253.000000, -4520.000000)" stroke-width="1.1" stroke="#000000">
            <g id="Group-19" transform="translate(1217.000000, 4521.000000)">
                <polygon id="America" points="89.9062011 54.0801362 87.5528108 51.7285859 85.2031005 51.7285859 80.5 47.0273254 78.1502898 47.0273254 75.7968995 44.6757751 71.0956389 44.6757751 69.9198638 45.8497102 67.5683135 45.8497102 61.6894378 39.9726746 59.3397276 39.9726746 56.9863373 37.6211243 56.9863373 35.269574 59.3397276 32.9198638 66.3925384 32.9198638 75.7968995 23.5136627 78.1502898 23.5136627 82.8515503 18.8105622 85.2031005 18.8105622 87.5528108 16.4590119 85.2031005 14.1074616 82.8515503 14.1074616 82.8515503 11.7577514 80.5 11.7577514 74.6229643 17.634787 69.9198638 12.9316865 72.269574 10.5801362 74.6229643 10.5801362 75.7968995 9.40436107 78.1502898 9.40436107 80.5 7.05465082 85.2031005 11.7577514 87.5528108 9.40436107 87.5528108 7.05465082 85.2031005 4.70310055 89.9062011 0 82.8515503 0 78.1502898 4.70310055 75.7968995 4.70310055 73.4453492 7.05465082 71.0956389 4.70310055 64.0409881 4.70310055 61.6894378 7.05465082 54.636627 7.05465082 53.4608519 5.87887568 46.4062011 5.87887568 45.230426 7.05465082 42.8807157 7.05465082 37 12.9316865 38.1776152 14.1074616 40.5291654 14.1074616 42.8807157 11.7577514 47.5819762 11.7577514 49.9335265 14.1074616 49.9335265 18.8105622 47.5819762 21.1621124 47.5819762 23.5136627 45.230426 25.865213 45.230426 28.2149232 49.9335265 32.9198638 49.9335265 35.269574 56.9863373 42.3242249 59.3397276 42.3242249 64.0409881 47.0273254 66.3925384 47.0273254 67.5683135 48.2031005 67.5683135 50.5509708 66.3925384 51.7285859 66.3925384 56.4316865 67.5683135 57.6056216 67.5683135 59.9571719 73.4453492 65.8360475 73.4453492 77.5937989 75.7968995 79.9453492 75.7968995 84.6466097 78.1502898 87 80.5 87 80.5 84.6466097 79.3242249 83.4726746 79.3242249 81.1174443 82.8515503 77.5937989 82.8515503 75.2404086 87.5528108 70.5391481 87.5546508 68.1894378 92.2559113 63.4844973 92.2577514 61.134787 94.6074616 58.7832367 94.6074616 56.4316865 92.2559113 54.0801362"></polygon>
            </g>
        </g>
    </g>
</svg>