<?xml version="1.0" encoding="UTF-8"?>
<svg width="35px" height="48px" viewBox="0 0 35 48" version="1.1" xmlns="http://www.w3.org/2000/svg" xmlns:xlink="http://www.w3.org/1999/xlink">
    <!-- Generator: sketchtool 41.2 (35397) - http://www.bohemiancoding.com/sketch -->
    <title>E2C37758-B9C0-4394-8E4C-71B5A9256769</title>
    <desc>Created with sketchtool.</desc>
    <defs></defs>
    <g id="Web-Design" stroke="none" stroke-width="1" fill="none" fill-rule="evenodd">
        <g id="Produkto-vidinis-d" transform="translate(-849.000000, -1899.000000)" fill="#CD3033">
            <g id="Group-7-Copy" transform="translate(817.000000, 1872.000000)">
                <g id="Group-8" transform="translate(32.000000, 26.000000)">
                    <g id="apple-(1)" transform="translate(0.000000, 1.000000)">
                        <path d="M33.7986814,21.7117762 C32.3672559,18.0106841 29.8407141,15.5570234 26.6840445,14.8026173 C24.2418352,14.2188918 21.6632466,14.7161119 19.2268822,16.2402116 C18.9679471,16.4021297 18.6936114,16.5240577 18.4114826,16.6072073 C18.2589605,13.3171095 20.5281444,10.3142136 23.8392844,9.66262599 C24.4103146,9.55020616 24.7825279,8.99416611 24.670734,8.42041481 C24.5589401,7.84666351 24.0052589,7.47249004 23.4343215,7.58500309 C22.4253005,7.78355553 21.4764905,8.14887338 20.6176723,8.660076 C20.5197947,6.42696696 19.6034559,4.26582153 17.9926035,2.64719967 C15.72778,0.37177006 12.3963223,-0.526097124 9.29810089,0.304280874 C8.93349512,0.401972403 8.64867584,0.688242141 8.55154041,1.05458538 C7.7260284,4.16822322 8.61973004,7.51536991 10.883533,9.790147 C12.5680488,11.4825968 14.8436342,12.4111324 17.1746062,12.4347164 C16.5603429,13.7061977 16.2631846,15.0955055 16.2995524,16.5058803 C16.1191977,16.4335438 15.9427397,16.3463859 15.7733325,16.240398 C13.3369681,14.7162051 10.7581012,14.2192647 8.31598467,14.8028038 C5.15940782,15.5571166 2.6326805,18.0108705 1.20144047,21.7119626 C-0.177381688,25.2773305 -0.376476853,29.6073584 0.640708325,33.9044807 C1.6578935,38.2016961 3.77594692,41.9780144 6.60465689,44.5378494 C9.54107864,47.1950963 12.8964723,48.2432294 16.0590795,47.4871455 C16.0608423,47.4866794 16.0716042,47.4842557 16.0733669,47.4837896 C17.0066835,47.2583907 17.9932529,47.2583907 18.9213741,47.4824846 L18.9467016,47.4886369 C19.6150528,47.6484111 20.2919392,47.7272727 20.9721656,47.7272727 C23.5050161,47.7272727 26.0806358,46.6324378 28.3952795,44.5378494 C31.2239894,41.9779212 33.3420429,38.2017893 34.3591353,33.9045739 C35.376506,29.607172 35.1774108,25.2770509 33.7986814,21.7117762 L33.7986814,21.7117762 Z M14.4781006,7.75587005 L17.0257023,10.3156118 C15.2986028,10.2562325 13.6233645,9.5488079 12.3736852,8.29298703 C10.787882,6.69972022 10.0799159,4.41860437 10.4540775,2.2153248 C12.6462581,1.83928699 14.916277,2.55034709 16.5025441,4.14426642 C17.7530584,5.40073982 18.4571279,7.0837747 18.5160401,8.81891795 L15.9679745,6.25871008 C15.5565173,5.84547864 14.889465,5.84547864 14.4780079,6.25871008 C14.0665507,6.67212795 14.0665507,7.34245218 14.4781006,7.75587005 L14.4781006,7.75587005 Z M32.3093642,33.4144383 C31.3901495,37.2977698 29.4993021,40.6893811 26.9852849,42.9644378 C24.578794,45.1421759 21.8970396,46.0172981 19.4379453,45.4295642 L19.4192048,45.4250898 C18.7919529,45.2735188 18.1467028,45.1977333 17.5009887,45.1977333 C16.8545325,45.1977333 16.2074268,45.2737984 15.5775773,45.4259288 C15.5765567,45.4261152 15.5666298,45.4284456 15.5657021,45.4287253 C13.1028967,46.0173913 10.4213279,45.1421759 8.014837,42.9644378 C5.50081985,40.6893811 3.60997243,37.2977698 2.69075766,33.4144383 C1.77154289,29.5310136 1.94020785,25.6473092 3.16558015,22.4785801 C4.33853456,19.4454818 6.34080477,17.4509154 8.80370288,16.8623425 C10.6865717,16.4124768 12.711479,16.8188102 14.6597541,18.0376238 C16.4118101,19.1336706 18.5885901,19.1334842 20.3406461,18.0376238 C22.289014,16.8189034 24.3139214,16.4123836 26.1966974,16.8623425 L26.1966046,16.8623425 C28.6594099,17.4509154 30.6617729,19.4453886 31.8348201,22.4785801 C33.0600068,25.6474024 33.228579,29.5310136 32.3093642,33.4144383 L32.3093642,33.4144383 Z" id="Shape"></path>
                        <path d="M10.575596,19.9357615 C10.4334605,19.3453844 9.83376784,18.9804012 9.23603436,19.1210547 C8.24363221,19.3540906 6.39577177,20.2102003 5.17032998,23.3248917 C4.08829719,26.0746966 3.94567183,29.6356291 4.77879593,33.0947958 C4.90036054,33.5995619 5.35654619,33.9393939 5.86004506,33.9393939 C5.94526763,33.9393939 6.03176364,33.9297204 6.11835761,33.9094059 C6.71609109,33.7690426 7.08529094,33.1766341 6.94325333,32.5865472 C6.21210244,29.5505985 6.3217163,26.4650246 7.24417716,24.1208318 C8.13382244,21.8600252 9.29343715,21.3660935 9.75079828,21.258717 C10.3484338,21.1183537 10.7178296,20.5260419 10.575596,19.9357615 L10.575596,19.9357615 Z" id="Shape"></path>
                    </g>
                </g>
            </g>
        </g>
    </g>
</svg>