<?xml version="1.0" encoding="UTF-8" standalone="no"?>
<svg width="40px" height="54px" viewBox="0 0 40 54" version="1.1" xmlns="http://www.w3.org/2000/svg" xmlns:xlink="http://www.w3.org/1999/xlink">
    <!-- Generator: sketchtool 40.1 (33804) - http://www.bohemiancoding.com/sketch -->
    <title>07A8779B-7AED-437B-8509-000CAE147756</title>
    <desc>Created with sketchtool.</desc>
    <defs></defs>
    <g id="Web-Design" stroke="none" stroke-width="1" fill="none" fill-rule="evenodd">
        <g id="Product-line-professionals" transform="translate(-1087.000000, -2183.000000)" fill="#8B5B29">
            <g id="apple" transform="translate(1087.000000, 2183.000000)">
                <path d="M38.3874737,24.5175789 C36.7633684,20.3382105 33.8967368,17.5674737 30.3151579,16.7155789 C27.5442105,16.0564211 24.6185263,16.6178947 21.8542105,18.3389474 C21.5604211,18.5217895 21.2491579,18.6594737 20.9290526,18.7533684 C20.756,15.0381053 23.3306316,11.6471579 27.0874737,10.9113684 C27.7353684,10.7844211 28.1576842,10.1565263 28.0308421,9.50863158 C27.904,8.86073684 27.2757895,8.43821053 26.628,8.56526316 C25.4831579,8.78947368 24.4066316,9.202 23.4322105,9.77926316 C23.3211579,7.25757895 22.2814737,4.81715789 20.4537895,2.98936842 C17.8841053,0.419894737 14.1042105,-0.594 10.5889474,0.343684211 C10.1752632,0.454 9.85210526,0.777263158 9.74189474,1.19094737 C8.80526316,4.70694737 9.81926316,8.48663158 12.3877895,11.0553684 C14.2990526,12.9665263 16.8809474,14.0150526 19.5256842,14.0416842 C18.8287368,15.4774737 18.4915789,17.0463158 18.5328421,18.6389474 C18.3282105,18.5572632 18.128,18.4588421 17.9357895,18.3391579 C15.1714737,16.618 12.2454737,16.0568421 9.47463158,16.7157895 C5.89315789,17.5675789 3.02631579,20.3384211 1.40242105,24.5177895 C-0.162,28.5438947 -0.387894737,33.4334737 0.766210526,38.2858947 C1.92031579,43.1384211 4.32347368,47.4027368 7.53294737,50.2933684 C10.8646316,53.294 14.6716842,54.4775789 18.26,53.6237895 C18.262,53.6232632 18.2742105,53.6205263 18.2762105,53.62 C19.3351579,53.3654737 20.4545263,53.3654737 21.5075789,53.6185263 L21.5363158,53.6254737 C22.2946316,53.8058947 23.0626316,53.8949474 23.8344211,53.8949474 C26.7082105,53.8949474 29.6305263,52.6586316 32.2567368,50.2933684 C35.4662105,47.4026316 37.8693684,43.1385263 39.0233684,38.286 C40.1776842,33.4332632 39.9517895,28.5435789 38.3874737,24.5175789 L38.3874737,24.5175789 Z M16.4662105,8.75821053 L19.3567368,11.6487368 C17.3971579,11.5816842 15.4964211,10.7828421 14.0785263,9.36473684 C12.2792632,7.56557895 11.476,4.98968421 11.9005263,2.50168421 C14.3877895,2.07705263 16.9633684,2.88 18.7631579,4.67989474 C20.182,6.09873684 20.9808421,7.99926316 21.0476842,9.95863158 L18.1566316,7.06757895 C17.6897895,6.60094737 16.9329474,6.60094737 16.4661053,7.06757895 C15.9992632,7.53442105 15.9992632,8.29136842 16.4662105,8.75821053 L16.4662105,8.75821053 Z M36.6976842,37.7325263 C35.6547368,42.1176842 33.5093684,45.9475789 30.6569474,48.5166316 C27.9265263,50.9757895 24.8837895,51.964 22.0936842,51.3003158 L22.0724211,51.2952632 C21.3607368,51.1241053 20.6286316,51.0385263 19.896,51.0385263 C19.1625263,51.0385263 18.4283158,51.1244211 17.7136842,51.2962105 C17.7125263,51.2964211 17.7012632,51.2990526 17.7002105,51.2993684 C14.9058947,51.9641053 11.8633684,50.9757895 9.13294737,48.5166316 C6.28052632,45.9475789 4.13515789,42.1176842 3.09221053,37.7325263 C2.04926316,33.3472632 2.24063158,28.9616842 3.63094737,25.3834737 C4.96178947,21.9584211 7.23357895,19.7061053 10.028,19.0414737 C12.1643158,18.5334737 14.4617895,18.9923158 16.6723158,20.3686316 C18.6602105,21.6063158 21.13,21.6061053 23.1178947,20.3686316 C25.3285263,18.9924211 27.626,18.5333684 29.7622105,19.0414737 L29.7621053,19.0414737 C32.5564211,19.7061053 34.8283158,21.9583158 36.1592632,25.3834737 C37.5493684,28.9617895 37.7406316,33.3472632 36.6976842,37.7325263 L36.6976842,37.7325263 Z" id="Shape"></path>
                <path d="M12.1370526,22.7437895 C11.9843158,22.1013684 11.3398947,21.7042105 10.6975789,21.8572632 C9.63115789,22.1108421 7.64547368,23.0424211 6.32863158,26.4316842 C5.16589474,29.4238947 5.01263158,33.2987368 5.90789474,37.0628421 C6.03852632,37.6121053 6.52873684,37.9818947 7.06978947,37.9818947 C7.16136842,37.9818947 7.25431579,37.9713684 7.34736842,37.9492632 C7.98968421,37.7965263 8.38642105,37.1518947 8.23378947,36.5097895 C7.44810526,33.2062105 7.56589474,29.8486316 8.55715789,27.2977895 C9.51315789,24.8376842 10.7592632,24.3002105 11.2507368,24.1833684 C11.8929474,24.0306316 12.2898947,23.3861053 12.1370526,22.7437895 L12.1370526,22.7437895 Z" id="Shape"></path>
            </g>
        </g>
    </g>
</svg>