<?xml version="1.0" encoding="UTF-8" standalone="no"?>
<svg width="33px" height="45px" viewBox="0 0 33 45" version="1.1" xmlns="http://www.w3.org/2000/svg" xmlns:xlink="http://www.w3.org/1999/xlink">
    <!-- Generator: sketchtool 40.1 (33804) - http://www.bohemiancoding.com/sketch -->
    <title>2808DAF1-495B-4A04-9B9F-C4F06D098381</title>
    <desc>Created with sketchtool.</desc>
    <defs></defs>
    <g id="Web-Design" stroke="none" stroke-width="1" fill="none" fill-rule="evenodd">
        <g id="Produktai-d" transform="translate(-395.000000, -736.000000)" fill="#FFFFFF">
            <g id="Group-2" transform="translate(375.000000, 728.000000)">
                <g id="apple-(1)" transform="translate(20.000000, 8.000000)">
                    <path d="M31.8673282,20.4711032 C30.5176984,16.9815021 28.1355304,14.6680506 25.1592419,13.9567535 C22.8565875,13.4063837 20.4253468,13.8751912 18.1282032,15.3121995 C17.8840644,15.4648651 17.6254051,15.5798258 17.3593979,15.658224 C17.2155913,12.5561318 19.3551076,9.72482995 22.4770396,9.11047594 C23.0154395,9.00448009 23.3663835,8.48021376 23.2609778,7.93924825 C23.1555721,7.39828274 22.6335298,7.04549061 22.0952174,7.15157434 C21.1438548,7.33878093 20.2492625,7.68322347 19.4395196,8.16521451 C19.347235,6.0597117 18.4832584,4.0220603 16.9644547,2.49593111 C14.8290497,0.350526057 11.687961,-0.496034431 8.76678084,0.286893395 C8.42300968,0.379002551 8.1544658,0.648914019 8.06288096,0.994323354 C7.28454106,3.93003903 8.12717404,7.0859202 10.2616168,9.23071003 C11.8498746,10.8264484 13.9954265,11.7019249 16.1932002,11.7241611 C15.6140376,12.9229864 15.3338597,14.2329052 15.3681494,15.5626872 C15.1981007,15.4944842 15.031726,15.4123067 14.8719992,15.3123753 C12.5748556,13.8752791 10.1433525,13.4067353 7.84078554,13.9569293 C4.86458452,14.6681385 2.48224162,16.9816779 1.13278673,20.471279 C-0.167245591,23.8329116 -0.35496389,27.9155094 0.604096421,31.9670818 C1.56315673,36.0187421 3.56017852,39.5792707 6.22724792,41.9928294 C8.99587414,44.4982336 12.159531,45.4864735 15.1414179,44.7735943 C15.1430799,44.7731548 15.1532268,44.7708697 15.1548888,44.7704302 C16.034873,44.5579112 16.965067,44.5579112 17.8401527,44.7691998 L17.864033,44.7750005 C18.4941926,44.9256447 19.1323999,45 19.7737561,45 C22.1618723,45 24.5903138,43.9677271 26.7726921,41.9928294 C29.4397615,39.5791828 31.4367833,36.0188299 32.3957561,31.9671697 C33.3549914,27.9153336 33.1672731,23.832648 31.8673282,20.4711032 L31.8673282,20.4711032 Z M13.6507806,7.31267748 L16.0528051,9.7261483 C14.4243969,9.67016211 12.8448865,9.00316174 11.6666174,7.81910205 C10.1714316,6.31687906 9.50392069,4.16611269 9.85670163,2.08873482 C11.9236148,1.73418488 14.0639183,2.40461297 15.5595416,3.9074512 C16.7385979,5.09212611 17.4024349,6.67898758 17.4579806,8.31497978 L15.0555188,5.9010695 C14.6675735,5.51145129 14.0386385,5.51145129 13.6506931,5.9010695 C13.2627478,6.2908635 13.2627478,6.92288348 13.6507806,7.31267748 L13.6507806,7.31267748 Z M30.4631149,31.5050418 C29.5964267,35.1664687 27.8136277,38.3642736 25.4432686,40.5093271 C23.1742915,42.562623 20.6457802,43.3877382 18.3272056,42.8335891 L18.3095359,42.8293704 C17.718127,42.6864606 17.1097483,42.6150057 16.5009322,42.6150057 C15.8914163,42.6150057 15.2812881,42.6867242 14.68743,42.8301614 C14.6864678,42.8303372 14.6771081,42.8325344 14.6762334,42.8327981 C12.3541598,43.3878261 9.82582345,42.562623 7.55684631,40.5093271 C5.18648729,38.3642736 3.40368829,35.1664687 2.53700008,31.5050418 C1.67031187,27.8435271 1.82933883,24.1817487 2.98468985,21.1940898 C4.0906183,18.3343114 5.97847307,16.4537202 8.30063415,15.8987801 C10.0759104,15.474621 11.9851087,15.8577353 13.8220539,17.0069025 C15.4739924,18.040318 17.526385,18.0401422 19.1783235,17.0069025 C21.0153561,15.8578232 22.9245544,15.4745331 24.6997432,15.8987801 L24.6996557,15.8987801 C27.0217294,16.4537202 28.9096716,18.3342235 30.0156875,21.1940898 C31.1708636,24.1818366 31.3298031,27.8435271 30.4631149,31.5050418 L30.4631149,31.5050418 Z" id="Apple"></path>
                </g>
            </g>
        </g>
    </g>
</svg>