<?xml version="1.0" encoding="UTF-8" standalone="no"?>
<svg width="48px" height="54px" viewBox="0 0 48 54" version="1.1" xmlns="http://www.w3.org/2000/svg" xmlns:xlink="http://www.w3.org/1999/xlink">
    <!-- Generator: sketchtool 40.1 (33804) - http://www.bohemiancoding.com/sketch -->
    <title>67DDB465-E8B0-4842-BDAE-289346151FAE</title>
    <desc>Created with sketchtool.</desc>
    <defs></defs>
    <g id="Web-Design" stroke="none" stroke-width="1" fill="none" fill-rule="evenodd">
        <g id="Product-line-professionals" transform="translate(-494.000000, -2469.000000)" fill="#8B5B29">
            <g id="berry" transform="translate(494.000000, 2469.000000)">
                <path d="M41.5157221,35.8230839 C40.9558932,32.0000474 39.1077617,28.4840309 36.2455469,25.8351796 C33.3978868,23.2009886 29.7696513,21.6368849 25.9272086,21.363615 C26.2285332,14.6487269 29.3003148,8.3763863 34.4627007,4.01914988 C34.956717,3.60244228 35.0198929,2.86373815 34.6031853,2.36972185 C34.1853175,1.87570555 33.4466134,1.81368984 32.9525971,2.23039744 C31.7301071,3.2623051 30.6162502,4.39345899 29.6147175,5.6048747 C27.1615111,7.28826372 24.4246987,8.42005042 21.5774605,8.97059804 C21.6737536,6.4382899 20.6719046,3.94131384 18.7854879,2.17534268 C17.662877,1.12413421 16.2744845,0.383109765 14.7701817,0.0307381907 C14.1404269,-0.116707323 13.5105667,0.275426025 13.3631211,0.904020632 C12.8257571,3.20081673 13.21441,5.56785512 14.4588375,7.57197504 C14.8552951,8.20932357 15.321784,8.78581654 15.8492339,9.29238364 C14.7213496,9.20357883 13.594098,9.02523093 12.4777098,8.75470322 C10.874899,6.23252009 8.07269596,4.6734789 5.06451217,4.65945154 C3.52614288,4.65017027 2.00433221,5.05169035 0.661607722,5.8161289 C0.0996694554,6.13569964 -0.0969245628,6.84982953 0.222646186,7.41166232 C1.84866012,10.2692365 4.83733217,11.8729965 7.91027386,11.8729965 C9.20733032,11.8729965 10.5208399,11.5862266 11.7511346,10.988007 C11.7525057,10.9872688 11.7539822,10.986636 11.7553533,10.9858977 C13.0519879,11.3105309 14.3618061,11.5232617 15.672679,11.6261993 C15.6719407,11.6269376 15.6712024,11.6275704 15.6704641,11.6283087 C15.2150495,12.0906843 14.8088887,12.6069546 14.4588375,13.1712132 C13.21441,15.1753331 12.8257571,17.5435316 13.3631211,19.8391676 C13.4895783,20.3788519 13.9707274,20.7429305 14.5021852,20.7429305 C14.5899353,20.7429305 16.9341924,20.3735784 18.7855934,18.5690057 C20.7371898,16.6668742 21.78091,14.0288862 21.551937,11.3567263 C23.3359433,11.0489681 25.0843012,10.5367056 26.7627332,9.82521249 C24.8538517,13.3397524 23.7523345,17.2747969 23.5845335,21.3579196 C19.7083407,21.6132598 16.0468826,23.1806331 13.1782342,25.8352851 C10.3149646,28.4841364 8.46767697,32.0001529 7.90805901,35.8231894 C4.75432815,36.2995924 2.32991469,39.0295492 2.32991469,42.3143779 C2.32991469,45.5360307 4.66067177,48.2214797 7.72422673,48.7751914 C7.7243322,48.7751914 7.72454314,48.7751914 7.72485955,48.7752969 L7.72485955,50.1433339 C7.72485955,50.7898582 8.24893448,51.3139332 8.8954588,51.3139332 C9.54198312,51.3139332 10.0660581,50.7898582 10.0660581,50.1433339 L10.0660581,48.7750859 C11.2435128,48.5631989 12.3121236,48.0352217 13.1817146,47.2837558 C13.978954,49.4272001 15.8660035,51.0449875 18.1651199,51.4606404 L18.1655418,51.4606404 L18.1655418,52.8290993 C18.1655418,53.4756236 18.6896167,53.9996985 19.336141,53.9996985 C19.9826653,53.9996985 20.5067403,53.4756236 20.5067403,52.8290993 L20.5067403,51.4615896 C22.2390668,51.1488743 23.737358,50.1539863 24.7112577,48.7656992 C25.6851575,50.1528261 27.1822884,51.1478197 28.9147205,51.4615896 L28.9147205,52.8290993 C28.9147205,53.4756236 29.4387954,53.9996985 30.0853197,53.9996985 C30.7318441,53.9996985 31.255919,53.4756236 31.255919,52.8290993 L31.255919,51.4616951 C31.2560245,51.4616951 31.2561299,51.4616951 31.2562354,51.4615896 C33.5576721,51.0460422 35.4448271,49.4269892 36.2431211,47.2835448 C37.1116575,48.0361709 38.1790027,48.5627771 39.3554027,48.774875 L39.3554027,50.143123 C39.3554027,50.7896473 39.8794776,51.3137222 40.526002,51.3137222 C41.1725263,51.3137222 41.6966012,50.7896473 41.6966012,50.143123 L41.6966012,48.7749805 C41.6967067,48.7749805 41.6969176,48.7749805 41.6970231,48.774875 C44.7617382,48.2223235 47.0936554,45.5357143 47.0936554,42.314167 C47.0938664,39.0294437 44.6682928,36.3007525 41.5157221,35.8230839 L41.5157221,35.8230839 Z M3.0157789,7.32148642 C3.96605364,7.00075551 5.05269965,7.00075551 5.05269965,7.00075551 C6.92804205,7.01014224 8.6933804,7.83427618 9.90616721,9.21444213 C7.4466326,10.0163221 4.71910154,9.26717657 3.0157789,7.32148642 L3.0157789,7.32148642 Z M17.1863685,16.8587221 C16.6806452,17.3316446 16.1011991,17.7202975 15.4726045,18.008333 C15.435163,16.7475579 15.767601,15.5031304 16.4477699,14.4062539 C17.1279388,13.3105376 18.0960378,12.4606692 19.2420628,11.9350122 C19.2912113,13.771753 18.5559876,15.5780133 17.1863685,16.8587221 L17.1863685,16.8587221 Z M19.2419573,8.80828142 C18.0959323,8.28262445 17.1278333,7.4327561 16.4476644,6.33703976 C15.7674955,5.24016327 15.4350576,3.99573579 15.472499,2.73496063 C16.1010936,3.02415634 16.6806452,3.41154358 17.1862631,3.88457157 C18.5559876,5.16633504 19.2912113,6.97154063 19.2419573,8.80828142 L19.2419573,8.80828142 Z M8.89472052,46.5391454 C6.56628375,46.5391454 4.67100772,44.6438694 4.67100772,42.3142724 C4.67100772,39.9846755 6.56628375,38.0893995 8.89472052,38.0893995 C11.2243174,38.0893995 13.1195935,39.9846755 13.1195935,42.3142724 C13.1195935,44.6438694 11.2243174,46.5391454 8.89472052,46.5391454 L8.89472052,46.5391454 Z M10.2660271,35.8922715 C10.7951645,32.703314 12.3677057,29.7746538 14.7678613,27.5536898 C16.5908912,25.8668203 18.7863317,24.691264 21.1525263,24.1003218 C20.6956351,24.9418581 20.2785056,25.97134 19.9034582,27.1907713 C18.9697421,30.2249005 18.3766905,34.2199567 18.2124754,38.5318415 C18.2122645,38.5318415 18.2120535,38.5318415 18.2118426,38.531947 C17.0178293,38.7379277 15.9326598,39.2694909 15.0511508,40.0303435 C14.2762708,37.9491259 12.4747567,36.3629792 10.2660271,35.8922715 L10.2660271,35.8922715 Z M19.3368793,49.2245944 C17.0072824,49.2245944 15.1120063,47.3293183 15.1120063,44.9997214 C15.1120063,42.6712846 17.0072824,40.7760086 19.3368793,40.7760086 C21.6664762,40.7760086 23.5605921,42.6712846 23.5605921,44.9997214 C23.5604866,47.3293183 21.6663708,49.2245944 19.3368793,49.2245944 L19.3368793,49.2245944 Z M24.7112577,41.2337436 C23.74569,39.8598003 22.2664888,38.8707131 20.5554669,38.5485056 C20.7150413,34.4650664 21.2700187,30.7092136 22.1417191,27.8790613 C22.6486026,26.2319536 23.1754197,25.1830655 23.6319945,24.5416037 C24.0885694,23.901302 24.4736363,23.6706415 24.6937499,23.6600946 L24.728871,23.6600946 C25.0156409,23.6729619 25.417161,24.0078256 25.8034936,24.555631 C26.332631,25.3072024 26.8441552,26.4567078 27.282062,27.8790613 C28.1537624,30.7096355 28.7090561,34.4645391 28.8682087,38.5482946 C27.156554,38.8703966 25.6770364,39.8595894 24.7112577,41.2337436 L24.7112577,41.2337436 Z M30.0867963,49.2245944 C27.7571994,49.2245944 25.8619234,47.3293183 25.8619234,44.9997214 C25.8619234,42.6712846 27.7571994,40.7760086 30.0867963,40.7760086 C32.4152331,40.7760086 34.3105091,42.6712846 34.3105091,44.9997214 C34.3105091,47.3293183 32.4152331,49.2245944 30.0867963,49.2245944 L30.0867963,49.2245944 Z M34.3725248,40.0316092 C33.492176,39.2694909 32.4070065,38.7391933 31.211833,38.5320524 C31.2116221,38.5320524 31.2115166,38.5320524 31.2112002,38.531947 C31.0469851,34.2202731 30.4539335,30.2260606 29.5190572,27.1897167 C29.1430606,25.9691251 28.7254038,24.9394323 28.2679852,24.0973687 C30.6352346,24.6881 32.830886,25.866293 34.6546541,27.5537953 C37.055548,29.7753921 38.6281947,32.7028921 39.1574376,35.892166 C39.1573321,35.892166 39.1571212,35.8922715 39.1570157,35.8922715 C36.9467041,36.3640339 35.1463501,37.9491259 34.3725248,40.0316092 L34.3725248,40.0316092 Z M40.5277949,46.5391454 C38.198198,46.5391454 36.302922,44.6438694 36.302922,42.3142724 C36.302922,39.9846755 38.198198,38.0893995 40.5277949,38.0893995 C42.8573919,38.0893995 44.7526679,39.9846755 44.7526679,42.3142724 C44.7526679,44.6438694 42.8572864,46.5391454 40.5277949,46.5391454 L40.5277949,46.5391454 Z" id="Shape"></path>
            </g>
        </g>
    </g>
</svg>