<?xml version="1.0" encoding="UTF-8"?>
<svg width="24px" height="25px" viewBox="0 0 24 25" version="1.1" xmlns="http://www.w3.org/2000/svg" xmlns:xlink="http://www.w3.org/1999/xlink">
    <!-- Generator: sketchtool 41.2 (35397) - http://www.bohemiancoding.com/sketch -->
    <title>9DD9CD5D-E218-449E-9F9D-72C0BBAA0934</title>
    <desc>Created with sketchtool.</desc>
    <defs></defs>
    <g id="Web-Design" stroke="none" stroke-width="1" fill="none" fill-rule="evenodd">
        <g id="Produkto-vidinis-d" transform="translate(-834.000000, -1080.000000)" fill="#658D1B">
            <g id="drop" transform="translate(834.000000, 1080.000000)">
                <g id="Group">
                    <path d="M22.4143066,16.7939453 C21.8541504,16.4440918 21.1652832,16.4083008 20.5719238,16.6980469 L16.276709,18.7954102 L16.276709,18.5203125 C16.276709,17.4532227 15.4085449,16.5850586 14.3414062,16.5850586 L10.1994629,16.5850586 C9.35136719,16.5850586 8.51044922,16.4579102 7.70009766,16.2070801 L5.00639648,15.373291 L5.00639648,14.2624512 C5.00639648,13.9318359 4.73828125,13.6637207 4.40766602,13.6637207 L0.629443359,13.6637207 C0.298828125,13.6637207 0.0307128906,13.9318359 0.0307128906,14.2624512 L0.0307128906,24.2744141 C0.0307128906,24.6050293 0.298828125,24.8731445 0.629443359,24.8731445 L4.40756836,24.8731445 C4.73818359,24.8731445 5.00629883,24.6050293 5.00629883,24.2744141 L5.00629883,23.2018555 L5.48081055,23.5834961 C6.61660156,24.4969238 8.04472656,24.9999512 9.50214844,24.9999512 L13.1415039,24.9999512 C14.4375488,24.9999512 15.6882812,24.6137695 16.7586914,23.8832031 L22.4789551,19.9788574 C22.9986816,19.6242676 23.3089355,19.0368652 23.3089355,18.407666 C23.3089844,17.7470703 22.9745605,17.1438477 22.4143066,16.7939453 L22.4143066,16.7939453 Z M3.80888672,23.6757812 L3.80883789,23.6757812 L1.22822266,23.6757812 L1.22822266,14.8612793 L3.80888672,14.8612793 L3.80888672,23.6757812 L3.80888672,23.6757812 Z M21.8039551,18.9897461 L16.0836426,22.8940918 C15.2130371,23.4883789 14.1957031,23.8024902 13.1415039,23.8024902 L9.50214844,23.8024902 C8.31669922,23.8024902 7.15507812,23.3933105 6.23129883,22.6503906 L5.00629883,21.6650879 L5.00629883,16.6269043 L7.34599609,17.3510742 C8.27114258,17.6374023 9.23120117,17.7825684 10.1994141,17.7825684 L14.3413574,17.7825684 C14.7481934,17.7825684 15.0791992,18.1134766 15.0791992,18.5203125 L15.0791992,19.3061035 C14.3041504,19.5124512 12.5243164,19.8891602 10.7038574,19.5961914 C10.3775879,19.5435547 10.070166,19.7657715 10.0175781,20.0921875 C9.96508789,20.4187012 10.1870605,20.7258789 10.5135742,20.7784668 C11.0595703,20.8663574 11.5989258,20.9015625 12.1130859,20.9015625 C14.1349121,20.9015625 15.7658691,20.3567871 15.8695801,20.3213867 L15.8696289,20.3213867 C15.8702637,20.3211426 15.8715332,20.320752 15.8720215,20.3205566 C15.8941895,20.3129395 15.9153809,20.3039062 15.9360352,20.2940918 C15.9375488,20.2933594 15.9391602,20.2929687 15.9405762,20.2922363 L21.0973145,17.7741211 C21.320459,17.6651367 21.5692383,17.6780762 21.7799316,17.809668 C21.990625,17.9412109 22.1114258,18.1592285 22.1114258,18.4075684 C22.1115234,18.6407227 21.996582,18.8583984 21.8039551,18.9897461 L21.8039551,18.9897461 Z" id="Shape"></path>
                    <path d="M12.5878906,12.3179199 C15.2290527,12.3179199 17.3777832,10.1691895 17.3777832,7.52802734 C17.3777832,5.05351562 13.4759766,0.686035156 13.0310547,0.196142578 C12.917627,0.0711914062 12.7567383,0 12.5878906,0 C12.419043,0 12.2581543,0.0711914062 12.1447266,0.196142578 C11.6998047,0.686035156 7.79799805,5.05351563 7.79799805,7.52802734 C7.79799805,10.1692383 9.94677734,12.3179199 12.5878906,12.3179199 L12.5878906,12.3179199 Z M12.5880371,1.50522461 C13.889502,3.02426758 16.1803223,6.0125 16.1803223,7.52807617 C16.1803223,9.50893555 14.56875,11.1205078 12.5878906,11.1205078 C10.6070312,11.1205078 8.99545898,9.50893555 8.99545898,7.52807617 C8.99550781,6.0140625 11.2864746,3.02485352 12.5880371,1.50522461 L12.5880371,1.50522461 Z" id="Shape"></path>
                    <path d="M12.5878906,9.92299805 C13.8962402,9.92299805 14.9705566,8.85878906 14.9827637,7.55073242 C14.9858398,7.22011719 14.7202637,6.94946289 14.3896484,6.94638672 L14.3838867,6.94638672 C14.0558594,6.94638672 13.7883789,7.21079102 13.7852539,7.53950195 C13.7791504,8.19350586 13.242041,8.72553711 12.5878418,8.72553711 C12.2572266,8.72553711 11.9891113,8.99365234 11.9891113,9.32426758 C11.9891602,9.65488281 12.2572754,9.92299805 12.5878906,9.92299805 L12.5878906,9.92299805 Z" id="Shape"></path>
                </g>
            </g>
        </g>
    </g>
</svg>