<?xml version="1.0" encoding="UTF-8" standalone="no"?>
<svg width="120px" height="70px" viewBox="0 0 120 70" version="1.1" xmlns="http://www.w3.org/2000/svg" xmlns:xlink="http://www.w3.org/1999/xlink">
    <!-- Generator: sketchtool 40.1 (33804) - http://www.bohemiancoding.com/sketch -->
    <title>0DCBA1F3-7760-4C43-9187-D73C8CDF4BC1</title>
    <desc>Created with sketchtool.</desc>
    <defs></defs>
    <g id="Web-Design" stroke="none" stroke-width="1" fill="none" fill-rule="evenodd">
        <g id="Product-line-professionals" transform="translate(-791.000000, -4534.000000)" stroke-width="1.20000005" stroke="#000000">
            <g id="Group-18" transform="translate(786.000000, 4534.000000)">
                <g id="East-Europe" transform="translate(5.000000, 0.000000)">
                    <g id="Group">
                        <g transform="translate(0.956291, 0.670650)" id="Shape">
                            <path d="M69.916522,26.747113 C70.2249282,28.2257279 71.1370543,29.2367919 72.0211139,30.2695916 C71.3310796,31.2773681 70.8676629,32.2725175 70.8321563,33.243824 C69.1826265,33.7685281 69.7325522,34.8791702 70.3675065,36.012464 L70.5178335,37.6983195 C70.2186453,37.9331191 69.8256563,38.1504974 70.4768376,38.5618063 C70.5094335,39.2721012 70.8468612,39.8125491 71.2011453,40.3436047 C70.7868869,42.7289739 71.8671355,42.1934579 72.8274208,41.8923977 C73.5742041,43.0303718 74.5766216,44.0529735 74.6450229,45.4971128 C74.8454118,46.008857 75.1379694,46.4281644 75.6289886,46.6484286 C75.5888743,47.6907089 75.4428012,48.7507005 75.601658,49.7597223 C76.5529151,50.6760996 77.0552094,49.2848202 77.7472482,48.8688237 C78.5909853,49.3323698 78.9298384,49.025367 78.9362057,48.2109293 C79.7059837,47.4431104 79.8211886,44.5127446 81.7104404,47.4433854 C82.0906065,47.2568981 82.3734404,47.0313642 82.5714098,46.7717846 C83.5909335,48.11863 84.4734796,49.5615535 85.7419641,50.8013898 C87.0607163,51.2359768 88.5833486,51.4485619 88.6801935,53.2136696 C88.9376853,53.8814795 89.4117845,54.2886019 89.841818,54.7487574 L69.916522,26.747113 Z M26.731391,40.8644379 C27.2643722,40.0325051 27.7973535,39.5405205 28.3303347,38.9866965 C28.5699527,39.2068932 28.8046163,39.4419998 28.9726445,39.8775951 C28.8210588,40.8623846 28.4808612,41.1283563 28.1526735,41.4400958 C28.3531114,41.7233563 28.4442196,42.1710898 28.425998,42.7832975 C28.654811,41.5536161 30.3320339,42.4970025 31.0635698,42.2624644 C30.93594,41.9950889 30.9178408,41.8738796 31.0057127,41.5704837 C31.4927596,41.5767468 31.9594298,41.4602767 32.4792465,41.6636696 C33.1798016,42.6657626 34.0769755,42.3663874 34.9530894,42.2064042 C35.5779894,42.5578963 36.199342,42.9150781 37.0017404,42.9817414 C36.7558873,44.2153268 36.1752012,44.878034 35.5715498,45.5015842 C34.6234322,45.5892684 34.9833012,46.1579472 35.069051,46.6258223 C35.1106102,47.0134909 35.0119531,47.4011582 34.7984743,47.7888268 C34.5066673,47.970537 33.8723118,47.7872304 34.1027057,48.5253963 L33.7741482,48.8742972 C33.394429,48.2061177 33.12348,48.3197412 32.9624192,49.2231993 C32.5912163,49.3609446 31.9027212,49.3302133 32.0927082,49.7659339 C31.4284127,50.5766702 32.4866927,50.6870233 33.0783796,50.9870888 C32.9907306,51.7347772 32.8814804,52.463503 31.9380931,52.4602277 C31.5939367,52.1030263 31.3237604,51.5444325 30.7398257,51.8399589 C30.70734,52.3116214 30.771442,52.7832851 31.0297286,53.2549475 C31.450369,53.3168914 31.843571,53.3237932 32.2279971,53.3130967 C32.4537576,53.5929861 32.375269,53.9745881 32.4019384,54.321034 C32.0476114,54.1132716 31.6932857,53.9414953 31.3389588,54.3791832 C30.7446882,55.0795454 30.317531,55.7938758 30.1600188,56.5307412 C30.5134029,56.4707009 30.8778931,56.4329377 31.3389588,56.5888904 C31.4277833,56.9107749 31.3091547,57.0662167 31.2239792,57.2484979 C31.2823873,57.9259739 31.5723833,58.3711849 31.9574302,58.7210658 L26.731391,40.8644379 Z M15.7228224,30.2080763 C11.6651131,31.7281619 12.2627473,33.0360235 11.316289,34.4142756 C11.3583502,35.1456307 11.5291837,35.8417647 12.1342114,36.4191346 C11.3596922,37.0520254 10.7087317,37.9416075 10.6483931,40.0581975 C10.1024811,40.2113367 9.98972192,39.6694065 9.67350318,39.4539625 C9.1663189,39.9397232 8.6120531,40.3940035 8.55254302,41.1790854 C9.46730216,41.6202942 11.2326992,41.9084461 9.20972547,43.5516396 C9.83319551,44.0955286 9.86110237,44.7057861 9.09369649,45.4046698 C9.70953918,46.2372867 10.8808287,46.7294702 10.6670952,48.0705326 C11.2401673,48.4988061 11.586982,49.0405386 11.6448465,49.7271698 C11.8161661,50.1454751 11.3485959,50.1366084 10.9203503,50.1540347 C10.3872527,50.6335568 10.0783583,52.5907237 9.22353869,50.9498918 C8.7001729,50.9178023 8.14783224,50.6968344 7.72148669,51.2972256 C8.30048302,52.176336 7.56326816,52.0036754 6.76104588,51.7489933 C6.34042188,52.5515851 5.84005212,52.9880646 4.80118261,52.7055642 C4.52877478,53.0419596 4.23514249,53.3028251 4.47673922,53.7423219 C5.10791265,54.8745867 5.1371869,55.9691226 4.9480009,57.0499656 C5.69925392,57.3495779 7.96770086,59.8718228 7.88914102,61.3458877 C9.62211367,61.6981768 9.84013984,63.9204681 10.2919641,65.8541665 C10.8588863,65.895356 11.4258086,66.0815547 11.9927314,65.7378682 C12.0031396,64.4590284 11.6448967,63.0914286 12.867142,62.1042677 C13.1161555,60.5391795 14.0083053,60.1566233 15.181669,60.2911302 C16.1054241,60.3466758 16.4272224,60.2513039 16.7471473,60.1554468 C16.9729322,59.2128956 17.0254886,58.2703456 16.890518,57.3277944 C15.652991,54.5586509 18.3394004,53.1602425 19.6075286,54.8443933 C23.0697171,52.9804186 24.4633849,54.3556853 24.9997335,57.0734856 C26.6644102,57.6415025 28.6428306,57.410764 29.6961698,59.5351781 C30.5556686,59.7591056 31.6799155,59.8354682 32.1722694,59.2995851 C31.3516176,57.2849605 32.3247049,56.9452542 33.5916906,56.8799761 C32.94318,54.5058611 34.9244633,55.6169919 36.1727682,55.7567132 C37.5614608,55.587323 38.8733302,55.5912884 40.0561776,55.8864035 C41.7595751,55.7462991 42.745151,56.2181261 42.3914045,57.831706 C43.0666053,58.261673 44.2954029,58.1086653 44.0406135,59.5179777 C47.8971735,58.3106963 49.1060412,61.1919393 49.748111,64.948423 C51.9513392,65.0549826 54.1699065,65.1369354 54.9518339,67.5242314 C55.80372,67.5258279 56.82906,67.0305054 57.2052355,68.3953089 C61.5372967,66.1958598 63.5011812,64.960603 64.7995065,66.7724105 C66.0378845,66.7796561 67.3204702,67.8066691 68.4937347,66.3119382 C67.5814665,61.6416168 72.3494571,63.9655886 73.2531061,65.3735588 C75.444,64.5840079 77.5165678,64.2521919 79.2006943,65.4230377 C80.1663784,65.4392114 81.1023269,65.4181254 81.7808535,65.0743014 C83.5370584,63.3969995 85.0673963,61.2666453 88.1496637,62.249223 L89.5304645,60.8258528 C89.3661563,59.6457105 89.0109282,58.4496119 89.6776971,57.3389281 C89.4382837,56.8580305 89.1304396,56.4457625 88.52994,56.3270068 C93.6502212,49.4762296 94.7647163,56.56854 97.688198,57.3642423 C99.3609098,56.6966596 100.965034,56.5564496 102.330762,58.2492989 C103.687302,57.8363923 103.966626,56.4331514 104.501327,55.2646881 C105.810849,56.2281877 106.037629,58.361127 106.442991,60.3011856 C104.681436,60.4007698 105.124501,61.3426579 104.743646,61.9697572 C105.422833,62.533143 106.047307,63.1239663 106.319455,63.8914672 C106.367235,65.2084398 107.214803,64.1972591 107.197031,64.0515179 C107.423591,63.9413723 107.865594,63.825036 108.07586,63.7317444 C109.838611,62.9496467 110.064684,61.5991858 110.037175,60.1591212 C110.000624,58.2458223 109.849237,56.4778409 110.117379,56.0343049 C109.800742,54.3770979 109.306805,52.7594053 109.419623,51.0064837 C108.143562,49.605333 106.733207,48.3725396 106.246785,45.9814502 C105.542891,45.7053493 105.060204,45.2476021 104.974436,44.4548914 C103.829724,44.2136198 102.487561,43.8681047 102.343627,44.6141316 C102.143507,45.6513744 101.721929,45.9175721 100.336491,45.4055884 C100.167831,45.3432639 99.9511224,46.1989254 99.0024245,46.0443311 C99.4420592,42.9200788 99.9063306,39.791193 99.5435767,36.8178275 C100.601426,35.3489181 101.739661,33.9875028 103.105075,32.9298802 C102.924036,31.3030556 103.822674,31.2444779 105.12905,31.7781419 C105.673799,30.9262518 106.173786,30.0369533 106.412995,28.9297032 C106.059638,28.4558879 105.706281,28.9888961 105.352924,29.1404474 C104.082202,25.4554288 104.251876,23.7123404 105.199562,23.0181626 C105.685,23.6309304 106.170437,24.0850142 106.655875,24.2961453 C106.199819,20.3063258 105.465373,18.7169058 107.722038,23.1393928 C108.466123,25.0968458 109.561351,26.9697768 109.091064,29.2195314 C110.792394,32.3761593 114.084557,34.3273111 118.0974,35.7323572 L117.991922,34.6768223 C117.953633,34.1922491 117.894906,33.7179254 117.754422,33.2845996 C117.239972,32.5614296 116.251744,32.0210149 116.983899,30.8169781 C115.616764,30.2344393 115.146392,29.2649037 116.148187,28.0125644 C114.197533,27.3666314 114.024959,26.5225567 114.377241,25.6199939 C113.401327,25.618853 112.548001,25.3171763 112.033527,24.1847765 C110.264312,25.39796 108.87714,22.4591942 110.349059,20.517323 C110.35261,18.7459546 109.695486,17.7101105 111.680873,17.6282535 C111.12247,15.1369547 109.136003,12.6456552 110.452872,10.1543557 C110.418371,9.72907195 110.302873,9.35794325 109.960778,9.13832132 C108.691646,9.18458702 107.422512,9.3864093 106.153379,10.0493415 C107.246851,8.8349326 106.866867,8.04330161 104.920744,7.13890788 C104.872981,6.64376202 105.754577,6.66643588 106.301154,6.50244356 C106.251454,5.68516065 106.441975,5.04856984 107.548981,5.10135291 C107.726726,4.41986902 108.844029,4.35174342 108.994433,3.47836558 C107.976187,2.70002784 106.652102,2.28978093 106.346647,0.590237667 C105.689709,1.24281263 104.62284,1.70105176 104.350461,3.3178336 C104.652731,3.95903949 104.092464,3.69448075 103.683076,3.46287728 C100.969233,5.16131172 98.0716947,6.42109361 96.3932951,10.592077 C96.3912135,10.7829405 97.0171384,10.970808 97.2170951,11.0020146 C99.2015204,11.3117171 97.8929327,12.3654226 96.9559041,12.1818991 C96.7800992,12.1474665 96.620618,11.0019468 96.2292441,11.4195506 C96.2042155,12.3481399 96.3567282,13.299956 95.1946102,14.0797963 C95.1256469,16.7076565 93.2329457,15.4578949 91.9962943,15.6030246 C90.6693502,17.4522354 89.3647812,19.7980582 87.7383551,18.2432146 C87.2852878,18.1677988 86.9287139,18.3827037 86.6037073,18.6925912 C86.496038,19.2812089 86.3076135,19.7434804 85.5642833,19.3375688 C84.7282114,20.1049726 83.4322629,20.2921305 83.3127857,21.9636937 C84.90312,22.5988921 83.3123302,23.6284128 81.7385755,24.6558212 C81.0837331,24.308916 80.9968384,24.6740212 81.0652224,25.2337928 C81.1285898,28.1069158 79.3851098,24.3355393 78.4772608,23.6371112 C77.5881343,23.8004077 76.7847429,24.3076511 75.7058314,23.7095919 C75.628762,25.3018942 75.326231,26.5550146 73.418978,25.3940154 C71.2772167,25.5149558 69.5502098,27.1611016 67.6928522,28.3278984 C68.7608045,26.7016007 69.9236412,25.0911623 70.3986171,23.3657458 C69.9998363,22.3174798 69.0877727,21.886954 68.1870869,21.4427365 C67.1242176,21.8473832 66.5472343,21.4862593 66.2038237,20.7570251 C65.7671461,20.3205726 65.4402135,20.4344504 65.1030465,20.4970009 C64.3552971,21.9881949 64.0414127,23.7839823 61.3325804,23.898404 C60.1894322,24.5970974 58.9467233,24.9296674 58.0927482,26.6917639 C58.7029665,27.9409605 57.098951,27.9349725 55.3849702,27.8666488 C55.028591,28.7210246 55.0474518,30.038583 53.4295996,29.3358346 C52.6810702,30.394463 52.5588649,29.1917316 52.2960624,28.4966279 L51.955342,28.5271577 C52.2539253,29.1730846 52.1725616,29.74573 51.5244759,30.2090723 C51.0691776,30.2747249 51.0563731,31.4498468 51.0261514,32.5812974 C50.7645465,33.0940253 50.545309,33.6917332 50.3929065,34.4235033 C50.51358,35.00224 50.9909412,34.77607 51.3859702,34.7356935 C51.6936429,35.0041595 51.9673665,35.0683421 52.2393024,35.1217656 C52.578322,35.5277791 52.944578,35.9337914 52.1836371,36.3398037 C51.8485212,35.3803051 51.3598359,34.940624 50.4446792,35.9444879 C50.719898,36.5097784 50.4461486,37.2512565 49.8111747,38.1086558 C49.2457604,38.345117 48.6875559,38.6008602 48.2295086,39.1244688 C47.5482245,38.7759339 46.6401698,38.5916582 46.569938,37.8005182 C46.9551037,38.051413 47.5303739,38.1116486 48.1311514,38.1463023 C48.8090902,37.080847 49.2116976,36.9358426 49.565471,36.9540967 C49.5292506,36.2372795 49.7321437,35.8692944 50.0964441,35.7367623 C49.9398392,35.4043323 49.7767604,35.0827228 49.5128522,34.9296561 C49.8423282,33.9770004 50.0157992,32.4879088 50.5730314,32.3184167 C50.60346,31.8926116 50.6767947,31.4524639 50.4987906,31.096337 C50.368178,30.4430712 50.7310482,30.2847325 51.0186869,30.0509411 C51.16314,29.5164395 51.2229233,29.024396 51.1489727,28.5994149 C50.9019171,28.1591702 50.2430535,27.9082337 49.3436192,27.8881584 C49.0441751,29.2815625 48.4491429,30.0570642 47.2044,30.2836211 C47.1836816,31.0633081 47.1511959,31.8396216 46.6313792,32.47629 C46.8843992,33.3398751 47.2857502,34.2220544 46.98768,35.0165507 C45.8968935,33.1570498 45.0861282,32.3356907 43.3796118,31.1966421 C42.06582,31.8351305 40.8209437,32.9021528 39.0117331,30.4600726 C36.3730629,30.4571253 30.8764359,31.9024509 34.7734531,29.5068605 C34.8883959,28.8417967 34.3446722,28.0064707 33.9867392,27.4362593 C33.7513004,27.4526418 33.4298804,27.3520014 33.5362347,27.8335989 C32.8724473,29.2902695 32.2600898,31.5699312 31.0572576,30.2568847 C30.1909457,30.1687707 29.3246351,30.0738421 28.4583233,30.237297 C27.8138522,32.2061342 27.4015861,30.3906142 26.9543449,29.1451079 C26.4967935,28.9538286 26.3551837,29.2061553 26.1400188,29.3552123 C26.1164106,29.7145235 26.089729,30.0707596 26.3173261,30.682023 C26.1488486,31.1159419 25.8156355,31.1827133 25.1842114,30.5848581 C25.1822522,29.3964595 25.3492004,28.2928223 26.366962,27.6158044 C26.7966269,27.2159853 26.6684731,26.3266463 26.7198257,25.5948356 C27.2818518,26.024433 27.5716359,27.0911163 27.9933967,27.8489572 C29.1630661,29.7795425 30.6258012,29.8463679 31.5902033,27.5137935 C31.0820339,26.6062398 31.2573882,25.5615807 31.2246576,24.55866 C30.9592078,23.7314688 29.5982535,22.4922637 30.4715682,22.0933582 C30.3821927,21.731694 30.2741682,21.4167996 30.0827069,21.3111021 C28.9804298,20.9291674 27.8910416,20.3598033 26.689571,21.4203758 C26.7108282,22.2690312 26.8052853,23.1747796 25.4758592,22.969827 L24.7778498,23.86286 C24.6430494,24.757126 23.9289869,25.2754784 22.9202057,25.6025737 C22.6349755,26.3313216 22.5874016,27.1908356 21.6117759,27.1777112 C21.4348739,27.5319407 21.4364767,28.2442239 21.4629122,29.0063175 C20.2422661,29.3897923 18.127058,29.1751477 16.4572457,29.2583016 C16.9151657,29.9069621 16.9738139,30.6358611 17.0950322,31.4292312 C16.585931,30.8666314 16.1288473,30.4605418 15.7228224,30.2080763 Z M12.0949114,36.396236 L13.2292041,36.5195907 L13.8031837,35.0941525 C14.8033506,35.3369837 15.8282473,36.5223035 16.796078,35.5327491 C17.1352665,35.7123556 17.2933237,35.9827926 17.4162294,36.2708574 C19.3342151,36.7455642 19.5970922,37.1587902 19.5703127,37.5612582 C20.9227751,37.5244898 21.2619514,38.1452928 21.3879147,38.90446 L21.8252327,39.3156437 C23.3430992,38.9138879 24.1281122,39.4921284 24.6677976,40.3984282 C25.0097706,40.5575886 25.3730265,40.6669409 25.6107637,41.0700291 C25.9748547,41.046094 26.3131616,41.11268 26.7450576,40.8507314 C26.5896637,41.179487 26.4176167,41.5825028 26.5400645,42.0157537 C25.7272053,42.0557888 24.7163241,42.6667918 24.1621494,41.9609326 C24.0254878,41.8695642 23.8706045,41.8695642 23.6974996,41.9609326 C23.5425857,42.5402846 22.7760049,42.1513314 22.2625494,42.2076433 C22.0894739,42.420894 21.9562555,42.6907735 21.3605816,42.3035925 C21.1533918,43.0568637 20.7022371,43.3960653 20.0212959,43.3452588 C19.5216073,43.3925886 19.2120833,43.6624275 18.9280016,43.9620349 C19.3043461,44.7825921 18.7535094,45.3885575 17.7117122,45.8808946 L17.3427245,46.2646665 L17.3017163,47.1418598 C17.6248898,47.5620514 17.5293698,47.7722847 17.1240563,47.8271672 C16.7666522,48.1671118 16.5793127,48.5659902 15.7984371,48.759184 L15.8121024,49.2388989 C15.5407114,49.2594323 15.25416,49.3458639 15.0877959,48.9099518 C14.7386412,48.9978202 14.3778869,49.14385 14.0628318,49.0607195 C13.5473204,50.1269496 12.5973061,49.9529026 11.6165853,49.6912021 L12.0949114,36.396236 Z M17.0284029,40.7547896 C17.0284029,40.9818795 16.8448457,41.1659733 16.618418,41.1659733 C16.391989,41.1659733 16.2084318,40.9818807 16.2084318,40.7547896 C16.2084318,40.5276986 16.391989,40.3436047 16.618418,40.3436047 C16.8448469,40.3436047 17.0284029,40.5276986 17.0284029,40.7547896 L17.0284029,40.7547896 Z M17.6843804,31.7498546 C17.6843804,31.9996539 17.4824669,32.2021565 17.2333959,32.2021565 C16.9843249,32.2021565 16.7824127,31.9996539 16.7824127,31.7498546 C16.7824127,31.5000553 16.9843249,31.2975514 17.2333959,31.2975514 C17.4824682,31.2975514 17.6843804,31.500054 17.6843804,31.7498546 L17.6843804,31.7498546 Z M106.664882,45.6204688 L105.325597,44.0442616 C105.150725,43.6825274 105.091005,43.4418195 105.70825,43.4411919 C105.54222,42.9182526 104.99264,42.7158728 104.628621,42.3584074 C104.63609,42.1748882 104.696127,42.0365781 104.956609,42.0705772 C105.74466,42.5914325 106.069064,43.216697 107.197862,43.5097219 C107.84678,44.9013735 109.886421,45.9126267 111.680371,46.9910823 C111.334998,47.5015567 110.329805,47.6661144 111.461711,48.9510602 C111.507923,49.8665926 112.575782,50.2377904 113.771296,50.5409726 C114.20064,50.6504919 114.489753,50.8381533 114.591267,51.130337 C114.174343,51.3480911 113.797959,51.2812349 113.415975,51.2536918 C113.315248,51.6963705 113.38666,52.0448846 113.686631,52.2683651 C113.653288,52.5034496 113.716411,52.8352705 113.374976,52.7613665 C112.424676,51.728406 111.534541,50.0618447 110.518745,49.718604 C109.279395,48.1774325 108.140034,46.249463 106.664882,45.6204688 L106.664882,45.6204688 Z M82.3117482,19.5376828 C82.5422216,19.2416454 82.7137812,18.9751505 82.8720612,18.7153154 C83.1073996,18.8874504 83.3543694,19.0362556 83.7330306,18.9209067 C83.8308306,19.141974 83.8582298,19.3348044 83.7740265,19.4828593 C83.3542935,19.7354525 82.7940563,19.8999733 82.6397339,20.3189332 C82.5402073,20.038846 82.4462192,19.7476668 82.3117482,19.5376828 L82.3117482,19.5376828 Z M82.0110918,15.521784 C82.4001061,15.4786296 82.6208694,15.1992412 82.8310629,14.9050079 C83.1494143,15.1715691 83.3721086,14.8944465 83.5827024,14.5486477 L84.1293502,14.5349425 C84.2893004,14.8319082 84.2052563,15.1288753 84.1156849,15.4258411 C83.8183237,15.7792846 83.3017261,15.8171963 82.7217343,16.0289107 C82.4034147,16.0504511 82.2282061,15.7370819 82.0110918,15.521784 L82.0110918,15.521784 Z M78.6355457,17.7284726 L78.8405437,16.837574 C79.6278551,17.0121061 79.91118,16.758474 79.7151796,16.1659732 C80.143189,16.1013644 80.6487514,16.2895453 80.9451367,15.7959065 L81.6967763,15.7410854 L81.7104416,16.3715668 C81.8251518,16.4770949 81.9696478,16.4332282 82.1204278,16.3578616 C81.9661886,16.7506635 81.8401971,17.1387423 81.9017682,17.4954709 C81.3313249,17.5672639 80.9371776,18.0087514 80.7674755,18.9209091 C79.218322,19.2287544 79.1368616,18.3020342 78.6355457,17.7284726 L78.6355457,17.7284726 Z M64.1493943,17.4543502 C64.5246306,17.9126193 64.8198955,18.4281767 65.4340151,18.7153154 C65.5095416,19.3755284 65.0570278,19.5723525 64.5593792,19.7295688 C64.1851053,19.8720986 63.8312608,20.1170716 63.493418,20.4422879 C63.5199894,19.9621935 63.601871,19.5098314 63.4934192,18.9620249 C63.6522771,18.3994914 63.7805192,17.8062525 64.1493943,17.4543502 L64.1493943,17.4543502 Z M61.6758147,14.3156435 C61.7472759,14.6931056 61.9733706,14.9844026 62.3727906,15.1791304 C62.0814759,16.3790704 62.5535388,16.5900982 63.1244302,16.6730998 C63.1741812,17.309907 63.1641159,17.9347147 63.3840882,18.605666 C63.2530653,18.9179691 62.9575531,18.9828161 62.6871122,19.0853809 C61.9959686,18.6306609 61.0912776,18.302496 61.1565,17.3995254 C60.8695102,17.4332605 60.5825204,17.5307742 60.2955306,17.3584096 C60.2039265,17.0871646 60.2369143,16.8575744 60.3638694,16.6593958 C61.0543886,16.7771923 60.5023016,16.2203349 60.4185306,15.9329702 C60.7811155,15.5676021 60.6019935,15.4018482 60.6290816,15.0701268 C61.0466596,14.9334119 61.3657543,14.6320779 61.6758147,14.3156435 L61.6758147,14.3156435 Z M42.2835049,28.9949198 C41.0853404,25.6349014 47.7462588,22.21457 50.6472073,22.4159735 C51.1018457,22.3554542 51.1978127,21.9138082 51.521842,21.6895467 C51.5624584,20.7282133 51.1048249,20.8169868 50.5515441,20.8671781 C49.9635735,21.2130382 49.4534131,21.6920212 48.2692922,21.017947 C47.918591,21.5235005 47.0521322,21.3236911 46.3286939,21.3194812 C44.8583057,22.4491167 43.5594294,23.7292632 41.8279702,24.6297935 C41.5180286,25.4951102 41.0513131,25.4799189 40.5615661,25.3353812 L40.233578,26.4181658 C40.9995282,26.8475175 40.8782767,27.4251674 40.5615661,28.03549 L42.2835049,28.9949198 Z M5.5568738,29.2389067 C5.2211738,29.5452856 4.85778992,29.5740188 4.48588898,29.5173286 C4.79559502,30.3954111 5.19987282,31.1280126 6.00608192,31.8282546 C6.54287045,31.8431032 6.72792245,31.58358 6.94841045,31.3516982 C6.70421596,30.8720361 6.44210216,30.3937556 6.65850698,29.8785593 C6.56984645,29.7261877 6.39873527,29.7116351 6.20143996,29.7408509 C6.01216812,30.3176288 5.78086041,29.6718014 5.5568738,29.2389067 L5.5568738,29.2389067 Z M4.60985571,52.2470139 C4.51798384,52.0330926 4.43426571,51.8069042 4.24264469,51.7430446 C3.49893808,51.6230228 3.38507045,51.1345198 3.56620322,50.4734312 C3.53669755,49.7606814 3.33856347,49.4425486 3.16033837,49.0778253 C2.54433012,49.291787 2.27216706,48.9100979 1.92341694,48.6610821 C1.52866151,48.6279856 1.14376224,48.5454716 0.725149224,48.6320014 C1.36661155,49.4993984 1.09173392,50.0567102 0.348274898,50.5897258 C0.377829184,50.948084 0.560307918,51.242536 0.899091306,51.4716705 C1.55785886,51.0695856 2.01180257,51.1957318 2.30995482,51.7236546 C2.85865665,51.7656791 3.37305527,51.8320563 3.31495359,52.3051568 C3.88224233,52.5055496 4.37513865,52.5854184 4.60985571,52.24702 L4.60985571,52.2470139 Z M42.0648453,56.2564333 C42.3223824,55.8401618 42.3871751,55.2581989 42.871151,55.0365863 C43.0867567,54.4456782 43.2558135,53.7914104 43.9644453,53.8715653 C43.9337718,53.2637418 43.5441612,52.9799102 43.1581408,52.6928365 C43.1616918,52.6006575 43.2160102,52.5157684 43.4724624,52.4598323 C43.298258,52.0582214 43.564691,51.6226175 43.8551155,51.1851618 C44.0213657,51.0254733 44.1625004,51.1176793 44.2924335,51.322223 C44.0776861,51.5005326 44.0273535,51.6458612 43.9917771,51.7882314 C44.6309278,52.123147 45.0400273,52.2273389 45.4677257,52.3501828 C45.6596559,52.1476507 46.4122702,52.437167 46.8343433,52.2816565 C47.2827563,51.8583935 47.7185963,51.3090396 48.2009608,51.2262837 C48.2711976,50.7565886 48.4747273,50.3804688 49.2669233,50.4176216 C49.3594212,48.3173232 50.3839922,48.675173 51.4398453,49.1155381 C52.3694314,49.0601398 53.1357796,49.3321733 53.8860918,49.6363712 C54.2201755,48.7616377 54.7690482,48.7964412 55.4303706,49.307424 C55.8524131,48.9310377 56.3973429,48.8627693 56.6876596,48.1561082 C55.5349469,47.6359026 55.9015163,47.0810667 56.3186718,46.5250775 L56.6876596,45.4697047 C56.4149106,44.8955868 56.4917314,44.4129295 57.0566461,44.0579718 C57.1128135,43.6364354 57.1267971,43.2233593 57.0019849,42.838126 C56.2889731,43.012507 56.1300282,42.6867675 56.1410155,42.2076433 C56.2068318,41.5459284 55.9420347,41.2394684 55.4987045,41.1248575 C55.3402873,40.7048907 55.2418959,40.2789026 55.4440433,39.822774 C55.7827408,39.356434 55.3748351,39.3112853 55.1707188,39.1511732 C55.1380127,38.5955856 55.0902208,38.045043 54.8427306,37.5612619 C55.8426,36.6328593 55.7005335,35.8308681 54.6240722,35.3408668 C53.7692412,34.6072312 53.0320029,34.0016305 54.6104069,33.3397707 C54.8476653,32.9125484 54.7622437,32.52578 54.7197416,32.1336302 C53.5879212,31.7632577 54.2794004,31.31338 54.7607376,30.8726649 C54.4442645,30.677936 54.0966122,30.5082228 53.9544331,30.1736523 L53.9134371,29.4883449 L42.0648453,56.2564333 Z M36.9946922,43.0163018 C37.5843073,42.2030761 38.0810902,41.3432981 38.3083237,40.3483525 C38.6728371,39.4920339 39.1094363,38.738996 39.7279286,38.2465644 C40.6630102,38.4631272 41.7942465,37.6566977 42.9049494,36.9573572 C43.873478,36.6774542 44.79624,36.341814 45.2627327,35.4505126 C44.4126784,34.8192416 45.13716,34.5445518 45.3152755,34.1461277 C44.8267029,33.5702795 44.9912143,33.1308882 45.3720551,32.7366961 L36.9946922,43.0163018 Z M13.2199886,61.0276972 L12.8044604,60.4946546 C12.92124,59.9826451 12.4895976,59.8067646 12.1666727,59.5642502 C12.1199094,58.8611075 11.8042445,58.2289339 11.2679731,57.6549854 C11.1678869,56.9392146 11.0691698,56.2227105 10.2146562,55.9104774 C9.71070073,55.2072758 9.00737143,55.2182056 8.33028367,55.1351414 C8.02958902,55.3601496 8.0486542,55.9058537 8.26263918,56.6470468 C7.88002445,56.263157 7.68924502,57.2645181 7.42191918,57.7131346 C7.19925931,57.716696 7.01228853,57.3982242 6.81312184,57.1897826 C6.39623522,57.1341265 6.09323694,57.3721879 5.85644045,57.7809768 L13.2199886,61.0276972 Z M15.7808033,49.2232018 L15.8387829,50.0954546 C16.6254576,50.4230963 17.8678261,50.5046463 17.0757049,51.6848942 C17.8878612,51.9810974 18.3223567,52.5992502 18.6218571,53.3324842 C18.4714935,53.5435047 18.312922,53.7462923 18.3126269,54.1078202 L15.7808033,49.2232018 Z"></path>
                        </g>
                    </g>
                </g>
            </g>
        </g>
    </g>
</svg>