<?xml version="1.0" encoding="UTF-8" standalone="no"?>
<svg width="28px" height="29px" viewBox="0 0 28 29" version="1.1" xmlns="http://www.w3.org/2000/svg" xmlns:xlink="http://www.w3.org/1999/xlink">
    <!-- Generator: sketchtool 40.1 (33804) - http://www.bohemiancoding.com/sketch -->
    <title>186A0ED3-91FF-4AC1-8B12-98A0B29132CC</title>
    <desc>Created with sketchtool.</desc>
    <defs></defs>
    <g id="Web-Design" stroke="none" stroke-width="1" fill="none" fill-rule="evenodd">
        <g id="LAB-Distributor-inner-d" transform="translate(-654.000000, -736.000000)" fill="#FFFFFF">
            <g id="Group-Copy-2" transform="translate(473.000000, 724.000000)">
                <g id="email" transform="translate(181.000000, 12.000000)">
                    <path d="M28,28.2585017 L28,10.4032217 C28,10.2193301 27.7710212,9.98798261 27.5479136,9.815955 L22.9272384,6.42879059 L22.9272384,2.68570698 C22.9272384,2.3179238 22.6219333,2.06878036 22.3166282,2.06878036 L17.0501153,2.06878036 L14.3669532,0.0934287906 C14.1849444,-0.0311429302 13.8796393,-0.0311429302 13.6917593,0.0934287906 L11.0085972,2.06878036 L5.74208429,2.06878036 C5.37806668,2.06878036 5.1314741,2.37724367 5.1314741,2.68570698 L5.1314741,6.38726668 L0.452086391,9.82188699 C0.176137555,9.9939146 0,10.2193301 0,10.4091537 L0,28.3830734 C0,28.7330606 0.275948836,28.9762721 0.563640176,29 L0.610610191,29 L27.3835186,29 C27.7768924,28.994068 28,28.6856047 28,28.2585017 L28,28.2585017 Z M26.8374921,11.5125032 L26.8374921,27.1492201 L16.7330677,18.9749425 L26.8374921,11.5125032 L26.8374921,11.5125032 Z M26.3854057,10.4269496 L22.9272384,12.9717719 L22.9272384,7.85839939 L26.3854057,10.4269496 L26.3854057,10.4269496 Z M14.0029356,1.26203017 L15.0773747,2.06284838 L12.9226253,2.06284838 L14.0029356,1.26203017 L14.0029356,1.26203017 Z M21.706018,3.3026336 L21.706018,13.8734339 L14.0029356,19.5444132 L6.29985322,13.8734339 L6.29985322,3.3026336 L21.706018,3.3026336 L21.706018,3.3026336 Z M1.16837912,11.5125032 L11.2728035,18.9749425 L1.16837912,27.196676 L1.16837912,11.5125032 L1.16837912,11.5125032 Z M5.13734536,13.0192278 L1.59110925,10.4091537 L5.13734536,7.80501151 L5.13734536,13.0192278 L5.13734536,13.0192278 Z M2.26630321,27.8195346 L12.2533026,19.6986448 L13.6330468,20.7189466 C13.8972531,20.9206341 14.0968757,20.9206341 14.3669532,20.7189466 L15.7466974,19.6986448 L25.7924093,27.8195346 L2.26630321,27.8195346 L2.26630321,27.8195346 Z" id="Email"></path>
                </g>
            </g>
        </g>
    </g>
</svg>