<?xml version="1.0" encoding="UTF-8" standalone="no"?>
<svg width="34px" height="35px" viewBox="0 0 34 35" version="1.1" xmlns="http://www.w3.org/2000/svg" xmlns:xlink="http://www.w3.org/1999/xlink">
    <!-- Generator: sketchtool 40.1 (33804) - http://www.bohemiancoding.com/sketch -->
    <title>535AC349-D758-416A-A552-F92D6EE8F092</title>
    <desc>Created with sketchtool.</desc>
    <defs></defs>
    <g id="Web-Design" stroke="none" stroke-width="1" fill="none" fill-rule="evenodd">
        <g id="Pagalba-d" transform="translate(-375.000000, -419.000000)" fill="#658D1B">
            <g id="email" transform="translate(375.000000, 419.000000)">
                <path d="M33.9919939,33.9777474 L33.9919939,12.5368628 C33.9919939,12.316043 33.7141884,12.0382376 33.4435061,11.8316642 L27.8375339,7.76430706 L27.8375339,3.26955683 C27.8375339,2.82791734 27.4671266,2.52874221 27.0967193,2.52874221 L20.7071932,2.52874221 L17.4518828,0.156710785 C17.2310631,0.00712321749 16.8606558,0.00712321749 16.6327128,0.156710785 L13.3774024,2.52874221 L6.98787636,2.52874221 C6.54623687,2.52874221 6.24706174,2.89914952 6.24706174,3.26955683 L6.24706174,7.71444454 L0.569857399,11.8387875 C0.235066177,12.0453608 0.0213696525,12.316043 0.0213696525,12.543986 L0.0213696525,34.127335 C0.0213696525,34.5476048 0.356160874,34.8396567 0.705198531,34.8681496 L0.762184271,34.8681496 L33.244056,34.8681496 C33.7213116,34.8610264 33.9919939,34.4906191 33.9919939,33.9777474 L33.9919939,33.9777474 Z M32.5815968,13.8689044 L32.5815968,32.6457057 L20.3225395,22.829912 L32.5815968,13.8689044 L32.5815968,13.8689044 Z M32.033109,12.5653556 L27.8375339,15.621216 L27.8375339,9.48100248 L32.033109,12.5653556 L32.033109,12.5653556 Z M17.0102434,1.55998463 L18.3137922,2.52161899 L15.6995713,2.52161899 L17.0102434,1.55998463 L17.0102434,1.55998463 Z M26.3559047,4.01037145 L26.3559047,16.703945 L17.0102434,23.5137409 L7.66458202,16.703945 L7.66458202,4.01037145 L26.3559047,4.01037145 L26.3559047,4.01037145 Z M1.43888993,13.8689044 L13.6979472,22.829912 L1.43888993,32.7026915 L1.43888993,13.8689044 L1.43888993,13.8689044 Z M6.25418495,15.6782017 L1.95176159,12.543986 L6.25418495,9.41689352 L6.25418495,15.6782017 L6.25418495,15.6782017 Z M2.7709316,33.4506293 L14.8875245,23.6989446 L16.5614807,24.924138 C16.8820254,25.1663274 17.1242148,25.1663274 17.4518828,24.924138 L19.125839,23.6989446 L31.3136641,33.4506293 L2.7709316,33.4506293 L2.7709316,33.4506293 Z" id="Shape"></path>
                <rect id="Rectangle-path" x="12.0453608" y="7.64321236" width="10.0081206" height="1.41039706"></rect>
                <rect id="Rectangle-path" x="12.0453608" y="12.1664555" width="10.0081206" height="1.41039706"></rect>
                <rect id="Rectangle-path" x="12.0453608" y="16.6896986" width="10.0081206" height="1.41039706"></rect>
            </g>
        </g>
    </g>
</svg>