<?xml version="1.0" encoding="UTF-8" standalone="no"?>
<svg width="30px" height="32px" viewBox="0 0 30 32" version="1.1" xmlns="http://www.w3.org/2000/svg" xmlns:xlink="http://www.w3.org/1999/xlink">
    <!-- Generator: sketchtool 40.1 (33804) - http://www.bohemiancoding.com/sketch -->
    <title>D41E2170-0675-41F5-BAEE-C7F6C3B4D0AD</title>
    <desc>Created with sketchtool.</desc>
    <defs></defs>
    <g id="Web-Design" stroke="none" stroke-width="1" fill="none" fill-rule="evenodd">
        <g id="LAB-Distributor-inner-d" transform="translate(-818.000000, -477.000000)" fill="#8B5B29">
            <g id="geolocalization" transform="translate(818.000000, 477.000000)">
                <g id="Group">
                    <path d="M6.75911795,16.8843916 L5.27516524,16.8843916 C4.93214131,16.8843916 4.65408262,17.1621338 4.65408262,17.5047672 C4.65408262,17.8474007 4.93214131,18.1251429 5.27516524,18.1251429 L6.75911795,18.1251429 C7.10214188,18.1251429 7.38020057,17.8474007 7.38020057,17.5047672 C7.38020057,17.1621338 7.10207977,16.8843916 6.75911795,16.8843916 L6.75911795,16.8843916 Z" id="Shape"></path>
                    <path d="M26.5102285,11.4137951 C28.2008154,8.74264371 29.0579715,6.75905464 29.0579715,5.51805521 C29.0579094,2.47536084 26.5797276,0 23.5335658,0 C20.8008644,0 18.5257145,1.99227433 18.0862365,4.5989687 C16.6667521,4.11302846 15.1819299,3.86667729 13.6623892,3.86667729 C10.0153299,3.86667729 6.5866433,5.28529027 4.00778405,7.86115196 C1.42898689,10.4370757 0.0086951567,13.8619215 0.0086951567,17.5047672 C0.0086951567,21.147675 1.42892479,24.5724587 4.00778405,27.1483825 C6.58670541,29.7242442 10.0154541,31.1428571 13.6625134,31.1428571 C17.3095105,31.1428571 20.7382593,29.7242442 23.3170564,27.1483204 C25.8959157,24.5724587 27.3161453,21.147613 27.3161453,17.5047052 C27.3161453,15.5781907 26.9225652,13.7205999 26.1474541,11.9779027 C26.2674473,11.7941474 26.3886826,11.6058634 26.5102285,11.4137951 L26.5102285,11.4137951 Z M23.5335658,1.24075128 C25.8947977,1.24075128 27.8157442,3.15957314 27.8157442,5.51805521 C27.8157442,7.34406887 25.067702,11.4816642 23.5335037,13.5806431 C21.9992433,11.4820364 19.2513875,7.34518554 19.2513875,5.51805521 C19.2513254,3.15957314 21.172396,1.24075128 23.5335658,1.24075128 L23.5335658,1.24075128 Z M18.0333823,5.8982214 C18.1826285,7.14846443 19.0295368,9.00040979 20.5570274,11.4138571 C21.7836655,13.3519727 22.989808,14.9289676 23.0405504,14.9951616 C23.1580593,15.1484565 23.340347,15.2383489 23.5336279,15.2383489 C23.7269088,15.2383489 23.9091966,15.1484565 24.0267054,14.9951616 C24.0602439,14.9514872 24.597853,14.2485396 25.3123464,13.2180956 C25.7469801,14.3932112 25.9966553,15.6208105 26.0582046,16.8843916 L19.1813915,16.8843916 C19.1240034,13.5663745 18.6071385,10.4605259 17.7109783,8.08138532 C17.2926792,6.97091292 16.8052536,6.06454411 16.2667749,5.38057997 C16.8666786,5.50856346 17.4563345,5.681214 18.0333823,5.8982214 L18.0333823,5.8982214 Z M13.6625134,5.10749061 C15.630041,5.10742857 17.815755,9.91229994 17.9390399,16.8843916 L10.7591385,16.8843916 C10.4161145,16.8843916 10.1380558,17.1621338 10.1380558,17.5047672 C10.1380558,17.8474007 10.4161145,18.1251429 10.7591385,18.1251429 L17.9389778,18.1251429 C17.9055014,20.0193978 17.7197356,21.7534718 17.4274541,23.274881 C16.2154114,22.9284633 14.9499556,22.7488645 13.6623892,22.7488645 C12.374388,22.7488645 11.1091185,22.9285253 9.89732422,23.274757 C9.57342963,21.5887621 9.38014872,19.6417131 9.38014872,17.5047672 C9.38014872,15.393815 9.56883362,13.4683552 9.88564786,11.7965669 C11.1001128,12.1444115 12.3689846,12.325189 13.6624513,12.325189 C14.5255077,12.325189 15.3894336,12.2441059 16.2301932,12.0842971 C16.5671305,12.0202123 16.788298,11.6954456 16.7242023,11.3588298 C16.6600444,11.022276 16.3347214,10.8014223 15.9979083,10.865383 C15.2335419,11.0107371 14.4478103,11.0844377 13.6624513,11.0844377 C12.45811,11.0844377 11.2769972,10.9127797 10.1486764,10.581313 C10.9831009,7.18159249 12.3698541,5.10749061 13.6625134,5.10749061 L13.6625134,5.10749061 Z M11.0559538,5.38337166 C10.5184068,6.06702561 10.0317265,6.97246386 9.61404843,8.08138532 C9.37083248,8.72682413 9.15581368,9.42611155 8.97010997,10.168329 C7.74775726,9.66985714 6.60558632,8.97472624 5.58545812,8.0996864 C7.12773048,6.77630108 8.99799658,5.82445874 11.0559538,5.38337166 L11.0559538,5.38337166 Z M1.26644957,18.1251429 L3.14603191,18.1251429 C3.48905584,18.1251429 3.76711453,17.8474007 3.76711453,17.5047672 C3.76711453,17.1621338 3.48905584,16.8843916 3.14603191,16.8843916 L1.26644957,16.8843916 C1.41842849,13.8194257 2.68978462,11.0438031 4.67985755,8.9579761 C5.88084501,10.0076517 7.23940114,10.8276642 8.69757892,11.3958042 C8.33194758,13.2648719 8.13798348,15.3470387 8.13798348,17.5047672 C8.13798348,19.6858839 8.33617094,21.7898258 8.7095037,23.674465 C7.26064217,24.2375179 5.90960114,25.0494656 4.71426553,26.0868577 C2.70462849,23.9970603 1.41929801,21.2074792 1.26644957,18.1251429 L1.26644957,18.1251429 Z M5.6229094,26.9415492 C6.63713732,26.0789169 7.7721037,25.39365 8.98489174,24.9008856 C9.1672416,25.6209556 9.37735385,26.2998947 9.61398632,26.9281491 C10.0316644,28.0370706 10.5183447,28.9425088 11.0558917,29.6261628 C9.01445527,29.1886118 7.15803932,28.2483085 5.6229094,26.9415492 L5.6229094,26.9415492 Z M13.6625134,29.9021059 C12.3776798,29.9021059 10.9999322,27.852757 10.1640792,24.4895145 C11.2886114,24.1604052 12.4647556,23.9895538 13.6625134,23.9895538 C14.8598986,23.9895538 16.0360427,24.1606534 17.1608855,24.4898867 C16.3249083,27.852881 14.9472228,29.9021059 13.6625134,29.9021059 L13.6625134,29.9021059 Z M16.2690729,29.6261628 C16.8066199,28.9425088 17.2933003,28.0370706 17.7109783,26.9281491 C17.9475487,26.3000188 18.157661,25.6211417 18.3399487,24.9011338 C19.5527368,25.3938981 20.6875789,26.0794132 21.7016826,26.9417974 C20.1666148,28.2484326 18.3103231,29.1886118 16.2690729,29.6261628 L16.2690729,29.6261628 Z M22.610637,26.0867957 C21.4154877,25.0496517 20.0642604,24.237642 18.6153368,23.674527 C18.9531436,21.9692385 19.1474803,20.0842891 19.1813293,18.1250808 L26.0583288,18.1250808 C25.9054803,21.2074792 24.6202741,23.9970603 22.610637,26.0867957 L22.610637,26.0867957 Z" id="Shape"></path>
                    <path d="M26.910951,5.51805521 C26.910951,3.65785885 25.3958821,2.14451451 23.5336279,2.14451451 C21.6713738,2.14451451 20.1563048,3.65785885 20.1563048,5.51805521 C20.1563048,7.37818953 21.6713738,8.89153386 23.5336279,8.89153386 C25.3958199,8.89153386 26.910951,7.37825157 26.910951,5.51805521 L26.910951,5.51805521 Z M21.398408,5.51805521 C21.398408,4.34200911 22.3562416,3.38526579 23.5335658,3.38526579 C24.71089,3.38526579 25.6687236,4.34200911 25.6687236,5.51805521 C25.6687236,6.69410131 24.71089,7.65078258 23.5335658,7.65078258 C22.3562416,7.65078258 21.398408,6.69410131 21.398408,5.51805521 L21.398408,5.51805521 Z" id="Shape"></path>
                </g>
            </g>
        </g>
    </g>
</svg>