<?xml version="1.0" encoding="UTF-8" standalone="no"?>
<svg width="41px" height="54px" viewBox="0 0 41 54" version="1.1" xmlns="http://www.w3.org/2000/svg" xmlns:xlink="http://www.w3.org/1999/xlink">
    <!-- Generator: sketchtool 40.1 (33804) - http://www.bohemiancoding.com/sketch -->
    <title>E5BABA57-1DA1-4382-B9EB-892A148F6F96</title>
    <desc>Created with sketchtool.</desc>
    <defs></defs>
    <g id="Web-Design" stroke="none" stroke-width="1" fill="none" fill-rule="evenodd">
        <g id="Product-line-professionals" transform="translate(-1382.000000, -2469.000000)" fill="#8B5B29">
            <g id="grapes" transform="translate(1382.000000, 2469.000000)">
                <path d="M26.7423043,19.0775721 C27.4435647,21.8158519 29.9161692,23.6408796 32.621121,23.6407741 C33.1178778,23.6406687 33.6226503,23.5791805 34.1255243,23.4504034 C34.8279448,23.2704741 35.4576975,22.9502716 35.9943214,22.5287138 C36.133118,22.5045615 36.2717037,22.4768233 36.4095511,22.4415968 C39.2413815,21.7165006 40.9551399,18.8226546 40.2301491,15.9910352 C40.0802783,15.4060012 39.4852248,15.0528925 38.899347,15.2028687 C38.3142075,15.3527395 37.9613098,15.9485314 38.1111806,16.5336708 C38.2914263,17.2377788 38.2143288,17.9481095 37.9400051,18.5658387 C37.9425364,18.140695 37.891806,17.7085904 37.7814859,17.2778569 C37.1963464,14.9931973 34.8614838,13.6105047 32.5771406,14.1955387 C31.635201,14.4368507 30.8434487,15.0303222 30.3479574,15.8670042 C29.8525717,16.7036861 29.712404,17.6831725 29.953716,18.6252175 C29.9653176,18.6704635 29.9803996,18.7138111 29.9971691,18.756104 C30.284149,19.7673364 30.8526244,20.6525339 31.6376268,21.3250013 C30.3199028,20.9775879 29.2227135,19.9463165 28.8612728,18.5351474 C28.1980866,15.9452618 29.6464862,13.3027475 32.122993,12.4323156 C33.0017569,12.1740231 33.9139544,12.0053789 34.849144,11.9340822 C35.4515803,11.8880979 35.9024583,11.3626536 35.856474,10.7604282 C35.8107007,10.1580973 35.2857837,9.70753573 34.6828201,9.75309814 C33.8266264,9.81838317 32.9868859,9.95380478 32.1695047,10.1544059 C32.1168759,10.1599958 32.0641416,10.1680114 32.0114073,10.1814059 C31.8345366,10.2266519 31.66199,10.2801245 31.4916583,10.3374993 C28.6971638,11.1611032 26.1959773,12.7699204 24.2553561,15.0307441 C23.2992837,16.1447028 22.5211368,17.369509 21.9297747,18.6704635 C21.3645687,17.1877867 20.5336875,15.8026684 19.4555881,14.5758583 C18.9194915,13.9658282 18.3364614,13.4116965 17.7143024,12.9157834 C19.2633189,11.7751411 20.3378325,10.0534726 20.6450623,8.10399198 C21.0572334,5.48974318 20.0347159,2.83815852 17.9762863,1.18398988 C17.6724314,0.939830196 17.2616314,0.875916258 16.897765,1.01608395 C16.1243641,1.31445446 15.4041194,1.7431841 14.7717301,2.27822602 C13.1490965,0.81780309 11.0393037,0 8.82499167,0 L8.79535501,0 C8.40554327,0.00126562253 8.04579007,0.21009334 7.85130607,0.547803618 C7.00850693,2.01096873 6.60076554,3.6761061 6.66246464,5.34409112 C4.28256695,5.47750883 2.02300886,6.48283499 0.317898909,8.19923008 C0.0430478831,8.4757686 -0.0636862835,8.87770922 0.0375635188,9.25412646 C0.665312293,11.5868797 2.12098914,13.5817118 4.1093876,14.8836155 C3.22218621,16.2981596 2.74325355,17.9445235 2.7424098,19.6337077 C2.74219886,20.023625 2.94955002,20.3841164 3.28662749,20.5799715 C5.21037373,21.6977272 7.45717012,22.0483046 9.6020839,21.5919422 C9.8827357,22.3712493 10.2923755,23.1024627 10.8133901,23.7470864 C11.0228507,24.0063281 11.3366196,24.1532458 11.663783,24.1532458 C11.7194704,24.1532458 11.7754742,24.1490271 11.8315835,24.1403786 C14.4409807,23.7355904 16.651285,21.9494806 17.6001855,19.4787745 C17.9912628,18.4604757 18.145036,17.3851184 18.0742666,16.3293783 C19.8316889,18.4772452 20.7250075,21.1538259 20.6084647,23.9354533 C20.5838906,24.3089174 20.5727109,24.6847018 20.5754531,25.0621737 C19.0018624,25.3526341 17.6420565,26.2577651 16.7540113,27.5190634 C15.6657869,25.9735274 13.8693412,24.9608184 11.8397045,24.9608184 C8.52704303,24.9608184 5.83179439,27.6559616 5.83179439,30.9686231 C5.83179439,34.1011443 8.24217249,36.6800612 11.3054009,36.9515372 C10.9473352,37.7204029 10.7459957,38.5763856 10.7459957,39.4789854 C10.7459957,42.6121394 13.1572176,45.1912672 16.2211843,45.4618995 C15.8622748,46.2315035 15.6605135,47.0885408 15.6605135,47.9921953 C15.6605135,51.3048568 18.3556566,54 21.6683181,54 C24.9809796,54 27.6762283,51.3048568 27.6762283,47.9921953 C27.6762283,47.0885408 27.474467,46.231398 27.1155575,45.4618995 C30.1795242,45.1912672 32.590746,42.612034 32.590746,39.4789854 C32.590746,38.5763856 32.3894066,37.7204029 32.0313409,36.9515372 C35.0945693,36.6801666 37.5049474,34.1013553 37.5049474,30.9686231 C37.5049474,27.6559616 34.8096987,24.9608184 31.4970372,24.9608184 C29.4674006,24.9608184 27.6709549,25.9734219 26.5828359,27.5188525 C25.6951072,26.2580815 24.335934,25.3533724 22.7631871,25.0624901 C22.7611832,24.8268734 22.7650855,24.5919949 22.7756324,24.3580657 C22.7761597,24.3515267 22.7774254,24.3451985 22.7778472,24.338554 C22.7829097,24.2614565 22.7862847,24.184359 22.7899761,24.107367 C22.9706437,21.2946264 24.0492705,18.6291199 25.9153255,16.4552022 C26.1678172,16.1610505 26.4321213,15.8805041 26.7058122,15.6124031 C26.4469924,16.7194009 26.4412971,17.9021252 26.7423043,19.0775721 L26.7423043,19.0775721 Z M32.2300436,16.9814903 C32.4279026,16.6474714 32.7437809,16.410589 33.1197762,16.3144017 C34.2358444,16.0281601 35.3768031,16.7042135 35.6626228,17.8203871 C35.9054114,18.7685493 35.6452205,19.7291568 35.0506944,20.4201867 C34.5125938,20.4134367 33.9831418,20.2669409 33.507795,19.9853399 C32.7920855,19.5614618 32.2844654,18.8842483 32.0780634,18.0784686 C32.0728955,18.058535 32.0661455,18.0396562 32.0600283,18.0203554 C31.9846183,17.6635553 32.0431534,17.2970522 32.2300436,16.9814903 L32.2300436,16.9814903 Z M15.7083962,11.5928914 C14.029337,10.6914518 12.1610672,10.1525075 10.2011452,10.0261562 C9.59691594,9.98607815 9.07811617,10.4442335 9.03919828,11.0470917 C9.00038586,11.6498444 9.45738106,12.1700153 10.0601338,12.2089332 C11.7394039,12.3173548 13.338518,12.7866899 14.7695152,13.5729579 C14.7724683,13.5762274 14.7748941,13.5800243 14.7778472,13.5833993 C15.9200716,15.0204082 16.2199186,16.9728418 15.5586309,18.6949322 C14.9691672,20.229816 13.6894119,21.3896535 12.1359657,21.8380003 C11.7966734,21.289353 11.5591582,20.6781627 11.4397678,20.0411327 C11.3808109,19.7269419 11.1873816,19.4542003 10.9102103,19.2947318 C10.7424098,19.1981227 10.5541484,19.1490798 10.3648324,19.1490798 C10.2414342,19.1490798 10.1176141,19.1699626 9.99885656,19.2120445 C8.34416058,19.7995043 6.54201956,19.7133365 4.9613625,18.987502 C5.0944638,17.6113484 5.64659163,16.3031166 6.54929689,15.2482202 C6.77046443,14.9898223 6.85884707,14.6432526 6.78839408,14.3104994 C6.71783563,13.9778516 6.49666809,13.6967779 6.18975463,13.5501767 C4.39288704,12.6917682 3.01863192,11.1645837 2.34416058,9.30232558 C3.85394278,8.02162105 5.80732569,7.38385277 7.79762258,7.53941887 C8.13659848,7.5654696 8.46903533,7.43321204 8.69642551,7.18019301 C8.92381569,6.92717397 9.02063582,6.58271371 8.95809297,6.24827295 C8.7031755,4.88372093 8.87835875,3.47476665 9.4505256,2.21631598 C11.1821082,2.37726098 12.7867066,3.20286874 13.9265051,4.53799504 C14.1340672,4.78110004 14.4377112,4.9213732 14.7573863,4.92158414 L14.7583355,4.92158414 C15.0776943,4.92158414 15.3810218,4.78204925 15.5890058,4.5394716 C16.0105636,4.04724991 16.5218751,3.63644993 17.0900341,3.33038021 C18.211903,4.49475294 18.7410387,6.1387966 18.4848556,7.76301218 C18.2239264,9.41876285 17.1785222,10.8407952 15.7083962,11.5928914 L15.7083962,11.5928914 Z M11.8399155,34.7891156 C9.7331813,34.7891156 8.01931746,33.0752518 8.01931746,30.9685176 C8.01931746,28.8618889 9.7331813,27.1480251 11.8399155,27.1480251 C13.9466496,27.1480251 15.6605135,28.8618889 15.6605135,30.9685176 C15.6605135,33.0752518 13.9466496,34.7891156 11.8399155,34.7891156 L11.8399155,34.7891156 Z M16.7541168,43.2993725 C14.6473826,43.2993725 12.9335188,41.5855086 12.9335188,39.4787745 C12.9335188,37.3720403 14.6473826,35.6581764 16.7541168,35.6581764 C18.860851,35.6581764 20.5747148,37.3720403 20.5747148,39.4787745 C20.5747148,41.5855086 18.860851,43.2993725 16.7541168,43.2993725 L16.7541168,43.2993725 Z M21.6684236,51.8125824 C19.5617949,51.8125824 17.8479311,50.0987186 17.8479311,47.9920899 C17.8479311,45.8853557 19.5617949,44.1714919 21.6684236,44.1714919 C23.7751578,44.1714919 25.4890216,45.8853557 25.4890216,47.9920899 C25.4889162,50.0987186 23.7751578,51.8125824 21.6684236,51.8125824 L21.6684236,51.8125824 Z M31.4970372,27.1481306 C33.6037714,27.1481306 35.3176352,28.8619944 35.3176352,30.9686231 C35.3176352,33.0753573 33.6037714,34.7892211 31.4970372,34.7892211 C29.3903031,34.7892211 27.6764392,33.0753573 27.6764392,30.9686231 C27.6764392,28.8619944 29.3903031,27.1481306 31.4970372,27.1481306 L31.4970372,27.1481306 Z M26.5827304,35.6581764 C28.6894646,35.6581764 30.4033284,37.3720403 30.4033284,39.4787745 C30.4033284,41.5855086 28.6894646,43.2993725 26.5827304,43.2993725 C24.4759963,43.2993725 22.7621324,41.5855086 22.7621324,39.4787745 C22.7621324,37.3720403 24.4759963,35.6581764 26.5827304,35.6581764 L26.5827304,35.6581764 Z M25.4891271,30.9685176 C25.4891271,33.0752518 23.7752632,34.7891156 21.6685291,34.7891156 C19.5617949,34.7891156 17.8479311,33.0752518 17.8479311,30.9685176 C17.8479311,28.8618889 19.5617949,27.1480251 21.6685291,27.1480251 C23.7752632,27.1481306 25.4891271,28.8619944 25.4891271,30.9685176 L25.4891271,30.9685176 Z" id="Shape"></path>
            </g>
        </g>
    </g>
</svg>