<?xml version="1.0" encoding="UTF-8" standalone="no"?>
<svg width="43px" height="56px" viewBox="0 0 43 56" version="1.1" xmlns="http://www.w3.org/2000/svg" xmlns:xlink="http://www.w3.org/1999/xlink">
    <!-- Generator: sketchtool 40.1 (33804) - http://www.bohemiancoding.com/sketch -->
    <title>5D5452CD-624E-442C-B9B3-B3D7BFDC58EF</title>
    <desc>Created with sketchtool.</desc>
    <defs></defs>
    <g id="Web-Design" stroke="none" stroke-width="1" fill="none" fill-rule="evenodd">
        <g id="User-line-d" transform="translate(-577.000000, -543.000000)" fill="#658D1B">
            <g id="Group-28" transform="translate(576.000000, 543.000000)">
                <g id="Home-icon" transform="translate(0.823529, 0.000000)">
                    <path d="M23.5682506,16.7784421 C22.6292626,16.2743018 21.6872688,15.6124721 20.8089626,14.7771031 C17.8185473,11.9328783 16.2692429,7.84139835 16.9437781,2.14704295 L15.558325,3.2416626 C20.1672121,3.77666084 22.875187,6.48024072 24.1845795,10.7975406 C24.9492497,13.3187941 25.1299135,16.0090156 24.9782221,18.33235 C24.9620677,18.5797747 24.9464286,18.749186 24.9370863,18.8294429 L25.662375,17.8355937 L1.48367226,28.8021877 C1.03692911,29.0048144 0.75,29.4500185 0.75,29.9405662 L0.75,53.881417 C0.75,54.571773 1.30964406,55.131417 2,55.131417 L41.7647059,55.131417 C42.4550618,55.131417 43.0147059,54.571773 43.0147059,53.881417 L43.0147059,29.9405662 C43.0147059,29.5221428 42.8053507,29.1314702 42.4569492,28.8997496 L32.2419836,22.1058138 C31.6671564,21.7234984 30.8912391,21.87956 30.5089237,22.4543872 C30.1266083,23.0292143 30.2826699,23.8051317 30.857497,24.1874471 L41.0724626,30.9813828 L40.5147059,29.9405662 L40.5147059,53.881417 L41.7647059,52.631417 L2,52.631417 L3.25,53.881417 L3.25,29.9405662 L2.51632774,31.0789447 L26.6950305,20.1123508 C27.0943824,19.931219 27.3696171,19.5540701 27.4203191,19.1185015 C27.4344087,18.9974616 27.4539173,18.7861332 27.4729105,18.4952292 C27.6424866,15.8979708 27.4429957,12.9274002 26.5769683,10.0719538 C24.9999319,4.87218484 21.5415398,1.41940563 15.8465887,0.758337398 C15.1619741,0.678867542 14.5422106,1.1685307 14.4611356,1.85295705 C13.69216,8.34456865 15.5349587,13.2111227 19.0860289,16.588594 C20.1355646,17.5868218 21.2591158,18.3762107 22.3856727,18.9810563 C23.0730494,19.3501071 23.6213641,19.5796042 23.9624953,19.6921056 C24.6181181,19.9083231 25.3248844,19.5521146 25.5411018,18.8964918 C25.7573192,18.2408689 25.4011108,17.5341027 24.7454879,17.3178852 C24.5358071,17.2487347 24.1202009,17.0747828 23.5682506,16.7784421 Z" id="Path-3"></path>
                    <path d="M32.2660406,38.4306831 C32.065662,38.6426863 31.8303495,38.8805356 31.5626632,39.1377129 C30.7943056,39.8759059 29.9258899,40.6150861 28.979108,41.3032563 C25.1653578,44.0752876 21.3453635,45.1721152 17.885907,43.7691803 C16.3558455,43.1486849 14.8945565,42.0375717 13.5135102,40.3708027 C13.0730491,39.8392152 12.2850479,39.7653427 11.7534604,40.2058038 C11.2218729,40.646265 11.1480004,41.4342661 11.5884615,41.9658537 C13.2241678,43.9399688 15.0178789,45.3038443 16.946384,46.0859229 C21.3767194,47.8825844 26.0094154,46.5524072 30.4489804,43.3255013 C31.4942089,42.5657751 32.4483372,41.7536378 33.2946883,40.9405133 C33.8068578,40.4484507 34.1737806,40.0602414 34.3773386,39.8271765 C34.8314686,39.3072176 34.7781038,38.5175626 34.2581449,38.0634325 C33.738186,37.6093025 32.9485309,37.6626673 32.4944009,38.1826262 C32.4597583,38.2222905 32.382803,38.3071468 32.2660406,38.4306831 Z" id="Path-4"></path>
                </g>
            </g>
        </g>
    </g>
</svg>