<?xml version="1.0" encoding="UTF-8" standalone="no"?>
<svg width="30px" height="39px" viewBox="0 0 30 39" version="1.1" xmlns="http://www.w3.org/2000/svg" xmlns:xlink="http://www.w3.org/1999/xlink">
    <!-- Generator: sketchtool 40.1 (33804) - http://www.bohemiancoding.com/sketch -->
    <title>F98D60B4-7ED6-4AE0-8899-F336D39AD416</title>
    <desc>Created with sketchtool.</desc>
    <defs></defs>
    <g id="Web-Design" stroke="none" stroke-width="1" fill="none" fill-rule="evenodd">
        <g id="FAQ-d" transform="translate(-398.000000, -431.000000)" fill="#658D1B">
            <g id="Home-line" transform="translate(398.000000, 431.000000)">
                <path d="M16.1966706,11.4949646 C15.5301655,11.1334177 14.8615269,10.6587831 14.2380946,10.0596939 C12.1154616,8.01994328 11.0157465,5.08571717 11.4945398,1.00198058 L10.5111284,1.78699276 C13.7825723,2.17066952 15.7047256,4.10955589 16.6341483,7.20572998 C17.1769205,9.01386 17.3051578,10.9431664 17.1974854,12.6093577 C17.1860188,12.7867996 17.174918,12.9082938 17.1682868,12.9658505 L17.6831054,12.2531064 L0.520769452,20.1178562 C0.203665755,20.263171 0,20.5824515 0,20.9342503 L0,38.103556 C0,38.5986483 0.397242132,39 0.887265136,39 L29.1127349,39 C29.6027579,39 30,38.5986483 30,38.103556 L30,20.9342503 C30,20.6341758 29.8513972,20.3540029 29.6040975,20.1878233 L22.3533913,15.3155169 C21.945372,15.0413374 21.3946165,15.1532578 21.1232443,15.5654981 C20.8518722,15.9777384 20.9626467,16.5341915 21.3706659,16.808371 L28.6213722,21.6806774 L28.2254697,20.9342503 L28.2254697,38.103556 L29.1127349,37.207112 L0.887265136,37.207112 L1.77453027,38.103556 L1.77453027,20.9342503 L1.25376082,21.7506444 L18.4160968,13.8858945 C18.6995616,13.755995 18.8949266,13.4855206 18.9309155,13.1731504 C18.9409164,13.086346 18.9547638,12.9347907 18.9682455,12.7261674 C19.0886126,10.86353 18.9470116,8.73316984 18.3322948,6.6853716 C17.2128953,2.95633026 14.7580867,0.480151689 10.7157414,0.0060631708 C10.2297937,-0.0509290494 9.78987809,0.300235432 9.7323301,0.791075345 C9.1865019,5.44656837 10.4945427,8.93664288 13.0151353,11.358814 C13.7601085,12.0746983 14.5576187,12.6408127 15.3572624,13.0745808 C15.8451707,13.3392475 16.2343712,13.5038326 16.4765102,13.5845135 C16.9418793,13.739575 17.4435505,13.4841182 17.5970242,13.0139349 C17.750498,12.5437516 17.4976569,12.0368905 17.0322879,11.881829 C16.8834539,11.8322374 16.5884516,11.7074868 16.1966706,11.4949646 Z" id="Path-3"></path>
                <path d="M21.344338,26.5177254 C21.2072387,26.6801396 21.0462376,26.8623544 20.8630863,27.0593762 C20.3373751,27.6249011 19.7432041,28.1911821 19.0954148,28.7183848 C16.4860424,30.8420196 13.8723978,31.682292 11.5054336,30.6075128 C10.4585637,30.1321554 9.45874805,29.2809389 8.51383453,28.0040382 C8.21247049,27.5967925 7.67331917,27.5401993 7.30960636,27.8776337 C6.94589355,28.2150681 6.89534989,28.8187505 7.19671393,29.2259962 C8.31586608,30.7383528 9.54312536,31.7832088 10.8626108,32.3823541 C13.8938515,33.7587646 17.0635477,32.7397246 20.1011033,30.2676133 C20.8162498,29.6855921 21.4690656,29.063419 22.0481399,28.4404897 C22.398567,28.0635239 22.649616,27.7661193 22.7888906,27.5875698 C23.0996069,27.1892327 23.0630946,26.5842832 22.7073381,26.2363772 C22.3515816,25.8884711 21.8112987,25.9293536 21.5005824,26.3276907 C21.4768799,26.3580772 21.424227,26.4230851 21.344338,26.5177254 Z" id="Path-4"></path>
            </g>
        </g>
    </g>
</svg>