<?xml version="1.0" encoding="UTF-8" standalone="no"?>
<svg width="49px" height="27px" viewBox="0 0 49 27" version="1.1" xmlns="http://www.w3.org/2000/svg" xmlns:xlink="http://www.w3.org/1999/xlink">
    <!-- Generator: sketchtool 40.1 (33804) - http://www.bohemiancoding.com/sketch -->
    <title>409954F2-75B6-417A-A166-0EFB359D2D41</title>
    <desc>Created with sketchtool.</desc>
    <defs></defs>
    <g id="Web-Design" stroke="none" stroke-width="1" fill="none" fill-rule="evenodd">
        <g id="Product-line-professionals" transform="translate(-440.000000, -839.000000)">
            <g id="Humus" transform="translate(440.000000, 839.000000)">
                <path d="M42.1626946,27 C46.0138417,27 46.0138417,27 46.465343,27 L46.8564156,27 L47.1545812,26.74173 C47.4094294,26.5209815 47.7514564,26.1471555 48.0881201,25.6264972 C48.8253236,24.4863946 49.17827,23.1562138 48.9112157,21.6948196 C48.6977579,20.5267205 48.1002485,19.3600007 47.2435302,18.2088613 C46.8806012,17.7212075 46.4938691,17.2683824 46.1067143,16.8596523 C45.8719035,16.6117561 45.6855682,16.4303659 45.5712552,16.3261397 L45.9026029,17.3672453 C45.9400335,17.191055 45.9925663,16.8931538 46.0441502,16.5012162 C46.1966153,15.3427771 46.2365917,14.137749 46.0920371,12.987937 C45.9549132,11.8972292 45.6577752,10.9337668 45.1583126,10.1362967 C44.5257982,9.1263886 43.5665128,8.41460634 42.3896037,7.94538005 C41.1764232,7.46169262 39.9874819,7.30459976 39.1426972,7.30605228 C39.1413538,7.30605516 40.2093544,8.39318524 40.2093544,8.39318524 C40.2093544,7.24888529 39.8651616,5.6236427 38.8268414,3.98936303 C37.9718709,2.64366933 36.7539065,1.5453545 35.1373677,0.791843868 C34.9556449,0.707138178 34.7719798,0.629810937 34.5864802,0.559767513 C32.086975,-0.384029395 29.4699486,0.0124049763 26.9704572,1.21841063 C26.0669781,1.65433967 25.3834191,2.09384161 24.9826196,2.40293659 L26.1397696,2.3186799 C25.9994875,2.23959823 25.7518718,2.10961488 25.4110771,1.94575308 C24.8509791,1.6764453 24.2267604,1.40790329 23.5521859,1.15727457 C21.4370373,0.371420766 19.3023735,-0.0723471576 17.2727661,0.00968840609 C16.0310206,0.0598790457 14.8689371,0.309615644 13.807655,0.785374388 C11.8101547,1.68082747 10.2465344,3.28271767 9.05664645,5.36812409 C8.41310142,6.49600591 7.91868544,7.69605356 7.55135477,8.89539886 C7.32990691,9.61843254 7.19840323,10.1883022 7.13862723,10.5315962 L8.38121584,9.65283793 C8.31038486,9.63945788 8.19957619,9.62268887 8.05408216,9.60693643 C7.12144457,9.50596097 6.08952751,9.57113039 5.0839464,9.93539398 C3.87213586,10.3743625 2.89405791,11.1995394 2.28810468,12.4549119 C2.00803182,13.0351477 1.83338647,13.6562739 1.75468048,14.3084045 C1.58752782,15.6933738 1.84998071,17.1257321 2.3815412,18.525524 C2.63191699,19.1848544 2.88491637,19.6941209 3.06484189,20.0004787 L3.72716534,18.3851039 C3.25287823,18.502618 2.59866127,18.7590268 1.93258504,19.2121299 C1.06470545,19.8025112 0.423050989,20.5894755 0.1455084,21.6009727 C0.0727886467,21.8659981 0.0282248621,22.1383031 0.00993039237,22.4163006 C-0.0556408273,23.4127023 0.207684863,24.4185555 0.676469369,25.4011619 C0.921614562,25.9150041 1.16861908,26.3144119 1.34695837,26.5600695 L1.66633338,27 L2.20280063,27 C2.29083032,27 2.29083032,27 5.05156282,27 L22.8801856,27 L42.1626946,27 Z M5.05156282,24.8257324 C2.29083032,24.8257324 2.29083032,24.8257324 2.20280063,24.8257324 L2.20280063,25.9128662 L3.05864289,25.2656629 C2.95265265,25.1196642 2.77316288,24.8294281 2.59181378,24.4493072 C2.27128389,23.7774532 2.09883871,23.118746 2.13547658,22.5620073 C2.1441679,22.4299365 2.16459516,22.3051167 2.19691977,22.1873104 C2.32154988,21.733099 2.63756211,21.3455222 3.11409266,21.0213589 C3.36160353,20.8529879 3.63350399,20.7150631 3.9055792,20.608428 C4.06468012,20.5460712 4.18078647,20.5101301 4.22973575,20.4980019 L5.63612434,20.1495412 L4.8920592,18.8826271 C4.86676926,18.8395662 4.81286737,18.7406214 4.73981146,18.593566 C4.61364294,18.3395994 4.48657297,18.0522821 4.36790469,17.7397854 C3.95233388,16.6454365 3.75140601,15.5488561 3.86903527,14.5742206 C3.91945176,14.1564869 4.02808935,13.7701173 4.19912556,13.4157762 C4.54648606,12.6961384 5.08426043,12.2424333 5.79650094,11.98443 C6.45591329,11.7455632 7.18622207,11.6994415 7.82935488,11.7690726 C7.9180826,11.778679 7.974844,11.7872689 7.99350918,11.7907948 L9.04838679,11.9900623 L9.23609779,10.9120365 C9.2458298,10.8561455 9.27013911,10.7349353 9.31097557,10.557971 C9.38114649,10.2538862 9.4717651,9.91271977 9.58466367,9.54410267 C9.90740294,8.49034958 10.3412566,7.43729885 10.8975763,6.46228884 C11.8777814,4.74437414 13.1258223,3.46578718 14.664363,2.77607966 C15.4677237,2.41594365 16.3693755,2.22217491 17.3570671,2.18225298 C19.0702467,2.11300725 20.9467183,2.5031005 22.8234647,3.2003793 C23.4341489,3.42727046 23.9991968,3.6703569 24.5031678,3.91267755 C24.8008145,4.05579282 25.0080317,4.16456941 25.1097688,4.22192199 L25.7151438,4.56319198 L26.2669188,4.1376653 C26.3303989,4.08870969 26.4703843,3.98925454 26.6775587,3.85604947 C27.0325296,3.6278169 27.4369288,3.39833116 27.8809567,3.18408751 C29.9110575,2.20456302 31.9748581,1.89193281 33.8472983,2.59895405 C33.9835511,2.65040222 34.1185716,2.70724893 34.2523579,2.76961019 C35.4919577,3.34741978 36.4005108,4.16671908 37.0394027,5.17231253 C37.4940152,5.88785677 37.7882056,6.65959917 37.951679,7.43150317 C38.0480487,7.88655096 38.0790193,8.22777751 38.0790193,8.39318524 L38.0790193,9.4839726 L39.1477606,9.48031293 C39.2894387,9.48007067 39.5606698,9.49517559 39.9141208,9.5418765 C40.4996849,9.61924612 41.0823778,9.75847177 41.614458,9.97060878 C42.4032349,10.2850892 43.0008313,10.728501 43.3633608,11.307336 C43.6737195,11.8028722 43.8788842,12.4681138 43.9790255,13.2646548 C44.0965928,14.1998056 44.0625604,15.2256619 43.9327783,16.2117538 C43.8892322,16.5426203 43.8466349,16.7841794 43.8206455,16.9065147 L43.6891253,17.5255954 L44.1519931,17.9476202 C44.2293913,18.0181889 44.3785506,18.1633896 44.57509,18.3708817 C44.9068521,18.7211322 45.239037,19.1100879 45.5470971,19.5240164 C46.2209243,20.4294121 46.6748919,21.3158466 46.8169932,22.0934636 C46.972464,22.9442424 46.7653558,23.7247895 46.3100783,24.4288869 C46.0964248,24.7593072 45.8881347,24.9869624 45.7761047,25.0840024 L46.465343,24.8257324 C46.0138417,24.8257324 46.0138417,24.8257324 42.1626946,24.8257324 L22.8801856,24.8257324 L5.05156282,24.8257324 Z" id="Path-6" fill="#373737"></path>
                <circle id="Oval-2" fill="#658D1B" cx="11.5" cy="14.5" r="1.5"></circle>
                <circle id="Oval-2-Copy" fill="#658D1B" cx="24.5" cy="13.5" r="1.5"></circle>
                <circle id="Oval-2-Copy-2" fill="#658D1B" cx="30.5" cy="8.5" r="1.5"></circle>
                <circle id="Oval-2-Copy-5" fill="#658D1B" cx="31.5" cy="19.5" r="1.5"></circle>
                <circle id="Oval-2-Copy-6" fill="#658D1B" cx="37" cy="16" r="1"></circle>
                <circle id="Oval-2-Copy-13" fill="#658D1B" cx="40" cy="22" r="1"></circle>
                <circle id="Oval-2-Copy-10" fill="#658D1B" cx="19" cy="9" r="1"></circle>
                <circle id="Oval-2-Copy-11" fill="#658D1B" cx="19" cy="19" r="1"></circle>
                <circle id="Oval-2-Copy-12" fill="#658D1B" cx="8" cy="22" r="1"></circle>
            </g>
        </g>
    </g>
</svg>