<?xml version="1.0" encoding="UTF-8" standalone="no"?>
<svg width="60px" height="60px" viewBox="0 0 60 60" version="1.1" xmlns="http://www.w3.org/2000/svg" xmlns:xlink="http://www.w3.org/1999/xlink">
    <!-- Generator: sketchtool 40.1 (33804) - http://www.bohemiancoding.com/sketch -->
    <title>E1C4B66D-EEDE-4CDF-BCBC-0392D727ACBF</title>
    <desc>Created with sketchtool.</desc>
    <defs></defs>
    <g id="Web-Design" stroke="none" stroke-width="1" fill="none" fill-rule="evenodd">
        <g id="Main-page-4-d" transform="translate(-1029.000000, -1266.000000)">
            <g id="icon-Agro-prob" transform="translate(1029.000000, 1266.000000)">
                <g id="Group-20-Copy-2" fill="#FFFFFF">
                    <circle id="Oval-3" cx="30" cy="30" r="30"></circle>
                </g>
                <path d="M56.1535166,27.6251671 L45.4393587,27.6251671 L45.4393587,22.0801707 C45.4393587,20.9319075 44.5160164,20.0084993 43.3663692,20.0084993 C42.2177106,20.0084993 41.2945001,20.9319075 41.2945001,22.0801707 L41.2945001,27.6251671 L36.7844168,27.6251671 L36.7844168,17.7537542 C36.7844168,16.6035798 35.8608768,15.6803693 34.7118227,15.6803693 C33.5622415,15.6803693 32.6386356,16.6035798 32.6386356,17.7537542 L32.6386356,27.6251671 L28.1285523,27.6251671 L28.1285523,17.7537542 C28.1285523,16.6035798 27.2053418,15.6803693 26.0576058,15.6803693 C24.9076291,15.6803693 23.9846163,16.6035798 23.9846163,17.7537542 L23.9846163,27.6251671 L23.9458005,27.6251671 L19.4751261,27.6251671 L19.4751261,22.0801707 C19.4751261,20.9319075 18.5517179,20.0084993 17.4028616,20.0084993 C16.2538075,20.0084993 15.3304652,20.9319075 15.3304652,22.0801707 L15.3304652,27.6251671 L4.61630723,27.6251671 C5.11715667,21.3129485 7.88467932,15.638522 12.1050607,11.4180088 C16.7824673,6.74093179 23.2457975,3.84615385 30.3844177,3.84615385 C37.5230379,3.84615385 43.9863681,6.74093179 48.6647631,11.4180088 C52.8847492,15.638522 55.6522718,21.3129485 56.1535166,27.6251671 L56.1535166,27.6251671 Z M4.61538462,31.7707506 L15.3304652,31.7707506 L15.3304652,37.3154175 C15.3304652,38.4638784 16.2538075,39.3861663 17.4028616,39.3861663 C18.5517179,39.3861663 19.4751261,38.4605175 19.4751261,37.3154175 L19.4751261,31.7707506 L23.9458005,31.7707506 L23.9846163,31.7707506 L23.9846163,41.641834 C23.9846163,42.7908881 24.9076291,43.7146258 26.0576058,43.7146258 C27.2053418,43.7146258 28.1285523,42.786934 28.1285523,41.641834 L28.1285523,31.7707506 L32.6386356,31.7707506 L32.6386356,41.641834 C32.6386356,42.7908881 33.5622415,43.7146258 34.7118227,43.7146258 C35.8608768,43.7146258 36.7844168,42.786934 36.7844168,41.641834 L36.7844168,31.7707506 L41.2945001,31.7707506 L41.2945001,37.3154175 C41.2945001,38.4638784 42.2177106,39.3861663 43.3663692,39.3861663 C44.5160164,39.3861663 45.4393587,38.4605175 45.4393587,37.3154175 L45.4393587,31.7707506 L56.1538462,31.7707506 C55.6533921,38.083167 52.8847492,43.7564731 48.6647631,47.9769863 C43.9863681,52.6553814 37.5230379,55.5486436 30.3844177,55.5486436 C23.2457975,55.5486436 16.7824673,52.6553814 12.1050607,47.9769863 C7.88467932,43.7564731 5.11583865,38.083167 4.61538462,31.7707506 L4.61538462,31.7707506 Z" id="Fill-33" fill="#8B5B29"></path>
            </g>
        </g>
    </g>
</svg>