<?xml version="1.0" encoding="UTF-8" standalone="no"?>
<svg width="54px" height="52px" viewBox="0 0 54 52" version="1.1" xmlns="http://www.w3.org/2000/svg" xmlns:xlink="http://www.w3.org/1999/xlink">
    <!-- Generator: sketchtool 40.1 (33804) - http://www.bohemiancoding.com/sketch -->
    <title>3BEDD373-DE16-41A4-AA27-2E111256D517</title>
    <desc>Created with sketchtool.</desc>
    <defs></defs>
    <g id="Web-Design" stroke="none" stroke-width="1" fill="none" fill-rule="evenodd">
        <g id="Industrial-line-d" transform="translate(-612.000000, -546.000000)" fill="#A72729">
            <g id="Group-27" transform="translate(612.000000, 546.000000)">
                <g id="power-plant">
                    <path d="M39.9637576,17.9164848 C36.824,17.9164848 33.9212121,16.2912727 31.3712727,14.8539394 C31.1847273,14.7676364 31.0050909,14.6664242 30.8358788,14.552 C26.0574545,11.8615758 22.8738182,10.5191515 19.0838788,14.3843636 C18.5918788,14.886303 17.7859394,14.8941818 17.284,14.4020606 C16.7821818,13.9099394 16.7741818,13.1041212 17.266303,12.6021818 C22.7105455,7.05006061 27.9361212,9.99551515 32.1349091,12.362303 C32.1716364,12.3830303 32.2072727,12.4054545 32.241697,12.429697 C32.3095758,12.4773333 32.3831515,12.5187879 32.4607273,12.5529697 C32.4987879,12.5698182 32.536,12.5883636 32.5722424,12.6088485 C37.7678788,15.537697 41.2363636,16.9986667 45.5843636,12.6020606 C46.0786667,12.102303 46.8844848,12.0978182 47.3842424,12.592 C47.884,13.086303 47.8884848,13.8921212 47.394303,14.3918788 C44.8172121,16.9979394 42.3232727,17.9164848 39.9637576,17.9164848 L39.9637576,17.9164848 Z M36.3452121,6.78569697 C37.0481212,6.78569697 37.6179394,6.21587879 37.6179394,5.5129697 C37.6179394,3.93781818 38.8993939,2.65636364 40.4744242,2.65636364 C41.9749091,2.65636364 43.2266667,3.82751515 43.3243636,5.32266667 C43.3669091,5.97357576 43.8944242,6.48690909 44.5461818,6.51163636 C48.1545455,6.64824242 50.9809697,9.58569697 50.9809697,13.1990303 C50.9809697,16.8124848 48.1544242,19.7499394 44.5461818,19.8864242 C43.8944242,19.9111515 43.3669091,20.4243636 43.3242424,21.0752727 C43.2264242,22.5704242 41.9746667,23.741697 40.474303,23.741697 C38.8992727,23.741697 37.6178182,22.4603636 37.6178182,20.8853333 C37.6178182,20.1824242 37.048,19.6126061 36.3450909,19.6126061 C35.6421818,19.6126061 35.0723636,20.1824242 35.0723636,20.8853333 C35.0723636,23.8638788 37.4956364,26.2871515 40.474303,26.2871515 C42.9346667,26.2871515 45.0418182,24.6204848 45.6789091,22.3328485 C47.6756364,22.032 49.5135758,21.0872727 50.9361212,19.6133333 C52.6064242,17.8827879 53.526303,15.6047273 53.526303,13.1990303 C53.526303,10.7933333 52.6064242,8.51527273 50.9361212,6.78472727 C49.5135758,5.31078788 47.6757576,4.36606061 45.6790303,4.06521212 C45.0420606,1.77745455 42.9349091,0.110909091 40.474303,0.110909091 C37.4956364,0.110909091 35.0723636,2.53430303 35.0723636,5.5129697 C35.0724848,6.21587879 35.642303,6.78569697 36.3452121,6.78569697 L36.3452121,6.78569697 Z M11.8313939,14.6532121 C11.9721212,14.7031515 12.1156364,14.7267879 12.2569697,14.7267879 C12.7806061,14.7267879 13.2713939,14.4009697 13.4564848,13.8792727 C15.3802424,8.45636364 20.3850909,6.64169697 24.0793939,6.73587879 C26.9414545,6.80848485 29.528,7.9849697 33.5899394,10.2762424 L33.6113939,10.2886061 C35.0196364,11.1010909 36.6157576,12.0219394 38.2910303,12.3886061 C40.424,12.8555152 42.2665455,12.3225455 43.7673939,10.8048485 C44.2615758,10.3049697 44.2570909,9.49927273 43.7573333,9.0049697 C43.2575758,8.51078788 42.4517576,8.51539394 41.9574545,9.0150303 C40.1121212,10.8810909 37.9586667,9.85793939 34.8833939,8.08375758 L34.856,8.06787879 C34.8524848,8.06581818 34.8488485,8.06375758 34.8453333,8.06181818 C31.0601212,5.92666667 27.8687273,4.28581818 24.144,4.19127273 C19.5957576,4.07454545 13.4369697,6.32048485 11.0574545,13.0281212 C10.8224242,13.6906667 11.1689697,14.4181818 11.8313939,14.6532121 L11.8313939,14.6532121 Z M41.7446061,40.5734545 C42.4475152,40.5734545 43.0173333,40.0036364 43.0173333,39.3007273 L43.0173333,36.8111515 C43.0173333,36.1082424 42.4475152,35.5384242 41.7446061,35.5384242 C41.041697,35.5384242 40.4718788,36.1082424 40.4718788,36.8111515 L40.4718788,39.3007273 C40.4718788,40.0036364 41.041697,40.5734545 41.7446061,40.5734545 L41.7446061,40.5734545 Z M53.5264242,50.6878788 C53.5264242,51.3907879 52.9566061,51.9606061 52.253697,51.9606061 L30.4555152,51.9606061 C30.4427879,51.9608485 30.4300606,51.9608485 30.4174545,51.9606061 L20.0069091,51.9606061 C19.304,51.9606061 18.7341818,51.3907879 18.7341818,50.6878788 L18.7341818,46.5304242 C18.7341818,45.8275152 19.304,45.257697 20.0069091,45.257697 C20.7098182,45.257697 21.2796364,45.8275152 21.2796364,46.5304242 L21.2796364,49.4151515 L28.9889697,49.4151515 L25.2042424,20.3505455 L9.33006061,20.3505455 L5.54545455,49.4152727 L13.2549091,49.4153939 L13.2549091,46.530303 C13.2549091,45.8273939 13.8247273,45.2575758 14.5276364,45.2575758 C15.2305455,45.2575758 15.8003636,45.8273939 15.8003636,46.530303 L15.8003636,50.6881212 C15.8003636,51.025697 15.666303,51.3494545 15.4276364,51.5881212 C15.1889697,51.8267879 14.8652121,51.9608485 14.5276364,51.9608485 L4.11212121,51.9606061 C4.10266667,51.9607273 4.09321212,51.9607273 4.08363636,51.9606061 L1.27272727,51.9606061 C0.569818182,51.9606061 0,51.3907879 0,50.6878788 C0,49.9849697 0.569939394,49.4151515 1.27272727,49.4151515 L2.97854545,49.4151515 L6.95018182,18.9134545 C7.03272727,18.2795152 7.57284848,17.8050909 8.21224242,17.8050909 L26.3218182,17.8050909 C26.9612121,17.8050909 27.5013333,18.2795152 27.5838788,18.9134545 L29.2330909,31.5789091 L49.4298182,31.5789091 C50.1327273,31.5789091 50.7025455,32.1487273 50.7025455,32.8516364 L50.7025455,49.4151515 L52.2534545,49.4151515 C52.9566061,49.4151515 53.5264242,49.9849697 53.5264242,50.6878788 L53.5264242,50.6878788 Z M48.1572121,34.1243636 L29.5647273,34.1243636 L31.5558788,49.4151515 L48.1573333,49.4151515 L48.1573333,34.1243636 L48.1572121,34.1243636 Z M35.8842424,40.5734545 C36.5871515,40.5734545 37.1569697,40.0036364 37.1569697,39.3007273 L37.1569697,36.8111515 C37.1569697,36.1082424 36.5871515,35.5384242 35.8842424,35.5384242 C35.1813333,35.5384242 34.6115152,36.1082424 34.6115152,36.8111515 L34.6115152,39.3007273 C34.6115152,40.0036364 35.1813333,40.5734545 35.8842424,40.5734545 L35.8842424,40.5734545 Z" id="Industrial"></path>
                </g>
            </g>
        </g>
    </g>
</svg>