<?xml version="1.0" encoding="UTF-8"?>
<svg width="20px" height="20px" viewBox="0 0 20 20" version="1.1" xmlns="http://www.w3.org/2000/svg" xmlns:xlink="http://www.w3.org/1999/xlink">
    <!-- Generator: sketchtool 41.2 (35397) - http://www.bohemiancoding.com/sketch -->
    <title>5225B0CB-1370-42CF-BCB5-8966FF4627C2</title>
    <desc>Created with sketchtool.</desc>
    <defs></defs>
    <g id="Symbols" stroke="none" stroke-width="1" fill="none" fill-rule="evenodd">
        <g id="Industrial" transform="translate(-20.000000, -10.000000)" fill="#373737">
            <g id="Industrial-line">
                <g transform="translate(20.000000, 10.000000)">
                    <path d="M14.9323472,6.68249344 C13.7591855,6.68249344 12.6745669,6.07254577 11.7217891,5.53310966 C11.6520869,5.50071984 11.5849662,5.46273458 11.5217406,5.41979077 C9.73629564,4.41006536 8.54673874,3.90624895 7.13063839,5.35687627 C6.94680396,5.54525584 6.64566694,5.54821278 6.45811867,5.36351801 C6.2706157,5.17882323 6.26762652,4.87639692 6.45150625,4.68801735 C8.48573234,2.60428728 10.4382542,3.70972644 12.0071197,4.59799002 C12.0208427,4.60576903 12.0341582,4.61418493 12.0470207,4.62328319 C12.0723834,4.64116128 12.0998748,4.65671931 12.1288607,4.66954787 C12.143082,4.67587116 12.1569862,4.68283133 12.1705281,4.69051937 C14.1118632,5.78972621 15.4078529,6.33803313 17.0324711,4.68797185 C17.217166,4.50041113 17.5182578,4.49872795 17.7049908,4.68419607 C17.8917238,4.86970969 17.8933996,5.17213601 17.7087499,5.35969673 C16.745827,6.33776019 15.8139735,6.68249344 14.9323472,6.68249344 L14.9323472,6.68249344 Z M13.5802877,2.5050707 C13.8429278,2.5050707 14.0558387,2.29121599 14.0558387,2.02741181 C14.0558387,1.43625206 14.5346507,0.95531779 15.1231564,0.95531779 C15.6838084,0.95531779 16.1515241,1.39485496 16.1880283,1.95599043 C16.2039253,2.20027884 16.4010299,2.39293459 16.6445573,2.40221482 C17.9928124,2.45348354 19.048898,3.55592027 19.048898,4.91201662 C19.048898,6.26815846 17.9927671,7.37059519 16.6445573,7.42181842 C16.4010299,7.43109865 16.2039253,7.62370892 16.1879831,7.86799732 C16.1514336,8.4291328 15.6837178,8.86871545 15.1231111,8.86871545 C14.5346054,8.86871545 14.0557935,8.38782667 14.0557935,7.79671242 C14.0557935,7.53290823 13.8428825,7.31905352 13.5802424,7.31905352 C13.3176024,7.31905352 13.1046914,7.53290823 13.1046914,7.79671242 C13.1046914,8.91457071 14.0101406,9.82403324 15.1231111,9.82403324 C16.0424192,9.82403324 16.8297505,9.19852755 17.0677977,8.3399698 C17.8138693,8.22706034 18.5006103,7.87250096 19.0321405,7.31932647 C19.6562446,6.66984685 19.9999547,5.81488292 19.9999547,4.91201662 C19.9999547,4.00915033 19.6562446,3.1541864 19.0321405,2.50470677 C18.5006103,1.95153228 17.8139146,1.59697291 17.067843,1.48406344 C16.8298411,0.625460205 16.0425097,0 15.1231111,0 C14.0101406,0 13.1046914,0.909508028 13.1046914,2.02741181 C13.1047367,2.29121599 13.3176477,2.5050707 13.5802877,2.5050707 L13.5802877,2.5050707 Z M4.42076754,5.45777603 C4.47334989,5.47651845 4.52697393,5.48538926 4.57978274,5.48538926 C4.77543802,5.48538926 4.95881955,5.36310858 5.02797825,5.16731393 C5.74678494,3.13207761 7.61683269,2.45102701 8.99719878,2.48637377 C10.0665998,2.51362307 11.0330553,2.95516186 12.5507877,3.81508434 L12.5588041,3.81972446 C13.08499,4.1246528 13.6813763,4.47025038 14.3073373,4.60786163 C15.1043155,4.78309421 15.7927775,4.58306886 16.3535654,4.013472 C16.5382151,3.82586579 16.5365393,3.52348496 16.3498063,3.33797134 C16.1630732,3.15250322 15.8619815,3.15423189 15.6772866,3.34174712 C14.9877829,4.04208605 14.1831505,3.65809378 13.0340834,2.99223728 L13.0238478,2.98627792 C13.0225343,2.98550457 13.0211756,2.98473122 13.0198622,2.98400336 C11.6055282,2.18267369 10.4130727,1.56685765 9.02133865,1.53137442 C7.32190048,1.48756627 5.02068647,2.330475 4.13158723,4.84787386 C4.04376881,5.09652943 4.17325456,5.36956835 4.42076754,5.45777603 L4.42076754,5.45777603 Z M15.5977563,15.1857316 C15.8603963,15.1857316 16.0733073,14.9718769 16.0733073,14.7080727 L16.0733073,13.7737264 C16.0733073,13.5099222 15.8603963,13.2960675 15.5977563,13.2960675 C15.3351163,13.2960675 15.1222053,13.5099222 15.1222053,13.7737264 L15.1222053,14.7080727 C15.1222053,14.9718769 15.3351163,15.1857316 15.5977563,15.1857316 L15.5977563,15.1857316 Z M20,18.9817096 C20,19.2455138 19.787089,19.4593685 19.524449,19.4593685 L11.3796188,19.4593685 C11.3748633,19.4594595 11.3701078,19.4594595 11.3653975,19.4593685 L7.47552611,19.4593685 C7.21288607,19.4593685 6.99997509,19.2455138 6.99997509,18.9817096 L6.99997509,17.4214027 C6.99997509,17.1575985 7.21288607,16.9437438 7.47552611,16.9437438 C7.73816614,16.9437438 7.95107712,17.1575985 7.95107712,17.4214027 L7.95107712,18.5040507 L10.8316481,18.5040507 L9.4174953,7.5960047 L3.48615128,7.5960047 L2.07204371,18.5040962 L4.95266003,18.5041417 L4.95266003,17.4213572 C4.95266003,17.157553 5.16557101,16.9436983 5.42821105,16.9436983 C5.69085108,16.9436983 5.90376206,17.157553 5.90376206,17.4213572 L5.90376206,18.9818006 C5.90376206,19.1084939 5.85367069,19.2300012 5.76449355,19.3195736 C5.67531641,19.4091461 5.55434529,19.4594595 5.42821105,19.4594595 L1.53648269,19.4593685 C1.53295002,19.459414 1.52941736,19.459414 1.5258394,19.4593685 L0.475551016,19.4593685 C0.212910984,19.4593685 0,19.2455138 0,18.9817096 C0,18.7179054 0.212956274,18.5040507 0.475551016,18.5040507 L1.11292525,18.5040507 L2.59691616,7.05665957 C2.62775905,6.81873995 2.82957384,6.64068691 3.06848161,6.64068691 L9.83507438,6.64068691 C10.0739822,6.64068691 10.2757969,6.81873995 10.3066398,7.05665957 L10.9228634,11.8100479 L18.4693145,11.8100479 C18.7319545,11.8100479 18.9448655,12.0239027 18.9448655,12.2877068 L18.9448655,18.5040507 L19.5243584,18.5040507 C19.787089,18.5040507 20,18.7179054 20,18.9817096 L20,18.9817096 Z M17.9938088,12.7653657 L11.0467784,12.7653657 L11.7907666,18.5040507 L17.9938541,18.5040507 L17.9938541,12.7653657 L17.9938088,12.7653657 Z M13.4080477,15.1857316 C13.6706877,15.1857316 13.8835987,14.9718769 13.8835987,14.7080727 L13.8835987,13.7737264 C13.8835987,13.5099222 13.6706877,13.2960675 13.4080477,13.2960675 C13.1454076,13.2960675 12.9324967,13.5099222 12.9324967,13.7737264 L12.9324967,14.7080727 C12.9324967,14.9718769 13.1454076,15.1857316 13.4080477,15.1857316 L13.4080477,15.1857316 Z" id="Shape"></path>
                </g>
            </g>
        </g>
    </g>
</svg>