<?xml version="1.0" encoding="UTF-8" standalone="no"?>
<svg width="37px" height="36px" viewBox="0 0 37 36" version="1.1" xmlns="http://www.w3.org/2000/svg" xmlns:xlink="http://www.w3.org/1999/xlink">
    <!-- Generator: sketchtool 40.1 (33804) - http://www.bohemiancoding.com/sketch -->
    <title>FD4BB84D-F7C5-4887-A5BD-7C70161C0360</title>
    <desc>Created with sketchtool.</desc>
    <defs></defs>
    <g id="Web-Design" stroke="none" stroke-width="1" fill="none" fill-rule="evenodd">
        <g id="FAQ-d" transform="translate(-397.000000, -1369.000000)" fill="#A72729">
            <g id="Industrial-line" transform="translate(397.000000, 1369.000000)">
                <path d="M27.6248423,12.3626129 C25.4544932,12.3626129 23.4479487,11.2342097 21.6853098,10.2362529 C21.5563607,10.1763317 21.4321876,10.106059 21.3152201,10.0266129 C18.0121469,8.15862092 15.8114667,7.22656056 13.191681,9.9102211 C12.8515873,10.2587233 12.2944838,10.2641936 11.9475195,9.92250831 C11.600639,9.58082298 11.5951091,9.02133429 11.9352866,8.67283209 C15.6986048,4.81793147 19.3107703,6.86299391 22.2131714,8.50628153 C22.238559,8.52067271 22.2631926,8.53624212 22.2869882,8.55307391 C22.3339093,8.58614837 22.3847683,8.61493073 22.4383924,8.63866356 C22.4647017,8.65036165 22.4904244,8.66323797 22.5154769,8.67746083 C26.1069469,10.7109935 28.5045279,11.7253613 31.5100715,8.67274793 C31.8517572,8.32576059 32.4087769,8.32264671 32.754233,8.66576274 C33.0996891,9.00896293 33.1027892,9.56845162 32.7611873,9.91543896 C30.97978,11.7248563 29.255851,12.3626129 27.6248423,12.3626129 L27.6248423,12.3626129 Z M25.1235323,4.6343808 C25.6094164,4.6343808 26.0033017,4.23874959 26.0033017,3.75071184 C26.0033017,2.65706631 26.8891038,1.76733791 27.9778393,1.76733791 C29.0150455,1.76733791 29.8803197,2.58048167 29.9478524,3.6185823 C29.9772619,4.07051585 30.3419053,4.42692899 30.792431,4.44409742 C33.2867029,4.53894455 35.2404612,6.5784525 35.2404612,9.08723075 C35.2404612,11.5960932 33.2866191,13.6356011 30.792431,13.7303641 C30.3419053,13.7475325 29.9772619,14.1038615 29.9477686,14.555795 C29.8801521,15.5938957 29.014878,16.4071236 27.9777555,16.4071236 C26.88902,16.4071236 26.0032179,15.5174793 26.0032179,14.423918 C26.0032179,13.9358802 25.6093326,13.540249 25.1234485,13.540249 C24.6375645,13.540249 24.2436791,13.9358802 24.2436791,14.423918 C24.2436791,16.4919558 25.91876,18.1744615 27.9777555,18.1744615 C29.6784754,18.1744615 31.1350384,17.017276 31.5754258,15.4289441 C32.9556583,15.2200616 34.226129,14.5641268 35.2094598,13.540754 C36.3640524,12.3392167 36.9999162,10.7575334 36.9999162,9.08723075 C36.9999162,7.4169281 36.3640524,5.83524483 35.2094598,4.63370753 C34.226129,3.61033472 32.9557421,2.95439988 31.5755096,2.74551737 C31.1352059,1.15710138 29.678643,0 27.9777555,0 C25.91876,0 24.2436791,1.68258985 24.2436791,3.75071184 C24.2437629,4.23874959 24.6376482,4.6343808 25.1235323,4.6343808 L25.1235323,4.6343808 Z M8.17841995,10.0968857 C8.2756973,10.1315591 8.37490178,10.1479701 8.47259807,10.1479701 C8.83456033,10.1479701 9.17381616,9.92175088 9.30175977,9.55953077 C10.6315521,5.79434358 14.0911405,4.53439997 16.6448177,4.59979147 C18.6232096,4.65020268 20.4111524,5.46704943 23.2189573,7.05790603 L23.2337877,7.06649024 C24.2072315,7.63060767 25.3105461,8.2699632 26.468574,8.52454402 C27.9429837,8.84872429 29.2166384,8.4786774 30.254096,7.4249232 C30.5956978,7.0778517 30.5925977,6.51844717 30.2471416,6.17524698 C29.9016855,5.83213095 29.3446658,5.83532899 29.0029801,6.18223218 C27.7273983,7.47785918 26.2388285,6.7674735 24.1130543,5.53563898 L24.0941183,5.52461415 C24.0916885,5.52318345 24.0891749,5.52175275 24.086745,5.52040621 C21.4702271,4.03794633 19.2641844,2.89868665 16.6894765,2.83304267 C13.5455159,2.75199761 9.28826997,4.31137876 7.64343638,8.96856663 C7.4809723,9.42857944 7.72052093,9.93370145 8.17841995,10.0968857 L8.17841995,10.0968857 Z M28.8558492,28.0936035 C29.3417332,28.0936035 29.7356185,27.6979722 29.7356185,27.2099345 L29.7356185,25.4813939 C29.7356185,24.9933561 29.3417332,24.5977249 28.8558492,24.5977249 C28.3699651,24.5977249 27.9760798,24.9933561 27.9760798,25.4813939 L27.9760798,27.2099345 C27.9760798,27.6979722 28.3699651,28.0936035 28.8558492,28.0936035 L28.8558492,28.0936035 Z M37,35.1161627 C37,35.6042005 36.6061147,35.9998317 36.1202306,35.9998317 L21.0522948,35.9998317 C21.0434971,36 21.0346994,36 21.0259855,35.9998317 L13.8297233,35.9998317 C13.3438392,35.9998317 12.9499539,35.6042005 12.9499539,35.1161627 L12.9499539,32.229595 C12.9499539,31.7415572 13.3438392,31.345926 13.8297233,31.345926 C14.3156074,31.345926 14.7094927,31.7415572 14.7094927,32.229595 L14.7094927,34.2324938 L20.0385491,34.2324938 L17.4223663,14.0526087 L6.44937986,14.0526087 L3.83328087,34.2325779 L9.16242105,34.2326621 L9.16242105,32.2295108 C9.16242105,31.7414731 9.55630637,31.3458418 10.0421904,31.3458418 C10.5280745,31.3458418 10.9219598,31.7414731 10.9219598,32.2295108 L10.9219598,35.116331 C10.9219598,35.3507137 10.8292908,35.5755023 10.6643131,35.7412112 C10.4993354,35.9069202 10.2755388,36 10.0421904,36 L2.84249297,35.9998317 C2.83595754,35.9999158 2.82942211,35.9999158 2.8228029,35.9998317 L0.87976938,35.9998317 C0.39388532,35.9998317 0,35.6042005 0,35.1161627 C0,34.628125 0.393969107,34.2324938 0.87976938,34.2324938 L2.05891171,34.2324938 L4.80429491,13.0548202 C4.86135423,12.6146689 5.2347116,12.2852708 5.67669098,12.2852708 L18.1948876,12.2852708 C18.636867,12.2852708 19.0102243,12.6146689 19.0672837,13.0548202 L20.2072972,21.8485887 L34.1682318,21.8485887 C34.6541159,21.8485887 35.0480012,22.2442199 35.0480012,22.7322577 L35.0480012,34.2324938 L36.120063,34.2324938 C36.6061147,34.2324938 37,34.628125 37,35.1161627 L37,35.1161627 Z M33.2885462,23.6159266 L20.43654,23.6159266 L21.8129182,34.2324938 L33.28863,34.2324938 L33.28863,23.6159266 L33.2885462,23.6159266 Z M24.8048882,28.0936035 C25.2907723,28.0936035 25.6846576,27.6979722 25.6846576,27.2099345 L25.6846576,25.4813939 C25.6846576,24.9933561 25.2907723,24.5977249 24.8048882,24.5977249 C24.3190042,24.5977249 23.9251188,24.9933561 23.9251188,25.4813939 L23.9251188,27.2099345 C23.9251188,27.6979722 24.3190042,28.0936035 24.8048882,28.0936035 L24.8048882,28.0936035 Z" id="Shape"></path>
            </g>
        </g>
    </g>
</svg>