<?xml version="1.0" encoding="UTF-8" standalone="no"?>
<svg width="100px" height="29px" viewBox="0 0 100 29" version="1.1" xmlns="http://www.w3.org/2000/svg" xmlns:xlink="http://www.w3.org/1999/xlink">
    <!-- Generator: sketchtool 40.1 (33804) - http://www.bohemiancoding.com/sketch -->
    <title>AF5CCFC2-3488-4B22-849D-D33B744E791E</title>
    <desc>Created with sketchtool.</desc>
    <defs></defs>
    <g id="Web-Design" stroke="none" stroke-width="1" fill="none" fill-rule="evenodd">
        <g id="Main-page-4-d" transform="translate(-910.000000, -1819.000000)">
            <g id="LAB+-logo" transform="translate(910.000000, 1819.000000)">
                <path d="M87.000173,29 C95.9190653,29 100,22.9933139 100,14.5174543 C100,6.03260831 95.9387866,0 87.000173,0 C78.0619053,0 74,6.03260831 74,14.5174543 C74,22.9933139 78.0819727,29 87.000173,29 M84.5737554,9.19442226 L84.5737554,12.0904475 L81.6750635,12.0904475 C80.3398938,12.0904475 79.2628315,13.165008 79.2628315,14.4998272 C79.2628315,15.834992 80.3388558,16.9092068 81.6750635,16.9092068 L84.5737554,16.9092068 L84.5737554,19.8052321 C84.5737554,21.1397056 85.6494338,22.215303 86.9859875,22.215303 C88.3221952,22.215303 89.3978735,21.1400512 89.3978735,19.8052321 L89.3978735,16.9092068 L92.2965654,16.9092068 C93.6331191,16.9092068 94.7087974,15.834992 94.7087974,14.4998272 C94.7087974,13.165008 93.6331191,12.0904475 92.2965654,12.0904475 L89.3978735,12.0904475 L89.3978735,9.19442226 C89.3978735,7.85960312 88.3221952,6.78504261 86.9859875,6.78504261 C85.6494338,6.78504261 84.5737554,7.85960312 84.5737554,9.19442226" id="Fill-4-Copy" fill="#658D1B"></path>
                <path d="M37.7525355,16.0802189 L34.5786122,8.79634988 L31.4041228,16.0802189 L37.7525355,16.0802189 Z M39.7807444,20.8501952 L29.3725176,20.8501952 L26.4912496,27.3919781 C26.0944384,28.3650816 25.0489174,29 23.8896174,29 C22.374829,29 21.1566583,27.9131572 21.1566583,26.560417 C21.1566583,26.2313311 21.2511911,25.8547274 21.4028964,25.5428288 L32.0183028,1.60701088 C32.4105854,0.639973504 33.4096891,0 34.5786122,0 C35.73678,0 36.7823011,0.634412913 37.1791122,1.60650537 L47.754328,25.5443453 C47.9054672,25.8557384 48,26.2323421 48,26.560417 C48,27.934894 46.7574886,29 45.2262843,29 C44.0590594,29 43.1137318,28.3782248 42.6620124,27.4374739 L42.6365395,27.3813624 L39.7807444,20.8501952 Z M5.46422001,23.973731 L16.1758574,23.973731 C17.6498891,23.973731 18.825605,25.0236717 18.825605,26.3400153 C18.825605,27.6558534 17.6498891,28.7062997 16.1758574,28.7062997 L2.65031369,28.7062997 C1.1762819,28.7062997 0,27.6558534 0,26.3400153 L0,2.44008855 C0,1.08684284 1.21703854,0 2.73239304,0 C4.24718147,0 5.46422001,1.08684284 5.46422001,2.44008855 L5.46422001,23.973731 Z" id="Fill-6-Copy" fill="#284734"></path>
                <path d="M71,20.123647 C71,25.7506943 67.1825711,29 61.5801155,29 L53.7207672,29 C52.2129028,29 51,27.8048654 51,26.3190901 L51,2.68055196 C51,1.19549253 52.213266,0 53.7207672,0 L60.3076392,0 C65.7088525,0 69.8023539,2.56028684 69.8023539,8.21238938 C69.8023539,10.1087126 69.158669,11.8908555 68.0107886,13.2592291 C69.9607323,14.8248232 71,17.2859629 71,20.123647 Z M56.4415344,16.4247788 L56.4415344,23.786364 L61.5801155,23.786364 C64.2373134,23.786364 65.5588289,22.7923872 65.5588289,20.123647 C65.5588289,17.3303465 64.2587453,16.4247788 61.5052853,16.4247788 L56.4415344,16.4247788 Z M56.4415344,5.2139939 L56.4415344,11.2107849 L60.3076392,11.2107849 C62.5503651,11.2107849 64.3611828,10.6824774 64.3611828,8.21238938 C64.3611828,5.64064872 62.6346398,5.2139939 60.3076392,5.2139939 L56.4415344,5.2139939 Z" id="Combined-Shape" fill="#284734"></path>
            </g>
        </g>
    </g>
</svg>