<?xml version="1.0" encoding="UTF-8" standalone="no"?>
<svg width="13px" height="13px" viewBox="0 0 13 13" version="1.1" xmlns="http://www.w3.org/2000/svg" xmlns:xlink="http://www.w3.org/1999/xlink">
    <!-- Generator: sketchtool 40.1 (33804) - http://www.bohemiancoding.com/sketch -->
    <title>AF6A08A1-E1FB-4919-A60A-318902F5631F</title>
    <desc>Created with sketchtool.</desc>
    <defs></defs>
    <g id="Symbols" stroke="none" stroke-width="1" fill="none" fill-rule="evenodd">
        <g id="Header" transform="translate(-823.000000, -7.000000)" fill="#A72729">
            <g id="Group-28" transform="translate(823.000000, 1.000000)">
                <path d="M12.5948952,14.6087857 C12.8281524,13.941081 12.9554286,13.2240381 12.9554286,12.4777143 C12.9554286,11.7313905 12.8281524,11.0143476 12.5948952,10.3466429 C12.5892,10.3265857 12.5824524,10.3070238 12.574281,10.2882048 C11.6745571,7.79065714 9.28150476,6 6.47777619,6 C3.67404762,6 1.28093333,7.79065714 0.381271429,10.2882048 C0.3731,10.3070857 0.366290476,10.3265857 0.360657143,10.3466429 C0.1274,11.0143476 0.000123809525,11.7313905 0.000123809525,12.4777143 C0.000123809525,13.2240381 0.1274,13.941081 0.360657143,14.6087857 C0.366352381,14.6288429 0.3731,14.6484048 0.381271429,14.6672238 C1.28099524,17.1648333 3.67404762,18.9554286 6.47777619,18.9554286 C9.28150476,18.9554286 11.6745571,17.1647714 12.574281,14.6672238 C12.5824524,14.6484048 12.5892,14.6289048 12.5948952,14.6087857 L12.5948952,14.6087857 Z M6.47777619,18.026919 C6.23108571,18.026919 5.83334762,17.5804619 5.50091905,16.5830524 C5.3404619,16.1017429 5.21200952,15.5484381 5.11840952,14.9465381 L7.83714286,14.9465381 C7.74354286,15.5484381 7.61509048,16.101681 7.45469524,16.5830524 C7.12220476,17.5804619 6.72446667,18.026919 6.47777619,18.026919 L6.47777619,18.026919 Z M5.00574286,14.0179667 C4.96110952,13.5228524 4.93752381,13.006319 4.93752381,12.4777143 C4.93752381,11.9491095 4.96110952,11.4325762 5.00574286,10.9374619 L7.94974762,10.9374619 C7.99438095,11.4325762 8.01796667,11.9491095 8.01796667,12.4777143 C8.01796667,13.006319 7.99438095,13.5228524 7.94974762,14.0179667 L5.00574286,14.0179667 L5.00574286,14.0179667 Z M0.928633333,12.4777762 C0.928633333,11.9435381 1.00471429,11.4267571 1.14629048,10.9375238 L4.07438571,10.9375238 C4.03099048,11.4428524 4.00895238,11.9607476 4.00895238,12.4777762 C4.00895238,12.9948048 4.03092857,13.5127 4.07438571,14.0180286 L1.14629048,14.0180286 C1.00471429,13.5287333 0.928633333,13.0120143 0.928633333,12.4777762 L0.928633333,12.4777762 Z M6.47777619,6.92857143 C6.72446667,6.92857143 7.12226667,7.37502857 7.45469524,8.3724381 C7.61509048,8.85374762 7.74360476,9.40705238 7.83714286,10.0088905 L5.11834762,10.0088905 C5.21194762,9.40699048 5.3404,8.85374762 5.50085714,8.3724381 C5.83334762,7.37502857 6.23108571,6.92857143 6.47777619,6.92857143 L6.47777619,6.92857143 Z M8.88110476,10.9375238 L11.8092,10.9375238 C11.9507762,11.4267571 12.0268571,11.9435381 12.0268571,12.4777762 C12.0268571,13.0120143 11.9507762,13.5287952 11.8092,14.0180286 L8.88110476,14.0180286 C8.9245,13.5127 8.9465381,12.9948048 8.9465381,12.4777762 C8.9465381,11.9607476 8.9245,11.4428524 8.88110476,10.9375238 L8.88110476,10.9375238 Z M11.4463762,10.0089524 L8.77456667,10.0089524 C8.60940476,8.87009048 8.32606667,7.84835238 7.92857619,7.12146667 C9.46969524,7.5392619 10.746481,8.60594286 11.4463762,10.0089524 L11.4463762,10.0089524 Z M5.02691429,7.12140476 C4.62942381,7.84829048 4.34608571,8.87002857 4.18092381,10.0089524 L1.50911429,10.0089524 C2.20907143,8.60594286 3.48579524,7.5392619 5.02691429,7.12140476 L5.02691429,7.12140476 Z M1.50911429,14.9465381 L4.18092381,14.9465381 C4.34608571,16.0854 4.62942381,17.1071381 5.02691429,17.8340857 C3.48579524,17.4162286 2.20907143,16.3496095 1.50911429,14.9465381 L1.50911429,14.9465381 Z M7.92857619,17.8340857 C8.32606667,17.1072 8.60940476,16.0854619 8.77456667,14.9465381 L11.4463762,14.9465381 C10.746481,16.3496095 9.46969524,17.4162286 7.92857619,17.8340857 L7.92857619,17.8340857 Z" id="Language"></path>
            </g>
        </g>
    </g>
</svg>