<?xml version="1.0" encoding="UTF-8" standalone="no"?>
<svg width="51px" height="54px" viewBox="0 0 51 54" version="1.1" xmlns="http://www.w3.org/2000/svg" xmlns:xlink="http://www.w3.org/1999/xlink">
    <!-- Generator: sketchtool 40.1 (33804) - http://www.bohemiancoding.com/sketch -->
    <title>65466AC1-84F7-48BA-9BB1-0A1EDD208EC5</title>
    <desc>Created with sketchtool.</desc>
    <defs></defs>
    <g id="Web-Design" stroke="none" stroke-width="1" fill="none" fill-rule="evenodd">
        <g id="Product-line-professionals" transform="translate(-492.000000, -2183.000000)" fill="#8B5B29">
            <g id="leaves" transform="translate(492.000000, 2183.000000)">
                <path d="M9.02617073,31.6924573 C6.95756098,29.6238476 3.91342073,28.8075366 1.08219512,29.5615488 C0.690158537,29.6660366 0.383847561,29.9721402 0.279359756,30.3641768 C-0.475792683,33.1949878 0.34072561,36.2390244 2.41006098,38.3084634 C3.96970732,39.8681098 6.08257927,40.7158293 8.24095732,40.7158293 C8.94645732,40.7158293 9.65714024,40.6252317 10.3544512,40.4391646 C10.7464878,40.3347805 11.0526951,40.0283659 11.1570793,39.6363293 C11.9112988,36.8048963 11.0947805,33.7610671 9.02617073,31.6924573 L9.02617073,31.6924573 Z M7.64813415,35.3289024 C7.20634146,34.8859695 6.48819512,34.8859695 6.04640244,35.3289024 C5.60346951,35.7706951 5.60346951,36.4888415 6.04640244,36.9306341 L7.5207378,38.4054878 C6.21277439,38.2476159 4.96835366,37.6629817 4.012,36.7065244 C2.67345732,35.3680854 2.05834756,33.4662622 2.33107317,31.6136768 C4.18479878,31.3415732 6.08641463,31.9564756 7.42433537,33.2943963 C8.38037805,34.250439 8.96490854,35.4946524 9.12278049,36.8028232 L7.64813415,35.3289024 L7.64813415,35.3289024 Z" id="Shape"></path>
                <path d="M42.7591463,29.9358598 C44.9172134,29.9358598 47.0305,29.0879329 48.589939,27.5284939 C50.659378,25.4589512 51.4757927,22.4149146 50.7207439,19.5841037 C50.6161524,19.1920671 50.3099451,18.8858598 49.9179085,18.7814756 C47.086372,18.0271524 44.042439,18.843878 41.9739329,20.9123841 C40.0639207,22.8223963 39.2225244,25.5639573 39.6984207,28.2020671 L35.1110122,32.7895793 L35.1110122,29.1059695 C37.3128232,27.5770061 38.6564451,25.0434878 38.6564451,22.34225 C38.6564451,19.4169024 37.0814573,16.6871585 34.5459695,15.2182134 C34.1947744,15.014939 33.7617927,15.0147317 33.4107012,15.2180061 C30.8751098,16.685811 29.2999146,19.4155549 29.2999146,22.3421463 C29.2999146,25.0444207 30.6435366,27.577939 32.8454512,29.1061768 L32.8454512,35.0550366 L27.8365671,40.0639207 L27.8365671,14.0404451 C30.0384817,12.5114817 31.382,9.97785976 31.382,7.27662195 C31.382,4.35137805 29.8070122,1.62153049 27.271628,0.152585366 C26.9206402,-0.0507926829 26.4874512,-0.0508963415 26.1362561,0.152378049 C23.6006646,1.62018293 22.0254695,4.34992683 22.0254695,7.27662195 C22.0254695,9.97879268 23.3690915,12.5124146 25.5710061,14.0406524 L25.5710061,30.7001341 L20.5624329,25.6916646 L20.5624329,14.5760488 C20.5624329,13.9507805 20.0549207,13.4432683 19.4296524,13.4432683 C18.8032439,13.4432683 18.296872,13.9507805 18.296872,14.5760488 L18.296872,23.4272439 L13.7089451,18.8393171 C14.1849451,16.2012073 13.3435488,13.459439 11.4334329,11.5494268 C9.36482317,9.48081707 6.32120122,8.66440244 3.48956098,9.41841463 C3.09752439,9.52290244 2.79121341,9.8290061 2.68672561,10.2210427 C1.93167683,13.0518537 2.74809146,16.0959939 4.81753049,18.1653293 C6.37717683,19.7249756 8.49004878,20.5727988 10.6484268,20.5726951 C11.1344817,20.5726951 11.6228171,20.5285366 12.1077317,20.4409451 L16.6955549,25.0287683 L7.84415244,25.0287683 C7.21888415,25.0287683 6.71137195,25.5351402 6.71137195,26.1615488 C6.71137195,26.7868171 7.21888415,27.2943293 7.84415244,27.2943293 L18.9596646,27.2943293 L25.5710061,33.9056707 L25.5710061,51.9403902 C25.5710061,52.5659695 26.0781037,53.0731707 26.7037866,53.0731707 C27.3294695,53.0731707 27.8365671,52.5660732 27.8365671,51.9403902 L27.8365671,43.2676951 L34.4473902,36.656872 L45.5634207,36.656872 C46.189,36.656872 46.6962012,36.1497744 46.6962012,35.5240915 C46.6962012,34.8985122 46.1891037,34.391311 45.5634207,34.391311 L36.7127439,34.391311 L41.2999451,29.8041098 C41.7847561,29.8917012 42.2729878,29.9358598 42.7591463,29.9358598 L42.7591463,29.9358598 Z M43.575561,22.5143232 C44.913689,21.1761951 46.8157195,20.561189 48.6688232,20.8336037 C48.9415488,22.6860854 48.3265427,24.5879085 46.9878963,25.9264512 C46.031439,26.8829085 44.7870183,27.4676463 43.4788476,27.6254146 L44.9538049,26.1504573 C45.3961159,25.7081463 45.3961159,24.9908293 44.9538049,24.5484146 C44.5114939,24.1061037 43.7941768,24.1061037 43.3517622,24.5484146 L41.8773232,26.0228537 C42.0349878,24.7146829 42.6195183,23.4704695 43.575561,22.5143232 L43.575561,22.5143232 Z M10.0556037,15.185561 C9.61318902,14.74325 8.89597561,14.74325 8.45366463,15.185561 C8.01135366,15.627872 8.01125,16.345189 8.45356098,16.7875 L9.92862195,18.262561 C8.62045122,18.1047927 7.37582317,17.5200549 6.4192622,16.5634939 C5.08071951,15.2250549 4.46560976,13.323128 4.73833537,11.4706463 C6.59185366,11.1982317 8.49357317,11.8134451 9.83159756,13.1513659 C10.7877439,14.1075122 11.3722744,15.3517256 11.5300427,16.6601037 L10.0556037,15.185561 L10.0556037,15.185561 Z M26.7036829,7.74059756 C26.0781037,7.74059756 25.5709024,8.24769512 25.5709024,8.87337805 L25.5709024,10.9591951 C24.7573902,9.92260976 24.2908232,8.6292622 24.2908232,7.27651829 C24.2908232,5.3835061 25.2007378,3.60389634 26.7034756,2.48666463 C28.206628,3.60451829 29.116439,5.38423171 29.116439,7.27651829 C29.116439,8.62864024 28.6499756,9.92178049 27.8364634,10.9585732 L27.8364634,8.87337805 C27.8363598,8.24779878 27.3292622,7.74059756 26.7036829,7.74059756 L26.7036829,7.74059756 Z M33.9779207,22.806122 C33.3523415,22.806122 32.8451402,23.3132195 32.8451402,23.9389024 L32.8451402,26.0248232 C32.031628,24.9882378 31.565061,23.6947866 31.565061,22.3420427 C31.565061,20.4490305 32.4749756,18.6694207 33.9777134,17.552189 C35.4808659,18.6700427 36.3906768,20.4497561 36.3906768,22.3420427 C36.3906768,23.6941646 35.9242134,24.9873049 35.1107012,26.0239939 L35.1107012,23.9389024 C35.1107012,23.3132195 34.6036037,22.806122 33.9779207,22.806122 L33.9779207,22.806122 Z" id="Shape"></path>
                <path d="M47.3475915,47.8274268 C45.8797866,45.2918354 43.149939,43.7166402 40.2233476,43.7166402 C37.2968598,43.7166402 34.5669085,45.2918354 33.0991037,47.8274268 C32.8959329,48.178622 32.8960366,48.6116037 33.099311,48.9627988 C34.5683598,51.4981829 37.298,53.0731707 40.2233476,53.0731707 C43.1486951,53.0731707 45.878439,51.4981829 47.3473841,48.9627988 C47.5507622,48.6116037 47.5508659,48.178622 47.3475915,47.8274268 L47.3475915,47.8274268 Z M40.2233476,50.8077134 C38.8712256,50.8077134 37.578189,50.34125 36.5413963,49.5277378 L38.6260732,49.5277378 C39.2524817,49.5277378 39.7588537,49.0202256 39.7588537,48.3949573 C39.7588537,47.769689 39.2524817,47.2621768 38.6260732,47.2621768 L36.5406707,47.2621768 C37.5772561,46.4486646 38.8706037,45.9820976 40.2234512,45.9820976 C42.1164634,45.9820976 43.8962805,46.8920122 45.0134085,48.39475 C43.8953476,49.8977988 42.1157378,50.8077134 40.2233476,50.8077134 L40.2233476,50.8077134 Z" id="Shape"></path>
                <path d="M20.8269695,41.0143659 C20.722378,40.6223293 20.4161707,40.316122 20.0239268,40.2117378 C17.1923902,39.4575183 14.148561,40.2741402 12.0800549,42.3426463 C10.0115488,44.4112561 9.19492683,47.4550854 9.94904268,50.2865183 C10.0535305,50.6785549 10.3596341,50.9848659 10.7516707,51.089561 C13.5825854,51.8446098 16.6267256,51.0281951 18.696061,48.9587561 C20.7653963,46.8893171 21.582122,43.8451768 20.8269695,41.0143659 L20.8269695,41.0143659 Z M17.0942256,47.3568171 C15.7556829,48.6953598 13.8538598,49.3104695 12.0011707,49.0379512 C11.7289634,47.1845366 12.3439695,45.2827134 13.6819939,43.9445854 C14.6381402,42.9885427 15.8823537,42.4040122 17.190628,42.2461402 L15.7165,43.7202683 C15.2735671,44.1632012 15.2743963,44.8801037 15.7165,45.3222073 C16.1586037,45.764311 16.8755061,45.7651402 17.318439,45.3222073 L18.7930854,43.847561 C18.6353171,45.1558354 18.0506829,46.4003598 17.0942256,47.3568171 L17.0942256,47.3568171 Z" id="Shape"></path>
            </g>
        </g>
    </g>
</svg>