<?xml version="1.0" encoding="UTF-8" standalone="no"?>
<svg width="1920px" height="11px" viewBox="0 0 1920 11" version="1.1" xmlns="http://www.w3.org/2000/svg" xmlns:xlink="http://www.w3.org/1999/xlink">
    <!-- Generator: sketchtool 40.1 (33804) - http://www.bohemiancoding.com/sketch -->
    <title>664C2147-D091-412B-943B-ED244709306A</title>
    <desc>Created with sketchtool.</desc>
    <defs></defs>
    <g id="Web-Design" stroke="none" stroke-width="1" fill="none" fill-rule="evenodd">
        <g id="Main-page-4-d" transform="translate(0.000000, -381.000000)" fill="#FFFFFF">
            <g id="Line" transform="translate(959.500000, 386.500000) scale(1, -1) translate(-959.500000, -386.500000) translate(-385.000000, 381.000000)">
                <g id="Group-25">
                    <g id="Group-24">
                        <g id="Group-23-Copy-2" transform="translate(336.000000, 0.000000)">
                            <g id="Group-22">
                                <g id="Group-20">
                                    <g id="Group-8-Copy" transform="translate(42.000000, 0.000000)">
                                        <g id="Banga2" transform="translate(11.000000, 5.500000) scale(1, -1) translate(-11.000000, -5.500000) ">
                                            <g id="Banga">
                                                <path d="M0,6.75382027 C6.1376831,6.75382027 5.32250208,5.4373849e-16 10.6450042,0 C15.9675062,-5.4373849e-16 15.0804226,6.75382027 21.2900083,6.75382027 C21.2900083,13.3511217 21.2900083,10.1504352 21.2900083,10.1504352 L0,10.1504352 C0,10.1504352 0,11.6471044 0,6.75382027 Z" id="Combined-Shape-Copy-2"></path>
                                            </g>
                                        </g>
                                        <g id="Banga2" transform="translate(32.000000, 5.500000) scale(1, -1) translate(-32.000000, -5.500000) translate(21.000000, 0.000000)">
                                            <g id="Banga">
                                                <path d="M0,6.75382027 C6.1376831,6.75382027 5.32250208,5.4373849e-16 10.6450042,0 C15.9675062,-5.4373849e-16 15.0804226,6.75382027 21.2900083,6.75382027 C21.2900083,13.3511217 21.2900083,10.1504352 21.2900083,10.1504352 L0,10.1504352 C0,10.1504352 0,11.6471044 0,6.75382027 Z" id="Combined-Shape-Copy-2"></path>
                                            </g>
                                        </g>
                                    </g>
                                </g>
                                <g id="Group-20-Copy-4" transform="translate(84.000000, 0.000000)">
                                    <g id="Group-8">
                                        <g id="Banga2" transform="translate(11.000000, 5.500000) scale(1, -1) translate(-11.000000, -5.500000) ">
                                            <g id="Banga">
                                                <path d="M0,6.75382027 C6.1376831,6.75382027 5.32250208,5.4373849e-16 10.6450042,0 C15.9675062,-5.4373849e-16 15.0804226,6.75382027 21.2900083,6.75382027 C21.2900083,13.3511217 21.2900083,10.1504352 21.2900083,10.1504352 L0,10.1504352 C0,10.1504352 0,11.6471044 0,6.75382027 Z" id="Combined-Shape-Copy-2"></path>
                                            </g>
                                        </g>
                                        <g id="Banga2" transform="translate(32.000000, 5.500000) scale(1, -1) translate(-32.000000, -5.500000) translate(21.000000, 0.000000)">
                                            <g id="Banga">
                                                <path d="M0,6.75382027 C6.1376831,6.75382027 5.32250208,5.4373849e-16 10.6450042,0 C15.9675062,-5.4373849e-16 15.0804226,6.75382027 21.2900083,6.75382027 C21.2900083,13.3511217 21.2900083,10.1504352 21.2900083,10.1504352 L0,10.1504352 C0,10.1504352 0,11.6471044 0,6.75382027 Z" id="Combined-Shape-Copy-2"></path>
                                            </g>
                                        </g>
                                    </g>
                                    <g id="Group-8-Copy" transform="translate(42.000000, 0.000000)">
                                        <g id="Banga2" transform="translate(11.000000, 5.500000) scale(1, -1) translate(-11.000000, -5.500000) ">
                                            <g id="Banga">
                                                <path d="M0,6.75382027 C6.1376831,6.75382027 5.32250208,5.4373849e-16 10.6450042,0 C15.9675062,-5.4373849e-16 15.0804226,6.75382027 21.2900083,6.75382027 C21.2900083,13.3511217 21.2900083,10.1504352 21.2900083,10.1504352 L0,10.1504352 C0,10.1504352 0,11.6471044 0,6.75382027 Z" id="Combined-Shape-Copy-2"></path>
                                            </g>
                                        </g>
                                        <g id="Banga2" transform="translate(32.000000, 5.500000) scale(1, -1) translate(-32.000000, -5.500000) translate(21.000000, 0.000000)">
                                            <g id="Banga">
                                                <path d="M0,6.75382027 C6.1376831,6.75382027 5.32250208,5.4373849e-16 10.6450042,0 C15.9675062,-5.4373849e-16 15.0804226,6.75382027 21.2900083,6.75382027 C21.2900083,13.3511217 21.2900083,10.1504352 21.2900083,10.1504352 L0,10.1504352 C0,10.1504352 0,11.6471044 0,6.75382027 Z" id="Combined-Shape-Copy-2"></path>
                                            </g>
                                        </g>
                                    </g>
                                </g>
                            </g>
                            <g id="Group-22-Copy-2" transform="translate(168.000000, 0.000000)">
                                <g id="Group-20">
                                    <g id="Group-8">
                                        <g id="Banga2" transform="translate(11.000000, 5.500000) scale(1, -1) translate(-11.000000, -5.500000) ">
                                            <g id="Banga">
                                                <path d="M0,6.75382027 C6.1376831,6.75382027 5.32250208,5.4373849e-16 10.6450042,0 C15.9675062,-5.4373849e-16 15.0804226,6.75382027 21.2900083,6.75382027 C21.2900083,13.3511217 21.2900083,10.1504352 21.2900083,10.1504352 L0,10.1504352 C0,10.1504352 0,11.6471044 0,6.75382027 Z" id="Combined-Shape-Copy-2"></path>
                                            </g>
                                        </g>
                                        <g id="Banga2" transform="translate(32.000000, 5.500000) scale(1, -1) translate(-32.000000, -5.500000) translate(21.000000, 0.000000)">
                                            <g id="Banga">
                                                <path d="M0,6.75382027 C6.1376831,6.75382027 5.32250208,5.4373849e-16 10.6450042,0 C15.9675062,-5.4373849e-16 15.0804226,6.75382027 21.2900083,6.75382027 C21.2900083,13.3511217 21.2900083,10.1504352 21.2900083,10.1504352 L0,10.1504352 C0,10.1504352 0,11.6471044 0,6.75382027 Z" id="Combined-Shape-Copy-2"></path>
                                            </g>
                                        </g>
                                    </g>
                                    <g id="Group-8-Copy" transform="translate(42.000000, 0.000000)">
                                        <g id="Banga2" transform="translate(11.000000, 5.500000) scale(1, -1) translate(-11.000000, -5.500000) ">
                                            <g id="Banga">
                                                <path d="M0,6.75382027 C6.1376831,6.75382027 5.32250208,5.4373849e-16 10.6450042,0 C15.9675062,-5.4373849e-16 15.0804226,6.75382027 21.2900083,6.75382027 C21.2900083,13.3511217 21.2900083,10.1504352 21.2900083,10.1504352 L0,10.1504352 C0,10.1504352 0,11.6471044 0,6.75382027 Z" id="Combined-Shape-Copy-2"></path>
                                            </g>
                                        </g>
                                        <g id="Banga2" transform="translate(32.000000, 5.500000) scale(1, -1) translate(-32.000000, -5.500000) translate(21.000000, 0.000000)">
                                            <g id="Banga">
                                                <path d="M0,6.75382027 C6.1376831,6.75382027 5.32250208,5.4373849e-16 10.6450042,0 C15.9675062,-5.4373849e-16 15.0804226,6.75382027 21.2900083,6.75382027 C21.2900083,13.3511217 21.2900083,10.1504352 21.2900083,10.1504352 L0,10.1504352 C0,10.1504352 0,11.6471044 0,6.75382027 Z" id="Combined-Shape-Copy-2"></path>
                                            </g>
                                        </g>
                                    </g>
                                </g>
                                <g id="Group-20-Copy-4" transform="translate(84.000000, 0.000000)">
                                    <g id="Group-8">
                                        <g id="Banga2" transform="translate(11.000000, 5.500000) scale(1, -1) translate(-11.000000, -5.500000) ">
                                            <g id="Banga">
                                                <path d="M0,6.75382027 C6.1376831,6.75382027 5.32250208,5.4373849e-16 10.6450042,0 C15.9675062,-5.4373849e-16 15.0804226,6.75382027 21.2900083,6.75382027 C21.2900083,13.3511217 21.2900083,10.1504352 21.2900083,10.1504352 L0,10.1504352 C0,10.1504352 0,11.6471044 0,6.75382027 Z" id="Combined-Shape-Copy-2"></path>
                                            </g>
                                        </g>
                                        <g id="Banga2" transform="translate(32.000000, 5.500000) scale(1, -1) translate(-32.000000, -5.500000) translate(21.000000, 0.000000)">
                                            <g id="Banga">
                                                <path d="M0,6.75382027 C6.1376831,6.75382027 5.32250208,5.4373849e-16 10.6450042,0 C15.9675062,-5.4373849e-16 15.0804226,6.75382027 21.2900083,6.75382027 C21.2900083,13.3511217 21.2900083,10.1504352 21.2900083,10.1504352 L0,10.1504352 C0,10.1504352 0,11.6471044 0,6.75382027 Z" id="Combined-Shape-Copy-2"></path>
                                            </g>
                                        </g>
                                    </g>
                                    <g id="Group-8-Copy" transform="translate(42.000000, 0.000000)">
                                        <g id="Banga2" transform="translate(11.000000, 5.500000) scale(1, -1) translate(-11.000000, -5.500000) ">
                                            <g id="Banga">
                                                <path d="M0,6.75382027 C6.1376831,6.75382027 5.32250208,5.4373849e-16 10.6450042,0 C15.9675062,-5.4373849e-16 15.0804226,6.75382027 21.2900083,6.75382027 C21.2900083,13.3511217 21.2900083,10.1504352 21.2900083,10.1504352 L0,10.1504352 C0,10.1504352 0,11.6471044 0,6.75382027 Z" id="Combined-Shape-Copy-2"></path>
                                            </g>
                                        </g>
                                        <g id="Banga2" transform="translate(32.000000, 5.500000) scale(1, -1) translate(-32.000000, -5.500000) translate(21.000000, 0.000000)">
                                            <g id="Banga">
                                                <path d="M0,6.75382027 C6.1376831,6.75382027 5.32250208,5.4373849e-16 10.6450042,0 C15.9675062,-5.4373849e-16 15.0804226,6.75382027 21.2900083,6.75382027 C21.2900083,13.3511217 21.2900083,10.1504352 21.2900083,10.1504352 L0,10.1504352 C0,10.1504352 0,11.6471044 0,6.75382027 Z" id="Combined-Shape-Copy-2"></path>
                                            </g>
                                        </g>
                                    </g>
                                </g>
                            </g>
                        </g>
                    </g>
                    <g id="Group-24-Copy" transform="translate(672.000000, 0.000000)">
                        <g id="Group-23">
                            <g id="Group-22">
                                <g id="Group-20">
                                    <g id="Group-8">
                                        <g id="Banga2" transform="translate(11.000000, 5.500000) scale(1, -1) translate(-11.000000, -5.500000) ">
                                            <g id="Banga">
                                                <path d="M0,6.75382027 C6.1376831,6.75382027 5.32250208,5.4373849e-16 10.6450042,0 C15.9675062,-5.4373849e-16 15.0804226,6.75382027 21.2900083,6.75382027 C21.2900083,13.3511217 21.2900083,10.1504352 21.2900083,10.1504352 L0,10.1504352 C0,10.1504352 0,11.6471044 0,6.75382027 Z" id="Combined-Shape-Copy-2"></path>
                                            </g>
                                        </g>
                                        <g id="Banga2" transform="translate(32.000000, 5.500000) scale(1, -1) translate(-32.000000, -5.500000) translate(21.000000, 0.000000)">
                                            <g id="Banga">
                                                <path d="M0,6.75382027 C6.1376831,6.75382027 5.32250208,5.4373849e-16 10.6450042,0 C15.9675062,-5.4373849e-16 15.0804226,6.75382027 21.2900083,6.75382027 C21.2900083,13.3511217 21.2900083,10.1504352 21.2900083,10.1504352 L0,10.1504352 C0,10.1504352 0,11.6471044 0,6.75382027 Z" id="Combined-Shape-Copy-2"></path>
                                            </g>
                                        </g>
                                    </g>
                                    <g id="Group-8-Copy" transform="translate(42.000000, 0.000000)">
                                        <g id="Banga2" transform="translate(11.000000, 5.500000) scale(1, -1) translate(-11.000000, -5.500000) ">
                                            <g id="Banga">
                                                <path d="M0,6.75382027 C6.1376831,6.75382027 5.32250208,5.4373849e-16 10.6450042,0 C15.9675062,-5.4373849e-16 15.0804226,6.75382027 21.2900083,6.75382027 C21.2900083,13.3511217 21.2900083,10.1504352 21.2900083,10.1504352 L0,10.1504352 C0,10.1504352 0,11.6471044 0,6.75382027 Z" id="Combined-Shape-Copy-2"></path>
                                            </g>
                                        </g>
                                        <g id="Banga2" transform="translate(32.000000, 5.500000) scale(1, -1) translate(-32.000000, -5.500000) translate(21.000000, 0.000000)">
                                            <g id="Banga">
                                                <path d="M0,6.75382027 C6.1376831,6.75382027 5.32250208,5.4373849e-16 10.6450042,0 C15.9675062,-5.4373849e-16 15.0804226,6.75382027 21.2900083,6.75382027 C21.2900083,13.3511217 21.2900083,10.1504352 21.2900083,10.1504352 L0,10.1504352 C0,10.1504352 0,11.6471044 0,6.75382027 Z" id="Combined-Shape-Copy-2"></path>
                                            </g>
                                        </g>
                                    </g>
                                </g>
                                <g id="Group-20-Copy-4" transform="translate(84.000000, 0.000000)">
                                    <g id="Group-8">
                                        <g id="Banga2" transform="translate(11.000000, 5.500000) scale(1, -1) translate(-11.000000, -5.500000) ">
                                            <g id="Banga">
                                                <path d="M0,6.75382027 C6.1376831,6.75382027 5.32250208,5.4373849e-16 10.6450042,0 C15.9675062,-5.4373849e-16 15.0804226,6.75382027 21.2900083,6.75382027 C21.2900083,13.3511217 21.2900083,10.1504352 21.2900083,10.1504352 L0,10.1504352 C0,10.1504352 0,11.6471044 0,6.75382027 Z" id="Combined-Shape-Copy-2"></path>
                                            </g>
                                        </g>
                                        <g id="Banga2" transform="translate(32.000000, 5.500000) scale(1, -1) translate(-32.000000, -5.500000) translate(21.000000, 0.000000)">
                                            <g id="Banga">
                                                <path d="M0,6.75382027 C6.1376831,6.75382027 5.32250208,5.4373849e-16 10.6450042,0 C15.9675062,-5.4373849e-16 15.0804226,6.75382027 21.2900083,6.75382027 C21.2900083,13.3511217 21.2900083,10.1504352 21.2900083,10.1504352 L0,10.1504352 C0,10.1504352 0,11.6471044 0,6.75382027 Z" id="Combined-Shape-Copy-2"></path>
                                            </g>
                                        </g>
                                    </g>
                                    <g id="Group-8-Copy" transform="translate(42.000000, 0.000000)">
                                        <g id="Banga2" transform="translate(11.000000, 5.500000) scale(1, -1) translate(-11.000000, -5.500000) ">
                                            <g id="Banga">
                                                <path d="M0,6.75382027 C6.1376831,6.75382027 5.32250208,5.4373849e-16 10.6450042,0 C15.9675062,-5.4373849e-16 15.0804226,6.75382027 21.2900083,6.75382027 C21.2900083,13.3511217 21.2900083,10.1504352 21.2900083,10.1504352 L0,10.1504352 C0,10.1504352 0,11.6471044 0,6.75382027 Z" id="Combined-Shape-Copy-2"></path>
                                            </g>
                                        </g>
                                        <g id="Banga2" transform="translate(32.000000, 5.500000) scale(1, -1) translate(-32.000000, -5.500000) translate(21.000000, 0.000000)">
                                            <g id="Banga">
                                                <path d="M0,6.75382027 C6.1376831,6.75382027 5.32250208,5.4373849e-16 10.6450042,0 C15.9675062,-5.4373849e-16 15.0804226,6.75382027 21.2900083,6.75382027 C21.2900083,13.3511217 21.2900083,10.1504352 21.2900083,10.1504352 L0,10.1504352 C0,10.1504352 0,11.6471044 0,6.75382027 Z" id="Combined-Shape-Copy-2"></path>
                                            </g>
                                        </g>
                                    </g>
                                </g>
                            </g>
                            <g id="Group-22-Copy-2" transform="translate(168.000000, 0.000000)">
                                <g id="Group-20">
                                    <g id="Group-8">
                                        <g id="Banga2" transform="translate(11.000000, 5.500000) scale(1, -1) translate(-11.000000, -5.500000) ">
                                            <g id="Banga">
                                                <path d="M0,6.75382027 C6.1376831,6.75382027 5.32250208,5.4373849e-16 10.6450042,0 C15.9675062,-5.4373849e-16 15.0804226,6.75382027 21.2900083,6.75382027 C21.2900083,13.3511217 21.2900083,10.1504352 21.2900083,10.1504352 L0,10.1504352 C0,10.1504352 0,11.6471044 0,6.75382027 Z" id="Combined-Shape-Copy-2"></path>
                                            </g>
                                        </g>
                                        <g id="Banga2" transform="translate(32.000000, 5.500000) scale(1, -1) translate(-32.000000, -5.500000) translate(21.000000, 0.000000)">
                                            <g id="Banga">
                                                <path d="M0,6.75382027 C6.1376831,6.75382027 5.32250208,5.4373849e-16 10.6450042,0 C15.9675062,-5.4373849e-16 15.0804226,6.75382027 21.2900083,6.75382027 C21.2900083,13.3511217 21.2900083,10.1504352 21.2900083,10.1504352 L0,10.1504352 C0,10.1504352 0,11.6471044 0,6.75382027 Z" id="Combined-Shape-Copy-2"></path>
                                            </g>
                                        </g>
                                    </g>
                                    <g id="Group-8-Copy" transform="translate(42.000000, 0.000000)">
                                        <g id="Banga2" transform="translate(11.000000, 5.500000) scale(1, -1) translate(-11.000000, -5.500000) ">
                                            <g id="Banga">
                                                <path d="M0,6.75382027 C6.1376831,6.75382027 5.32250208,5.4373849e-16 10.6450042,0 C15.9675062,-5.4373849e-16 15.0804226,6.75382027 21.2900083,6.75382027 C21.2900083,13.3511217 21.2900083,10.1504352 21.2900083,10.1504352 L0,10.1504352 C0,10.1504352 0,11.6471044 0,6.75382027 Z" id="Combined-Shape-Copy-2"></path>
                                            </g>
                                        </g>
                                        <g id="Banga2" transform="translate(32.000000, 5.500000) scale(1, -1) translate(-32.000000, -5.500000) translate(21.000000, 0.000000)">
                                            <g id="Banga">
                                                <path d="M0,6.75382027 C6.1376831,6.75382027 5.32250208,5.4373849e-16 10.6450042,0 C15.9675062,-5.4373849e-16 15.0804226,6.75382027 21.2900083,6.75382027 C21.2900083,13.3511217 21.2900083,10.1504352 21.2900083,10.1504352 L0,10.1504352 C0,10.1504352 0,11.6471044 0,6.75382027 Z" id="Combined-Shape-Copy-2"></path>
                                            </g>
                                        </g>
                                    </g>
                                </g>
                                <g id="Group-20-Copy-4" transform="translate(84.000000, 0.000000)">
                                    <g id="Group-8">
                                        <g id="Banga2" transform="translate(11.000000, 5.500000) scale(1, -1) translate(-11.000000, -5.500000) ">
                                            <g id="Banga">
                                                <path d="M0,6.75382027 C6.1376831,6.75382027 5.32250208,5.4373849e-16 10.6450042,0 C15.9675062,-5.4373849e-16 15.0804226,6.75382027 21.2900083,6.75382027 C21.2900083,13.3511217 21.2900083,10.1504352 21.2900083,10.1504352 L0,10.1504352 C0,10.1504352 0,11.6471044 0,6.75382027 Z" id="Combined-Shape-Copy-2"></path>
                                            </g>
                                        </g>
                                        <g id="Banga2" transform="translate(32.000000, 5.500000) scale(1, -1) translate(-32.000000, -5.500000) translate(21.000000, 0.000000)">
                                            <g id="Banga">
                                                <path d="M0,6.75382027 C6.1376831,6.75382027 5.32250208,5.4373849e-16 10.6450042,0 C15.9675062,-5.4373849e-16 15.0804226,6.75382027 21.2900083,6.75382027 C21.2900083,13.3511217 21.2900083,10.1504352 21.2900083,10.1504352 L0,10.1504352 C0,10.1504352 0,11.6471044 0,6.75382027 Z" id="Combined-Shape-Copy-2"></path>
                                            </g>
                                        </g>
                                    </g>
                                    <g id="Group-8-Copy" transform="translate(42.000000, 0.000000)">
                                        <g id="Banga2" transform="translate(11.000000, 5.500000) scale(1, -1) translate(-11.000000, -5.500000) ">
                                            <g id="Banga">
                                                <path d="M0,6.75382027 C6.1376831,6.75382027 5.32250208,5.4373849e-16 10.6450042,0 C15.9675062,-5.4373849e-16 15.0804226,6.75382027 21.2900083,6.75382027 C21.2900083,13.3511217 21.2900083,10.1504352 21.2900083,10.1504352 L0,10.1504352 C0,10.1504352 0,11.6471044 0,6.75382027 Z" id="Combined-Shape-Copy-2"></path>
                                            </g>
                                        </g>
                                        <g id="Banga2" transform="translate(32.000000, 5.500000) scale(1, -1) translate(-32.000000, -5.500000) translate(21.000000, 0.000000)">
                                            <g id="Banga">
                                                <path d="M0,6.75382027 C6.1376831,6.75382027 5.32250208,5.4373849e-16 10.6450042,0 C15.9675062,-5.4373849e-16 15.0804226,6.75382027 21.2900083,6.75382027 C21.2900083,13.3511217 21.2900083,10.1504352 21.2900083,10.1504352 L0,10.1504352 C0,10.1504352 0,11.6471044 0,6.75382027 Z" id="Combined-Shape-Copy-2"></path>
                                            </g>
                                        </g>
                                    </g>
                                </g>
                            </g>
                        </g>
                        <g id="Group-23-Copy-2" transform="translate(336.000000, 0.000000)">
                            <g id="Group-22">
                                <g id="Group-20">
                                    <g id="Group-8">
                                        <g id="Banga2" transform="translate(11.000000, 5.500000) scale(1, -1) translate(-11.000000, -5.500000) ">
                                            <g id="Banga">
                                                <path d="M0,6.75382027 C6.1376831,6.75382027 5.32250208,5.4373849e-16 10.6450042,0 C15.9675062,-5.4373849e-16 15.0804226,6.75382027 21.2900083,6.75382027 C21.2900083,13.3511217 21.2900083,10.1504352 21.2900083,10.1504352 L0,10.1504352 C0,10.1504352 0,11.6471044 0,6.75382027 Z" id="Combined-Shape-Copy-2"></path>
                                            </g>
                                        </g>
                                        <g id="Banga2" transform="translate(32.000000, 5.500000) scale(1, -1) translate(-32.000000, -5.500000) translate(21.000000, 0.000000)">
                                            <g id="Banga">
                                                <path d="M0,6.75382027 C6.1376831,6.75382027 5.32250208,5.4373849e-16 10.6450042,0 C15.9675062,-5.4373849e-16 15.0804226,6.75382027 21.2900083,6.75382027 C21.2900083,13.3511217 21.2900083,10.1504352 21.2900083,10.1504352 L0,10.1504352 C0,10.1504352 0,11.6471044 0,6.75382027 Z" id="Combined-Shape-Copy-2"></path>
                                            </g>
                                        </g>
                                    </g>
                                    <g id="Group-8-Copy" transform="translate(42.000000, 0.000000)">
                                        <g id="Banga2" transform="translate(11.000000, 5.500000) scale(1, -1) translate(-11.000000, -5.500000) ">
                                            <g id="Banga">
                                                <path d="M0,6.75382027 C6.1376831,6.75382027 5.32250208,5.4373849e-16 10.6450042,0 C15.9675062,-5.4373849e-16 15.0804226,6.75382027 21.2900083,6.75382027 C21.2900083,13.3511217 21.2900083,10.1504352 21.2900083,10.1504352 L0,10.1504352 C0,10.1504352 0,11.6471044 0,6.75382027 Z" id="Combined-Shape-Copy-2"></path>
                                            </g>
                                        </g>
                                        <g id="Banga2" transform="translate(32.000000, 5.500000) scale(1, -1) translate(-32.000000, -5.500000) translate(21.000000, 0.000000)">
                                            <g id="Banga">
                                                <path d="M0,6.75382027 C6.1376831,6.75382027 5.32250208,5.4373849e-16 10.6450042,0 C15.9675062,-5.4373849e-16 15.0804226,6.75382027 21.2900083,6.75382027 C21.2900083,13.3511217 21.2900083,10.1504352 21.2900083,10.1504352 L0,10.1504352 C0,10.1504352 0,11.6471044 0,6.75382027 Z" id="Combined-Shape-Copy-2"></path>
                                            </g>
                                        </g>
                                    </g>
                                </g>
                                <g id="Group-20-Copy-4" transform="translate(84.000000, 0.000000)">
                                    <g id="Group-8">
                                        <g id="Banga2" transform="translate(11.000000, 5.500000) scale(1, -1) translate(-11.000000, -5.500000) ">
                                            <g id="Banga">
                                                <path d="M0,6.75382027 C6.1376831,6.75382027 5.32250208,5.4373849e-16 10.6450042,0 C15.9675062,-5.4373849e-16 15.0804226,6.75382027 21.2900083,6.75382027 C21.2900083,13.3511217 21.2900083,10.1504352 21.2900083,10.1504352 L0,10.1504352 C0,10.1504352 0,11.6471044 0,6.75382027 Z" id="Combined-Shape-Copy-2"></path>
                                            </g>
                                        </g>
                                        <g id="Banga2" transform="translate(32.000000, 5.500000) scale(1, -1) translate(-32.000000, -5.500000) translate(21.000000, 0.000000)">
                                            <g id="Banga">
                                                <path d="M0,6.75382027 C6.1376831,6.75382027 5.32250208,5.4373849e-16 10.6450042,0 C15.9675062,-5.4373849e-16 15.0804226,6.75382027 21.2900083,6.75382027 C21.2900083,13.3511217 21.2900083,10.1504352 21.2900083,10.1504352 L0,10.1504352 C0,10.1504352 0,11.6471044 0,6.75382027 Z" id="Combined-Shape-Copy-2"></path>
                                            </g>
                                        </g>
                                    </g>
                                    <g id="Group-8-Copy" transform="translate(42.000000, 0.000000)">
                                        <g id="Banga2" transform="translate(11.000000, 5.500000) scale(1, -1) translate(-11.000000, -5.500000) ">
                                            <g id="Banga">
                                                <path d="M0,6.75382027 C6.1376831,6.75382027 5.32250208,5.4373849e-16 10.6450042,0 C15.9675062,-5.4373849e-16 15.0804226,6.75382027 21.2900083,6.75382027 C21.2900083,13.3511217 21.2900083,10.1504352 21.2900083,10.1504352 L0,10.1504352 C0,10.1504352 0,11.6471044 0,6.75382027 Z" id="Combined-Shape-Copy-2"></path>
                                            </g>
                                        </g>
                                        <g id="Banga2" transform="translate(32.000000, 5.500000) scale(1, -1) translate(-32.000000, -5.500000) translate(21.000000, 0.000000)">
                                            <g id="Banga">
                                                <path d="M0,6.75382027 C6.1376831,6.75382027 5.32250208,5.4373849e-16 10.6450042,0 C15.9675062,-5.4373849e-16 15.0804226,6.75382027 21.2900083,6.75382027 C21.2900083,13.3511217 21.2900083,10.1504352 21.2900083,10.1504352 L0,10.1504352 C0,10.1504352 0,11.6471044 0,6.75382027 Z" id="Combined-Shape-Copy-2"></path>
                                            </g>
                                        </g>
                                    </g>
                                </g>
                            </g>
                            <g id="Group-22-Copy-2" transform="translate(168.000000, 0.000000)">
                                <g id="Group-20">
                                    <g id="Group-8">
                                        <g id="Banga2" transform="translate(11.000000, 5.500000) scale(1, -1) translate(-11.000000, -5.500000) ">
                                            <g id="Banga">
                                                <path d="M0,6.75382027 C6.1376831,6.75382027 5.32250208,5.4373849e-16 10.6450042,0 C15.9675062,-5.4373849e-16 15.0804226,6.75382027 21.2900083,6.75382027 C21.2900083,13.3511217 21.2900083,10.1504352 21.2900083,10.1504352 L0,10.1504352 C0,10.1504352 0,11.6471044 0,6.75382027 Z" id="Combined-Shape-Copy-2"></path>
                                            </g>
                                        </g>
                                        <g id="Banga2" transform="translate(32.000000, 5.500000) scale(1, -1) translate(-32.000000, -5.500000) translate(21.000000, 0.000000)">
                                            <g id="Banga">
                                                <path d="M0,6.75382027 C6.1376831,6.75382027 5.32250208,5.4373849e-16 10.6450042,0 C15.9675062,-5.4373849e-16 15.0804226,6.75382027 21.2900083,6.75382027 C21.2900083,13.3511217 21.2900083,10.1504352 21.2900083,10.1504352 L0,10.1504352 C0,10.1504352 0,11.6471044 0,6.75382027 Z" id="Combined-Shape-Copy-2"></path>
                                            </g>
                                        </g>
                                    </g>
                                    <g id="Group-8-Copy" transform="translate(42.000000, 0.000000)">
                                        <g id="Banga2" transform="translate(11.000000, 5.500000) scale(1, -1) translate(-11.000000, -5.500000) ">
                                            <g id="Banga">
                                                <path d="M0,6.75382027 C6.1376831,6.75382027 5.32250208,5.4373849e-16 10.6450042,0 C15.9675062,-5.4373849e-16 15.0804226,6.75382027 21.2900083,6.75382027 C21.2900083,13.3511217 21.2900083,10.1504352 21.2900083,10.1504352 L0,10.1504352 C0,10.1504352 0,11.6471044 0,6.75382027 Z" id="Combined-Shape-Copy-2"></path>
                                            </g>
                                        </g>
                                        <g id="Banga2" transform="translate(32.000000, 5.500000) scale(1, -1) translate(-32.000000, -5.500000) translate(21.000000, 0.000000)">
                                            <g id="Banga">
                                                <path d="M0,6.75382027 C6.1376831,6.75382027 5.32250208,5.4373849e-16 10.6450042,0 C15.9675062,-5.4373849e-16 15.0804226,6.75382027 21.2900083,6.75382027 C21.2900083,13.3511217 21.2900083,10.1504352 21.2900083,10.1504352 L0,10.1504352 C0,10.1504352 0,11.6471044 0,6.75382027 Z" id="Combined-Shape-Copy-2"></path>
                                            </g>
                                        </g>
                                    </g>
                                </g>
                                <g id="Group-20-Copy-4" transform="translate(84.000000, 0.000000)">
                                    <g id="Group-8">
                                        <g id="Banga2" transform="translate(11.000000, 5.500000) scale(1, -1) translate(-11.000000, -5.500000) ">
                                            <g id="Banga">
                                                <path d="M0,6.75382027 C6.1376831,6.75382027 5.32250208,5.4373849e-16 10.6450042,0 C15.9675062,-5.4373849e-16 15.0804226,6.75382027 21.2900083,6.75382027 C21.2900083,13.3511217 21.2900083,10.1504352 21.2900083,10.1504352 L0,10.1504352 C0,10.1504352 0,11.6471044 0,6.75382027 Z" id="Combined-Shape-Copy-2"></path>
                                            </g>
                                        </g>
                                        <g id="Banga2" transform="translate(32.000000, 5.500000) scale(1, -1) translate(-32.000000, -5.500000) translate(21.000000, 0.000000)">
                                            <g id="Banga">
                                                <path d="M0,6.75382027 C6.1376831,6.75382027 5.32250208,5.4373849e-16 10.6450042,0 C15.9675062,-5.4373849e-16 15.0804226,6.75382027 21.2900083,6.75382027 C21.2900083,13.3511217 21.2900083,10.1504352 21.2900083,10.1504352 L0,10.1504352 C0,10.1504352 0,11.6471044 0,6.75382027 Z" id="Combined-Shape-Copy-2"></path>
                                            </g>
                                        </g>
                                    </g>
                                    <g id="Group-8-Copy" transform="translate(42.000000, 0.000000)">
                                        <g id="Banga2" transform="translate(11.000000, 5.500000) scale(1, -1) translate(-11.000000, -5.500000) ">
                                            <g id="Banga">
                                                <path d="M0,6.75382027 C6.1376831,6.75382027 5.32250208,5.4373849e-16 10.6450042,0 C15.9675062,-5.4373849e-16 15.0804226,6.75382027 21.2900083,6.75382027 C21.2900083,13.3511217 21.2900083,10.1504352 21.2900083,10.1504352 L0,10.1504352 C0,10.1504352 0,11.6471044 0,6.75382027 Z" id="Combined-Shape-Copy-2"></path>
                                            </g>
                                        </g>
                                        <g id="Banga2" transform="translate(32.000000, 5.500000) scale(1, -1) translate(-32.000000, -5.500000) translate(21.000000, 0.000000)">
                                            <g id="Banga">
                                                <path d="M0,6.75382027 C6.1376831,6.75382027 5.32250208,5.4373849e-16 10.6450042,0 C15.9675062,-5.4373849e-16 15.0804226,6.75382027 21.2900083,6.75382027 C21.2900083,13.3511217 21.2900083,10.1504352 21.2900083,10.1504352 L0,10.1504352 C0,10.1504352 0,11.6471044 0,6.75382027 Z" id="Combined-Shape-Copy-2"></path>
                                            </g>
                                        </g>
                                    </g>
                                </g>
                            </g>
                        </g>
                    </g>
                </g>
                <g id="Group-25-Copy" transform="translate(1344.000000, 0.000000)">
                    <g id="Group-24">
                        <g id="Group-23">
                            <g id="Group-22">
                                <g id="Group-20">
                                    <g id="Group-8">
                                        <g id="Banga2" transform="translate(11.000000, 5.500000) scale(1, -1) translate(-11.000000, -5.500000) ">
                                            <g id="Banga">
                                                <path d="M0,6.75382027 C6.1376831,6.75382027 5.32250208,5.4373849e-16 10.6450042,0 C15.9675062,-5.4373849e-16 15.0804226,6.75382027 21.2900083,6.75382027 C21.2900083,13.3511217 21.2900083,10.1504352 21.2900083,10.1504352 L0,10.1504352 C0,10.1504352 0,11.6471044 0,6.75382027 Z" id="Combined-Shape-Copy-2"></path>
                                            </g>
                                        </g>
                                        <g id="Banga2" transform="translate(32.000000, 5.500000) scale(1, -1) translate(-32.000000, -5.500000) translate(21.000000, 0.000000)">
                                            <g id="Banga">
                                                <path d="M0,6.75382027 C6.1376831,6.75382027 5.32250208,5.4373849e-16 10.6450042,0 C15.9675062,-5.4373849e-16 15.0804226,6.75382027 21.2900083,6.75382027 C21.2900083,13.3511217 21.2900083,10.1504352 21.2900083,10.1504352 L0,10.1504352 C0,10.1504352 0,11.6471044 0,6.75382027 Z" id="Combined-Shape-Copy-2"></path>
                                            </g>
                                        </g>
                                    </g>
                                    <g id="Group-8-Copy" transform="translate(42.000000, 0.000000)">
                                        <g id="Banga2" transform="translate(11.000000, 5.500000) scale(1, -1) translate(-11.000000, -5.500000) ">
                                            <g id="Banga">
                                                <path d="M0,6.75382027 C6.1376831,6.75382027 5.32250208,5.4373849e-16 10.6450042,0 C15.9675062,-5.4373849e-16 15.0804226,6.75382027 21.2900083,6.75382027 C21.2900083,13.3511217 21.2900083,10.1504352 21.2900083,10.1504352 L0,10.1504352 C0,10.1504352 0,11.6471044 0,6.75382027 Z" id="Combined-Shape-Copy-2"></path>
                                            </g>
                                        </g>
                                        <g id="Banga2" transform="translate(32.000000, 5.500000) scale(1, -1) translate(-32.000000, -5.500000) translate(21.000000, 0.000000)">
                                            <g id="Banga">
                                                <path d="M0,6.75382027 C6.1376831,6.75382027 5.32250208,5.4373849e-16 10.6450042,0 C15.9675062,-5.4373849e-16 15.0804226,6.75382027 21.2900083,6.75382027 C21.2900083,13.3511217 21.2900083,10.1504352 21.2900083,10.1504352 L0,10.1504352 C0,10.1504352 0,11.6471044 0,6.75382027 Z" id="Combined-Shape-Copy-2"></path>
                                            </g>
                                        </g>
                                    </g>
                                </g>
                                <g id="Group-20-Copy-4" transform="translate(84.000000, 0.000000)">
                                    <g id="Group-8">
                                        <g id="Banga2" transform="translate(11.000000, 5.500000) scale(1, -1) translate(-11.000000, -5.500000) ">
                                            <g id="Banga">
                                                <path d="M0,6.75382027 C6.1376831,6.75382027 5.32250208,5.4373849e-16 10.6450042,0 C15.9675062,-5.4373849e-16 15.0804226,6.75382027 21.2900083,6.75382027 C21.2900083,13.3511217 21.2900083,10.1504352 21.2900083,10.1504352 L0,10.1504352 C0,10.1504352 0,11.6471044 0,6.75382027 Z" id="Combined-Shape-Copy-2"></path>
                                            </g>
                                        </g>
                                        <g id="Banga2" transform="translate(32.000000, 5.500000) scale(1, -1) translate(-32.000000, -5.500000) translate(21.000000, 0.000000)">
                                            <g id="Banga">
                                                <path d="M0,6.75382027 C6.1376831,6.75382027 5.32250208,5.4373849e-16 10.6450042,0 C15.9675062,-5.4373849e-16 15.0804226,6.75382027 21.2900083,6.75382027 C21.2900083,13.3511217 21.2900083,10.1504352 21.2900083,10.1504352 L0,10.1504352 C0,10.1504352 0,11.6471044 0,6.75382027 Z" id="Combined-Shape-Copy-2"></path>
                                            </g>
                                        </g>
                                    </g>
                                    <g id="Group-8-Copy" transform="translate(42.000000, 0.000000)">
                                        <g id="Banga2" transform="translate(11.000000, 5.500000) scale(1, -1) translate(-11.000000, -5.500000) ">
                                            <g id="Banga">
                                                <path d="M0,6.75382027 C6.1376831,6.75382027 5.32250208,5.4373849e-16 10.6450042,0 C15.9675062,-5.4373849e-16 15.0804226,6.75382027 21.2900083,6.75382027 C21.2900083,13.3511217 21.2900083,10.1504352 21.2900083,10.1504352 L0,10.1504352 C0,10.1504352 0,11.6471044 0,6.75382027 Z" id="Combined-Shape-Copy-2"></path>
                                            </g>
                                        </g>
                                        <g id="Banga2" transform="translate(32.000000, 5.500000) scale(1, -1) translate(-32.000000, -5.500000) translate(21.000000, 0.000000)">
                                            <g id="Banga">
                                                <path d="M0,6.75382027 C6.1376831,6.75382027 5.32250208,5.4373849e-16 10.6450042,0 C15.9675062,-5.4373849e-16 15.0804226,6.75382027 21.2900083,6.75382027 C21.2900083,13.3511217 21.2900083,10.1504352 21.2900083,10.1504352 L0,10.1504352 C0,10.1504352 0,11.6471044 0,6.75382027 Z" id="Combined-Shape-Copy-2"></path>
                                            </g>
                                        </g>
                                    </g>
                                </g>
                            </g>
                            <g id="Group-22-Copy-2" transform="translate(168.000000, 0.000000)">
                                <g id="Group-20">
                                    <g id="Group-8">
                                        <g id="Banga2" transform="translate(11.000000, 5.500000) scale(1, -1) translate(-11.000000, -5.500000) ">
                                            <g id="Banga">
                                                <path d="M0,6.75382027 C6.1376831,6.75382027 5.32250208,5.4373849e-16 10.6450042,0 C15.9675062,-5.4373849e-16 15.0804226,6.75382027 21.2900083,6.75382027 C21.2900083,13.3511217 21.2900083,10.1504352 21.2900083,10.1504352 L0,10.1504352 C0,10.1504352 0,11.6471044 0,6.75382027 Z" id="Combined-Shape-Copy-2"></path>
                                            </g>
                                        </g>
                                        <g id="Banga2" transform="translate(32.000000, 5.500000) scale(1, -1) translate(-32.000000, -5.500000) translate(21.000000, 0.000000)">
                                            <g id="Banga">
                                                <path d="M0,6.75382027 C6.1376831,6.75382027 5.32250208,5.4373849e-16 10.6450042,0 C15.9675062,-5.4373849e-16 15.0804226,6.75382027 21.2900083,6.75382027 C21.2900083,13.3511217 21.2900083,10.1504352 21.2900083,10.1504352 L0,10.1504352 C0,10.1504352 0,11.6471044 0,6.75382027 Z" id="Combined-Shape-Copy-2"></path>
                                            </g>
                                        </g>
                                    </g>
                                    <g id="Group-8-Copy" transform="translate(42.000000, 0.000000)">
                                        <g id="Banga2" transform="translate(11.000000, 5.500000) scale(1, -1) translate(-11.000000, -5.500000) ">
                                            <g id="Banga">
                                                <path d="M0,6.75382027 C6.1376831,6.75382027 5.32250208,5.4373849e-16 10.6450042,0 C15.9675062,-5.4373849e-16 15.0804226,6.75382027 21.2900083,6.75382027 C21.2900083,13.3511217 21.2900083,10.1504352 21.2900083,10.1504352 L0,10.1504352 C0,10.1504352 0,11.6471044 0,6.75382027 Z" id="Combined-Shape-Copy-2"></path>
                                            </g>
                                        </g>
                                        <g id="Banga2" transform="translate(32.000000, 5.500000) scale(1, -1) translate(-32.000000, -5.500000) translate(21.000000, 0.000000)">
                                            <g id="Banga">
                                                <path d="M0,6.75382027 C6.1376831,6.75382027 5.32250208,5.4373849e-16 10.6450042,0 C15.9675062,-5.4373849e-16 15.0804226,6.75382027 21.2900083,6.75382027 C21.2900083,13.3511217 21.2900083,10.1504352 21.2900083,10.1504352 L0,10.1504352 C0,10.1504352 0,11.6471044 0,6.75382027 Z" id="Combined-Shape-Copy-2"></path>
                                            </g>
                                        </g>
                                    </g>
                                </g>
                                <g id="Group-20-Copy-4" transform="translate(84.000000, 0.000000)">
                                    <g id="Group-8">
                                        <g id="Banga2" transform="translate(11.000000, 5.500000) scale(1, -1) translate(-11.000000, -5.500000) ">
                                            <g id="Banga">
                                                <path d="M0,6.75382027 C6.1376831,6.75382027 5.32250208,5.4373849e-16 10.6450042,0 C15.9675062,-5.4373849e-16 15.0804226,6.75382027 21.2900083,6.75382027 C21.2900083,13.3511217 21.2900083,10.1504352 21.2900083,10.1504352 L0,10.1504352 C0,10.1504352 0,11.6471044 0,6.75382027 Z" id="Combined-Shape-Copy-2"></path>
                                            </g>
                                        </g>
                                        <g id="Banga2" transform="translate(32.000000, 5.500000) scale(1, -1) translate(-32.000000, -5.500000) translate(21.000000, 0.000000)">
                                            <g id="Banga">
                                                <path d="M0,6.75382027 C6.1376831,6.75382027 5.32250208,5.4373849e-16 10.6450042,0 C15.9675062,-5.4373849e-16 15.0804226,6.75382027 21.2900083,6.75382027 C21.2900083,13.3511217 21.2900083,10.1504352 21.2900083,10.1504352 L0,10.1504352 C0,10.1504352 0,11.6471044 0,6.75382027 Z" id="Combined-Shape-Copy-2"></path>
                                            </g>
                                        </g>
                                    </g>
                                    <g id="Group-8-Copy" transform="translate(42.000000, 0.000000)">
                                        <g id="Banga2" transform="translate(11.000000, 5.500000) scale(1, -1) translate(-11.000000, -5.500000) ">
                                            <g id="Banga">
                                                <path d="M0,6.75382027 C6.1376831,6.75382027 5.32250208,5.4373849e-16 10.6450042,0 C15.9675062,-5.4373849e-16 15.0804226,6.75382027 21.2900083,6.75382027 C21.2900083,13.3511217 21.2900083,10.1504352 21.2900083,10.1504352 L0,10.1504352 C0,10.1504352 0,11.6471044 0,6.75382027 Z" id="Combined-Shape-Copy-2"></path>
                                            </g>
                                        </g>
                                        <g id="Banga2" transform="translate(32.000000, 5.500000) scale(1, -1) translate(-32.000000, -5.500000) translate(21.000000, 0.000000)">
                                            <g id="Banga">
                                                <path d="M0,6.75382027 C6.1376831,6.75382027 5.32250208,5.4373849e-16 10.6450042,0 C15.9675062,-5.4373849e-16 15.0804226,6.75382027 21.2900083,6.75382027 C21.2900083,13.3511217 21.2900083,10.1504352 21.2900083,10.1504352 L0,10.1504352 C0,10.1504352 0,11.6471044 0,6.75382027 Z" id="Combined-Shape-Copy-2"></path>
                                            </g>
                                        </g>
                                    </g>
                                </g>
                            </g>
                        </g>
                        <g id="Group-23-Copy-2" transform="translate(336.000000, 0.000000)">
                            <g id="Group-22">
                                <g id="Group-20">
                                    <g id="Group-8">
                                        <g id="Banga2" transform="translate(11.000000, 5.500000) scale(1, -1) translate(-11.000000, -5.500000) ">
                                            <g id="Banga">
                                                <path d="M0,6.75382027 C6.1376831,6.75382027 5.32250208,5.4373849e-16 10.6450042,0 C15.9675062,-5.4373849e-16 15.0804226,6.75382027 21.2900083,6.75382027 C21.2900083,13.3511217 21.2900083,10.1504352 21.2900083,10.1504352 L0,10.1504352 C0,10.1504352 0,11.6471044 0,6.75382027 Z" id="Combined-Shape-Copy-2"></path>
                                            </g>
                                        </g>
                                        <g id="Banga2" transform="translate(32.000000, 5.500000) scale(1, -1) translate(-32.000000, -5.500000) translate(21.000000, 0.000000)">
                                            <g id="Banga">
                                                <path d="M0,6.75382027 C6.1376831,6.75382027 5.32250208,5.4373849e-16 10.6450042,0 C15.9675062,-5.4373849e-16 15.0804226,6.75382027 21.2900083,6.75382027 C21.2900083,13.3511217 21.2900083,10.1504352 21.2900083,10.1504352 L0,10.1504352 C0,10.1504352 0,11.6471044 0,6.75382027 Z" id="Combined-Shape-Copy-2"></path>
                                            </g>
                                        </g>
                                    </g>
                                    <g id="Group-8-Copy" transform="translate(42.000000, 0.000000)">
                                        <g id="Banga2" transform="translate(11.000000, 5.500000) scale(1, -1) translate(-11.000000, -5.500000) ">
                                            <g id="Banga">
                                                <path d="M0,6.75382027 C6.1376831,6.75382027 5.32250208,5.4373849e-16 10.6450042,0 C15.9675062,-5.4373849e-16 15.0804226,6.75382027 21.2900083,6.75382027 C21.2900083,13.3511217 21.2900083,10.1504352 21.2900083,10.1504352 L0,10.1504352 C0,10.1504352 0,11.6471044 0,6.75382027 Z" id="Combined-Shape-Copy-2"></path>
                                            </g>
                                        </g>
                                        <g id="Banga2" transform="translate(32.000000, 5.500000) scale(1, -1) translate(-32.000000, -5.500000) translate(21.000000, 0.000000)">
                                            <g id="Banga">
                                                <path d="M0,6.75382027 C6.1376831,6.75382027 5.32250208,5.4373849e-16 10.6450042,0 C15.9675062,-5.4373849e-16 15.0804226,6.75382027 21.2900083,6.75382027 C21.2900083,13.3511217 21.2900083,10.1504352 21.2900083,10.1504352 L0,10.1504352 C0,10.1504352 0,11.6471044 0,6.75382027 Z" id="Combined-Shape-Copy-2"></path>
                                            </g>
                                        </g>
                                    </g>
                                </g>
                                <g id="Group-20-Copy-4" transform="translate(84.000000, 0.000000)">
                                    <g id="Group-8">
                                        <g id="Banga2" transform="translate(11.000000, 5.500000) scale(1, -1) translate(-11.000000, -5.500000) ">
                                            <g id="Banga">
                                                <path d="M0,6.75382027 C6.1376831,6.75382027 5.32250208,5.4373849e-16 10.6450042,0 C15.9675062,-5.4373849e-16 15.0804226,6.75382027 21.2900083,6.75382027 C21.2900083,13.3511217 21.2900083,10.1504352 21.2900083,10.1504352 L0,10.1504352 C0,10.1504352 0,11.6471044 0,6.75382027 Z" id="Combined-Shape-Copy-2"></path>
                                            </g>
                                        </g>
                                        <g id="Banga2" transform="translate(32.000000, 5.500000) scale(1, -1) translate(-32.000000, -5.500000) translate(21.000000, 0.000000)">
                                            <g id="Banga">
                                                <path d="M0,6.75382027 C6.1376831,6.75382027 5.32250208,5.4373849e-16 10.6450042,0 C15.9675062,-5.4373849e-16 15.0804226,6.75382027 21.2900083,6.75382027 C21.2900083,13.3511217 21.2900083,10.1504352 21.2900083,10.1504352 L0,10.1504352 C0,10.1504352 0,11.6471044 0,6.75382027 Z" id="Combined-Shape-Copy-2"></path>
                                            </g>
                                        </g>
                                    </g>
                                    <g id="Group-8-Copy" transform="translate(42.000000, 0.000000)">
                                        <g id="Banga2" transform="translate(11.000000, 5.500000) scale(1, -1) translate(-11.000000, -5.500000) ">
                                            <g id="Banga">
                                                <path d="M0,6.75382027 C6.1376831,6.75382027 5.32250208,5.4373849e-16 10.6450042,0 C15.9675062,-5.4373849e-16 15.0804226,6.75382027 21.2900083,6.75382027 C21.2900083,13.3511217 21.2900083,10.1504352 21.2900083,10.1504352 L0,10.1504352 C0,10.1504352 0,11.6471044 0,6.75382027 Z" id="Combined-Shape-Copy-2"></path>
                                            </g>
                                        </g>
                                        <g id="Banga2" transform="translate(32.000000, 5.500000) scale(1, -1) translate(-32.000000, -5.500000) translate(21.000000, 0.000000)">
                                            <g id="Banga">
                                                <path d="M0,6.75382027 C6.1376831,6.75382027 5.32250208,5.4373849e-16 10.6450042,0 C15.9675062,-5.4373849e-16 15.0804226,6.75382027 21.2900083,6.75382027 C21.2900083,13.3511217 21.2900083,10.1504352 21.2900083,10.1504352 L0,10.1504352 C0,10.1504352 0,11.6471044 0,6.75382027 Z" id="Combined-Shape-Copy-2"></path>
                                            </g>
                                        </g>
                                    </g>
                                </g>
                            </g>
                            <g id="Group-22-Copy-2" transform="translate(168.000000, 0.000000)">
                                <g id="Group-20">
                                    <g id="Group-8">
                                        <g id="Banga2" transform="translate(11.000000, 5.500000) scale(1, -1) translate(-11.000000, -5.500000) ">
                                            <g id="Banga">
                                                <path d="M0,6.75382027 C6.1376831,6.75382027 5.32250208,5.4373849e-16 10.6450042,0 C15.9675062,-5.4373849e-16 15.0804226,6.75382027 21.2900083,6.75382027 C21.2900083,13.3511217 21.2900083,10.1504352 21.2900083,10.1504352 L0,10.1504352 C0,10.1504352 0,11.6471044 0,6.75382027 Z" id="Combined-Shape-Copy-2"></path>
                                            </g>
                                        </g>
                                        <g id="Banga2" transform="translate(32.000000, 5.500000) scale(1, -1) translate(-32.000000, -5.500000) translate(21.000000, 0.000000)">
                                            <g id="Banga">
                                                <path d="M0,6.75382027 C6.1376831,6.75382027 5.32250208,5.4373849e-16 10.6450042,0 C15.9675062,-5.4373849e-16 15.0804226,6.75382027 21.2900083,6.75382027 C21.2900083,13.3511217 21.2900083,10.1504352 21.2900083,10.1504352 L0,10.1504352 C0,10.1504352 0,11.6471044 0,6.75382027 Z" id="Combined-Shape-Copy-2"></path>
                                            </g>
                                        </g>
                                    </g>
                                    <g id="Group-8-Copy" transform="translate(42.000000, 0.000000)">
                                        <g id="Banga2" transform="translate(11.000000, 5.500000) scale(1, -1) translate(-11.000000, -5.500000) ">
                                            <g id="Banga">
                                                <path d="M0,6.75382027 C6.1376831,6.75382027 5.32250208,5.4373849e-16 10.6450042,0 C15.9675062,-5.4373849e-16 15.0804226,6.75382027 21.2900083,6.75382027 C21.2900083,13.3511217 21.2900083,10.1504352 21.2900083,10.1504352 L0,10.1504352 C0,10.1504352 0,11.6471044 0,6.75382027 Z" id="Combined-Shape-Copy-2"></path>
                                            </g>
                                        </g>
                                        <g id="Banga2" transform="translate(32.000000, 5.500000) scale(1, -1) translate(-32.000000, -5.500000) translate(21.000000, 0.000000)">
                                            <g id="Banga">
                                                <path d="M0,6.75382027 C6.1376831,6.75382027 5.32250208,5.4373849e-16 10.6450042,0 C15.9675062,-5.4373849e-16 15.0804226,6.75382027 21.2900083,6.75382027 C21.2900083,13.3511217 21.2900083,10.1504352 21.2900083,10.1504352 L0,10.1504352 C0,10.1504352 0,11.6471044 0,6.75382027 Z" id="Combined-Shape-Copy-2"></path>
                                            </g>
                                        </g>
                                    </g>
                                </g>
                                <g id="Group-20-Copy-4" transform="translate(84.000000, 0.000000)">
                                    <g id="Group-8">
                                        <g id="Banga2" transform="translate(11.000000, 5.500000) scale(1, -1) translate(-11.000000, -5.500000) ">
                                            <g id="Banga">
                                                <path d="M0,6.75382027 C6.1376831,6.75382027 5.32250208,5.4373849e-16 10.6450042,0 C15.9675062,-5.4373849e-16 15.0804226,6.75382027 21.2900083,6.75382027 C21.2900083,13.3511217 21.2900083,10.1504352 21.2900083,10.1504352 L0,10.1504352 C0,10.1504352 0,11.6471044 0,6.75382027 Z" id="Combined-Shape-Copy-2"></path>
                                            </g>
                                        </g>
                                        <g id="Banga2" transform="translate(32.000000, 5.500000) scale(1, -1) translate(-32.000000, -5.500000) translate(21.000000, 0.000000)">
                                            <g id="Banga">
                                                <path d="M0,6.75382027 C6.1376831,6.75382027 5.32250208,5.4373849e-16 10.6450042,0 C15.9675062,-5.4373849e-16 15.0804226,6.75382027 21.2900083,6.75382027 C21.2900083,13.3511217 21.2900083,10.1504352 21.2900083,10.1504352 L0,10.1504352 C0,10.1504352 0,11.6471044 0,6.75382027 Z" id="Combined-Shape-Copy-2"></path>
                                            </g>
                                        </g>
                                    </g>
                                    <g id="Group-8-Copy" transform="translate(42.000000, 0.000000)">
                                        <g id="Banga2" transform="translate(11.000000, 5.500000) scale(1, -1) translate(-11.000000, -5.500000) ">
                                            <g id="Banga">
                                                <path d="M0,6.75382027 C6.1376831,6.75382027 5.32250208,5.4373849e-16 10.6450042,0 C15.9675062,-5.4373849e-16 15.0804226,6.75382027 21.2900083,6.75382027 C21.2900083,13.3511217 21.2900083,10.1504352 21.2900083,10.1504352 L0,10.1504352 C0,10.1504352 0,11.6471044 0,6.75382027 Z" id="Combined-Shape-Copy-2"></path>
                                            </g>
                                        </g>
                                        <g id="Banga2" transform="translate(32.000000, 5.500000) scale(1, -1) translate(-32.000000, -5.500000) translate(21.000000, 0.000000)">
                                            <g id="Banga">
                                                <path d="M0,6.75382027 C6.1376831,6.75382027 5.32250208,5.4373849e-16 10.6450042,0 C15.9675062,-5.4373849e-16 15.0804226,6.75382027 21.2900083,6.75382027 C21.2900083,13.3511217 21.2900083,10.1504352 21.2900083,10.1504352 L0,10.1504352 C0,10.1504352 0,11.6471044 0,6.75382027 Z" id="Combined-Shape-Copy-2"></path>
                                            </g>
                                        </g>
                                    </g>
                                </g>
                            </g>
                        </g>
                    </g>
                    <g id="Group-24-Copy" transform="translate(672.000000, 0.000000)">
                        <g id="Group-23">
                            <g id="Group-22">
                                <g id="Group-20">
                                    <g id="Group-8">
                                        <g id="Banga2" transform="translate(11.000000, 5.500000) scale(1, -1) translate(-11.000000, -5.500000) ">
                                            <g id="Banga">
                                                <path d="M0,6.75382027 C6.1376831,6.75382027 5.32250208,5.4373849e-16 10.6450042,0 C15.9675062,-5.4373849e-16 15.0804226,6.75382027 21.2900083,6.75382027 C21.2900083,13.3511217 21.2900083,10.1504352 21.2900083,10.1504352 L0,10.1504352 C0,10.1504352 0,11.6471044 0,6.75382027 Z" id="Combined-Shape-Copy-2"></path>
                                            </g>
                                        </g>
                                        <g id="Banga2" transform="translate(32.000000, 5.500000) scale(1, -1) translate(-32.000000, -5.500000) translate(21.000000, 0.000000)">
                                            <g id="Banga">
                                                <path d="M0,6.75382027 C6.1376831,6.75382027 5.32250208,5.4373849e-16 10.6450042,0 C15.9675062,-5.4373849e-16 15.0804226,6.75382027 21.2900083,6.75382027 C21.2900083,13.3511217 21.2900083,10.1504352 21.2900083,10.1504352 L0,10.1504352 C0,10.1504352 0,11.6471044 0,6.75382027 Z" id="Combined-Shape-Copy-2"></path>
                                            </g>
                                        </g>
                                    </g>
                                    <g id="Group-8-Copy" transform="translate(42.000000, 0.000000)">
                                        <g id="Banga2" transform="translate(11.000000, 5.500000) scale(1, -1) translate(-11.000000, -5.500000) ">
                                            <g id="Banga">
                                                <path d="M0,6.75382027 C6.1376831,6.75382027 5.32250208,5.4373849e-16 10.6450042,0 C15.9675062,-5.4373849e-16 15.0804226,6.75382027 21.2900083,6.75382027 C21.2900083,13.3511217 21.2900083,10.1504352 21.2900083,10.1504352 L0,10.1504352 C0,10.1504352 0,11.6471044 0,6.75382027 Z" id="Combined-Shape-Copy-2"></path>
                                            </g>
                                        </g>
                                        <g id="Banga2" transform="translate(32.000000, 5.500000) scale(1, -1) translate(-32.000000, -5.500000) translate(21.000000, 0.000000)">
                                            <g id="Banga">
                                                <path d="M0,6.75382027 C6.1376831,6.75382027 5.32250208,5.4373849e-16 10.6450042,0 C15.9675062,-5.4373849e-16 15.0804226,6.75382027 21.2900083,6.75382027 C21.2900083,13.3511217 21.2900083,10.1504352 21.2900083,10.1504352 L0,10.1504352 C0,10.1504352 0,11.6471044 0,6.75382027 Z" id="Combined-Shape-Copy-2"></path>
                                            </g>
                                        </g>
                                    </g>
                                </g>
                                <g id="Group-20-Copy-4" transform="translate(84.000000, 0.000000)">
                                    <g id="Group-8">
                                        <g id="Banga2" transform="translate(11.000000, 5.500000) scale(1, -1) translate(-11.000000, -5.500000) ">
                                            <g id="Banga">
                                                <path d="M0,6.75382027 C6.1376831,6.75382027 5.32250208,5.4373849e-16 10.6450042,0 C15.9675062,-5.4373849e-16 15.0804226,6.75382027 21.2900083,6.75382027 C21.2900083,13.3511217 21.2900083,10.1504352 21.2900083,10.1504352 L0,10.1504352 C0,10.1504352 0,11.6471044 0,6.75382027 Z" id="Combined-Shape-Copy-2"></path>
                                            </g>
                                        </g>
                                        <g id="Banga2" transform="translate(32.000000, 5.500000) scale(1, -1) translate(-32.000000, -5.500000) translate(21.000000, 0.000000)">
                                            <g id="Banga">
                                                <path d="M0,6.75382027 C6.1376831,6.75382027 5.32250208,5.4373849e-16 10.6450042,0 C15.9675062,-5.4373849e-16 15.0804226,6.75382027 21.2900083,6.75382027 C21.2900083,13.3511217 21.2900083,10.1504352 21.2900083,10.1504352 L0,10.1504352 C0,10.1504352 0,11.6471044 0,6.75382027 Z" id="Combined-Shape-Copy-2"></path>
                                            </g>
                                        </g>
                                    </g>
                                    <g id="Group-8-Copy" transform="translate(42.000000, 0.000000)">
                                        <g id="Banga2" transform="translate(11.000000, 5.500000) scale(1, -1) translate(-11.000000, -5.500000) ">
                                            <g id="Banga">
                                                <path d="M0,6.75382027 C6.1376831,6.75382027 5.32250208,5.4373849e-16 10.6450042,0 C15.9675062,-5.4373849e-16 15.0804226,6.75382027 21.2900083,6.75382027 C21.2900083,13.3511217 21.2900083,10.1504352 21.2900083,10.1504352 L0,10.1504352 C0,10.1504352 0,11.6471044 0,6.75382027 Z" id="Combined-Shape-Copy-2"></path>
                                            </g>
                                        </g>
                                        <g id="Banga2" transform="translate(32.000000, 5.500000) scale(1, -1) translate(-32.000000, -5.500000) translate(21.000000, 0.000000)">
                                            <g id="Banga">
                                                <path d="M0,6.75382027 C6.1376831,6.75382027 5.32250208,5.4373849e-16 10.6450042,0 C15.9675062,-5.4373849e-16 15.0804226,6.75382027 21.2900083,6.75382027 C21.2900083,13.3511217 21.2900083,10.1504352 21.2900083,10.1504352 L0,10.1504352 C0,10.1504352 0,11.6471044 0,6.75382027 Z" id="Combined-Shape-Copy-2"></path>
                                            </g>
                                        </g>
                                    </g>
                                </g>
                            </g>
                            <g id="Group-22-Copy-2" transform="translate(168.000000, 0.000000)">
                                <g id="Group-20">
                                    <g id="Group-8">
                                        <g id="Banga2" transform="translate(11.000000, 5.500000) scale(1, -1) translate(-11.000000, -5.500000) ">
                                            <g id="Banga">
                                                <path d="M0,6.75382027 C6.1376831,6.75382027 5.32250208,5.4373849e-16 10.6450042,0 C15.9675062,-5.4373849e-16 15.0804226,6.75382027 21.2900083,6.75382027 C21.2900083,13.3511217 21.2900083,10.1504352 21.2900083,10.1504352 L0,10.1504352 C0,10.1504352 0,11.6471044 0,6.75382027 Z" id="Combined-Shape-Copy-2"></path>
                                            </g>
                                        </g>
                                        <g id="Banga2" transform="translate(32.000000, 5.500000) scale(1, -1) translate(-32.000000, -5.500000) translate(21.000000, 0.000000)">
                                            <g id="Banga">
                                                <path d="M0,6.75382027 C6.1376831,6.75382027 5.32250208,5.4373849e-16 10.6450042,0 C15.9675062,-5.4373849e-16 15.0804226,6.75382027 21.2900083,6.75382027 C21.2900083,13.3511217 21.2900083,10.1504352 21.2900083,10.1504352 L0,10.1504352 C0,10.1504352 0,11.6471044 0,6.75382027 Z" id="Combined-Shape-Copy-2"></path>
                                            </g>
                                        </g>
                                    </g>
                                    <g id="Group-8-Copy" transform="translate(42.000000, 0.000000)">
                                        <g id="Banga2" transform="translate(11.000000, 5.500000) scale(1, -1) translate(-11.000000, -5.500000) ">
                                            <g id="Banga">
                                                <path d="M0,6.75382027 C6.1376831,6.75382027 5.32250208,5.4373849e-16 10.6450042,0 C15.9675062,-5.4373849e-16 15.0804226,6.75382027 21.2900083,6.75382027 C21.2900083,13.3511217 21.2900083,10.1504352 21.2900083,10.1504352 L0,10.1504352 C0,10.1504352 0,11.6471044 0,6.75382027 Z" id="Combined-Shape-Copy-2"></path>
                                            </g>
                                        </g>
                                        <g id="Banga2" transform="translate(32.000000, 5.500000) scale(1, -1) translate(-32.000000, -5.500000) translate(21.000000, 0.000000)">
                                            <g id="Banga">
                                                <path d="M0,6.75382027 C6.1376831,6.75382027 5.32250208,5.4373849e-16 10.6450042,0 C15.9675062,-5.4373849e-16 15.0804226,6.75382027 21.2900083,6.75382027 C21.2900083,13.3511217 21.2900083,10.1504352 21.2900083,10.1504352 L0,10.1504352 C0,10.1504352 0,11.6471044 0,6.75382027 Z" id="Combined-Shape-Copy-2"></path>
                                            </g>
                                        </g>
                                    </g>
                                </g>
                                <g id="Group-20-Copy-4" transform="translate(84.000000, 0.000000)">
                                    <g id="Group-8">
                                        <g id="Banga2" transform="translate(11.000000, 5.500000) scale(1, -1) translate(-11.000000, -5.500000) ">
                                            <g id="Banga">
                                                <path d="M0,6.75382027 C6.1376831,6.75382027 5.32250208,5.4373849e-16 10.6450042,0 C15.9675062,-5.4373849e-16 15.0804226,6.75382027 21.2900083,6.75382027 C21.2900083,13.3511217 21.2900083,10.1504352 21.2900083,10.1504352 L0,10.1504352 C0,10.1504352 0,11.6471044 0,6.75382027 Z" id="Combined-Shape-Copy-2"></path>
                                            </g>
                                        </g>
                                        <g id="Banga2" transform="translate(32.000000, 5.500000) scale(1, -1) translate(-32.000000, -5.500000) translate(21.000000, 0.000000)">
                                            <g id="Banga">
                                                <path d="M0,6.75382027 C6.1376831,6.75382027 5.32250208,5.4373849e-16 10.6450042,0 C15.9675062,-5.4373849e-16 15.0804226,6.75382027 21.2900083,6.75382027 C21.2900083,13.3511217 21.2900083,10.1504352 21.2900083,10.1504352 L0,10.1504352 C0,10.1504352 0,11.6471044 0,6.75382027 Z" id="Combined-Shape-Copy-2"></path>
                                            </g>
                                        </g>
                                    </g>
                                </g>
                            </g>
                        </g>
                    </g>
                </g>
            </g>
        </g>
    </g>
</svg>