<?xml version="1.0" encoding="UTF-8" standalone="no"?>
<svg width="11px" height="15px" viewBox="0 0 11 15" version="1.1" xmlns="http://www.w3.org/2000/svg" xmlns:xlink="http://www.w3.org/1999/xlink">
    <!-- Generator: sketchtool 40.1 (33804) - http://www.bohemiancoding.com/sketch -->
    <title>EE68C48F-51D2-4DAB-821F-3D1FB5761A13</title>
    <desc>Created with sketchtool.</desc>
    <defs></defs>
    <g id="Symbols" stroke="none" stroke-width="1" fill="none" fill-rule="evenodd">
        <g id="Header" transform="translate(-1085.000000, -6.000000)" fill="#A72729">
            <g id="Group-28" transform="translate(823.000000, 1.000000)">
                <g id="Login" transform="translate(262.000000, 5.000000)">
                    <path d="M6.72222222,9.375 C6.72222222,8.68464406 6.17501469,8.125 5.5,8.125 C4.82498531,8.125 4.27777778,8.68464406 4.27777778,9.375 C4.27777778,10.0653559 4.82498531,10.625 5.5,10.625 C6.17501469,10.625 6.72222222,10.0653559 6.72222222,9.375 Z" id="Oval-2"></path>
                    <path d="M4.93857151,10.9306335 C4.93857151,11.2758115 5.21217527,11.5556335 5.54968262,11.5556335 C5.88718996,11.5556335 6.16079373,11.2758115 6.16079373,10.9306335 L6.16079373,9.9912262 C6.16079373,9.64604823 5.88718996,9.3662262 5.54968262,9.3662262 C5.21217527,9.3662262 4.93857151,9.64604823 4.93857151,9.9912262 L4.93857151,10.9306335 Z" id="Path-3"></path>
                    <path d="M2.44226781,6.875 L5.6870931,6.875 L8.55043749,6.875 C8.88875747,6.875 9.16666667,7.15687445 9.16666667,7.48847246 L9.16666667,12.5115275 C9.16666667,12.8457971 8.88940651,13.125 8.55260275,13.125 L7.38353814,13.125 L2.43949998,13.125 C2.10783257,13.125 1.83333333,12.8442827 1.83333333,12.5115275 L1.83333333,7.48847246 C1.83333333,7.15124896 2.10566432,6.875 2.44226781,6.875 Z M0.611111111,12.5115275 C0.611111111,13.5346591 1.43283788,14.375 2.43949998,14.375 L7.38353814,14.375 L8.55260275,14.375 C9.56021967,14.375 10.3888889,13.5405243 10.3888889,12.5115275 L10.3888889,7.48847246 C10.3888889,6.46418382 9.56151022,5.625 8.55043749,5.625 L5.6870931,5.625 L2.44226781,5.625 C1.43287984,5.625 0.611111111,6.45859136 0.611111111,7.48847246 L0.611111111,12.5115275 Z" id="Rectangle-7"></path>
                    <path d="M3.05555556,4.8788507 L3.05555556,2.50865387 C3.05555556,2.15562739 3.32727131,1.875 3.66643138,1.875 L7.33356862,1.875 C7.67261214,1.875 7.94444444,2.15045506 7.94444444,2.48910234 L7.94444444,3.55370574 C7.94444444,3.89888371 8.21804821,4.17870574 8.55555556,4.17870574 C8.8930629,4.17870574 9.16666667,3.89888371 9.16666667,3.55370574 L9.16666667,2.48910234 C9.16666667,1.45750222 8.34511344,0.625 7.33356862,0.625 L3.66643138,0.625 C2.6495613,0.625 1.83333333,1.46799832 1.83333333,2.50865387 L1.83333333,4.8788507 L1.83333333,6.13750458 C1.83333333,6.48268255 2.1069371,6.76250458 2.44444444,6.76250458 C2.78195179,6.76250458 3.05555556,6.48268255 3.05555556,6.13750458 L3.05555556,4.8788507 Z" id="Rectangle-7-Copy"></path>
                </g>
            </g>
        </g>
    </g>
</svg>