<?xml version="1.0" encoding="UTF-8" standalone="no"?>
<svg width="162px" height="61px" viewBox="0 0 162 61" version="1.1" xmlns="http://www.w3.org/2000/svg" xmlns:xlink="http://www.w3.org/1999/xlink">
    <!-- Generator: sketchtool 40.1 (33804) - http://www.bohemiancoding.com/sketch -->
    <title>4238CCCF-F05C-442E-ACF2-BE2CB4DB011E</title>
    <desc>Created with sketchtool.</desc>
    <defs>
        <linearGradient x1="0%" y1="0%" x2="100%" y2="100%" id="linearGradient-1">
            <stop stop-color="#608340" offset="0%"></stop>
            <stop stop-color="#375511" offset="100%"></stop>
        </linearGradient>
        <linearGradient x1="0.759327168%" y1="0.759327168%" x2="100%" y2="100%" id="linearGradient-2">
            <stop stop-color="#789F5F" offset="0%"></stop>
            <stop stop-color="#375511" offset="100%"></stop>
        </linearGradient>
    </defs>
    <g id="Symbols" stroke="none" stroke-width="1" fill="none" fill-rule="evenodd">
        <g id="Header">
            <g id="Logo">
                <path d="M96.9797843,51.7091179 L95.5658213,48.1608322 L94.1518582,51.7091179 L96.9797843,51.7091179 Z M57.9570721,45.1059632 L57.9570721,49.4900912 L61.2391413,49.4900912 C62.5449751,49.4900912 63.3106225,48.5261762 63.3106225,47.2980272 C63.3106225,46.0204467 62.5008031,45.1059632 61.1646011,45.1059632 L57.9570721,45.1059632 Z M158.165321,46.2999596 C157.27544,45.1495529 156.35197,44.7442143 154.859786,44.7442143 C153.632173,44.7442143 152.170817,44.9760931 152.170817,46.4298297 C152.170817,46.6877724 152.21867,46.9214488 152.370051,47.1367007 C152.95671,47.9707455 155.234787,48.6025704 156.192767,48.9243248 C159.253976,49.9511527 162,51.361749 162,54.9675549 C162,59.2047364 158.635568,61 154.662392,61 C151.719895,61 149.294118,59.7974655 147.71589,57.3946434 C147.496411,57.0746866 147.374478,56.7048488 147.374478,56.318384 C147.374478,55.272233 148.256537,54.4103267 149.328167,54.4103267 C150.034918,54.4103267 150.646884,54.7671325 150.986916,55.3221139 C151.837227,56.6333977 153.080944,57.2319687 154.662392,57.2319687 C155.561016,57.2319687 157.01777,57.1191749 157.640319,56.3727587 C157.962406,55.986294 158.042928,55.4506359 158.042928,54.9675549 C158.042928,54.5932234 157.969308,54.254842 157.731424,53.9542084 C157.078047,53.1291511 155.149204,52.5916955 154.162237,52.2766818 C152.431248,51.7239473 150.553939,51.0966162 149.354854,49.6788298 C148.56482,48.7445738 148.214205,47.6332629 148.214205,46.4298297 C148.214205,45.7562126 148.333377,45.0879881 148.585526,44.460657 C149.606082,41.9225722 152.25732,41 154.859786,41 C157.477435,41 159.717782,41.9504336 161.290488,44.0094819 L161.315795,44.0422864 L161.338801,44.0764391 C161.55736,44.396396 161.678833,44.765335 161.678833,45.1513504 C161.678833,46.1979508 160.796314,47.0594077 159.725144,47.0594077 C159.090172,47.0594077 158.545384,46.7924774 158.165321,46.2999596 L158.165321,46.2999596 Z M139.289627,61 C132.883312,61 130.100017,56.9888554 130.100017,51.0121332 C130.100017,45.1652811 132.994202,41 139.289627,41 C141.889331,41 144.519864,42.0497461 146.060362,44.1564283 L146.074625,44.1753022 L146.087969,44.1955242 C146.317571,44.5303105 146.453768,44.9145284 146.453768,45.319867 C146.453768,46.3664674 145.596556,47.2041073 144.524926,47.2041073 C143.91434,47.2041073 143.372773,46.9439177 142.99179,46.4783625 L142.973385,46.4558936 L142.956361,46.4334247 C142.121694,45.3333483 140.66448,44.7680313 139.289627,44.7680313 C135.200959,44.7680313 134.056629,47.3218442 134.056629,51.0121332 C134.056629,52.7606615 134.289913,55.1931425 135.840993,56.3525367 C136.795291,57.065699 138.123211,57.2319687 139.289627,57.2319687 C140.675983,57.2319687 142.109271,56.7237226 142.959581,55.6106143 L142.975226,55.5903923 L142.99179,55.5701703 C143.372773,55.1041657 143.91434,54.8444255 144.524926,54.8444255 C145.596556,54.8444255 146.453768,55.681616 146.453768,56.7286658 C146.453768,57.0998517 146.326314,57.4894621 146.116957,57.7986339 C144.647319,59.9677796 141.873687,61 139.289627,61 L139.289627,61 Z M127.67286,43.0774727 L127.67286,58.9229767 C127.67286,59.9938435 126.790801,60.8553004 125.694784,60.8553004 C124.598307,60.8553004 123.716248,59.9938435 123.716248,58.9229767 L123.716248,43.0774727 C123.716248,42.0066059 124.598307,41.1446996 125.694784,41.1446996 C126.790341,41.1446996 127.67286,42.0066059 127.67286,43.0774727 L127.67286,43.0774727 Z M109.756066,49.4554891 L109.756066,58.9472431 C109.756066,59.9938435 108.874007,60.8553004 107.802376,60.8553004 C106.731206,60.8553004 105.848687,59.9938435 105.848687,58.9472431 L105.848687,43.0527569 C105.848687,42.0066059 106.731206,41.1446996 107.802376,41.1446996 C108.448852,41.1446996 109.054836,41.4502764 109.415113,41.9760482 L116.492751,52.5840561 L116.492751,43.0527569 C116.492751,42.0066059 117.37481,41.1446996 118.44644,41.1446996 C119.51761,41.1446996 120.40013,42.0066059 120.40013,43.0527569 L120.40013,58.9229767 C120.40013,59.9938435 119.51761,60.8553004 118.421593,60.8553004 C117.710241,60.8553004 117.123582,60.5209635 116.733396,59.9489058 L109.756066,49.4554891 Z M98.4604655,55.5009662 L92.6684163,55.5009662 L91.0230105,59.586258 C90.7358927,60.3524469 89.9822085,60.8553004 89.1447816,60.8553004 C88.0487647,60.8553004 87.1667057,59.9938435 87.1667057,58.9229767 C87.1667057,58.6636858 87.2320434,58.3738372 87.3401727,58.1289264 L93.7128993,42.4128432 C93.9981765,41.6502494 94.723333,41.1446996 95.5658213,41.1446996 C96.402788,41.1446996 97.1560121,41.6471038 97.44359,42.4132926 L103.79239,58.1302746 C103.900059,58.374736 103.964937,58.6641352 103.964937,58.9229767 C103.964937,60.0077742 103.068154,60.8553004 101.962014,60.8553004 C101.125968,60.8553004 100.435781,60.3681751 100.111853,59.6289489 L100.10127,59.6055813 L98.4604655,55.5009662 Z M81.7459771,55.8429425 L81.7459771,53.7403047 L78.4887546,53.7403047 C77.4171243,53.7403047 76.5599121,52.9026648 76.5599121,51.8565137 C76.5599121,50.8099133 77.4171243,49.9722734 78.4887546,49.9722734 L83.724053,49.9722734 C84.7671556,49.9722734 85.6533557,50.8049701 85.6533557,51.8322473 L85.6533557,56.2941176 C85.6533557,56.8724666 85.4338763,57.3937447 85.0496722,57.8314385 C83.1534984,59.992046 80.8183658,61 77.8961141,61 C71.4897984,61 68.7065044,56.9888554 68.7065044,51.0121332 C68.7065044,45.0417022 71.4870377,41 77.8961141,41 C80.4958184,41 83.1263511,42.0497461 84.6668484,44.1564283 L84.6811123,44.1753022 L84.6944559,44.1955242 C84.9240581,44.5303105 85.0607152,44.9145284 85.0607152,45.319867 C85.0607152,46.3664674 84.2030428,47.2041073 83.1318726,47.2041073 C82.520827,47.2041073 81.9792603,46.9439177 81.5982771,46.4783625 L81.5798721,46.4558936 L81.5633076,46.4334247 C80.7286415,45.3333483 79.2709666,44.7680313 77.8961141,44.7680313 C76.7458024,44.7680313 75.4730976,44.9455354 74.5270813,45.6357794 C72.9272279,46.8037119 72.6631163,49.2195659 72.6631163,51.0121332 C72.6631163,52.7606615 72.8963995,55.1931425 74.4474798,56.3525367 C75.4017783,57.065699 76.7296981,57.2319687 77.8961141,57.2319687 C79.2534818,57.2319687 80.7654515,56.8109019 81.7459771,55.8429425 L81.7459771,55.8429425 Z M63.9193674,60.0055273 L58.9477205,53.2823889 L57.9570721,53.2823889 L57.9570721,58.9229767 C57.9570721,59.9938435 57.0750131,60.8553004 55.978536,60.8553004 C54.8825191,60.8553004 54,59.9938435 54,58.9229767 L54,43.2702557 C54,42.1993888 54.8825191,41.337932 55.978536,41.337932 L61.1646011,41.337932 C64.6090943,41.337932 67.2672344,43.9384802 67.2672344,47.2980272 C67.2672344,49.887341 65.7663078,52.0299735 63.489611,52.8842403 C64.7278064,54.5096391 65.9673823,56.135038 67.184412,57.768975 C67.4314989,58.0988181 67.5635547,58.5158406 67.5635547,58.9229767 C67.5635547,60.0077742 66.6663116,60.8553004 65.560172,60.8553004 C64.8925311,60.8553004 64.2971298,60.5380398 63.9193674,60.0055273 L63.9193674,60.0055273 Z" id="Fill-1" fill="#2C4400"></path>
                <path d="M37.894362,24.4554891 L37.894362,33.9472431 C37.894362,34.9938435 37.0152414,35.8553004 35.947181,35.8553004 C34.8795792,35.8553004 34,34.9938435 34,33.9472431 L34,18.0527569 C34,17.0066059 34.8791206,16.1446996 35.947181,16.1446996 C36.5915026,16.1446996 37.195468,16.4502764 37.5545455,16.9760482 L44.6081467,27.5840561 L44.6081467,18.0527569 C44.6081467,17.0066059 45.4877259,16.1446996 46.5557864,16.1446996 C47.6233882,16.1446996 48.5029674,17.0066059 48.5029674,18.0527569 L48.5029674,33.9229767 C48.5029674,34.9938435 47.6233882,35.8553004 46.5310224,35.8553004 C45.8220394,35.8553004 45.2373348,35.5209635 44.8484489,34.9493551 L37.894362,24.4554891 Z M59.8343135,36 C53.5740761,36 50.675317,31.852694 50.675317,26.0121332 C50.675317,20.1648317 53.5603183,16 59.8343135,16 C66.1087672,16 68.9937685,20.1648317 68.9937685,26.0121332 C68.9937685,31.852694 66.0950094,36 59.8343135,36 L59.8343135,36 Z M81.2982466,35.0055273 L76.3431616,28.2819395 L75.3558133,28.2819395 L75.3558133,33.9229767 C75.3558133,34.9938435 74.4766927,35.8553004 73.3843269,35.8553004 C72.2919612,35.8553004 71.412382,34.9938435 71.412382,33.9229767 L71.412382,18.2698063 C71.412382,17.1993888 72.2919612,16.337932 73.3843269,16.337932 L78.5531157,16.337932 C81.9861343,16.337932 84.6354195,18.9384802 84.6354195,22.2980272 C84.6354195,24.8868917 83.1394929,27.0304229 80.8703804,27.8842403 C82.1039924,29.5100885 83.3394389,31.135038 84.5524144,32.768975 C84.7986782,33.0983688 84.9307526,33.5158406 84.9307526,33.9229767 C84.9307526,35.0077742 84.0364985,35.8553004 82.9340437,35.8553004 C82.2681683,35.8553004 81.6752091,35.5380398 81.2982466,35.0055273 L81.2982466,35.0055273 Z M89.1736445,16.337932 L92.8410035,16.337932 C99.161775,16.337932 102,19.9733968 102,26.0121332 C102,32.0571608 99.1590235,35.6625174 92.8410035,35.6625174 L89.1736445,35.6625174 C88.0812787,35.6625174 87.2021581,34.8006112 87.2021581,33.7301937 L87.2021581,18.2698063 C87.2021581,17.1993888 88.0812787,16.337932 89.1736445,16.337932 L89.1736445,16.337932 Z M59.8343135,19.7680313 C55.7592663,19.7680313 54.6192069,22.3218442 54.6192069,26.0121332 C54.6192069,29.6970296 55.7711896,32.2319687 59.8343135,32.2319687 C63.8974373,32.2319687 65.0498786,29.6970296 65.0498786,26.0121332 C65.0498786,22.3222936 63.9093607,19.7680313 59.8343135,19.7680313 L59.8343135,19.7680313 Z M75.3558133,20.1059632 L75.3558133,24.4900912 L78.626949,24.4900912 C79.9288913,24.4900912 80.6915295,23.5261762 80.6915295,22.2980272 C80.6915295,21.0204467 79.8844079,20.1059632 78.5531157,20.1059632 L75.3558133,20.1059632 Z M91.1455894,20.1059632 L91.1455894,31.8944861 L92.8410035,31.8944861 C94.0026167,31.8944861 95.3779336,31.7488878 96.3423523,31.0519031 C97.8373617,29.9707006 98.0565687,27.6752797 98.0565687,26.0121332 C98.0565687,24.3323597 97.825897,22.0499708 96.3221743,20.9584326 C95.35959,20.2596504 94.0039924,20.1059632 92.8410035,20.1059632 L91.1455894,20.1059632 Z" id="Fill-6" fill="#689146"></path>
                <path d="M1.28677725,31.0007348 C1.27264003,30.8682772 -5.23566557,48.6817075 11.1555004,53.7627068 C17.8452337,55.8363051 24.3756876,53.1777249 28,60 L28,57.1137435 C28,49.5886416 23.9049181,46.1070328 19.3565027,43.8052868 C8.74887407,38.436746 4.01808847,38.8030078 1.28677725,31.0007348 L1.28677725,31.0007348 Z" id="Path" fill="url(#linearGradient-1)"></path>
                <path d="M27,41.4947664 C27,14.6792484 8.57520001,19.3904466 2.76505671,0 C-6.12727193,42.3529521 21.1762848,35.7247676 27,50 L27,41.4947664 Z" id="Path" fill="url(#linearGradient-2)"></path>
                <path d="M42.5,61 C36.0066844,61 33,56.852694 33,51.0121332 C33,45.1652811 35.9919387,41 42.5,41 C49.0080613,41 52,45.1652811 52,51.0121332 C52,56.852694 48.9933156,61 42.5,61 Z M44.2628179,47.3335281 L44.2628179,49.3350559 L46.3809583,49.3350559 C47.3570248,49.3350559 48.1437763,50.0774278 48.1437763,51 C48.1437763,51.9225722 47.3575005,52.6649441 46.3809583,52.6649441 L44.2628179,52.6649441 L44.2628179,54.6664719 C44.2628179,55.5885948 43.4765422,56.3318654 42.5,56.3318654 C41.5234578,56.3318654 40.7371821,55.5890442 40.7371821,54.6664719 L40.7371821,52.6649441 L38.6190417,52.6649441 C37.6424995,52.6649441 36.8566994,51.9225722 36.8566994,51 C36.8566994,50.0774278 37.6424995,49.3350559 38.6190417,49.3350559 L40.7371821,49.3350559 L40.7371821,47.3335281 C40.7371821,46.4109558 41.5234578,45.6681346 42.5,45.6681346 C43.4765422,45.6681346 44.2628179,46.4109558 44.2628179,47.3335281 Z" id="Combined-Shape" fill="#2C4400"></path>
            </g>
        </g>
    </g>
</svg>