<?xml version="1.0" encoding="UTF-8" standalone="no"?>
<svg width="20px" height="14px" viewBox="0 0 20 14" version="1.1" xmlns="http://www.w3.org/2000/svg" xmlns:xlink="http://www.w3.org/1999/xlink">
    <!-- Generator: sketchtool 40.1 (33804) - http://www.bohemiancoding.com/sketch -->
    <title>44414636-F00A-4AA8-BF2F-241935DE9BC4</title>
    <desc>Created with sketchtool.</desc>
    <defs></defs>
    <g id="Symbols" stroke="none" stroke-width="1" fill="none" fill-rule="evenodd">
        <g id="Footer" transform="translate(-1508.000000, -409.000000)">
            <g id="Group-2" transform="translate(1127.000000, 390.000000)">
                <g id="Input-Field">
                    <g id="Group-3" transform="translate(369.197531, 5.000000)">
                        <g id="Mail-" transform="translate(12.000000, 14.000000)">
                            <path d="" id="Path-4" stroke="#979797"></path>
                            <path d="M0.193359375,2.91686085 L0.193359375,11.9431271 C0.193359375,13.0456399 1.08752933,13.9406298 2.18900437,13.9406298 L16.9144365,13.9406298 C18.0171892,13.9406298 18.9100815,13.046629 18.9100815,11.9431271 L18.9100815,2.91686085 C18.9100815,1.814348 18.0159115,0.919358107 16.9144365,0.919358107 L2.18900437,0.919358107 C1.08625169,0.919358107 0.193359375,1.81335894 0.193359375,2.91686085 Z M16.9144365,2.91935811 C16.9109315,2.91935811 16.9100815,11.9431271 16.9100815,11.9431271 C16.9100815,11.9426146 2.18900437,11.9406298 2.18900437,11.9406298 C2.1925094,11.9406298 2.19335938,2.91686085 2.19335938,2.91686085 C2.19335938,2.91737333 16.9144365,2.91935811 16.9144365,2.91935811 Z" id="Path-5" fill="#FFFFFF"></path>
                            <polygon id="Path-6" fill="#FFFFFF" points="9.43225193 7.30470324 2.31598451 1.01401994 1 2.52006934 9.43225196 9.88816298 18.2242686 2.53408928 16.9410811 1"></polygon>
                        </g>
                    </g>
                </g>
            </g>
        </g>
    </g>
</svg>