<?xml version="1.0" encoding="UTF-8"?>
<svg width="25px" height="24px" viewBox="0 0 25 24" version="1.1" xmlns="http://www.w3.org/2000/svg" xmlns:xlink="http://www.w3.org/1999/xlink">
    <!-- Generator: sketchtool 41.2 (35397) - http://www.bohemiancoding.com/sketch -->
    <title>13BF4070-30DB-44DC-ABEB-7A222D421198</title>
    <desc>Created with sketchtool.</desc>
    <defs></defs>
    <g id="Web-Design" stroke="none" stroke-width="1" fill="none" fill-rule="evenodd">
        <g id="Produkto-vidinis-d" transform="translate(-833.000000, -716.000000)" fill="#658D1B">
            <g id="molecule" transform="translate(833.000000, 716.000000)">
                <g id="Capa_1">
                    <path d="M19.7964597,7.34455338 C19.7964597,7.44460784 19.803268,7.54302832 19.8150327,7.63992375 L17.373366,8.41220044 C16.4850218,6.76928105 14.7462963,5.65070806 12.7511983,5.65070806 C12.5482026,5.65070806 12.3479847,5.66269063 12.1509259,5.68523965 L11.9934096,4.71960784 C12.920207,4.3754902 13.5824619,3.48229847 13.5824619,2.43720044 C13.5824619,1.09515251 12.4906863,0.00337690632 11.1486383,0.00337690632 C9.80659041,0.00337690632 8.71481481,1.09515251 8.71481481,2.43720044 C8.71481481,3.69956427 9.68088235,4.74019608 10.9124728,4.85936819 L11.0857298,5.92162309 C9.73208061,6.3754902 8.62282135,7.3667756 8.01252723,8.64084967 L6.02755991,8.03877996 C6.02930283,7.99700436 6.03077342,7.95517429 6.03077342,7.91296296 C6.03077342,6.25027233 4.67810458,4.89754902 3.01535948,4.89754902 C1.35266885,4.89754902 0,6.25027233 0,7.91296296 C0,9.57565359 1.35266885,10.9283224 3.01535948,10.9283224 C4.25539216,10.9283224 5.32260349,10.1757625 5.78523965,9.10359477 L7.64700436,9.66830065 C7.55141612,10.0639978 7.50038126,10.4769063 7.50038126,10.9015251 C7.50038126,12.2291939 7.99591503,13.4431373 8.81149237,14.3686819 L6.43654684,17.4422113 C6.02194989,17.2272331 5.55190632,17.1049564 5.05354031,17.1049564 C3.39084967,17.1049564 2.03812636,18.4576253 2.03812636,20.1203704 C2.03812636,21.783061 3.39079521,23.1357298 5.05354031,23.1357298 C6.71623094,23.1357298 8.06889978,21.783061 8.06889978,20.1203704 C8.06889978,19.3482026 7.77685185,18.6431373 7.29782135,18.1091503 L9.61503268,15.1103486 C10.4907407,15.7645425 11.5765251,16.152342 12.7512527,16.152342 C13.9589325,16.152342 15.072549,15.7422658 15.9606209,15.0543573 L16.7405773,15.8613834 C16.3649782,16.3642157 16.1423203,16.9876906 16.1423203,17.6622004 C16.1423203,19.3248911 17.4949891,20.6775599 19.1576797,20.6775599 C20.8203704,20.6775599 22.1730937,19.3248911 22.1730937,17.6622004 C22.1730937,15.9995098 20.8204248,14.6467865 19.1576797,14.6467865 C18.5622549,14.6467865 18.0070261,14.8209695 17.5389978,15.1200436 L16.7485839,14.3021242 C17.5297386,13.3852941 18.0020153,12.197549 18.0020153,10.9014706 C18.0020153,10.3882898 17.9276688,9.89215686 17.7897603,9.42298475 L20.1872549,8.66470588 C20.6213508,9.33420479 21.3746732,9.77832244 22.2302832,9.77832244 C23.5723312,9.77832244 24.6641068,8.68654684 24.6641068,7.34449891 C24.6641068,6.00245098 23.5723312,4.91072985 22.2302832,4.91072985 C20.8882353,4.91072985 19.7964597,6.00250545 19.7964597,7.34455338 Z M9.80413943,2.43714597 C9.80413943,1.6958061 10.4072985,1.09264706 11.1486383,1.09264706 C11.8899782,1.09264706 12.4931373,1.6958061 12.4931373,2.43714597 C12.4931373,2.93747277 12.2182462,3.37445534 11.8117647,3.60599129 L11.7592593,3.28393246 C11.7108388,2.98703704 11.4311002,2.78562092 11.1340414,2.83404139 C10.837146,2.88246187 10.6357298,3.1624183 10.6841503,3.45925926 L10.7255447,3.71296296 C10.1909041,3.53529412 9.80413943,3.03071895 9.80413943,2.43714597 L9.80413943,2.43714597 Z M3.01535948,9.83899782 C1.95332244,9.83899782 1.08932462,8.975 1.08932462,7.91296296 C1.08932462,6.85092593 1.95332244,5.98687364 3.01535948,5.98687364 C4.00740741,5.98687364 4.82647059,6.74084967 4.93011983,7.70588235 L4.43818083,7.55664488 C4.15038126,7.46938998 3.84618736,7.63191721 3.758878,7.91977124 C3.67156863,8.20762527 3.83409586,8.51176471 4.12200436,8.59907407 L4.73229847,8.78420479 C4.41367102,9.40947712 3.76394336,9.83899782 3.01535948,9.83899782 L3.01535948,9.83899782 Z M5.05348584,22.0464052 C3.9914488,22.0464052 3.12739651,21.1824074 3.12739651,20.1203704 C3.12739651,19.0583333 3.9914488,18.194281 5.05348584,18.194281 C6.11552288,18.194281 6.9795207,19.0583333 6.9795207,20.1203704 C6.9795207,21.1824074 6.11552288,22.0464052 5.05348584,22.0464052 L5.05348584,22.0464052 Z M21.0837691,17.6622004 C21.0837691,18.7242375 20.2197168,19.5882353 19.1576797,19.5882353 C18.0956427,19.5882353 17.2316449,18.7242375 17.2316449,17.6622004 C17.2316449,16.6001634 18.0956427,15.7361111 19.1576797,15.7361111 C20.2197168,15.7361111 21.0837691,16.6001634 21.0837691,17.6622004 L21.0837691,17.6622004 Z M15.9870915,13.5142157 L15.1429739,12.6407952 C14.933878,12.4244553 14.5890523,12.4186275 14.3728214,12.6276144 C14.1564815,12.8366558 14.1505991,13.1814815 14.3596405,13.3977669 L15.1977124,14.2649237 C14.5104575,14.7661765 13.6650327,15.062963 12.7512527,15.062963 C11.8270697,15.062963 10.9726035,14.7598039 10.2812636,14.2482026 L11.064488,13.2346405 C11.2484205,12.9966231 11.2045752,12.6545752 10.9665577,12.4706427 C10.7285403,12.2868192 10.3864924,12.33061 10.2025599,12.5686275 L9.49346405,13.4862745 C8.92854031,12.7757625 8.58981481,11.8776688 8.58981481,10.9015251 C8.58981481,8.60686275 10.4566449,6.74003268 12.7513072,6.74003268 C15.0459695,6.74003268 16.9127996,8.60686275 16.9127996,10.9015251 C16.9126906,11.8904684 16.5653595,12.7994009 15.9870915,13.5142157 L15.9870915,13.5142157 Z M22.2302832,8.68905229 C21.4889434,8.68905229 20.8857843,8.08589325 20.8857843,7.34455338 C20.8857843,6.60321351 21.4889434,6.00005447 22.2302832,6.00005447 C22.9716231,6.00005447 23.5747821,6.60321351 23.5747821,7.34455338 C23.5747821,8.08589325 22.9716776,8.68905229 22.2302832,8.68905229 L22.2302832,8.68905229 Z" id="Shape"></path>
                </g>
            </g>
        </g>
    </g>
</svg>