<?xml version="1.0" encoding="UTF-8" standalone="no"?>
<svg width="49px" height="46px" viewBox="0 0 49 46" version="1.1" xmlns="http://www.w3.org/2000/svg" xmlns:xlink="http://www.w3.org/1999/xlink">
    <!-- Generator: sketchtool 40.1 (33804) - http://www.bohemiancoding.com/sketch -->
    <title>EBAD4025-09BC-45D7-99B8-3DA16C69AE9F</title>
    <desc>Created with sketchtool.</desc>
    <defs></defs>
    <g id="Web-Design" stroke="none" stroke-width="1" fill="none" fill-rule="evenodd">
        <g id="Product-line-professionals" transform="translate(-438.000000, -760.000000)">
            <g id="money" transform="translate(462.500000, 783.000000) scale(-1, 1) translate(-462.500000, -783.000000) translate(438.000000, 760.000000)">
                <g id="Layer_1">
                    <g id="Group">
                        <path d="M48.9359308,36.3792412 C48.9359308,36.3489781 48.9359308,36.3187149 48.9259511,36.2884518 C48.9259511,36.2581886 48.9159715,36.2279254 48.9059919,36.1976623 C48.8960122,36.1673991 48.8960122,36.137136 48.8860326,36.1169605 C48.876053,36.0866974 48.8660733,36.0665219 48.8461141,36.0362588 C48.8361344,36.0059956 48.8261548,35.9858202 48.8061955,35.955557 C48.7962159,35.9252939 48.7762566,35.9051184 48.7562974,35.884943 C48.7363381,35.8647675 48.7263585,35.8345044 48.7063992,35.8143289 C48.6864399,35.7941535 48.6664807,35.7739781 48.6365418,35.7538026 C48.6165825,35.7336272 48.5966232,35.7134518 48.576664,35.6932763 C48.5567047,35.6731009 48.5267658,35.6630132 48.4968269,35.6428377 C48.4768676,35.63275 48.4569084,35.6125746 48.4269695,35.6024868 L37.4194338,30.1147675 C37.3894949,30.0945921 37.359556,30.0845044 37.3196375,30.0744167 C37.1300244,30.0038026 32.5892912,28.3998553 28.8768676,30.0845044 L20.6835886,33.080557 C20.6636293,33.0906447 20.6336904,33.1007325 20.6137312,33.1108202 C19.4361344,33.655557 18.8173971,34.8761711 19.066888,36.1573114 C19.3163788,37.428364 20.3343014,38.3261711 21.6116945,38.3866974 L21.6316538,38.3866974 C21.7114908,38.3866974 22.0707576,38.3665219 25.8031405,38.1244167 C27.4298208,38.0235395 29.1063992,37.9125746 29.2560937,37.9024868 C29.7251365,37.8823114 30.1143422,37.4989781 30.1243218,37.0147675 C30.1343014,36.5103816 29.7450957,36.0866974 29.2361344,36.0766096 C29.1862363,36.0766096 29.1862363,36.0766096 25.6933646,36.2985395 C23.9469287,36.4095044 21.9909206,36.5406447 21.6615927,36.5608202 C21.0328758,36.5103816 20.8831813,35.9757325 20.8432627,35.8143289 C20.7734053,35.4713465 20.8732016,35.0173991 21.3422444,34.7853816 L29.5255438,31.7893289 C29.5455031,31.7792412 29.5654623,31.7691535 29.5954012,31.7590658 C32.4695356,30.4375746 36.2218778,31.6279254 36.6709613,31.7691535 L41.5709613,34.2103816 L38.8764603,40.6362588 C37.549169,39.8090658 35.9324684,39.587136 34.4355234,40.0410833 L23.4379674,43.3801184 C22.1306354,43.7836272 20.6835886,43.6323114 19.476053,42.9665219 L2.2512057,33.5345044 C1.63246843,33.1915219 1.8320611,32.5963465 1.88195927,32.4752939 C1.94183707,32.3138904 2.20130754,31.8095044 2.83002444,31.9809956 L16.2127128,36.4902061 C16.6817556,36.6516096 17.2006965,36.3893289 17.3603707,35.9152061 C17.5200448,35.4309956 17.2605743,34.9165219 16.7915316,34.7551184 L3.37890428,30.2257325 C3.35894501,30.2156447 3.34896538,30.2156447 3.32900611,30.2156447 C2.00171487,29.8524868 0.714342159,30.4981009 0.205380855,31.7893289 C-0.313560081,33.0906447 0.175441955,34.4625746 1.39295723,35.1384518 L18.6277841,44.6007325 C20.2544644,45.4985395 22.2004929,45.7002939 23.966888,45.155557 L34.964444,41.8165219 C35.972387,41.5138904 37.060167,41.6551184 37.9483544,42.2301184 L43.5569084,45.8011711 C43.5868473,45.8213465 43.6068065,45.8314342 43.6367454,45.8415219 C43.6467251,45.8415219 43.6467251,45.8516096 43.6567047,45.8516096 L43.6666843,45.8516096 C43.676664,45.8616974 43.6866436,45.8616974 43.7066029,45.8616974 C43.7265621,45.8717851 43.756501,45.8818728 43.7764603,45.8919605 C43.7864399,45.8919605 43.8063992,45.9020482 43.8163788,45.9020482 C43.8363381,45.912136 43.866277,45.912136 43.8862363,45.9222237 C43.8962159,45.9222237 43.9161752,45.9222237 43.9261548,45.9323114 C43.9660733,45.9323114 43.9960122,45.9423991 44.0359308,45.9423991 L44.0359308,45.9423991 L44.0359308,45.9423991 L44.0359308,45.9423991 L44.0359308,45.9423991 C44.0758493,45.9423991 44.1157678,45.9423991 44.1556864,45.9323114 C44.165666,45.9323114 44.1856253,45.9323114 44.1956049,45.9222237 C44.2255438,45.9222237 44.2455031,45.912136 44.275442,45.9020482 C44.2854216,45.9020482 44.3053809,45.8919605 44.3153605,45.8919605 C44.3353198,45.8818728 44.3652587,45.8717851 44.3852179,45.8616974 C44.3951976,45.8516096 44.4151568,45.8516096 44.4251365,45.8415219 C44.4450957,45.8314342 44.465055,45.8213465 44.4949939,45.8011711 C44.5049735,45.7910833 44.5249328,45.7809956 44.5349124,45.7809956 C44.5548717,45.7709079 44.574831,45.7507325 44.5947902,45.7406447 C44.6047699,45.730557 44.6247291,45.7204693 44.6347088,45.7103816 C44.654668,45.6902061 44.6646477,45.6801184 44.6846069,45.659943 C44.6945866,45.6498553 44.7045662,45.6397675 44.7245255,45.6195921 C44.7444847,45.5994167 44.7544644,45.5792412 44.764444,45.5590658 C44.7744236,45.5489781 44.7844033,45.5288026 44.7943829,45.5187149 C44.7943829,45.5187149 44.7943829,45.5086272 44.8043625,45.5086272 C44.8043625,45.4985395 44.8143422,45.4884518 44.8143422,45.4884518 C44.8243218,45.4682763 44.8442811,45.4380132 44.8542607,45.40775 L48.8461141,36.8130132 C48.8560937,36.78275 48.8660733,36.7625746 48.876053,36.7323114 C48.8860326,36.7020482 48.8960122,36.6717851 48.9059919,36.6516096 C48.9159715,36.6213465 48.9159715,36.5910833 48.9159715,36.5608202 C48.9159715,36.530557 48.9259511,36.5002939 48.9259511,36.4700307 C48.9359308,36.4397675 48.9359308,36.4095044 48.9359308,36.3792412 L48.9359308,36.3792412 Z M46.8402077,36.8432763 L43.6567047,43.6928377 L40.4332831,41.634943 L43.1976415,35.0375746 L46.8402077,36.8432763 L46.8402077,36.8432763 Z" id="Shape" fill="#373737"></path>
                        <path d="M15.3544644,15.759943 L17.8892912,15.759943 C18.9271731,15.759943 19.7654623,16.6073114 19.7654623,17.6564342 C19.7654623,18.705557 18.9271731,19.5529254 17.8892912,19.5529254 L13.3285988,19.5529254 C12.8296171,19.5529254 12.4204521,19.9665219 12.4204521,20.4709079 C12.4204521,20.9752939 12.8296171,21.3888904 13.3285988,21.3888904 L15.7137312,21.3888904 L15.7137312,23.1945921 C15.7137312,23.6989781 16.1228961,24.1125746 16.6218778,24.1125746 C17.1208595,24.1125746 17.5300244,23.6989781 17.5300244,23.1945921 L17.5300244,21.3888904 L17.8992709,21.3888904 C19.9351161,21.3888904 21.5917352,19.7143289 21.5917352,17.6564342 C21.5917352,15.5985395 19.9351161,13.9239781 17.8992709,13.9239781 L15.364444,13.9239781 C14.3265621,13.9239781 13.4882729,13.0766096 13.4882729,12.0274868 C13.4882729,10.978364 14.3265621,10.1309956 15.364444,10.1309956 L19.8452994,10.1309956 C20.3442811,10.1309956 20.753446,9.71739912 20.753446,9.21301316 C20.753446,8.70862719 20.3442811,8.2950307 19.8452994,8.2950307 L17.5400041,8.2950307 L17.5400041,6.52967982 C17.5400041,6.02529386 17.1308391,5.61169737 16.6318574,5.61169737 C16.1328758,5.61169737 15.7237108,6.02529386 15.7237108,6.52967982 L15.7237108,8.30511842 L15.3544644,8.30511842 C13.3186191,8.30511842 11.662,9.97967982 11.662,12.0375746 C11.6719796,14.0853816 13.3285988,15.759943 15.3544644,15.759943 L15.3544644,15.759943 Z" id="Shape" fill="#658D1B" transform="translate(16.626868, 14.862136) scale(-1, 1) translate(-16.626868, -14.862136) "></path>
                        <path d="M16.6318574,29.5801184 C24.675442,29.5801184 31.2121018,22.9625746 31.2121018,14.8419605 C31.2121018,6.72134649 24.6654623,0.0937149123 16.6318574,0.0937149123 C8.59825255,0.0937149123 2.0416334,6.71125877 2.0416334,14.8419605 C2.0416334,22.9726623 8.58827291,29.5801184 16.6318574,29.5801184 L16.6318574,29.5801184 Z M16.6318574,1.92967982 C23.6774786,1.92967982 29.4057882,7.7200307 29.4057882,14.8419605 C29.4057882,21.9638904 23.6774786,27.7542412 16.6318574,27.7542412 C9.58623625,27.7542412 3.85792668,21.9638904 3.85792668,14.8419605 C3.85792668,7.7200307 9.58623625,1.92967982 16.6318574,1.92967982 L16.6318574,1.92967982 Z" id="Shape" fill="#658D1B"></path>
                    </g>
                </g>
            </g>
        </g>
    </g>
</svg>