<?xml version="1.0" encoding="UTF-8" standalone="no"?>
<svg width="1898px" height="1282px" viewBox="0 0 1898 1282" version="1.1" xmlns="http://www.w3.org/2000/svg" xmlns:xlink="http://www.w3.org/1999/xlink">
    <!-- Generator: sketchtool 40.1 (33804) - http://www.bohemiancoding.com/sketch -->
    <title>9D6ADA74-E130-48AB-BEF1-D962C9EBC172</title>
    <desc>Created with sketchtool.</desc>
    <defs></defs>
    <g id="Web-Design" stroke="none" stroke-width="1" fill="none" fill-rule="evenodd" opacity="0.049999997">
        <g id="-Pattern-BG" transform="translate(-21.000000, -12.000000)" fill="#5A4238">
            <g id="Pattern" transform="translate(1.000000, -1.000000)">
                <path d="M231.673818,455.077118 C230.275505,453.877807 228.499526,453.217197 226.673204,453.217197 C224.833633,453.217197 223.079205,453.876009 221.693433,455.055541 C219.90032,454.471529 217.675489,454.673632 215.74477,455.689899 C214.55631,456.315627 212.953089,457.532379 211.795541,459.818981 C211.532695,458.616254 210.703174,454.265291 210.572988,451.207317 C210.652478,448.394421 213.79939,442.230826 221.331666,441.262207 C221.335729,442.259415 221.526505,443.256444 221.906643,444.207801 C222.688292,446.163379 224.171042,447.692096 226.08233,448.512554 L235.099299,452.382894 L234.327011,446.826147 L238.652846,445.330335 L236.685562,441.132746 L241.133457,437.816751 L232.116665,433.946411 C231.154132,433.533215 230.139842,433.32374 229.102059,433.32374 C226.18496,433.32374 223.547842,434.971129 222.216829,437.570955 C217.020317,437.867276 213.266809,440.104791 210.792556,442.837854 C211.273381,438.300071 212.331479,434.072635 213.871991,430.865782 C214.643395,431.122906 215.453661,431.255963 216.280708,431.255963 L216.280885,431.255963 C218.800358,431.255963 221.172334,430.007205 222.625584,427.915513 L228.276425,419.782855 L222.778734,419.356893 L222.272826,414.734961 L217.822987,415.789168 L215.596743,410.655146 L209.945902,418.787625 C207.718598,421.993759 208.175222,426.322606 210.84396,428.989139 C209.724214,431.244096 208.826685,433.91962 208.177872,436.838422 C206.6605,435.408959 204.936985,434.532761 203.6277,434.02139 C204.499968,430.739198 203.209937,427.122026 200.230129,425.238731 L191.916733,419.984059 L191.827705,425.595467 L187.325933,426.386257 L188.625856,430.844565 L183.724339,433.414003 L192.037734,438.668495 C193.269473,439.446879 194.683685,439.858456 196.128103,439.858456 L196.128279,439.858456 C198.382257,439.858456 200.468069,438.888039 201.927678,437.214218 C203.402832,437.721273 206.075279,438.969132 207.36478,441.610493 C206.958499,444.938715 206.848449,448.432001 207.066428,451.871883 C204.717946,450.136389 201.811799,449.512639 198.650049,450.152751 C197.557329,447.094059 194.688631,444.961371 191.362601,444.961371 C191.078734,444.961371 190.791158,444.977374 190.507468,445.0092 L180.780567,446.096311 L184.112249,450.567565 L181.049065,454.017876 L184.77484,456.709403 L182.475112,461.809981 L192.202543,460.723049 C195.880978,460.311831 198.680608,457.333513 199.071698,453.73558 C203.048484,452.819465 206.267291,454.674351 207.998225,458.916171 C208.756911,462.771947 209.878777,466.842951 211.07183,471.107787 C210.728788,470.96502 210.378856,470.84473 210.021682,470.754287 C207.938166,470.226914 205.736122,470.59282 203.458828,471.835105 C202.078355,470.675172 200.336646,470.027508 198.516153,470.027508 C196.665984,470.027508 194.872694,470.703042 193.466431,471.929504 L186.035372,478.410637 L191.264034,480.190724 L190.645427,484.798271 L195.21344,484.88278 L196.139938,490.415254 L203.571174,483.93394 C206.227899,481.616771 206.965564,477.855214 205.627133,474.751031 C206.915751,474.146521 208.102975,473.974266 209.169375,474.244156 C211.044274,474.718845 212.255169,476.451283 212.853285,477.551341 C214.420647,483.380675 215.979177,489.850121 217.059885,497.258877 L220.554433,496.730605 C219.068327,485.487111 214.119822,468.872609 213.861216,467.937614 C213.663021,463.393179 214.904298,460.181112 217.367775,458.883986 C218.077354,458.510348 218.782694,458.352837 219.400948,458.331799 C218.996256,459.421608 218.832507,460.598623 218.932841,461.793798 C219.109308,463.897357 220.080144,465.805107 221.666407,467.165524 L229.149399,473.584265 L230.031206,468.04442 L234.598336,467.921971 L233.942457,463.319638 L239.156634,461.495859 L231.673818,455.077118 L231.673818,455.077118 Z M225.19964,439.555662 C225.863115,437.954483 227.394795,436.920055 229.101882,436.920055 C229.665553,436.920055 230.217919,437.034412 230.743788,437.260249 L234.016824,438.665079 L232.236606,439.992232 L233.752565,443.226776 L230.41894,444.379517 L230.72789,446.603906 L227.45503,445.199076 C226.413184,444.752076 225.605038,443.918672 225.179149,442.852957 C224.753084,441.786883 224.760503,440.615982 225.19964,439.555662 L225.19964,439.555662 Z M199.72952,434.22601 C198.95158,435.5012 197.605376,436.262501 196.128279,436.262322 C195.343097,436.262142 194.572929,436.037743 193.901505,435.613399 L190.883719,433.706189 L192.845527,432.677874 L191.843956,429.242127 L195.313244,428.632762 L195.348749,426.386617 L198.366535,428.294007 C200.349011,429.54672 200.960199,432.208039 199.72952,434.22601 L199.72952,434.22601 Z M191.817283,457.148132 L188.286523,457.542808 L189.207015,455.501282 L186.335667,453.427032 L188.696337,450.768229 L187.362675,448.978433 L190.893435,448.583937 C191.049411,448.566496 191.207154,448.557686 191.362778,448.557686 C193.520837,448.557686 195.326316,450.207772 195.562135,452.39584 C195.816856,454.756882 194.136972,456.88903 191.817283,457.148132 L191.817283,457.148132 Z M201.272682,481.203036 L198.575328,483.555627 L198.204553,481.341307 L194.684215,481.276397 L195.160977,477.725573 L193.067746,477.012999 L195.765453,474.660408 C196.531911,473.991887 197.508752,473.623643 198.516329,473.623643 C199.75531,473.623643 200.927696,474.172233 201.73284,475.128625 C203.251271,476.932446 203.044774,479.657417 201.272682,481.203036 L201.272682,481.203036 Z M212.830321,420.864033 L214.881511,417.911966 L215.77268,419.967157 L219.201693,419.15479 L219.591723,422.716582 L221.792177,422.887038 L219.741164,425.839105 C218.948916,426.97926 217.655175,427.660188 216.280532,427.660008 C215.404201,427.660008 214.561079,427.386522 213.841961,426.868858 C211.936679,425.497293 211.482881,422.803428 212.830321,420.864033 L212.830321,420.864033 Z M230.531638,464.433721 L227.012184,464.528119 L226.659249,466.745496 L223.942818,464.41574 C223.078322,463.674217 222.549273,462.634395 222.453002,461.487947 C222.356908,460.341499 222.705073,459.225439 223.433553,458.345465 C224.23958,457.371811 225.420445,456.813332 226.673204,456.813332 C227.66771,456.813332 228.635012,457.173485 229.397231,457.827082 L232.113485,460.156838 L230.026083,460.886853 L230.531638,464.433721 L230.531638,464.433721 Z" id="Shape" transform="translate(210.957012, 453.957012) rotate(-315.000000) translate(-210.957012, -453.957012) "></path>
                <path d="M1743.67382,212.584563 C1742.2755,211.385252 1740.49953,210.724642 1738.6732,210.724642 C1736.83363,210.724642 1735.07921,211.383454 1733.69343,212.562986 C1731.90032,211.978974 1729.67549,212.181076 1727.74477,213.197344 C1726.55631,213.823071 1724.95309,215.039824 1723.79554,217.326426 C1723.53269,216.123699 1722.70317,211.772735 1722.57299,208.714762 C1722.65248,205.901866 1725.79939,199.738271 1733.33167,198.769652 C1733.33573,199.76686 1733.5265,200.763889 1733.90664,201.715246 C1734.68829,203.670824 1736.17104,205.199541 1738.08233,206.019999 L1747.0993,209.890339 L1746.32701,204.333592 L1750.65285,202.837779 L1748.68556,198.640191 L1753.13346,195.324196 L1744.11666,191.453856 C1743.15413,191.04066 1742.13984,190.831185 1741.10206,190.831185 C1738.18496,190.831185 1735.54784,192.478574 1734.21683,195.0784 C1729.02032,195.374721 1725.26681,197.612236 1722.79256,200.345298 C1723.27338,195.807516 1724.33148,191.58008 1725.87199,188.373227 C1726.6434,188.630351 1727.45366,188.763408 1728.28071,188.763408 L1728.28088,188.763408 C1730.80036,188.763408 1733.17233,187.51465 1734.62558,185.422958 L1740.27642,177.2903 L1734.77873,176.864338 L1734.27283,172.242406 L1729.82299,173.296613 L1727.59674,168.162591 L1721.9459,176.29507 C1719.7186,179.501203 1720.17522,183.83005 1722.84396,186.496584 C1721.72421,188.75154 1720.82669,191.427065 1720.17787,194.345867 C1718.6605,192.916404 1716.93698,192.040205 1715.6277,191.528835 C1716.49997,188.246643 1715.20994,184.629471 1712.23013,182.746175 L1703.91673,177.491504 L1703.8277,183.102912 L1699.32593,183.893702 L1700.62586,188.35201 L1695.72434,190.921448 L1704.03773,196.17594 C1705.26947,196.954323 1706.68368,197.365901 1708.1281,197.365901 L1708.12828,197.365901 C1710.38226,197.365901 1712.46807,196.395484 1713.92768,194.721663 C1715.40283,195.228718 1718.07528,196.476577 1719.36478,199.117938 C1718.9585,202.44616 1718.84845,205.939445 1719.06643,209.379328 C1716.71795,207.643833 1713.8118,207.020084 1710.65005,207.660196 C1709.55733,204.601504 1706.68863,202.468816 1703.3626,202.468816 C1703.07873,202.468816 1702.79116,202.484819 1702.50747,202.516645 L1692.78057,203.603756 L1696.11225,208.07501 L1693.04907,211.525321 L1696.77484,214.216848 L1694.47511,219.317426 L1704.20254,218.230494 C1707.88098,217.819276 1710.68061,214.840957 1711.0717,211.243025 C1715.04848,210.326909 1718.26729,212.181796 1719.99823,216.423616 C1720.75691,220.279392 1721.87878,224.350396 1723.07183,228.615232 C1722.72879,228.472465 1722.37886,228.352174 1722.02168,228.261732 C1719.93817,227.734358 1717.73612,228.100265 1715.45883,229.34255 C1714.07836,228.182617 1712.33665,227.534953 1710.51615,227.534953 C1708.66598,227.534953 1706.87269,228.210487 1705.46643,229.436948 L1698.03537,235.918082 L1703.26403,237.698169 L1702.64543,242.305716 L1707.21344,242.390225 L1708.13994,247.922698 L1715.57117,241.441385 C1718.2279,239.124216 1718.96556,235.362659 1717.62713,232.258476 C1718.91575,231.653965 1720.10298,231.48171 1721.16937,231.7516 C1723.04427,232.22629 1724.25517,233.958728 1724.85329,235.058786 C1726.42065,240.88812 1727.97918,247.357566 1729.05988,254.766322 L1732.55443,254.23805 C1731.06833,242.994556 1726.11982,226.380054 1725.86122,225.445059 C1725.66302,220.900624 1726.9043,217.688557 1729.36778,216.391431 C1730.07735,216.017792 1730.78269,215.860282 1731.40095,215.839244 C1730.99626,216.929053 1730.83251,218.106068 1730.93284,219.301243 C1731.10931,221.404802 1732.08014,223.312551 1733.66641,224.672969 L1741.1494,231.09171 L1742.03121,225.551864 L1746.59834,225.429416 L1745.94246,220.827083 L1751.15663,219.003303 L1743.67382,212.584563 L1743.67382,212.584563 Z M1737.19964,197.063106 C1737.86311,195.461928 1739.39479,194.427499 1741.10188,194.427499 C1741.66555,194.427499 1742.21792,194.541856 1742.74379,194.767694 L1746.01682,196.172524 L1744.23661,197.499677 L1745.75256,200.73422 L1742.41894,201.886961 L1742.72789,204.11135 L1739.45503,202.70652 C1738.41318,202.259521 1737.60504,201.426117 1737.17915,200.360402 C1736.75308,199.294328 1736.7605,198.123427 1737.19964,197.063106 L1737.19964,197.063106 Z M1711.72952,191.733455 C1710.95158,193.008645 1709.60538,193.769946 1708.12828,193.769766 C1707.3431,193.769587 1706.57293,193.545188 1705.90151,193.120844 L1702.88372,191.213634 L1704.84553,190.185319 L1703.84396,186.749572 L1707.31324,186.140207 L1707.34875,183.894062 L1710.36654,185.801451 C1712.34901,187.054165 1712.9602,189.715484 1711.72952,191.733455 L1711.72952,191.733455 Z M1703.81728,214.655577 L1700.28652,215.050252 L1701.20701,213.008727 L1698.33567,210.934476 L1700.69634,208.275674 L1699.36267,206.485878 L1702.89343,206.091382 C1703.04941,206.073941 1703.20715,206.06513 1703.36278,206.06513 C1705.52084,206.06513 1707.32632,207.715217 1707.56214,209.903285 C1707.81686,212.264327 1706.13697,214.396475 1703.81728,214.655577 L1703.81728,214.655577 Z M1713.27268,238.71048 L1710.57533,241.063072 L1710.20455,238.848752 L1706.68421,238.783842 L1707.16098,235.233018 L1705.06775,234.520444 L1707.76545,232.167853 C1708.53191,231.499332 1709.50875,231.131087 1710.51633,231.131087 C1711.75531,231.131087 1712.9277,231.679678 1713.73284,232.63607 C1715.25127,234.439891 1715.04477,237.164862 1713.27268,238.71048 L1713.27268,238.71048 Z M1724.83032,178.371478 L1726.88151,175.419411 L1727.77268,177.474602 L1731.20169,176.662235 L1731.59172,180.224026 L1733.79218,180.394483 L1731.74116,183.34655 C1730.94892,184.486705 1729.65518,185.167633 1728.28053,185.167453 C1727.4042,185.167453 1726.56108,184.893967 1725.84196,184.376303 C1723.93668,183.004738 1723.48288,180.310873 1724.83032,178.371478 L1724.83032,178.371478 Z M1742.53164,221.941165 L1739.01218,222.035564 L1738.65925,224.252941 L1735.94282,221.923185 C1735.07832,221.181662 1734.54927,220.14184 1734.453,218.995392 C1734.35691,217.848944 1734.70507,216.732884 1735.43355,215.85291 C1736.23958,214.879256 1737.42044,214.320776 1738.6732,214.320776 C1739.66771,214.320776 1740.63501,214.680929 1741.39723,215.334527 L1744.11349,217.664283 L1742.02608,218.394298 L1742.53164,221.941165 L1742.53164,221.941165 Z" id="Shape-Copy-3" transform="translate(1722.957012, 211.464457) rotate(-315.000000) translate(-1722.957012, -211.464457) "></path>
                <path d="M77.6738184,1259.07712 C76.2755047,1257.87781 74.499526,1257.2172 72.6732039,1257.2172 C70.8336334,1257.2172 69.0792054,1257.87601 67.6934333,1259.05554 C65.9003202,1258.47153 63.6754892,1258.67363 61.7447704,1259.6899 C60.5563097,1260.31563 58.9530889,1261.53238 57.7955409,1263.81898 C57.5326946,1262.61625 56.7031745,1258.26529 56.5729879,1255.20732 C56.6524776,1252.39442 59.7993902,1246.23083 67.3316664,1245.26221 C67.3357292,1246.25942 67.5265047,1247.25644 67.9066426,1248.2078 C68.6882922,1250.16338 70.1710418,1251.6921 72.0823297,1252.51255 L81.0992986,1256.38289 L80.3270111,1250.82615 L84.6528457,1249.33033 L82.6855616,1245.13275 L87.1334571,1241.81675 L78.1166649,1237.94641 C77.1541318,1237.53322 76.1398421,1237.32374 75.1020587,1237.32374 C72.1849599,1237.32374 69.5478418,1238.97113 68.2168294,1241.57095 C63.0203167,1241.86728 59.2668086,1244.10479 56.7925563,1246.83785 C57.2733813,1242.30007 58.3314787,1238.07264 59.8719909,1234.86578 C60.6433952,1235.12291 61.4536612,1235.25596 62.2807083,1235.25596 L62.2808849,1235.25596 C64.8003581,1235.25596 67.1723335,1234.00721 68.6255836,1231.91551 L74.2764247,1223.78286 L68.7787339,1223.35689 L68.2728256,1218.73496 L63.8229869,1219.78917 L61.5967428,1214.65515 L55.9459017,1222.78762 C53.7185977,1225.99376 54.1752224,1230.32261 56.8439597,1232.98914 C55.7242135,1235.2441 54.8266854,1237.91962 54.1778721,1240.83842 C52.6605002,1239.40896 50.9369849,1238.53276 49.6276996,1238.02139 C50.4999676,1234.7392 49.2099366,1231.12203 46.2301292,1229.23873 L37.9167334,1223.98406 L37.8277048,1229.59547 L33.3259328,1230.38626 L34.6258559,1234.84457 L29.7243386,1237.414 L38.0377345,1242.6685 C39.269473,1243.44688 40.6836847,1243.85846 42.1281026,1243.85846 L42.1282793,1243.85846 C44.3822565,1243.85846 46.4680687,1242.88804 47.9276779,1241.21422 C49.4028319,1241.72127 52.0752787,1242.96913 53.3647798,1245.61049 C52.9584986,1248.93872 52.8484494,1252.432 53.0664281,1255.87188 C50.7179463,1254.13639 47.8117995,1253.51264 44.6500488,1254.15275 C43.5573291,1251.09406 40.6886308,1248.96137 37.3626012,1248.96137 C37.0787343,1248.96137 36.7911579,1248.97737 36.5074677,1249.0092 L26.7805666,1250.09631 L30.1122488,1254.56757 L27.0490655,1258.01788 L30.7748404,1260.7094 L28.4751124,1265.80998 L38.2025433,1264.72305 C41.8809777,1264.31183 44.6806082,1261.33351 45.071698,1257.73558 C49.048484,1256.81946 52.2672907,1258.67435 53.9982251,1262.91617 C54.756911,1266.77195 55.878777,1270.84295 57.0718305,1275.10779 C56.7287878,1274.96502 56.3788561,1274.84473 56.021682,1274.75429 C53.9381662,1274.22691 51.7361223,1274.59282 49.458828,1275.83511 C48.0783553,1274.67517 46.3366456,1274.02751 44.5161526,1274.02751 C42.6659835,1274.02751 40.8726938,1274.70304 39.466431,1275.9295 L32.0353719,1282.41064 L37.2640338,1284.19072 L36.6454266,1288.79827 L41.2134401,1288.88278 L42.1399378,1294.41525 L49.5711736,1287.93394 C52.2278991,1285.61677 52.9655644,1281.85521 51.6271329,1278.75103 C52.9157508,1278.14652 54.102975,1277.97427 55.1693747,1278.24416 C57.044274,1278.71885 58.2551685,1280.45128 58.8532851,1281.55134 C60.4206471,1287.38067 61.979177,1293.85012 63.0598849,1301.25888 L66.5544329,1300.73061 C65.068327,1289.48711 60.1198224,1272.87261 59.8612156,1271.93761 C59.6630211,1267.39318 60.9042984,1264.18111 63.3677754,1262.88399 C64.0773543,1262.51035 64.7826937,1262.35284 65.4009477,1262.3318 C64.9962563,1263.42161 64.8325073,1264.59862 64.9328411,1265.7938 C65.1093084,1267.89736 66.0801438,1269.80511 67.6664068,1271.16552 L75.1493993,1277.58426 L76.031206,1272.04442 L80.5983363,1271.92197 L79.9424571,1267.31964 L85.1566343,1265.49586 L77.6738184,1259.07712 L77.6738184,1259.07712 Z M71.1996397,1243.55566 C71.8631146,1241.95448 73.3947946,1240.92005 75.101882,1240.92005 C75.665553,1240.92005 76.2179187,1241.03441 76.7437879,1241.26025 L80.0168243,1242.66508 L78.2366062,1243.99223 L79.7525649,1247.22678 L76.4189396,1248.37952 L76.7278899,1250.60391 L73.4550302,1249.19908 C72.4131839,1248.75208 71.6050377,1247.91867 71.179149,1246.85296 C70.7530838,1245.78688 70.7605028,1244.61598 71.1996397,1243.55566 L71.1996397,1243.55566 Z M45.7295202,1238.22601 C44.9515801,1239.5012 43.6053763,1240.2625 42.1282793,1240.26232 C41.3430967,1240.26214 40.572929,1240.03774 39.9015052,1239.6134 L36.8837193,1237.70619 L38.8455274,1236.67787 L37.843956,1233.24213 L41.3132439,1232.63276 L41.3487494,1230.38662 L44.3665352,1232.29401 C46.3490106,1233.54672 46.9601988,1236.20804 45.7295202,1238.22601 L45.7295202,1238.22601 Z M37.8172828,1261.14813 L34.2865228,1261.54281 L35.2070146,1259.50128 L32.3356667,1257.42703 L34.6963369,1254.76823 L33.3626748,1252.97843 L36.8934348,1252.58394 C37.0494114,1252.5665 37.2071545,1252.55769 37.3627778,1252.55769 C39.5208374,1252.55769 41.3263156,1254.20777 41.5621353,1256.39584 C41.8168559,1258.75688 40.1369716,1260.88903 37.8172828,1261.14813 L37.8172828,1261.14813 Z M47.272682,1285.20304 L44.5753284,1287.55563 L44.2045527,1285.34131 L40.6842147,1285.2764 L41.1609768,1281.72557 L39.0677456,1281.013 L41.7654525,1278.66041 C42.5319108,1277.99189 43.508752,1277.62364 44.5163293,1277.62364 C45.7553102,1277.62364 46.9276963,1278.17223 47.7328396,1279.12862 C49.2512713,1280.93245 49.0447745,1283.65742 47.272682,1285.20304 L47.272682,1285.20304 Z M58.8303213,1224.86403 L60.8815113,1221.91197 L61.7726802,1223.96716 L65.2016932,1223.15479 L65.5917232,1226.71658 L67.7921773,1226.88704 L65.741164,1229.83911 C64.9489157,1230.97926 63.6551751,1231.66019 62.2805317,1231.66001 C61.4042008,1231.66001 60.5610791,1231.38652 59.8419614,1230.86886 C57.9366794,1229.49729 57.482881,1226.80343 58.8303213,1224.86403 L58.8303213,1224.86403 Z M76.5316384,1268.43372 L73.0121837,1268.52812 L72.659249,1270.7455 L69.9428178,1268.41574 C69.0783221,1267.67422 68.5492734,1266.63439 68.4530024,1265.48795 C68.3569081,1264.3415 68.7050734,1263.22544 69.4335532,1262.34546 C70.2395797,1261.37181 71.4204447,1260.81333 72.6732039,1260.81333 C73.6677095,1260.81333 74.635012,1261.17348 75.3972308,1261.82708 L78.1134853,1264.15684 L76.0260834,1264.88685 L76.5316384,1268.43372 L76.5316384,1268.43372 Z" id="Shape-Copy-2" transform="translate(56.957012, 1257.957012) rotate(-315.000000) translate(-56.957012, -1257.957012) "></path>
                <path d="M1589.67382,1017.58456 C1588.2755,1016.38525 1586.49953,1015.72464 1584.6732,1015.72464 C1582.83363,1015.72464 1581.07921,1016.38345 1579.69343,1017.56299 C1577.90032,1016.97897 1575.67549,1017.18108 1573.74477,1018.19734 C1572.55631,1018.82307 1570.95309,1020.03982 1569.79554,1022.32643 C1569.53269,1021.1237 1568.70317,1016.77274 1568.57299,1013.71476 C1568.65248,1010.90187 1571.79939,1004.73827 1579.33167,1003.76965 C1579.33573,1004.76686 1579.5265,1005.76389 1579.90664,1006.71525 C1580.68829,1008.67082 1582.17104,1010.19954 1584.08233,1011.02 L1593.0993,1014.89034 L1592.32701,1009.33359 L1596.65285,1007.83778 L1594.68556,1003.64019 L1599.13346,1000.3242 L1590.11666,996.453856 C1589.15413,996.04066 1588.13984,995.831185 1587.10206,995.831185 C1584.18496,995.831185 1581.54784,997.478574 1580.21683,1000.0784 C1575.02032,1000.37472 1571.26681,1002.61224 1568.79256,1005.3453 C1569.27338,1000.80752 1570.33148,996.58008 1571.87199,993.373227 C1572.6434,993.630351 1573.45366,993.763408 1574.28071,993.763408 L1574.28088,993.763408 C1576.80036,993.763408 1579.17233,992.51465 1580.62558,990.422958 L1586.27642,982.2903 L1580.77873,981.864338 L1580.27283,977.242406 L1575.82299,978.296613 L1573.59674,973.162591 L1567.9459,981.29507 C1565.7186,984.501203 1566.17522,988.83005 1568.84396,991.496584 C1567.72421,993.75154 1566.82669,996.427065 1566.17787,999.345867 C1564.6605,997.916404 1562.93698,997.040205 1561.6277,996.528835 C1562.49997,993.246643 1561.20994,989.629471 1558.23013,987.746175 L1549.91673,982.491504 L1549.8277,988.102912 L1545.32593,988.893702 L1546.62586,993.35201 L1541.72434,995.921448 L1550.03773,1001.17594 C1551.26947,1001.95432 1552.68368,1002.3659 1554.1281,1002.3659 L1554.12828,1002.3659 C1556.38226,1002.3659 1558.46807,1001.39548 1559.92768,999.721663 C1561.40283,1000.22872 1564.07528,1001.47658 1565.36478,1004.11794 C1564.9585,1007.44616 1564.84845,1010.93945 1565.06643,1014.37933 C1562.71795,1012.64383 1559.8118,1012.02008 1556.65005,1012.6602 C1555.55733,1009.6015 1552.68863,1007.46882 1549.3626,1007.46882 C1549.07873,1007.46882 1548.79116,1007.48482 1548.50747,1007.51664 L1538.78057,1008.60376 L1542.11225,1013.07501 L1539.04907,1016.52532 L1542.77484,1019.21685 L1540.47511,1024.31743 L1550.20254,1023.23049 C1553.88098,1022.81928 1556.68061,1019.84096 1557.0717,1016.24302 C1561.04848,1015.32691 1564.26729,1017.1818 1565.99823,1021.42362 C1566.75691,1025.27939 1567.87878,1029.3504 1569.07183,1033.61523 C1568.72879,1033.47247 1568.37886,1033.35217 1568.02168,1033.26173 C1565.93817,1032.73436 1563.73612,1033.10027 1561.45883,1034.34255 C1560.07836,1033.18262 1558.33665,1032.53495 1556.51615,1032.53495 C1554.66598,1032.53495 1552.87269,1033.21049 1551.46643,1034.43695 L1544.03537,1040.91808 L1549.26403,1042.69817 L1548.64543,1047.30572 L1553.21344,1047.39023 L1554.13994,1052.9227 L1561.57117,1046.44139 C1564.2279,1044.12422 1564.96556,1040.36266 1563.62713,1037.25848 C1564.91575,1036.65397 1566.10298,1036.48171 1567.16937,1036.7516 C1569.04427,1037.22629 1570.25517,1038.95873 1570.85329,1040.05879 C1572.42065,1045.88812 1573.97918,1052.35757 1575.05988,1059.76632 L1578.55443,1059.23805 C1577.06833,1047.99456 1572.11982,1031.38005 1571.86122,1030.44506 C1571.66302,1025.90062 1572.9043,1022.68856 1575.36778,1021.39143 C1576.07735,1021.01779 1576.78269,1020.86028 1577.40095,1020.83924 C1576.99626,1021.92905 1576.83251,1023.10607 1576.93284,1024.30124 C1577.10931,1026.4048 1578.08014,1028.31255 1579.66641,1029.67297 L1587.1494,1036.09171 L1588.03121,1030.55186 L1592.59834,1030.42942 L1591.94246,1025.82708 L1597.15663,1024.0033 L1589.67382,1017.58456 L1589.67382,1017.58456 Z M1583.19964,1002.06311 C1583.86311,1000.46193 1585.39479,999.427499 1587.10188,999.427499 C1587.66555,999.427499 1588.21792,999.541856 1588.74379,999.767694 L1592.01682,1001.17252 L1590.23661,1002.49968 L1591.75256,1005.73422 L1588.41894,1006.88696 L1588.72789,1009.11135 L1585.45503,1007.70652 C1584.41318,1007.25952 1583.60504,1006.42612 1583.17915,1005.3604 C1582.75308,1004.29433 1582.7605,1003.12343 1583.19964,1002.06311 L1583.19964,1002.06311 Z M1557.72952,996.733455 C1556.95158,998.008645 1555.60538,998.769946 1554.12828,998.769766 C1553.3431,998.769587 1552.57293,998.545188 1551.90151,998.120844 L1548.88372,996.213634 L1550.84553,995.185319 L1549.84396,991.749572 L1553.31324,991.140207 L1553.34875,988.894062 L1556.36654,990.801451 C1558.34901,992.054165 1558.9602,994.715484 1557.72952,996.733455 L1557.72952,996.733455 Z M1549.81728,1019.65558 L1546.28652,1020.05025 L1547.20701,1018.00873 L1544.33567,1015.93448 L1546.69634,1013.27567 L1545.36267,1011.48588 L1548.89343,1011.09138 C1549.04941,1011.07394 1549.20715,1011.06513 1549.36278,1011.06513 C1551.52084,1011.06513 1553.32632,1012.71522 1553.56214,1014.90328 C1553.81686,1017.26433 1552.13697,1019.39648 1549.81728,1019.65558 L1549.81728,1019.65558 Z M1559.27268,1043.71048 L1556.57533,1046.06307 L1556.20455,1043.84875 L1552.68421,1043.78384 L1553.16098,1040.23302 L1551.06775,1039.52044 L1553.76545,1037.16785 C1554.53191,1036.49933 1555.50875,1036.13109 1556.51633,1036.13109 C1557.75531,1036.13109 1558.9277,1036.67968 1559.73284,1037.63607 C1561.25127,1039.43989 1561.04477,1042.16486 1559.27268,1043.71048 L1559.27268,1043.71048 Z M1570.83032,983.371478 L1572.88151,980.419411 L1573.77268,982.474602 L1577.20169,981.662235 L1577.59172,985.224026 L1579.79218,985.394483 L1577.74116,988.34655 C1576.94892,989.486705 1575.65518,990.167633 1574.28053,990.167453 C1573.4042,990.167453 1572.56108,989.893967 1571.84196,989.376303 C1569.93668,988.004738 1569.48288,985.310873 1570.83032,983.371478 L1570.83032,983.371478 Z M1588.53164,1026.94117 L1585.01218,1027.03556 L1584.65925,1029.25294 L1581.94282,1026.92318 C1581.07832,1026.18166 1580.54927,1025.14184 1580.453,1023.99539 C1580.35691,1022.84894 1580.70507,1021.73288 1581.43355,1020.85291 C1582.23958,1019.87926 1583.42044,1019.32078 1584.6732,1019.32078 C1585.66771,1019.32078 1586.63501,1019.68093 1587.39723,1020.33453 L1590.11349,1022.66428 L1588.02608,1023.3943 L1588.53164,1026.94117 L1588.53164,1026.94117 Z" id="Shape-Copy-4" transform="translate(1568.957012, 1016.464457) rotate(-315.000000) translate(-1568.957012, -1016.464457) "></path>
                <path d="M373.673818,932.077118 C372.275505,930.877807 370.499526,930.217197 368.673204,930.217197 C366.833633,930.217197 365.079205,930.876009 363.693433,932.055541 C361.90032,931.471529 359.675489,931.673632 357.74477,932.689899 C356.55631,933.315627 354.953089,934.532379 353.795541,936.818981 C353.532695,935.616254 352.703174,931.265291 352.572988,928.207317 C352.652478,925.394421 355.79939,919.230826 363.331666,918.262207 C363.335729,919.259415 363.526505,920.256444 363.906643,921.207801 C364.688292,923.163379 366.171042,924.692096 368.08233,925.512554 L377.099299,929.382894 L376.327011,923.826147 L380.652846,922.330335 L378.685562,918.132746 L383.133457,914.816751 L374.116665,910.946411 C373.154132,910.533215 372.139842,910.32374 371.102059,910.32374 C368.18496,910.32374 365.547842,911.971129 364.216829,914.570955 C359.020317,914.867276 355.266809,917.104791 352.792556,919.837854 C353.273381,915.300071 354.331479,911.072635 355.871991,907.865782 C356.643395,908.122906 357.453661,908.255963 358.280708,908.255963 L358.280885,908.255963 C360.800358,908.255963 363.172334,907.007205 364.625584,904.915513 L370.276425,896.782855 L364.778734,896.356893 L364.272826,891.734961 L359.822987,892.789168 L357.596743,887.655146 L351.945902,895.787625 C349.718598,898.993759 350.175222,903.322606 352.84396,905.989139 C351.724214,908.244096 350.826685,910.91962 350.177872,913.838422 C348.6605,912.408959 346.936985,911.532761 345.6277,911.02139 C346.499968,907.739198 345.209937,904.122026 342.230129,902.238731 L333.916733,896.984059 L333.827705,902.595467 L329.325933,903.386257 L330.625856,907.844565 L325.724339,910.414003 L334.037734,915.668495 C335.269473,916.446879 336.683685,916.858456 338.128103,916.858456 L338.128279,916.858456 C340.382257,916.858456 342.468069,915.888039 343.927678,914.214218 C345.402832,914.721273 348.075279,915.969132 349.36478,918.610493 C348.958499,921.938715 348.848449,925.432001 349.066428,928.871883 C346.717946,927.136389 343.811799,926.512639 340.650049,927.152751 C339.557329,924.094059 336.688631,921.961371 333.362601,921.961371 C333.078734,921.961371 332.791158,921.977374 332.507468,922.0092 L322.780567,923.096311 L326.112249,927.567565 L323.049065,931.017876 L326.77484,933.709403 L324.475112,938.809981 L334.202543,937.723049 C337.880978,937.311831 340.680608,934.333513 341.071698,930.73558 C345.048484,929.819465 348.267291,931.674351 349.998225,935.916171 C350.756911,939.771947 351.878777,943.842951 353.07183,948.107787 C352.728788,947.96502 352.378856,947.84473 352.021682,947.754287 C349.938166,947.226914 347.736122,947.59282 345.458828,948.835105 C344.078355,947.675172 342.336646,947.027508 340.516153,947.027508 C338.665984,947.027508 336.872694,947.703042 335.466431,948.929504 L328.035372,955.410637 L333.264034,957.190724 L332.645427,961.798271 L337.21344,961.88278 L338.139938,967.415254 L345.571174,960.93394 C348.227899,958.616771 348.965564,954.855214 347.627133,951.751031 C348.915751,951.146521 350.102975,950.974266 351.169375,951.244156 C353.044274,951.718845 354.255169,953.451283 354.853285,954.551341 C356.420647,960.380675 357.979177,966.850121 359.059885,974.258877 L362.554433,973.730605 C361.068327,962.487111 356.119822,945.872609 355.861216,944.937614 C355.663021,940.393179 356.904298,937.181112 359.367775,935.883986 C360.077354,935.510348 360.782694,935.352837 361.400948,935.331799 C360.996256,936.421608 360.832507,937.598623 360.932841,938.793798 C361.109308,940.897357 362.080144,942.805107 363.666407,944.165524 L371.149399,950.584265 L372.031206,945.04442 L376.598336,944.921971 L375.942457,940.319638 L381.156634,938.495859 L373.673818,932.077118 L373.673818,932.077118 Z M367.19964,916.555662 C367.863115,914.954483 369.394795,913.920055 371.101882,913.920055 C371.665553,913.920055 372.217919,914.034412 372.743788,914.260249 L376.016824,915.665079 L374.236606,916.992232 L375.752565,920.226776 L372.41894,921.379517 L372.72789,923.603906 L369.45503,922.199076 C368.413184,921.752076 367.605038,920.918672 367.179149,919.852957 C366.753084,918.786883 366.760503,917.615982 367.19964,916.555662 L367.19964,916.555662 Z M341.72952,911.22601 C340.95158,912.5012 339.605376,913.262501 338.128279,913.262322 C337.343097,913.262142 336.572929,913.037743 335.901505,912.613399 L332.883719,910.706189 L334.845527,909.677874 L333.843956,906.242127 L337.313244,905.632762 L337.348749,903.386617 L340.366535,905.294007 C342.349011,906.54672 342.960199,909.208039 341.72952,911.22601 L341.72952,911.22601 Z M333.817283,934.148132 L330.286523,934.542808 L331.207015,932.501282 L328.335667,930.427032 L330.696337,927.768229 L329.362675,925.978433 L332.893435,925.583937 C333.049411,925.566496 333.207154,925.557686 333.362778,925.557686 C335.520837,925.557686 337.326316,927.207772 337.562135,929.39584 C337.816856,931.756882 336.136972,933.88903 333.817283,934.148132 L333.817283,934.148132 Z M343.272682,958.203036 L340.575328,960.555627 L340.204553,958.341307 L336.684215,958.276397 L337.160977,954.725573 L335.067746,954.012999 L337.765453,951.660408 C338.531911,950.991887 339.508752,950.623643 340.516329,950.623643 C341.75531,950.623643 342.927696,951.172233 343.73284,952.128625 C345.251271,953.932446 345.044774,956.657417 343.272682,958.203036 L343.272682,958.203036 Z M354.830321,897.864033 L356.881511,894.911966 L357.77268,896.967157 L361.201693,896.15479 L361.591723,899.716582 L363.792177,899.887038 L361.741164,902.839105 C360.948916,903.97926 359.655175,904.660188 358.280532,904.660008 C357.404201,904.660008 356.561079,904.386522 355.841961,903.868858 C353.936679,902.497293 353.482881,899.803428 354.830321,897.864033 L354.830321,897.864033 Z M372.531638,941.433721 L369.012184,941.528119 L368.659249,943.745496 L365.942818,941.41574 C365.078322,940.674217 364.549273,939.634395 364.453002,938.487947 C364.356908,937.341499 364.705073,936.225439 365.433553,935.345465 C366.23958,934.371811 367.420445,933.813332 368.673204,933.813332 C369.66771,933.813332 370.635012,934.173485 371.397231,934.827082 L374.113485,937.156838 L372.026083,937.886853 L372.531638,941.433721 L372.531638,941.433721 Z" id="Shape-Copy-12" transform="translate(352.957012, 930.957012) rotate(-315.000000) translate(-352.957012, -930.957012) "></path>
                <path d="M1885.67382,690.584563 C1884.2755,689.385252 1882.49953,688.724642 1880.6732,688.724642 C1878.83363,688.724642 1877.07921,689.383454 1875.69343,690.562986 C1873.90032,689.978974 1871.67549,690.181076 1869.74477,691.197344 C1868.55631,691.823071 1866.95309,693.039824 1865.79554,695.326426 C1865.53269,694.123699 1864.70317,689.772735 1864.57299,686.714762 C1864.65248,683.901866 1867.79939,677.738271 1875.33167,676.769652 C1875.33573,677.76686 1875.5265,678.763889 1875.90664,679.715246 C1876.68829,681.670824 1878.17104,683.199541 1880.08233,684.019999 L1889.0993,687.890339 L1888.32701,682.333592 L1892.65285,680.837779 L1890.68556,676.640191 L1895.13346,673.324196 L1886.11666,669.453856 C1885.15413,669.04066 1884.13984,668.831185 1883.10206,668.831185 C1880.18496,668.831185 1877.54784,670.478574 1876.21683,673.0784 C1871.02032,673.374721 1867.26681,675.612236 1864.79256,678.345298 C1865.27338,673.807516 1866.33148,669.58008 1867.87199,666.373227 C1868.6434,666.630351 1869.45366,666.763408 1870.28071,666.763408 L1870.28088,666.763408 C1872.80036,666.763408 1875.17233,665.51465 1876.62558,663.422958 L1882.27642,655.2903 L1876.77873,654.864338 L1876.27283,650.242406 L1871.82299,651.296613 L1869.59674,646.162591 L1863.9459,654.29507 C1861.7186,657.501203 1862.17522,661.83005 1864.84396,664.496584 C1863.72421,666.75154 1862.82669,669.427065 1862.17787,672.345867 C1860.6605,670.916404 1858.93698,670.040205 1857.6277,669.528835 C1858.49997,666.246643 1857.20994,662.629471 1854.23013,660.746175 L1845.91673,655.491504 L1845.8277,661.102912 L1841.32593,661.893702 L1842.62586,666.35201 L1837.72434,668.921448 L1846.03773,674.17594 C1847.26947,674.954323 1848.68368,675.365901 1850.1281,675.365901 L1850.12828,675.365901 C1852.38226,675.365901 1854.46807,674.395484 1855.92768,672.721663 C1857.40283,673.228718 1860.07528,674.476577 1861.36478,677.117938 C1860.9585,680.44616 1860.84845,683.939445 1861.06643,687.379328 C1858.71795,685.643833 1855.8118,685.020084 1852.65005,685.660196 C1851.55733,682.601504 1848.68863,680.468816 1845.3626,680.468816 C1845.07873,680.468816 1844.79116,680.484819 1844.50747,680.516645 L1834.78057,681.603756 L1838.11225,686.07501 L1835.04907,689.525321 L1838.77484,692.216848 L1836.47511,697.317426 L1846.20254,696.230494 C1849.88098,695.819276 1852.68061,692.840957 1853.0717,689.243025 C1857.04848,688.326909 1860.26729,690.181796 1861.99823,694.423616 C1862.75691,698.279392 1863.87878,702.350396 1865.07183,706.615232 C1864.72879,706.472465 1864.37886,706.352174 1864.02168,706.261732 C1861.93817,705.734358 1859.73612,706.100265 1857.45883,707.34255 C1856.07836,706.182617 1854.33665,705.534953 1852.51615,705.534953 C1850.66598,705.534953 1848.87269,706.210487 1847.46643,707.436948 L1840.03537,713.918082 L1845.26403,715.698169 L1844.64543,720.305716 L1849.21344,720.390225 L1850.13994,725.922698 L1857.57117,719.441385 C1860.2279,717.124216 1860.96556,713.362659 1859.62713,710.258476 C1860.91575,709.653965 1862.10298,709.48171 1863.16937,709.7516 C1865.04427,710.22629 1866.25517,711.958728 1866.85329,713.058786 C1868.42065,718.88812 1869.97918,725.357566 1871.05988,732.766322 L1874.55443,732.23805 C1873.06833,720.994556 1868.11982,704.380054 1867.86122,703.445059 C1867.66302,698.900624 1868.9043,695.688557 1871.36778,694.391431 C1872.07735,694.017792 1872.78269,693.860282 1873.40095,693.839244 C1872.99626,694.929053 1872.83251,696.106068 1872.93284,697.301243 C1873.10931,699.404802 1874.08014,701.312551 1875.66641,702.672969 L1883.1494,709.09171 L1884.03121,703.551864 L1888.59834,703.429416 L1887.94246,698.827083 L1893.15663,697.003303 L1885.67382,690.584563 L1885.67382,690.584563 Z M1879.19964,675.063106 C1879.86311,673.461928 1881.39479,672.427499 1883.10188,672.427499 C1883.66555,672.427499 1884.21792,672.541856 1884.74379,672.767694 L1888.01682,674.172524 L1886.23661,675.499677 L1887.75256,678.73422 L1884.41894,679.886961 L1884.72789,682.11135 L1881.45503,680.70652 C1880.41318,680.259521 1879.60504,679.426117 1879.17915,678.360402 C1878.75308,677.294328 1878.7605,676.123427 1879.19964,675.063106 L1879.19964,675.063106 Z M1853.72952,669.733455 C1852.95158,671.008645 1851.60538,671.769946 1850.12828,671.769766 C1849.3431,671.769587 1848.57293,671.545188 1847.90151,671.120844 L1844.88372,669.213634 L1846.84553,668.185319 L1845.84396,664.749572 L1849.31324,664.140207 L1849.34875,661.894062 L1852.36654,663.801451 C1854.34901,665.054165 1854.9602,667.715484 1853.72952,669.733455 L1853.72952,669.733455 Z M1845.81728,692.655577 L1842.28652,693.050252 L1843.20701,691.008727 L1840.33567,688.934476 L1842.69634,686.275674 L1841.36267,684.485878 L1844.89343,684.091382 C1845.04941,684.073941 1845.20715,684.06513 1845.36278,684.06513 C1847.52084,684.06513 1849.32632,685.715217 1849.56214,687.903285 C1849.81686,690.264327 1848.13697,692.396475 1845.81728,692.655577 L1845.81728,692.655577 Z M1855.27268,716.71048 L1852.57533,719.063072 L1852.20455,716.848752 L1848.68421,716.783842 L1849.16098,713.233018 L1847.06775,712.520444 L1849.76545,710.167853 C1850.53191,709.499332 1851.50875,709.131087 1852.51633,709.131087 C1853.75531,709.131087 1854.9277,709.679678 1855.73284,710.63607 C1857.25127,712.439891 1857.04477,715.164862 1855.27268,716.71048 L1855.27268,716.71048 Z M1866.83032,656.371478 L1868.88151,653.419411 L1869.77268,655.474602 L1873.20169,654.662235 L1873.59172,658.224026 L1875.79218,658.394483 L1873.74116,661.34655 C1872.94892,662.486705 1871.65518,663.167633 1870.28053,663.167453 C1869.4042,663.167453 1868.56108,662.893967 1867.84196,662.376303 C1865.93668,661.004738 1865.48288,658.310873 1866.83032,656.371478 L1866.83032,656.371478 Z M1884.53164,699.941165 L1881.01218,700.035564 L1880.65925,702.252941 L1877.94282,699.923185 C1877.07832,699.181662 1876.54927,698.14184 1876.453,696.995392 C1876.35691,695.848944 1876.70507,694.732884 1877.43355,693.85291 C1878.23958,692.879256 1879.42044,692.320776 1880.6732,692.320776 C1881.66771,692.320776 1882.63501,692.680929 1883.39723,693.334527 L1886.11349,695.664283 L1884.02608,696.394298 L1884.53164,699.941165 L1884.53164,699.941165 Z" id="Shape-Copy-16" transform="translate(1864.957012, 689.464457) rotate(-315.000000) translate(-1864.957012, -689.464457) "></path>
                <path d="M247.027354,138.76354 C246.296225,138.087107 245.316204,137.744216 244.114495,137.744216 C240.374942,137.744216 234.145415,141.271664 228.243563,146.730956 C225.571292,149.203299 223.325794,151.746485 221.661278,154.121192 L221.661278,144.774659 C221.940729,144.81997 222.234664,144.843525 222.543791,144.843525 C226.283521,144.843525 232.513401,141.315897 238.414723,135.856605 C244.36056,130.355957 248.20239,124.50181 248.202213,120.942715 C248.202213,119.422449 247.563292,118.512448 247.027354,118.01672 C246.296225,117.340288 245.316027,116.997396 244.114495,116.997396 C240.374942,116.997396 234.145062,120.524844 228.243563,125.984136 C225.571292,128.456479 223.325794,130.999665 221.661278,133.374193 L221.661278,128.768444 C223.097217,128.075468 224.683126,126.360652 225.964502,122.555402 C227.20101,118.883748 227.881972,114.037777 227.881972,108.910409 C227.881972,103.78304 227.20101,98.9372486 225.964502,95.2654154 C224.120339,89.7897611 221.645733,88.6402567 219.894661,88.6402567 C218.14359,88.6402567 215.668984,89.7897611 213.824997,95.265775 C212.588489,98.9374284 211.907704,103.78322 211.907704,108.910588 C211.907704,114.037957 212.588489,118.883748 213.824997,122.555402 C215.106549,126.361011 216.692283,128.075828 218.128398,128.768623 L218.128398,133.374193 C216.463882,130.999665 214.218384,128.456299 211.546113,125.984136 C205.644614,120.524844 199.414734,116.997396 195.675181,116.997396 C194.473472,116.997396 193.493275,117.340288 192.762322,118.01672 C192.226384,118.512627 191.587463,119.422629 191.587463,120.942895 C191.587286,124.50199 195.429116,130.356137 201.374953,135.856784 C207.276275,141.316076 213.505978,144.843525 217.245885,144.843705 L217.246061,144.843705 C217.555188,144.843705 217.849124,144.82015 218.128398,144.774839 L218.128398,154.121372 C216.463882,151.746665 214.218384,149.203478 211.546113,146.731136 C205.644438,141.271844 199.414734,137.744396 195.675181,137.744396 C194.473296,137.744396 193.493275,138.087287 192.762322,138.76372 C192.226384,139.259627 191.587463,140.169629 191.587463,141.689895 C191.587286,145.248989 195.429116,151.103136 201.374953,156.603784 C207.276275,162.063076 213.505978,165.590524 217.245885,165.590884 L217.246061,165.590884 C217.555188,165.590884 217.849124,165.567329 218.128398,165.522018 L218.128398,173.149419 L221.661278,173.149419 L221.661278,165.521658 C221.940729,165.56697 222.234664,165.590524 222.543791,165.590524 C226.283521,165.590524 232.513401,162.062896 238.414723,156.603424 C244.36056,151.102777 248.20239,145.248629 248.202213,141.689535 C248.202213,140.169449 247.563292,139.259447 247.027354,138.76354 L247.027354,138.76354 Z M223.563557,136.931849 C225.133392,134.345509 227.639264,131.402792 230.619601,128.645456 C236.33421,123.359318 241.733864,120.593531 244.114495,120.593531 C244.450118,120.593531 244.599383,120.652867 244.639657,120.672106 C244.733632,120.923836 244.723033,122.227255 243.094906,124.909252 C241.524894,127.495592 239.019022,130.438309 236.038862,133.195465 C230.324429,138.481783 224.924775,141.24757 222.543968,141.24757 C222.208168,141.24757 222.05908,141.188234 222.018805,141.168994 C221.924654,140.917445 221.935253,139.614026 223.563557,136.931849 L223.563557,136.931849 Z M217.771577,141.167736 C217.72618,141.189852 217.576386,141.24739 217.245885,141.24739 C214.865077,141.24739 209.465247,138.481423 203.750991,133.195285 C200.77083,130.438129 198.264782,127.495412 196.694947,124.909072 C195.069292,122.230671 195.056221,120.927252 195.149665,120.673005 C195.195063,120.650889 195.34468,120.593351 195.675358,120.593351 C198.055989,120.593351 203.455642,123.359138 209.170252,128.645276 C212.150589,131.402432 214.656637,134.345329 216.226296,136.931669 C217.852127,139.61025 217.865022,140.913669 217.771577,141.167736 L217.771577,141.167736 Z M217.771577,161.914735 C217.72618,161.936851 217.576386,161.99439 217.245885,161.99439 C214.865077,161.99439 209.465247,159.228423 203.750991,153.942285 C200.77083,151.185128 198.264782,148.242411 196.694947,145.656251 C195.069116,142.97767 195.056221,141.674251 195.149665,141.420184 C195.195063,141.398068 195.34468,141.34053 195.675358,141.34053 C198.055989,141.34053 203.455642,144.106317 209.170252,149.392455 C212.150589,152.149791 214.656637,155.092508 216.226296,157.678848 C217.852127,160.35707 217.865022,161.660489 217.771577,161.914735 L217.771577,161.914735 Z M215.440407,108.910588 C215.440407,97.9092935 218.562589,92.2363913 219.894661,92.2363913 C221.22691,92.2363913 224.349269,97.9092935 224.349269,108.910588 C224.349269,119.911883 221.22691,125.584786 219.894661,125.584786 C218.562589,125.584786 215.440407,119.911704 215.440407,108.910588 L215.440407,108.910588 Z M243.094729,145.656071 C241.524717,148.242411 239.018846,151.184948 236.038685,153.942105 C230.324252,159.228423 224.924599,161.99421 222.543791,161.99421 C222.207991,161.99421 222.058903,161.934874 222.018629,161.915634 C221.924654,161.664264 221.935076,160.360845 223.56338,157.678669 C225.133215,155.092329 227.639087,152.149432 230.619424,149.392275 C236.334034,144.106137 241.733687,141.34035 244.114318,141.34035 C244.449942,141.34035 244.599206,141.399686 244.639481,141.418926 C244.733455,141.670475 244.722857,142.973894 243.094729,145.656071 L243.094729,145.656071 Z" id="Shape" transform="translate(219.894838, 130.894838) rotate(-315.000000) translate(-219.894838, -130.894838) "></path>
                <path d="M247.027354,784.76354 C246.296225,784.087107 245.316204,783.744216 244.114495,783.744216 C240.374942,783.744216 234.145415,787.271664 228.243563,792.730956 C225.571292,795.203299 223.325794,797.746485 221.661278,800.121192 L221.661278,790.774659 C221.940729,790.81997 222.234664,790.843525 222.543791,790.843525 C226.283521,790.843525 232.513401,787.315897 238.414723,781.856605 C244.36056,776.355957 248.20239,770.50181 248.202213,766.942715 C248.202213,765.422449 247.563292,764.512448 247.027354,764.01672 C246.296225,763.340288 245.316027,762.997396 244.114495,762.997396 C240.374942,762.997396 234.145062,766.524844 228.243563,771.984136 C225.571292,774.456479 223.325794,776.999665 221.661278,779.374193 L221.661278,774.768444 C223.097217,774.075468 224.683126,772.360652 225.964502,768.555402 C227.20101,764.883748 227.881972,760.037777 227.881972,754.910409 C227.881972,749.78304 227.20101,744.937249 225.964502,741.265415 C224.120339,735.789761 221.645733,734.640257 219.894661,734.640257 C218.14359,734.640257 215.668984,735.789761 213.824997,741.265775 C212.588489,744.937428 211.907704,749.78322 211.907704,754.910588 C211.907704,760.037957 212.588489,764.883748 213.824997,768.555402 C215.106549,772.361011 216.692283,774.075828 218.128398,774.768623 L218.128398,779.374193 C216.463882,776.999665 214.218384,774.456299 211.546113,771.984136 C205.644614,766.524844 199.414734,762.997396 195.675181,762.997396 C194.473472,762.997396 193.493275,763.340288 192.762322,764.01672 C192.226384,764.512627 191.587463,765.422629 191.587463,766.942895 C191.587286,770.50199 195.429116,776.356137 201.374953,781.856784 C207.276275,787.316076 213.505978,790.843525 217.245885,790.843705 L217.246061,790.843705 C217.555188,790.843705 217.849124,790.82015 218.128398,790.774839 L218.128398,800.121372 C216.463882,797.746665 214.218384,795.203478 211.546113,792.731136 C205.644438,787.271844 199.414734,783.744396 195.675181,783.744396 C194.473296,783.744396 193.493275,784.087287 192.762322,784.76372 C192.226384,785.259627 191.587463,786.169629 191.587463,787.689895 C191.587286,791.248989 195.429116,797.103136 201.374953,802.603784 C207.276275,808.063076 213.505978,811.590524 217.245885,811.590884 L217.246061,811.590884 C217.555188,811.590884 217.849124,811.567329 218.128398,811.522018 L218.128398,819.149419 L221.661278,819.149419 L221.661278,811.521658 C221.940729,811.56697 222.234664,811.590524 222.543791,811.590524 C226.283521,811.590524 232.513401,808.062896 238.414723,802.603424 C244.36056,797.102777 248.20239,791.248629 248.202213,787.689535 C248.202213,786.169449 247.563292,785.259447 247.027354,784.76354 L247.027354,784.76354 Z M223.563557,782.931849 C225.133392,780.345509 227.639264,777.402792 230.619601,774.645456 C236.33421,769.359318 241.733864,766.593531 244.114495,766.593531 C244.450118,766.593531 244.599383,766.652867 244.639657,766.672106 C244.733632,766.923836 244.723033,768.227255 243.094906,770.909252 C241.524894,773.495592 239.019022,776.438309 236.038862,779.195465 C230.324429,784.481783 224.924775,787.24757 222.543968,787.24757 C222.208168,787.24757 222.05908,787.188234 222.018805,787.168994 C221.924654,786.917445 221.935253,785.614026 223.563557,782.931849 L223.563557,782.931849 Z M217.771577,787.167736 C217.72618,787.189852 217.576386,787.24739 217.245885,787.24739 C214.865077,787.24739 209.465247,784.481423 203.750991,779.195285 C200.77083,776.438129 198.264782,773.495412 196.694947,770.909072 C195.069292,768.230671 195.056221,766.927252 195.149665,766.673005 C195.195063,766.650889 195.34468,766.593351 195.675358,766.593351 C198.055989,766.593351 203.455642,769.359138 209.170252,774.645276 C212.150589,777.402432 214.656637,780.345329 216.226296,782.931669 C217.852127,785.61025 217.865022,786.913669 217.771577,787.167736 L217.771577,787.167736 Z M217.771577,807.914735 C217.72618,807.936851 217.576386,807.99439 217.245885,807.99439 C214.865077,807.99439 209.465247,805.228423 203.750991,799.942285 C200.77083,797.185128 198.264782,794.242411 196.694947,791.656251 C195.069116,788.97767 195.056221,787.674251 195.149665,787.420184 C195.195063,787.398068 195.34468,787.34053 195.675358,787.34053 C198.055989,787.34053 203.455642,790.106317 209.170252,795.392455 C212.150589,798.149791 214.656637,801.092508 216.226296,803.678848 C217.852127,806.35707 217.865022,807.660489 217.771577,807.914735 L217.771577,807.914735 Z M215.440407,754.910588 C215.440407,743.909294 218.562589,738.236391 219.894661,738.236391 C221.22691,738.236391 224.349269,743.909294 224.349269,754.910588 C224.349269,765.911883 221.22691,771.584786 219.894661,771.584786 C218.562589,771.584786 215.440407,765.911704 215.440407,754.910588 L215.440407,754.910588 Z M243.094729,791.656071 C241.524717,794.242411 239.018846,797.184948 236.038685,799.942105 C230.324252,805.228423 224.924599,807.99421 222.543791,807.99421 C222.207991,807.99421 222.058903,807.934874 222.018629,807.915634 C221.924654,807.664264 221.935076,806.360845 223.56338,803.678669 C225.133215,801.092329 227.639087,798.149432 230.619424,795.392275 C236.334034,790.106137 241.733687,787.34035 244.114318,787.34035 C244.449942,787.34035 244.599206,787.399686 244.639481,787.418926 C244.733455,787.670475 244.722857,788.973894 243.094729,791.656071 L243.094729,791.656071 Z" id="Shape-Copy-11" transform="translate(219.894838, 776.894838) rotate(-315.000000) translate(-219.894838, -776.894838) "></path>
                <path d="M1759.02735,542.270985 C1758.29622,541.594552 1757.3162,541.251661 1756.11449,541.251661 C1752.37494,541.251661 1746.14541,544.779109 1740.24356,550.238401 C1737.57129,552.710743 1735.32579,555.25393 1733.66128,557.628637 L1733.66128,548.282104 C1733.94073,548.327415 1734.23466,548.35097 1734.54379,548.35097 C1738.28352,548.35097 1744.5134,544.823341 1750.41472,539.364049 C1756.36056,533.863402 1760.20239,528.009255 1760.20221,524.45016 C1760.20221,522.929894 1759.56329,522.019892 1759.02735,521.524165 C1758.29622,520.847732 1757.31603,520.504841 1756.11449,520.504841 C1752.37494,520.504841 1746.14506,524.032289 1740.24356,529.491581 C1737.57129,531.963924 1735.32579,534.50711 1733.66128,536.881638 L1733.66128,532.275888 C1735.09722,531.582913 1736.68313,529.868096 1737.9645,526.062847 C1739.20101,522.391193 1739.88197,517.545222 1739.88197,512.417853 C1739.88197,507.290485 1739.20101,502.444693 1737.9645,498.77286 C1736.12034,493.297206 1733.64573,492.147701 1731.89466,492.147701 C1730.14359,492.147701 1727.66898,493.297206 1725.825,498.77322 C1724.58849,502.444873 1723.9077,507.290665 1723.9077,512.418033 C1723.9077,517.545402 1724.58849,522.391193 1725.825,526.062847 C1727.10655,529.868456 1728.69228,531.583273 1730.1284,532.276068 L1730.1284,536.881638 C1728.46388,534.50711 1726.21838,531.963744 1723.54611,529.491581 C1717.64461,524.032289 1711.41473,520.504841 1707.67518,520.504841 C1706.47347,520.504841 1705.49327,520.847732 1704.76232,521.524165 C1704.22638,522.020072 1703.58746,522.930074 1703.58746,524.45034 C1703.58729,528.009434 1707.42912,533.863582 1713.37495,539.364229 C1719.27627,544.823521 1725.50598,548.35097 1729.24588,548.351149 L1729.24606,548.351149 C1729.55519,548.351149 1729.84912,548.327595 1730.1284,548.282283 L1730.1284,557.628817 C1728.46388,555.25411 1726.21838,552.710923 1723.54611,550.238581 C1717.64444,544.779289 1711.41473,541.25184 1707.67518,541.25184 C1706.4733,541.25184 1705.49327,541.594732 1704.76232,542.271165 C1704.22638,542.767072 1703.58746,543.677073 1703.58746,545.197339 C1703.58729,548.756434 1707.42912,554.610581 1713.37495,560.111229 C1719.27627,565.570521 1725.50598,569.097969 1729.24588,569.098329 L1729.24606,569.098329 C1729.55519,569.098329 1729.84912,569.074774 1730.1284,569.029463 L1730.1284,576.656864 L1733.66128,576.656864 L1733.66128,569.029103 C1733.94073,569.074414 1734.23466,569.097969 1734.54379,569.097969 C1738.28352,569.097969 1744.5134,565.570341 1750.41472,560.110869 C1756.36056,554.610222 1760.20239,548.756074 1760.20221,545.19698 C1760.20221,543.676894 1759.56329,542.766892 1759.02735,542.270985 L1759.02735,542.270985 Z M1735.56356,540.439294 C1737.13339,537.852954 1739.63926,534.910237 1742.6196,532.152901 C1748.33421,526.866763 1753.73386,524.100975 1756.11449,524.100975 C1756.45012,524.100975 1756.59938,524.160312 1756.63966,524.179551 C1756.73363,524.43128 1756.72303,525.734699 1755.09491,528.416697 C1753.52489,531.003037 1751.01902,533.945753 1748.03886,536.70291 C1742.32443,541.989228 1736.92478,544.755015 1734.54397,544.755015 C1734.20817,544.755015 1734.05908,544.695679 1734.01881,544.676439 C1733.92465,544.42489 1733.93525,543.121471 1735.56356,540.439294 L1735.56356,540.439294 Z M1729.77158,544.675181 C1729.72618,544.697297 1729.57639,544.754835 1729.24588,544.754835 C1726.86508,544.754835 1721.46525,541.988868 1715.75099,536.70273 C1712.77083,533.945574 1710.26478,531.002857 1708.69495,528.416517 C1707.06929,525.738116 1707.05622,524.434697 1707.14967,524.18045 C1707.19506,524.158334 1707.34468,524.100796 1707.67536,524.100796 C1710.05599,524.100796 1715.45564,526.866583 1721.17025,532.152721 C1724.15059,534.909877 1726.65664,537.852774 1728.2263,540.439114 C1729.85213,543.117695 1729.86502,544.421114 1729.77158,544.675181 L1729.77158,544.675181 Z M1729.77158,565.42218 C1729.72618,565.444296 1729.57639,565.501834 1729.24588,565.501834 C1726.86508,565.501834 1721.46525,562.735868 1715.75099,557.449729 C1712.77083,554.692573 1710.26478,551.749856 1708.69495,549.163696 C1707.06912,546.485115 1707.05622,545.181696 1707.14967,544.927629 C1707.19506,544.905513 1707.34468,544.847975 1707.67536,544.847975 C1710.05599,544.847975 1715.45564,547.613762 1721.17025,552.8999 C1724.15059,555.657236 1726.65664,558.599953 1728.2263,561.186293 C1729.85213,563.864514 1729.86502,565.167933 1729.77158,565.42218 L1729.77158,565.42218 Z M1727.44041,512.418033 C1727.44041,501.416738 1730.56259,495.743836 1731.89466,495.743836 C1733.22691,495.743836 1736.34927,501.416738 1736.34927,512.418033 C1736.34927,523.419328 1733.22691,529.09223 1731.89466,529.09223 C1730.56259,529.09223 1727.44041,523.419148 1727.44041,512.418033 L1727.44041,512.418033 Z M1755.09473,549.163516 C1753.52472,551.749856 1751.01885,554.692393 1748.03869,557.44955 C1742.32425,562.735868 1736.9246,565.501655 1734.54379,565.501655 C1734.20799,565.501655 1734.0589,565.442318 1734.01863,565.423079 C1733.92465,565.171709 1733.93508,563.86829 1735.56338,561.186113 C1737.13322,558.599773 1739.63909,555.656877 1742.61942,552.89972 C1748.33403,547.613582 1753.73369,544.847795 1756.11432,544.847795 C1756.44994,544.847795 1756.59921,544.907131 1756.63948,544.926371 C1756.73346,545.17792 1756.72286,546.481339 1755.09473,549.163516 L1755.09473,549.163516 Z" id="Shape-Copy-17" transform="translate(1731.894838, 534.402283) rotate(-315.000000) translate(-1731.894838, -534.402283) "></path>
                <path d="M378.892827,263.340823 C372.293584,263.340823 366.126766,265.360951 361.05938,269.182743 C356.572446,272.566526 353.24677,277.245277 351.935188,282.019326 C350.434068,287.482933 351.653794,292.419527 355.190913,295.677445 C353.973483,297.853466 352.841902,300.099252 351.94561,302.27761 C351.122449,300.193291 350.026373,298.326717 348.786862,296.663325 C350.544293,293.82094 350.787709,290.348513 349.407059,286.789958 C348.10696,283.439259 345.473904,280.34964 341.992605,278.089829 C338.237507,275.652369 333.816108,274.364054 329.206583,274.364054 C323.291659,274.364054 317.223762,276.53576 311.659123,280.644344 L308.67172,282.850213 L312.233216,283.835194 C318.108395,285.459927 322.79741,290.070711 326.934412,294.138659 C331.157969,298.291835 335.147474,302.214498 339.769187,302.215757 L339.771307,302.215757 C342.045598,302.215757 344.219202,301.290471 346.395103,299.398725 C348.483035,302.395024 349.968257,306.068476 349.968257,310.535594 L349.968257,333.371049 L353.501137,333.371049 C353.501137,333.371049 353.504317,311.294738 353.504317,310.106935 C353.504317,307.237219 355.158058,303.007086 358.104479,297.721488 C360.292568,298.924215 362.337223,299.511284 364.32853,299.511284 C370.821963,299.511284 375.044638,293.186942 379.51532,286.491479 C383.505708,280.515063 388.0285,273.741204 394.75793,270.233174 L398.040151,268.522134 L394.67314,266.990899 C389.346794,264.568903 384.037583,263.340823 378.892827,263.340823 L378.892827,263.340823 Z M339.771307,298.619442 L339.77007,298.619442 C336.575464,298.618543 333.245195,295.343724 329.389056,291.551959 C325.739062,287.962837 321.689498,283.980657 316.616813,281.638315 C320.740567,279.195461 324.962888,277.960189 329.206583,277.960189 C337.725593,277.960189 344.164089,283.0667 346.121128,288.110818 C346.62792,289.417294 347.151846,291.580189 346.296006,293.745062 C343.126659,290.469703 339.638294,288.231648 337.467516,286.839045 C336.832657,286.431603 336.284354,286.079901 335.918171,285.815046 L333.870868,288.745716 C334.31707,289.068828 334.904235,289.445523 335.583784,289.881375 C337.819921,291.316053 341.213075,293.493692 344.142362,296.628263 C342.616511,297.965306 341.181809,298.619442 339.771307,298.619442 L339.771307,298.619442 Z M376.593099,284.469912 C372.492662,290.61121 368.951303,295.914969 364.328354,295.914969 C362.972434,295.914969 361.520244,295.490985 359.91296,294.626654 C360.07088,294.367912 360.23039,294.107732 360.393785,293.844855 C363.893986,288.21169 367.448593,283.650532 367.484098,283.605041 L364.719797,281.365728 C364.416852,281.753212 360.687368,286.552433 357.054507,292.496664 C354.917998,290.153782 354.287203,286.810815 355.337528,282.987765 C356.441906,278.968365 359.293823,274.989602 363.162503,272.072058 C366.268611,269.729536 371.519353,266.936778 378.892827,266.936778 C382.506609,266.936778 386.228851,267.616267 389.996844,268.961042 C384.21776,273.050746 380.200169,279.067798 376.593099,284.469912 L376.593099,284.469912 Z" id="Shape" transform="translate(353.355936, 298.355936) rotate(-315.000000) translate(-353.355936, -298.355936) "></path>
                <path d="M1890.89283,21.3408229 C1884.29358,21.3408229 1878.12677,23.3609515 1873.05938,27.1827435 C1868.57245,30.5665263 1865.24677,35.2452772 1863.93519,40.0193257 C1862.43407,45.4829329 1863.65379,50.4195267 1867.19091,53.6774448 C1865.97348,55.8534658 1864.8419,58.0992519 1863.94561,60.2776104 C1863.12245,58.1932908 1862.02637,56.3267171 1860.78686,54.6633251 C1862.54429,51.8209403 1862.78771,48.3485128 1861.40706,44.7899578 C1860.10696,41.4392594 1857.4739,38.3496404 1853.9926,36.0898294 C1850.23751,33.6523694 1845.81611,32.3640542 1841.20658,32.3640542 C1835.29166,32.3640542 1829.22376,34.5357599 1823.65912,38.6443436 L1820.67172,40.8502126 L1824.23322,41.8351938 C1830.10839,43.4599274 1834.79741,48.0707114 1838.93441,52.1386588 C1843.15797,56.2918346 1847.14747,60.2144982 1851.76919,60.2157569 L1851.77131,60.2157569 C1854.0456,60.2157569 1856.2192,59.2904715 1858.3951,57.3987249 C1860.48303,60.3950242 1861.96826,64.0684757 1861.96826,68.535594 L1861.96826,91.3710486 L1865.50114,91.3710486 C1865.50114,91.3710486 1865.50432,69.294738 1865.50432,68.1069348 C1865.50432,65.2372194 1867.15806,61.0070863 1870.10448,55.7214877 C1872.29257,56.9242149 1874.33722,57.5112839 1876.32853,57.5112839 C1882.82196,57.5112839 1887.04464,51.1869418 1891.51532,44.4914786 C1895.50571,38.5150626 1900.0285,31.7412037 1906.75793,28.2331744 L1910.04015,26.5221336 L1906.67314,24.9908995 C1901.34679,22.5689028 1896.03758,21.3408229 1890.89283,21.3408229 L1890.89283,21.3408229 Z M1851.77131,56.6194425 L1851.77007,56.6194425 C1848.57546,56.6185435 1845.24519,53.3437235 1841.38906,49.5519592 C1837.73906,45.9628371 1833.6895,41.9806575 1828.61681,39.6383152 C1832.74057,37.195461 1836.96289,35.9601888 1841.20658,35.9601888 C1849.72559,35.9601888 1856.16409,41.0666999 1858.12113,46.110818 C1858.62792,47.4172937 1859.15185,49.5801889 1858.29601,51.7450619 C1855.12666,48.4697025 1851.63829,46.2316481 1849.46752,44.839045 C1848.83266,44.431603 1848.28435,44.079901 1847.91817,43.8150457 L1845.87087,46.7457156 C1846.31707,47.0688283 1846.90423,47.4455234 1847.58378,47.8813749 C1849.81992,49.3160528 1853.21307,51.4936921 1856.14236,54.6282628 C1854.61651,55.9653056 1853.18181,56.6194425 1851.77131,56.6194425 L1851.77131,56.6194425 Z M1888.5931,42.4699116 C1884.49266,48.6112104 1880.9513,53.9149695 1876.32835,53.9149695 C1874.97243,53.9149695 1873.52024,53.4909852 1871.91296,52.6266543 C1872.07088,52.3679124 1872.23039,52.1077321 1872.39379,51.8448546 C1875.89399,46.2116896 1879.44859,41.6505323 1879.4841,41.6050412 L1876.7198,39.3657282 C1876.41685,39.7532117 1872.68737,44.5524331 1869.05451,50.4966638 C1866.918,48.1537821 1866.2872,44.8108154 1867.33753,40.9877647 C1868.44191,36.9683651 1871.29382,32.9896018 1875.1625,30.0720578 C1878.26861,27.7295357 1883.51935,24.9367776 1890.89283,24.9367776 C1894.50661,24.9367776 1898.22885,25.6162673 1901.99684,26.9610418 C1896.21776,31.0507458 1892.20017,37.0677982 1888.5931,42.4699116 L1888.5931,42.4699116 Z" id="Shape-Copy-6" transform="translate(1865.355936, 56.355936) rotate(-315.000000) translate(-1865.355936, -56.355936) "></path>
                <path d="M226.892827,1069.34082 C220.293584,1069.34082 214.126766,1071.36095 209.05938,1075.18274 C204.572446,1078.56653 201.24677,1083.24528 199.935188,1088.01933 C198.434068,1093.48293 199.653794,1098.41953 203.190913,1101.67744 C201.973483,1103.85347 200.841902,1106.09925 199.94561,1108.27761 C199.122449,1106.19329 198.026373,1104.32672 196.786862,1102.66333 C198.544293,1099.82094 198.787709,1096.34851 197.407059,1092.78996 C196.10696,1089.43926 193.473904,1086.34964 189.992605,1084.08983 C186.237507,1081.65237 181.816108,1080.36405 177.206583,1080.36405 C171.291659,1080.36405 165.223762,1082.53576 159.659123,1086.64434 L156.67172,1088.85021 L160.233216,1089.83519 C166.108395,1091.45993 170.79741,1096.07071 174.934412,1100.13866 C179.157969,1104.29183 183.147474,1108.2145 187.769187,1108.21576 L187.771307,1108.21576 C190.045598,1108.21576 192.219202,1107.29047 194.395103,1105.39872 C196.483035,1108.39502 197.968257,1112.06848 197.968257,1116.53559 L197.968257,1139.37105 L201.501137,1139.37105 C201.501137,1139.37105 201.504317,1117.29474 201.504317,1116.10693 C201.504317,1113.23722 203.158058,1109.00709 206.104479,1103.72149 C208.292568,1104.92421 210.337223,1105.51128 212.32853,1105.51128 C218.821963,1105.51128 223.044638,1099.18694 227.51532,1092.49148 C231.505708,1086.51506 236.0285,1079.7412 242.75793,1076.23317 L246.040151,1074.52213 L242.67314,1072.9909 C237.346794,1070.5689 232.037583,1069.34082 226.892827,1069.34082 L226.892827,1069.34082 Z M187.771307,1104.61944 L187.77007,1104.61944 C184.575464,1104.61854 181.245195,1101.34372 177.389056,1097.55196 C173.739062,1093.96284 169.689498,1089.98066 164.616813,1087.63832 C168.740567,1085.19546 172.962888,1083.96019 177.206583,1083.96019 C185.725593,1083.96019 192.164089,1089.0667 194.121128,1094.11082 C194.62792,1095.41729 195.151846,1097.58019 194.296006,1099.74506 C191.126659,1096.4697 187.638294,1094.23165 185.467516,1092.83905 C184.832657,1092.4316 184.284354,1092.0799 183.918171,1091.81505 L181.870868,1094.74572 C182.31707,1095.06883 182.904235,1095.44552 183.583784,1095.88137 C185.819921,1097.31605 189.213075,1099.49369 192.142362,1102.62826 C190.616511,1103.96531 189.181809,1104.61944 187.771307,1104.61944 L187.771307,1104.61944 Z M224.593099,1090.46991 C220.492662,1096.61121 216.951303,1101.91497 212.328354,1101.91497 C210.972434,1101.91497 209.520244,1101.49099 207.91296,1100.62665 C208.07088,1100.36791 208.23039,1100.10773 208.393785,1099.84485 C211.893986,1094.21169 215.448593,1089.65053 215.484098,1089.60504 L212.719797,1087.36573 C212.416852,1087.75321 208.687368,1092.55243 205.054507,1098.49666 C202.917998,1096.15378 202.287203,1092.81082 203.337528,1088.98776 C204.441906,1084.96837 207.293823,1080.9896 211.162503,1078.07206 C214.268611,1075.72954 219.519353,1072.93678 226.892827,1072.93678 C230.506609,1072.93678 234.228851,1073.61627 237.996844,1074.96104 C232.21776,1079.05075 228.200169,1085.0678 224.593099,1090.46991 L224.593099,1090.46991 Z" id="Shape-Copy-7" transform="translate(201.355936, 1104.355936) rotate(-315.000000) translate(-201.355936, -1104.355936) "></path>
                <path d="M1738.89283,826.848268 C1732.29358,826.848268 1726.12677,828.868396 1721.05938,832.690188 C1716.57245,836.073971 1713.24677,840.752722 1711.93519,845.52677 C1710.43407,850.990378 1711.65379,855.926971 1715.19091,859.18489 C1713.97348,861.360911 1712.8419,863.606697 1711.94561,865.785055 C1711.12245,863.700736 1710.02637,861.834162 1708.78686,860.17077 C1710.54429,857.328385 1710.78771,853.855958 1709.40706,850.297403 C1708.10696,846.946704 1705.4739,843.857085 1701.9926,841.597274 C1698.23751,839.159814 1693.81611,837.871499 1689.20658,837.871499 C1683.29166,837.871499 1677.22376,840.043205 1671.65912,844.151788 L1668.67172,846.357657 L1672.23322,847.342639 C1678.10839,848.967372 1682.79741,853.578156 1686.93441,857.646104 C1691.15797,861.799279 1695.14747,865.721943 1699.76919,865.723202 L1699.77131,865.723202 C1702.0456,865.723202 1704.2192,864.797916 1706.3951,862.90617 C1708.48303,865.902469 1709.96826,869.57592 1709.96826,874.043039 L1709.96826,896.878493 L1713.50114,896.878493 C1713.50114,896.878493 1713.50432,874.802183 1713.50432,873.61438 C1713.50432,870.744664 1715.15806,866.514531 1718.10448,861.228932 C1720.29257,862.43166 1722.33722,863.018729 1724.32853,863.018729 C1730.82196,863.018729 1735.04464,856.694387 1739.51532,849.998923 C1743.50571,844.022507 1748.0285,837.248648 1754.75793,833.740619 L1758.04015,832.029578 L1754.67314,830.498344 C1749.34679,828.076348 1744.03758,826.848268 1738.89283,826.848268 L1738.89283,826.848268 Z M1699.77131,862.126887 L1699.77007,862.126887 C1696.57546,862.125988 1693.24519,858.851168 1689.38906,855.059404 C1685.73906,851.470282 1681.6895,847.488102 1676.61681,845.14576 C1680.74057,842.702906 1684.96289,841.467634 1689.20658,841.467634 C1697.72559,841.467634 1704.16409,846.574145 1706.12113,851.618263 C1706.62792,852.924739 1707.15185,855.087634 1706.29601,857.252507 C1703.12666,853.977147 1699.63829,851.739093 1697.46752,850.34649 C1696.83266,849.939048 1696.28435,849.587346 1695.91817,849.322491 L1693.87087,852.25316 C1694.31707,852.576273 1694.90423,852.952968 1695.58378,853.38882 C1697.81992,854.823498 1701.21307,857.001137 1704.14236,860.135708 C1702.61651,861.47275 1701.18181,862.126887 1699.77131,862.126887 L1699.77131,862.126887 Z M1736.5931,847.977356 C1732.49266,854.118655 1728.9513,859.422414 1724.32835,859.422414 C1722.97243,859.422414 1721.52024,858.99843 1719.91296,858.134099 C1720.07088,857.875357 1720.23039,857.615177 1720.39379,857.352299 C1723.89399,851.719134 1727.44859,847.157977 1727.4841,847.112486 L1724.7198,844.873173 C1724.41685,845.260657 1720.68737,850.059878 1717.05451,856.004109 C1714.918,853.661227 1714.2872,850.31826 1715.33753,846.49521 C1716.44191,842.47581 1719.29382,838.497047 1723.1625,835.579503 C1726.26861,833.236981 1731.51935,830.444222 1738.89283,830.444222 C1742.50661,830.444222 1746.22885,831.123712 1749.99684,832.468487 C1744.21776,836.558191 1740.20017,842.575243 1736.5931,847.977356 L1736.5931,847.977356 Z" id="Shape-Copy-8" transform="translate(1713.355936, 861.863381) rotate(-315.000000) translate(-1713.355936, -861.863381) "></path>
                <path d="M81.8928267,590.340823 C75.2935841,590.340823 69.1267659,592.360951 64.0593799,596.182743 C59.5724461,599.566526 56.2467697,604.245277 54.9351882,609.019326 C53.4340676,614.482933 54.6537943,619.419527 58.1909134,622.677445 C56.9734831,624.853466 55.8419017,627.099252 54.9456102,629.27761 C54.1224492,627.193291 53.0263733,625.326717 51.7868624,623.663325 C53.5442934,620.82094 53.7877088,617.348513 52.4070594,613.789958 C51.1069597,610.439259 48.4739045,607.34964 44.9926048,605.089829 C41.237507,602.652369 36.816108,601.364054 32.2065832,601.364054 C26.2916594,601.364054 20.2237619,603.53576 14.6591231,607.644344 L11.67172,609.850213 L15.233216,610.835194 C21.1083949,612.459927 25.7974095,617.070711 29.9344117,621.138659 C34.1579693,625.291835 38.1474737,629.214498 42.769187,629.215757 L42.7713067,629.215757 C45.045598,629.215757 47.2192022,628.290471 49.3951029,626.398725 C51.4830348,629.395024 52.9682574,633.068476 52.9682574,637.535594 L52.9682574,660.371049 L56.5011371,660.371049 C56.5011371,660.371049 56.5043167,638.294738 56.5043167,637.106935 C56.5043167,634.237219 58.1580577,630.007086 61.1044793,624.721488 C63.2925684,625.924215 65.3372225,626.511284 67.3285302,626.511284 C73.821963,626.511284 78.0446375,620.186942 82.5153201,613.491479 C86.5057078,607.515063 91.0285003,600.741204 97.7579296,597.233174 L101.040151,595.522134 L97.6731405,593.990899 C92.3467944,591.568903 87.0375828,590.340823 81.8928267,590.340823 L81.8928267,590.340823 Z M42.7713067,625.619442 L42.7700702,625.619442 C39.5754637,625.618543 36.2451947,622.343724 32.3890565,618.551959 C28.7390618,614.962837 24.6894985,610.980657 19.6168131,608.638315 C23.740567,606.195461 27.9628881,604.960189 32.2065832,604.960189 C40.7255927,604.960189 47.1640893,610.0667 49.121128,615.110818 C49.6279196,616.417294 50.1518457,618.580189 49.2960056,620.745062 C46.1266592,617.469703 42.6382938,615.231648 40.4675158,613.839045 C39.8326574,613.431603 39.2843544,613.079901 38.9181715,612.815046 L36.8708677,615.745716 C37.3170704,616.068828 37.904235,616.445523 38.5837844,616.881375 C40.8199206,618.316053 44.2130749,620.493692 47.1423621,623.628263 C45.6165114,624.965306 44.1818089,625.619442 42.7713067,625.619442 L42.7713067,625.619442 Z M79.5930987,611.469912 C75.4926619,617.61121 71.9513032,622.914969 67.3283535,622.914969 C65.9724343,622.914969 64.5202441,622.490985 62.9129605,621.626654 C63.0708802,621.367912 63.2303897,621.107732 63.3937854,620.844855 C66.893986,615.21169 70.4485929,610.650532 70.4840983,610.605041 L67.7197966,608.365728 C67.4168521,608.753212 63.6873677,613.552433 60.0545075,619.496664 C57.9179985,617.153782 57.2872028,613.810815 58.337528,609.987765 C59.4419062,605.968365 62.2938233,601.989602 66.1625032,599.072058 C69.268611,596.729536 74.5193535,593.936778 81.8928267,593.936778 C85.5066094,593.936778 89.2288514,594.616267 92.9968443,595.961042 C87.2177597,600.050746 83.2001689,606.067798 79.5930987,611.469912 L79.5930987,611.469912 Z" id="Shape-Copy" transform="translate(56.355936, 625.355936) rotate(-315.000000) translate(-56.355936, -625.355936) "></path>
                <path d="M1593.89283,347.848268 C1587.29358,347.848268 1581.12677,349.868396 1576.05938,353.690188 C1571.57245,357.073971 1568.24677,361.752722 1566.93519,366.52677 C1565.43407,371.990378 1566.65379,376.926971 1570.19091,380.18489 C1568.97348,382.360911 1567.8419,384.606697 1566.94561,386.785055 C1566.12245,384.700736 1565.02637,382.834162 1563.78686,381.17077 C1565.54429,378.328385 1565.78771,374.855958 1564.40706,371.297403 C1563.10696,367.946704 1560.4739,364.857085 1556.9926,362.597274 C1553.23751,360.159814 1548.81611,358.871499 1544.20658,358.871499 C1538.29166,358.871499 1532.22376,361.043205 1526.65912,365.151788 L1523.67172,367.357657 L1527.23322,368.342639 C1533.10839,369.967372 1537.79741,374.578156 1541.93441,378.646104 C1546.15797,382.799279 1550.14747,386.721943 1554.76919,386.723202 L1554.77131,386.723202 C1557.0456,386.723202 1559.2192,385.797916 1561.3951,383.90617 C1563.48303,386.902469 1564.96826,390.57592 1564.96826,395.043039 L1564.96826,417.878493 L1568.50114,417.878493 C1568.50114,417.878493 1568.50432,395.802183 1568.50432,394.61438 C1568.50432,391.744664 1570.15806,387.514531 1573.10448,382.228932 C1575.29257,383.43166 1577.33722,384.018729 1579.32853,384.018729 C1585.82196,384.018729 1590.04464,377.694387 1594.51532,370.998923 C1598.50571,365.022507 1603.0285,358.248648 1609.75793,354.740619 L1613.04015,353.029578 L1609.67314,351.498344 C1604.34679,349.076348 1599.03758,347.848268 1593.89283,347.848268 L1593.89283,347.848268 Z M1554.77131,383.126887 L1554.77007,383.126887 C1551.57546,383.125988 1548.24519,379.851168 1544.38906,376.059404 C1540.73906,372.470282 1536.6895,368.488102 1531.61681,366.14576 C1535.74057,363.702906 1539.96289,362.467634 1544.20658,362.467634 C1552.72559,362.467634 1559.16409,367.574145 1561.12113,372.618263 C1561.62792,373.924739 1562.15185,376.087634 1561.29601,378.252507 C1558.12666,374.977147 1554.63829,372.739093 1552.46752,371.34649 C1551.83266,370.939048 1551.28435,370.587346 1550.91817,370.322491 L1548.87087,373.25316 C1549.31707,373.576273 1549.90423,373.952968 1550.58378,374.38882 C1552.81992,375.823498 1556.21307,378.001137 1559.14236,381.135708 C1557.61651,382.47275 1556.18181,383.126887 1554.77131,383.126887 L1554.77131,383.126887 Z M1591.5931,368.977356 C1587.49266,375.118655 1583.9513,380.422414 1579.32835,380.422414 C1577.97243,380.422414 1576.52024,379.99843 1574.91296,379.134099 C1575.07088,378.875357 1575.23039,378.615177 1575.39379,378.352299 C1578.89399,372.719134 1582.44859,368.157977 1582.4841,368.112486 L1579.7198,365.873173 C1579.41685,366.260657 1575.68737,371.059878 1572.05451,377.004109 C1569.918,374.661227 1569.2872,371.31826 1570.33753,367.49521 C1571.44191,363.47581 1574.29382,359.497047 1578.1625,356.579503 C1581.26861,354.236981 1586.51935,351.444222 1593.89283,351.444222 C1597.50661,351.444222 1601.22885,352.123712 1604.99684,353.468487 C1599.21776,357.558191 1595.20017,363.575243 1591.5931,368.977356 L1591.5931,368.977356 Z" id="Shape-Copy-9" transform="translate(1568.355936, 382.863381) rotate(-315.000000) translate(-1568.355936, -382.863381) "></path>
                <path d="M375.721539,596.84618 C372.769641,590.982143 368.521353,585.472685 363.758855,581.332815 C360.554179,578.54689 357.53604,576.718075 354.260178,575.577382 L353.690854,575.379235 L353.121177,575.575943 C349.873754,576.696678 347.006646,578.413473 343.825287,581.1424 C339.00273,585.278854 334.69456,590.820857 331.694438,596.747826 C325.949799,608.100104 325.627601,619.452201 330.787725,628.713327 C334.27927,634.977074 341.573253,640.762355 351.917878,645.485878 L351.917878,659.987471 L355.450758,659.987471 L355.450758,645.485878 C365.79503,640.762176 373.088307,634.977793 376.578968,628.715664 C381.723725,619.485466 381.419367,608.167351 375.721539,596.84618 L375.721539,596.84618 Z M373.506246,626.940792 C370.591444,632.169751 364.228374,637.295142 355.450758,641.525815 L355.450758,630.138115 L363.421641,621.596037 L360.860127,619.119559 L355.450758,624.916528 L355.450758,613.855177 L363.421641,605.313099 L360.860127,602.836621 L355.450758,608.63359 L355.450758,598.770831 L351.917878,598.770831 L351.917878,608.63359 L346.50851,602.836621 L343.946995,605.313099 L351.917878,613.855177 L351.917878,624.916528 L346.50851,619.119559 L343.946995,621.596037 L351.917878,630.138115 L351.917878,641.525815 C343.139732,637.295322 336.775956,632.169032 333.860624,626.938814 C327.718712,615.915763 331.835047,604.323443 334.835345,598.394676 C337.626673,592.880363 341.627836,587.729799 346.102052,583.892364 C348.738287,581.631115 351.101783,580.161914 353.686438,579.187181 C356.339631,580.194998 358.763009,581.71868 361.464956,584.067496 C365.884942,587.909606 369.831521,593.030142 372.577806,598.486018 C377.714613,608.693466 378.044584,618.798963 373.506246,626.940792 L373.506246,626.940792 Z" id="Shape" transform="translate(353.683353, 617.683353) rotate(-315.000000) translate(-353.683353, -617.683353) "></path>
                <path d="M1887.72154,354.353625 C1884.76964,348.489588 1880.52135,342.98013 1875.75885,338.84026 C1872.55418,336.054335 1869.53604,334.22552 1866.26018,333.084826 L1865.69085,332.886679 L1865.12118,333.083388 C1861.87375,334.204123 1859.00665,335.920918 1855.82529,338.649845 C1851.00273,342.786298 1846.69456,348.328301 1843.69444,354.255271 C1837.9498,365.607548 1837.6276,376.959646 1842.78772,386.220772 C1846.27927,392.484519 1853.57325,398.2698 1863.91788,402.993323 L1863.91788,417.494915 L1867.45076,417.494915 L1867.45076,402.993323 C1877.79503,398.26962 1885.08831,392.485238 1888.57897,386.223109 C1893.72372,376.99291 1893.41937,365.674796 1887.72154,354.353625 L1887.72154,354.353625 Z M1885.50625,384.448237 C1882.59144,389.677196 1876.22837,394.802587 1867.45076,399.03326 L1867.45076,387.64556 L1875.42164,379.103482 L1872.86013,376.627004 L1867.45076,382.423973 L1867.45076,371.362622 L1875.42164,362.820544 L1872.86013,360.344066 L1867.45076,366.141035 L1867.45076,356.278276 L1863.91788,356.278276 L1863.91788,366.141035 L1858.50851,360.344066 L1855.947,362.820544 L1863.91788,371.362622 L1863.91788,382.423973 L1858.50851,376.627004 L1855.947,379.103482 L1863.91788,387.64556 L1863.91788,399.03326 C1855.13973,394.802767 1848.77596,389.676477 1845.86062,384.446259 C1839.71871,373.423207 1843.83505,361.830888 1846.83535,355.90212 C1849.62667,350.387808 1853.62784,345.237244 1858.10205,341.399809 C1860.73829,339.138559 1863.10178,337.669359 1865.68644,336.694626 C1868.33963,337.702443 1870.76301,339.226125 1873.46496,341.574941 C1877.88494,345.417051 1881.83152,350.537587 1884.57781,355.993462 C1889.71461,366.200911 1890.04458,376.306408 1885.50625,384.448237 L1885.50625,384.448237 Z" id="Shape-Copy-10" transform="translate(1865.683353, 375.190797) rotate(-315.000000) translate(-1865.683353, -375.190797) "></path>
                <path d="M78.7215385,269.84618 C75.7696409,263.982143 71.5213531,258.472685 66.7588546,254.332815 C63.5541794,251.54689 60.5360403,249.718075 57.2601776,248.577382 L56.690854,248.379235 L56.1211771,248.575943 C52.8737541,249.696678 50.0066456,251.413473 46.8252874,254.1424 C42.00273,258.278854 37.6945598,263.820857 34.6944384,269.747826 C28.9497994,281.100104 28.6276007,292.452201 33.7877248,301.713327 C37.2792698,307.977074 44.5732533,313.762355 54.9178783,318.485878 L54.9178783,332.987471 L58.450758,332.987471 L58.450758,318.485878 C68.7950298,313.762176 76.0883066,307.977793 79.5789684,301.715664 C84.7237245,292.485466 84.4193669,281.167351 78.7215385,269.84618 L78.7215385,269.84618 Z M76.5062463,299.940792 C73.5914439,305.169751 67.2283743,310.295142 58.450758,314.525815 L58.450758,303.138115 L66.4216412,294.596037 L63.8601268,292.119559 L58.450758,297.916528 L58.450758,286.855177 L66.4216412,278.313099 L63.8601268,275.836621 L58.450758,281.63359 L58.450758,271.770831 L54.9178783,271.770831 L54.9178783,281.63359 L49.5085096,275.836621 L46.9469951,278.313099 L54.9178783,286.855177 L54.9178783,297.916528 L49.5085096,292.119559 L46.9469951,294.596037 L54.9178783,303.138115 L54.9178783,314.525815 C46.1397321,310.295322 39.7759559,305.169032 36.8606236,299.938814 C30.7187122,288.915763 34.835047,277.323443 37.8353451,271.394676 C40.6266734,265.880363 44.6278363,260.729799 49.1020518,256.892364 C51.7382866,254.631115 54.1017831,253.161914 56.6864379,252.187181 C59.3396306,253.194998 61.7630094,254.71868 64.4649558,257.067496 C68.8849416,260.909606 72.8315215,266.030142 75.5778055,271.486018 C80.7146126,281.693466 81.0445836,291.798963 76.5062463,299.940792 L76.5062463,299.940792 Z" id="Shape-Copy-13" transform="translate(56.683353, 290.683353) rotate(-315.000000) translate(-56.683353, -290.683353) "></path>
                <path d="M1590.72154,27.8461801 C1587.76964,21.9821433 1583.52135,16.4726853 1578.75885,12.3328152 C1575.55418,9.54688973 1572.53604,7.71807549 1569.26018,6.5773816 L1568.69085,6.37923458 L1568.12118,6.57594315 C1564.87375,7.69667849 1562.00665,9.41347314 1558.82529,12.1423999 C1554.00273,16.2788537 1549.69456,21.8208567 1546.69444,27.7478259 C1540.9498,39.1001035 1540.6276,50.4522013 1545.78772,59.7133267 C1549.27927,65.9770739 1556.57325,71.7623554 1566.91788,76.4858782 L1566.91788,90.9874707 L1570.45076,90.9874707 L1570.45076,76.4858782 C1580.79503,71.7621756 1588.08831,65.9777932 1591.57897,59.7156642 C1596.72372,50.4854656 1596.41937,39.1673512 1590.72154,27.8461801 L1590.72154,27.8461801 Z M1588.50625,57.940792 C1585.59144,63.1697515 1579.22837,68.2951423 1570.45076,72.5258148 L1570.45076,61.1381152 L1578.42164,52.596037 L1575.86013,50.1195589 L1570.45076,55.9165278 L1570.45076,44.8551775 L1578.42164,36.3130992 L1575.86013,33.8366211 L1570.45076,39.6335901 L1570.45076,29.7708314 L1566.91788,29.7708314 L1566.91788,39.6335901 L1561.50851,33.8366211 L1558.947,36.3130992 L1566.91788,44.8551775 L1566.91788,55.9165278 L1561.50851,50.1195589 L1558.947,52.596037 L1566.91788,61.1381152 L1566.91788,72.5258148 C1558.13973,68.2953221 1551.77596,63.1690322 1548.86062,57.9388141 C1542.71871,46.9157626 1546.83505,35.323443 1549.83535,29.3946757 C1552.62667,23.8803629 1556.62784,18.7297992 1561.10205,14.892364 C1563.73829,12.6311145 1566.10178,11.1619138 1568.68644,10.1871815 C1571.33963,11.1949982 1573.76301,12.7186804 1576.46496,15.0674957 C1580.88494,18.9096059 1584.83152,24.0301419 1587.57781,29.4860175 C1592.71461,39.6934657 1593.04458,49.7989635 1588.50625,57.940792 L1588.50625,57.940792 Z" id="Shape-Copy-18" transform="translate(1568.683353, 48.683353) rotate(-315.000000) translate(-1568.683353, -48.683353) "></path>
                <path d="M375.721539,1233.84618 C372.769641,1227.98214 368.521353,1222.47269 363.758855,1218.33282 C360.554179,1215.54689 357.53604,1213.71808 354.260178,1212.57738 L353.690854,1212.37923 L353.121177,1212.57594 C349.873754,1213.69668 347.006646,1215.41347 343.825287,1218.1424 C339.00273,1222.27885 334.69456,1227.82086 331.694438,1233.74783 C325.949799,1245.1001 325.627601,1256.4522 330.787725,1265.71333 C334.27927,1271.97707 341.573253,1277.76236 351.917878,1282.48588 L351.917878,1296.98747 L355.450758,1296.98747 L355.450758,1282.48588 C365.79503,1277.76218 373.088307,1271.97779 376.578968,1265.71566 C381.723725,1256.48547 381.419367,1245.16735 375.721539,1233.84618 L375.721539,1233.84618 Z M373.506246,1263.94079 C370.591444,1269.16975 364.228374,1274.29514 355.450758,1278.52581 L355.450758,1267.13812 L363.421641,1258.59604 L360.860127,1256.11956 L355.450758,1261.91653 L355.450758,1250.85518 L363.421641,1242.3131 L360.860127,1239.83662 L355.450758,1245.63359 L355.450758,1235.77083 L351.917878,1235.77083 L351.917878,1245.63359 L346.50851,1239.83662 L343.946995,1242.3131 L351.917878,1250.85518 L351.917878,1261.91653 L346.50851,1256.11956 L343.946995,1258.59604 L351.917878,1267.13812 L351.917878,1278.52581 C343.139732,1274.29532 336.775956,1269.16903 333.860624,1263.93881 C327.718712,1252.91576 331.835047,1241.32344 334.835345,1235.39468 C337.626673,1229.88036 341.627836,1224.7298 346.102052,1220.89236 C348.738287,1218.63111 351.101783,1217.16191 353.686438,1216.18718 C356.339631,1217.195 358.763009,1218.71868 361.464956,1221.0675 C365.884942,1224.90961 369.831521,1230.03014 372.577806,1235.48602 C377.714613,1245.69347 378.044584,1255.79896 373.506246,1263.94079 L373.506246,1263.94079 Z" id="Shape-Copy-14" transform="translate(353.683353, 1254.683353) rotate(-315.000000) translate(-353.683353, -1254.683353) "></path>
                <path d="M1887.72154,991.353625 C1884.76964,985.489588 1880.52135,979.98013 1875.75885,975.84026 C1872.55418,973.054335 1869.53604,971.22552 1866.26018,970.084826 L1865.69085,969.886679 L1865.12118,970.083388 C1861.87375,971.204123 1859.00665,972.920918 1855.82529,975.649845 C1851.00273,979.786298 1846.69456,985.328301 1843.69444,991.255271 C1837.9498,1002.60755 1837.6276,1013.95965 1842.78772,1023.22077 C1846.27927,1029.48452 1853.57325,1035.2698 1863.91788,1039.99332 L1863.91788,1054.49492 L1867.45076,1054.49492 L1867.45076,1039.99332 C1877.79503,1035.26962 1885.08831,1029.48524 1888.57897,1023.22311 C1893.72372,1013.99291 1893.41937,1002.6748 1887.72154,991.353625 L1887.72154,991.353625 Z M1885.50625,1021.44824 C1882.59144,1026.6772 1876.22837,1031.80259 1867.45076,1036.03326 L1867.45076,1024.64556 L1875.42164,1016.10348 L1872.86013,1013.627 L1867.45076,1019.42397 L1867.45076,1008.36262 L1875.42164,999.820544 L1872.86013,997.344066 L1867.45076,1003.14103 L1867.45076,993.278276 L1863.91788,993.278276 L1863.91788,1003.14103 L1858.50851,997.344066 L1855.947,999.820544 L1863.91788,1008.36262 L1863.91788,1019.42397 L1858.50851,1013.627 L1855.947,1016.10348 L1863.91788,1024.64556 L1863.91788,1036.03326 C1855.13973,1031.80277 1848.77596,1026.67648 1845.86062,1021.44626 C1839.71871,1010.42321 1843.83505,998.830888 1846.83535,992.90212 C1849.62667,987.387808 1853.62784,982.237244 1858.10205,978.399809 C1860.73829,976.138559 1863.10178,974.669359 1865.68644,973.694626 C1868.33963,974.702443 1870.76301,976.226125 1873.46496,978.574941 C1877.88494,982.417051 1881.83152,987.537587 1884.57781,992.993462 C1889.71461,1003.20091 1890.04458,1013.30641 1885.50625,1021.44824 L1885.50625,1021.44824 Z" id="Shape-Copy-19" transform="translate(1865.683353, 1012.190797) rotate(-315.000000) translate(-1865.683353, -1012.190797) "></path>
                <path d="M78.7215385,907.84618 C75.7696409,901.982143 71.5213531,896.472685 66.7588546,892.332815 C63.5541794,889.54689 60.5360403,887.718075 57.2601776,886.577382 L56.690854,886.379235 L56.1211771,886.575943 C52.8737541,887.696678 50.0066456,889.413473 46.8252874,892.1424 C42.00273,896.278854 37.6945598,901.820857 34.6944384,907.747826 C28.9497994,919.100104 28.6276007,930.452201 33.7877248,939.713327 C37.2792698,945.977074 44.5732533,951.762355 54.9178783,956.485878 L54.9178783,970.987471 L58.450758,970.987471 L58.450758,956.485878 C68.7950298,951.762176 76.0883066,945.977793 79.5789684,939.715664 C84.7237245,930.485466 84.4193669,919.167351 78.7215385,907.84618 L78.7215385,907.84618 Z M76.5062463,937.940792 C73.5914439,943.169751 67.2283743,948.295142 58.450758,952.525815 L58.450758,941.138115 L66.4216412,932.596037 L63.8601268,930.119559 L58.450758,935.916528 L58.450758,924.855177 L66.4216412,916.313099 L63.8601268,913.836621 L58.450758,919.63359 L58.450758,909.770831 L54.9178783,909.770831 L54.9178783,919.63359 L49.5085096,913.836621 L46.9469951,916.313099 L54.9178783,924.855177 L54.9178783,935.916528 L49.5085096,930.119559 L46.9469951,932.596037 L54.9178783,941.138115 L54.9178783,952.525815 C46.1397321,948.295322 39.7759559,943.169032 36.8606236,937.938814 C30.7187122,926.915763 34.835047,915.323443 37.8353451,909.394676 C40.6266734,903.880363 44.6278363,898.729799 49.1020518,894.892364 C51.7382866,892.631115 54.1017831,891.161914 56.6864379,890.187181 C59.3396306,891.194998 61.7630094,892.71868 64.4649558,895.067496 C68.8849416,898.909606 72.8315215,904.030142 75.5778055,909.486018 C80.7146126,919.693466 81.0445836,929.798963 76.5062463,937.940792 L76.5062463,937.940792 Z" id="Shape-Copy-15" transform="translate(56.683353, 928.683353) rotate(-315.000000) translate(-56.683353, -928.683353) "></path>
                <path d="M1590.72154,665.353625 C1587.76964,659.489588 1583.52135,653.98013 1578.75885,649.84026 C1575.55418,647.054335 1572.53604,645.22552 1569.26018,644.084826 L1568.69085,643.886679 L1568.12118,644.083388 C1564.87375,645.204123 1562.00665,646.920918 1558.82529,649.649845 C1554.00273,653.786298 1549.69456,659.328301 1546.69444,665.255271 C1540.9498,676.607548 1540.6276,687.959646 1545.78772,697.220772 C1549.27927,703.484519 1556.57325,709.2698 1566.91788,713.993323 L1566.91788,728.494915 L1570.45076,728.494915 L1570.45076,713.993323 C1580.79503,709.26962 1588.08831,703.485238 1591.57897,697.223109 C1596.72372,687.99291 1596.41937,676.674796 1590.72154,665.353625 L1590.72154,665.353625 Z M1588.50625,695.448237 C1585.59144,700.677196 1579.22837,705.802587 1570.45076,710.03326 L1570.45076,698.64556 L1578.42164,690.103482 L1575.86013,687.627004 L1570.45076,693.423973 L1570.45076,682.362622 L1578.42164,673.820544 L1575.86013,671.344066 L1570.45076,677.141035 L1570.45076,667.278276 L1566.91788,667.278276 L1566.91788,677.141035 L1561.50851,671.344066 L1558.947,673.820544 L1566.91788,682.362622 L1566.91788,693.423973 L1561.50851,687.627004 L1558.947,690.103482 L1566.91788,698.64556 L1566.91788,710.03326 C1558.13973,705.802767 1551.77596,700.676477 1548.86062,695.446259 C1542.71871,684.423207 1546.83505,672.830888 1549.83535,666.90212 C1552.62667,661.387808 1556.62784,656.237244 1561.10205,652.399809 C1563.73829,650.138559 1566.10178,648.669359 1568.68644,647.694626 C1571.33963,648.702443 1573.76301,650.226125 1576.46496,652.574941 C1580.88494,656.417051 1584.83152,661.537587 1587.57781,666.993462 C1592.71461,677.200911 1593.04458,687.306408 1588.50625,695.448237 L1588.50625,695.448237 Z" id="Shape-Copy-20" transform="translate(1568.683353, 686.190797) rotate(-315.000000) translate(-1568.683353, -686.190797) "></path>
                <path d="M1759.02735,1197.06766 C1758.29622,1196.39123 1757.3162,1196.04833 1756.11449,1196.04833 C1752.37494,1196.04833 1746.14541,1199.57578 1740.24356,1205.03507 C1737.57129,1207.50742 1735.32579,1210.0506 1733.66128,1212.42531 L1733.66128,1203.07878 C1733.94073,1203.12409 1734.23466,1203.14764 1734.54379,1203.14764 C1738.28352,1203.14764 1744.5134,1199.62001 1750.41472,1194.16072 C1756.36056,1188.66008 1760.20239,1182.80593 1760.20221,1179.24683 C1760.20221,1177.72657 1759.56329,1176.81657 1759.02735,1176.32084 C1758.29622,1175.64441 1757.31603,1175.30151 1756.11449,1175.30151 C1752.37494,1175.30151 1746.14506,1178.82896 1740.24356,1184.28825 C1737.57129,1186.7606 1735.32579,1189.30378 1733.66128,1191.67831 L1733.66128,1187.07256 C1735.09722,1186.37959 1736.68313,1184.66477 1737.9645,1180.85952 C1739.20101,1177.18787 1739.88197,1172.3419 1739.88197,1167.21453 C1739.88197,1162.08716 1739.20101,1157.24137 1737.9645,1153.56953 C1736.12034,1148.09388 1733.64573,1146.94437 1731.89466,1146.94437 C1730.14359,1146.94437 1727.66898,1148.09388 1725.825,1153.56989 C1724.58849,1157.24155 1723.9077,1162.08734 1723.9077,1167.21471 C1723.9077,1172.34208 1724.58849,1177.18787 1725.825,1180.85952 C1727.10655,1184.66513 1728.69228,1186.37995 1730.1284,1187.07274 L1730.1284,1191.67831 C1728.46388,1189.30378 1726.21838,1186.76042 1723.54611,1184.28825 C1717.64461,1178.82896 1711.41473,1175.30151 1707.67518,1175.30151 C1706.47347,1175.30151 1705.49327,1175.64441 1704.76232,1176.32084 C1704.22638,1176.81675 1703.58746,1177.72675 1703.58746,1179.24701 C1703.58729,1182.80611 1707.42912,1188.66026 1713.37495,1194.1609 C1719.27627,1199.62019 1725.50598,1203.14764 1729.24588,1203.14782 L1729.24606,1203.14782 C1729.55519,1203.14782 1729.84912,1203.12427 1730.1284,1203.07896 L1730.1284,1212.42549 C1728.46388,1210.05078 1726.21838,1207.5076 1723.54611,1205.03525 C1717.64444,1199.57596 1711.41473,1196.04851 1707.67518,1196.04851 C1706.4733,1196.04851 1705.49327,1196.3914 1704.76232,1197.06784 C1704.22638,1197.56374 1703.58746,1198.47375 1703.58746,1199.99401 C1703.58729,1203.55311 1707.42912,1209.40725 1713.37495,1214.9079 C1719.27627,1220.36719 1725.50598,1223.89464 1729.24588,1223.895 L1729.24606,1223.895 C1729.55519,1223.895 1729.84912,1223.87145 1730.1284,1223.82614 L1730.1284,1231.45354 L1733.66128,1231.45354 L1733.66128,1223.82578 C1733.94073,1223.87109 1734.23466,1223.89464 1734.54379,1223.89464 C1738.28352,1223.89464 1744.5134,1220.36701 1750.41472,1214.90754 C1756.36056,1209.40689 1760.20239,1203.55275 1760.20221,1199.99365 C1760.20221,1198.47357 1759.56329,1197.56357 1759.02735,1197.06766 L1759.02735,1197.06766 Z M1735.56356,1195.23597 C1737.13339,1192.64963 1739.63926,1189.70691 1742.6196,1186.94957 C1748.33421,1181.66344 1753.73386,1178.89765 1756.11449,1178.89765 C1756.45012,1178.89765 1756.59938,1178.95698 1756.63966,1178.97622 C1756.73363,1179.22795 1756.72303,1180.53137 1755.09491,1183.21337 C1753.52489,1185.79971 1751.01902,1188.74243 1748.03886,1191.49958 C1742.32443,1196.7859 1736.92478,1199.55169 1734.54397,1199.55169 C1734.20817,1199.55169 1734.05908,1199.49235 1734.01881,1199.47311 C1733.92465,1199.22156 1733.93525,1197.91814 1735.56356,1195.23597 L1735.56356,1195.23597 Z M1729.77158,1199.47185 C1729.72618,1199.49397 1729.57639,1199.55151 1729.24588,1199.55151 C1726.86508,1199.55151 1721.46525,1196.78554 1715.75099,1191.4994 C1712.77083,1188.74225 1710.26478,1185.79953 1708.69495,1183.21319 C1707.06929,1180.53479 1707.05622,1179.23137 1707.14967,1178.97712 C1707.19506,1178.95501 1707.34468,1178.89747 1707.67536,1178.89747 C1710.05599,1178.89747 1715.45564,1181.66326 1721.17025,1186.94939 C1724.15059,1189.70655 1726.65664,1192.64945 1728.2263,1195.23579 C1729.85213,1197.91437 1729.86502,1199.21779 1729.77158,1199.47185 L1729.77158,1199.47185 Z M1729.77158,1220.21885 C1729.72618,1220.24097 1729.57639,1220.29851 1729.24588,1220.29851 C1726.86508,1220.29851 1721.46525,1217.53254 1715.75099,1212.2464 C1712.77083,1209.48925 1710.26478,1206.54653 1708.69495,1203.96037 C1707.06912,1201.28179 1707.05622,1199.97837 1707.14967,1199.7243 C1707.19506,1199.70219 1707.34468,1199.64465 1707.67536,1199.64465 C1710.05599,1199.64465 1715.45564,1202.41044 1721.17025,1207.69657 C1724.15059,1210.45391 1726.65664,1213.39663 1728.2263,1215.98297 C1729.85213,1218.66119 1729.86502,1219.96461 1729.77158,1220.21885 L1729.77158,1220.21885 Z M1727.44041,1167.21471 C1727.44041,1156.21341 1730.56259,1150.54051 1731.89466,1150.54051 C1733.22691,1150.54051 1736.34927,1156.21341 1736.34927,1167.21471 C1736.34927,1178.216 1733.22691,1183.8889 1731.89466,1183.8889 C1730.56259,1183.8889 1727.44041,1178.21582 1727.44041,1167.21471 L1727.44041,1167.21471 Z M1755.09473,1203.96019 C1753.52472,1206.54653 1751.01885,1209.48907 1748.03869,1212.24622 C1742.32425,1217.53254 1736.9246,1220.29833 1734.54379,1220.29833 C1734.20799,1220.29833 1734.0589,1220.23899 1734.01863,1220.21975 C1733.92465,1219.96838 1733.93508,1218.66496 1735.56338,1215.98279 C1737.13322,1213.39645 1739.63909,1210.45355 1742.61942,1207.69639 C1748.33403,1202.41026 1753.73369,1199.64447 1756.11432,1199.64447 C1756.44994,1199.64447 1756.59921,1199.7038 1756.63948,1199.72304 C1756.73346,1199.97459 1756.72286,1201.27801 1755.09473,1203.96019 L1755.09473,1203.96019 Z" id="Shape-Copy-29" transform="translate(1731.894838, 1189.198956) rotate(-315.000000) translate(-1731.894838, -1189.198956) "></path>
            </g>
        </g>
    </g>
</svg>