<?xml version="1.0" encoding="UTF-8"?>
<svg width="50px" height="50px" viewBox="0 0 50 50" version="1.1" xmlns="http://www.w3.org/2000/svg" xmlns:xlink="http://www.w3.org/1999/xlink">
    <!-- Generator: sketchtool 41.2 (35397) - http://www.bohemiancoding.com/sketch -->
    <title>D544D4E0-AAFD-46C0-B8AC-DBAFFD3AC8DE</title>
    <desc>Created with sketchtool.</desc>
    <defs></defs>
    <g id="Web-Design" stroke="none" stroke-width="1" fill="none" fill-rule="evenodd">
        <g id="Produkto-vidinis-d" transform="translate(-1216.000000, -1899.000000)" fill="#8B5B29">
            <g id="Group-7-Copy-3" transform="translate(1191.000000, 1872.000000)">
                <g id="Group-8" transform="translate(25.000000, 26.000000)">
                    <g id="Pin-in-hand" transform="translate(0.000000, 1.000000)">
                        <path d="M49.5169922,31.5833008 C48.0169922,29.5833008 46.5169922,29.5833008 42.850293,31.5 L35.6835937,35.9166992 C34.6835937,36.5 32.4335937,36.6666992 30.350293,36.6666992 C30.7669922,35.9166992 30.600293,35 29.850293,33.9166992 C28.5169922,32 26.2669922,30.8333984 23.850293,30.8333984 L20.600293,30.8333984 C18.850293,30.8333984 17.1835937,30.2500977 15.850293,29.2500977 C12.8433594,26.9949219 8.14130859,29.4488281 5.85029297,30.9125 L5.85029297,29.1667969 L0.0169921875,29.1667969 L0.0169921875,50 L5.85029297,50 L5.85029297,48.3333008 L16.6835937,48.3333008 C18.350293,48.3333008 20.100293,48.1666016 21.7668945,48.0833008 L32.6001953,46.4166016 C33.0168945,46.4166016 33.4334961,46.3333008 33.7668945,46.2499023 C34.7668945,46.0832031 35.6835937,45.5832031 36.5168945,44.8332031 L49.1001953,34.9165039 C50.100293,34.0833008 50.2669922,32.5833008 49.5169922,31.5833008 L49.5169922,31.5833008 Z M1.68359375,48.3333008 L1.68359375,30.8333008 L4.18359375,30.8333008 L4.18359375,32.0833008 L4.18359375,48.3333008 L1.68359375,48.3333008 L1.68359375,48.3333008 Z M48.100293,33.6666992 L35.4335937,43.5 L35.350293,43.5833008 C34.850293,44.1666016 34.1835937,44.5 33.4335937,44.5833008 C33.100293,44.6666016 32.850293,44.6666016 32.5168945,44.6666016 L21.5168945,46.3333008 C19.9335937,46.5833008 18.2668945,46.6666016 16.6835937,46.6666016 L5.85029297,46.6666016 L5.85029297,32.9166016 C7.85029297,31.4999023 12.5169922,28.8333008 14.850293,30.5833008 C16.4335937,31.8333008 18.5169922,32.5 20.600293,32.5 L23.850293,32.5 C25.7669922,32.5 27.5169922,33.4166992 28.600293,34.9166992 C28.9335937,35.4166992 29.0169922,35.9166992 28.9335937,36.0833984 C28.6835937,36.5000977 27.6835937,36.6666992 26.600293,36.7500977 L25.9943359,36.7500977 C25.8801758,36.6963867 25.7477539,36.6667969 25.600293,36.6667969 L17.5169922,36.6667969 C14.9336914,36.6667969 13.350293,37.9167969 13.350293,40.0000977 C13.350293,40.5000977 13.6835937,40.8333984 14.1835937,40.8333984 C14.6835937,40.8333984 15.0168945,40.5000977 15.0168945,40.0000977 C15.0168945,39.5833984 15.0168945,38.3333984 17.5168945,38.3333984 L25.6001953,38.3333984 C25.6016602,38.3333984 25.6029297,38.3332031 25.6043945,38.3332031 L25.6001953,38.4166992 L26.6834961,38.4166992 L27.1001953,38.4166992 C31.0168945,38.5 34.6834961,38.4166992 36.6001953,37.4166992 L43.7668945,33 C47.2668945,31.25 47.6001953,31.6666992 48.2668945,32.6666992 C48.4335937,32.9166992 48.4335937,33.4166992 48.100293,33.6666992 L48.100293,33.6666992 Z" id="Shape"></path>
                        <path d="M24.350293,28.8333008 C24.4335937,29.0833008 24.7669922,29.25 25.0169922,29.25 C25.2669922,29.25 25.600293,29.0833008 25.6836914,28.9166992 C25.7669922,28.8333984 29.6003906,22.9166992 32.1003906,17.4166992 C33.4336914,14.5833984 34.1836914,12.9166992 34.1836914,9.91669922 C34.1835937,5 30.7669922,0 25.0169922,0 C19.2669922,0 15.850293,5 15.850293,9.83330078 C15.850293,12.9166016 16.6835937,14.5833008 17.9335937,17.3333008 C20.4335937,22.8333008 24.350293,28.75 24.350293,28.8333008 L24.350293,28.8333008 Z M25.0169922,1.66669922 C29.6836914,1.66669922 32.5169922,5.83339844 32.5169922,9.91669922 C32.5169922,12.5833984 31.850293,14 30.600293,16.6666992 C28.7669922,20.6666992 26.2669922,24.8333984 25.0169922,26.8333984 C23.850293,24.8333984 21.2669922,20.6666992 19.4336914,16.6666992 C18.1836914,14 17.5169922,12.5833984 17.5169922,9.91669922 C17.5169922,5.83330078 20.350293,1.66669922 25.0169922,1.66669922 L25.0169922,1.66669922 Z" id="Shape"></path>
                        <path d="M25.0169922,14.1666992 C27.7669922,14.1666992 30.0169922,11.9166992 30.0169922,9.16669922 C30.0169922,6.41669922 27.7669922,4.16669922 25.0169922,4.16669922 C22.2669922,4.16669922 20.0169922,6.41669922 20.0169922,9.16669922 C20.0169922,11.9166992 22.2669922,14.1666992 25.0169922,14.1666992 L25.0169922,14.1666992 Z M25.0169922,5.83330078 C26.850293,5.83330078 28.350293,7.33330078 28.350293,9.16660156 C28.350293,10.9999023 26.850293,12.4999023 25.0169922,12.4999023 C23.1836914,12.4999023 21.6836914,10.9999023 21.6836914,9.16660156 C21.6835937,7.33330078 23.1835937,5.83330078 25.0169922,5.83330078 L25.0169922,5.83330078 Z" id="Shape"></path>
                    </g>
                </g>
            </g>
        </g>
    </g>
</svg>