<?xml version="1.0" encoding="UTF-8"?>
<svg width="32px" height="40px" viewBox="0 0 32 40" version="1.1" xmlns="http://www.w3.org/2000/svg" xmlns:xlink="http://www.w3.org/1999/xlink">
    <!-- Generator: sketchtool 41.2 (35397) - http://www.bohemiancoding.com/sketch -->
    <title>C95DC0FB-23BF-4B93-B631-46278DA9C7C1</title>
    <desc>Created with sketchtool.</desc>
    <defs></defs>
    <g id="Web-Design" stroke="none" stroke-width="1" fill="none" fill-rule="evenodd">
        <g id="FAQ-d" transform="translate(-375.000000, -430.000000)" fill="#658D1B">
            <g id="plant" transform="translate(375.000000, 430.000000)">
                <polygon id="Shape" points="16.6505366 21.4733343 16.6510244 21.4733343 16.6505366 21.4723587"></polygon>
                <path d="M16.6505366,21.4725146 C16.6497561,21.454347 16.6501463,21.4633918 16.6506146,21.4723587 C17.1321756,20.4401559 17.9475512,19.2650292 19.3082537,19.0985575 C20.0935024,19.0024951 20.8487805,18.7316179 21.5436488,18.3763743 C22.4792195,19.2761793 23.7473561,19.7654581 25.1453659,19.7654581 C25.2158439,19.7654581 25.2868683,19.7642105 25.3579707,19.7617934 C26.7835317,19.7118908 28.1312,19.1534503 29.0557659,18.2299415 C31.8979122,15.3905653 31.1289756,9.69754386 31.0947902,9.45660819 C31.0396878,9.06744639 30.7335805,8.7617154 30.3441171,8.70666667 C30.1028683,8.67259259 24.4042927,7.90432749 21.5622244,10.7437817 C20.6378146,11.6672904 20.0788293,13.0137232 20.028878,14.4379727 C19.9975024,15.3292788 20.164761,16.1724756 20.5082537,16.9173489 C20.0456585,17.1327875 19.568078,17.2892788 19.0936976,17.3472904 C18.014361,17.4792982 17.0554537,17.9813645 16.2709854,18.7967251 C16.2483512,18.7017544 16.225561,18.6081092 16.2029268,18.5147758 C15.9886829,17.6336842 15.7863805,16.8014035 15.7863805,15.0909942 C15.7863805,14.3597661 15.8234537,13.7893957 15.8825366,13.3067446 C17.2122537,13.2555166 18.4787512,12.6530994 19.4663024,11.5946199 C20.4389463,10.5522027 20.996761,9.20530214 20.996761,7.89925926 C20.996761,3.88374269 16.4235707,0.401403509 16.2289171,0.255126706 C15.9145366,0.0188693957 15.4816,0.0188693957 15.1672976,0.255126706 C14.9725659,0.401403509 10.3994537,3.88374269 10.3994537,7.89925926 C10.3994537,9.20538012 10.9571902,10.5522027 11.9299122,11.5946199 C12.5677268,12.2782066 13.3219902,12.771462 14.1342439,13.0493567 C14.0649366,13.6015595 14.0202146,14.257076 14.0202146,15.0909162 C14.0202146,16.9561793 14.2436683,17.9298246 14.4665756,18.8480312 C13.6733659,18.002729 12.697522,17.4819493 11.5960195,17.3472125 C11.2668098,17.3069786 10.9400976,17.2212865 10.620722,17.1044834 C11.0257171,16.3152437 11.2246634,15.4046784 11.1907122,14.4378947 C11.140761,13.0137232 10.5817756,11.6672904 9.65736585,10.7437817 C6.81521951,7.90432749 1.1166439,8.67251462 0.875473171,8.70666667 C0.485931707,8.7617154 0.179902439,9.06752437 0.1248,9.45660819 C0.0906926829,9.69754386 -0.678243902,15.3905653 2.16382439,18.2299415 C3.08823415,19.1534503 4.43605854,19.7118129 5.86161951,19.7617934 C5.9328,19.7642885 6.00359024,19.7655361 6.07414634,19.7655361 C7.38302439,19.7655361 8.57810732,19.3363743 9.49307317,18.5433138 C10.0899902,18.8150487 10.7249951,19.0182456 11.3814634,19.0986355 C12.7896976,19.2708772 13.619122,20.4081871 14.0929561,21.4725926 L5.63036098,21.4725926 C5.38005854,21.4725926 5.14146341,21.5787135 4.97404878,21.7646004 C4.80663415,21.9504873 4.72593171,22.1985965 4.7521561,22.4472515 L5.17065366,26.4166862 L5.17065366,26.4173099 L6.51832195,39.2099805 C6.56569756,39.6590253 6.94470244,39.999922 7.39660488,39.999922 L23.292722,39.999922 C23.7447024,39.999922 24.1237073,39.6590253 24.1710049,39.2099805 L25.5186732,26.4173099 L25.5186732,26.4166862 L25.9371707,22.4472515 C25.9633951,22.1985185 25.8827707,21.9504873 25.715278,21.7646004 C25.5477854,21.5787135 25.3091902,21.4725926 25.0589659,21.4725926 L16.6506146,21.4725926 C16.6510049,21.4813255 16.6513951,21.4899805 16.6505366,21.4725146 L16.6505366,21.4725146 Z M21.7938732,14.4997271 C21.8279024,13.531384 22.2081561,12.5936842 22.8110049,11.991423 C24.1878634,10.6159064 26.6445268,10.3530604 28.3211707,10.3530604 C28.7435707,10.3530604 29.1164098,10.3697466 29.4100293,10.3895517 C29.5085268,11.8479532 29.5301463,15.2604288 27.8066732,16.9822222 C27.2037463,17.5845614 26.2652098,17.9644444 25.295922,17.9984405 C24.4635317,18.0270565 23.7034927,17.8120858 23.105639,17.3862768 C24.4066341,16.4032749 25.2689171,15.3575049 25.3319805,15.28 C25.6396488,14.9019883 25.582361,14.3462768 25.2039024,14.0389084 C24.8253659,13.73154 24.2692683,13.7887719 23.9616,14.1668616 C23.6327805,14.5708382 22.9218341,15.3150097 22.0309073,15.9848733 C21.8577171,15.5346589 21.7752195,15.0320468 21.7938732,14.4997271 L21.7938732,14.4997271 Z M9.05912195,16.277271 C7.71129756,15.3553996 6.74200976,14.1844055 6.72702439,14.1659259 C6.4192,13.788616 5.86349268,13.73154 5.48526829,14.0388304 C5.1068878,14.3461988 5.0494439,14.9018324 5.35719024,15.279922 C5.4241561,15.3622612 6.39118049,16.5354386 7.82813659,17.5665497 C7.28140488,17.8718908 6.62805854,18.0225341 5.9232,17.9984405 C4.9539122,17.9644444 4.01529756,17.5845614 3.41244878,16.9822222 C1.68881951,15.2603509 1.71059512,11.8474074 1.80909268,10.3896296 C3.26922927,10.2912281 6.6848,10.2697076 8.40819512,11.991423 C9.01112195,12.5936842 9.39129756,13.531384 9.42540488,14.4996491 C9.44819512,15.1506433 9.32035122,15.7574269 9.05912195,16.277271 L9.05912195,16.277271 Z M12.1653854,7.89910331 C12.1653854,5.46081871 14.6027707,3.05988304 15.7021659,2.10089669 C17.0251707,3.24912281 19.2302829,5.63641326 19.2302829,7.89910331 C19.2302829,9.42814815 17.9625366,11.1823002 16.2439024,11.4973879 C16.4595512,10.6038207 16.6691902,9.63360624 16.6691902,7.82697856 C16.6691902,7.3397271 16.2737951,6.94471735 15.7860683,6.94471735 C15.2983415,6.94471735 14.9029463,7.3397271 14.9029463,7.82697856 C14.9029463,9.53730994 14.7005659,10.3695127 14.4864,11.2506823 C14.4830439,11.2645614 14.4796098,11.2784405 14.4762537,11.2923977 C13.1111805,10.7082261 12.1653854,9.21988304 12.1653854,7.89910331 L12.1653854,7.89910331 Z M22.9064585,34.3534503 L22.6302439,34.3534503 C22.1425171,34.3534503 21.747122,34.74846 21.747122,35.2357115 C21.747122,35.722963 22.1425171,36.1179727 22.6302439,36.1179727 L22.7206244,36.1179727 L22.497561,38.2353996 L8.1916878,38.2353996 L7.96862439,36.1179727 L8.05892683,36.1179727 C8.54665366,36.1179727 8.94204878,35.722963 8.94204878,35.2357115 C8.94204878,34.74846 8.54665366,34.3534503 8.05892683,34.3534503 L7.7827122,34.3534503 L7.02985366,27.2071735 L23.6593171,27.2071735 L22.9064585,34.3534503 L22.9064585,34.3534503 Z M23.8453073,25.4426511 L6.84394146,25.4426511 L6.61143415,23.237037 L24.0778927,23.237037 L23.8453073,25.4426511 L23.8453073,25.4426511 Z" id="Shape"></path>
                <path d="M12.1065366,36.1179727 L13.3208195,36.1179727 C13.8085463,36.1179727 14.2039415,35.722963 14.2039415,35.2357115 C14.2039415,34.74846 13.8085463,34.3534503 13.3208195,34.3534503 L12.1065366,34.3534503 C11.6188098,34.3534503 11.2234146,34.74846 11.2234146,35.2357115 C11.2234146,35.722963 11.6188098,36.1179727 12.1065366,36.1179727 L12.1065366,36.1179727 Z" id="Shape"></path>
                <path d="M17.3685073,36.1179727 L18.5827902,36.1179727 C19.0705171,36.1179727 19.4659122,35.722963 19.4659122,35.2357115 C19.4659122,34.74846 19.070439,34.3534503 18.5827902,34.3534503 L17.3685073,34.3534503 C16.8807805,34.3534503 16.4853854,34.74846 16.4853854,35.2357115 C16.4853854,35.722963 16.8807024,36.1179727 17.3685073,36.1179727 L17.3685073,36.1179727 Z" id="Shape"></path>
            </g>
        </g>
    </g>
</svg>