<?xml version="1.0" encoding="UTF-8" standalone="no"?>
<svg width="23px" height="23px" viewBox="0 0 23 23" version="1.1" xmlns="http://www.w3.org/2000/svg" xmlns:xlink="http://www.w3.org/1999/xlink">
    <!-- Generator: sketchtool 40.1 (33804) - http://www.bohemiancoding.com/sketch -->
    <title>98014DCF-E9B0-40B3-9838-0A2F70E65573</title>
    <desc>Created with sketchtool.</desc>
    <defs></defs>
    <g id="Web-Design" stroke="none" stroke-width="1" fill="none" fill-rule="evenodd">
        <g id="Produktai-d" transform="translate(-395.000000, -366.000000)" fill="#658D1B">
            <g id="Group-20-Copy-3" transform="translate(395.000000, 366.000000)">
                <g id="Group-10">
                    <path d="M21.9663169,14.0159192 C21.9321494,14.0122177 21.8982665,14.0099399 21.8635295,14.0099399 L17.6697477,14.0099399 L17.6697477,8.32481705 C17.6697477,7.82853974 17.2708416,7.4296387 16.7748427,7.4296387 C16.2779896,7.4296387 15.8790834,7.82853974 15.8790834,8.32481705 L15.8790834,14.0099399 L13.9312484,14.0099399 L13.9312484,4.58608073 C13.9312484,4.08980341 13.5323423,3.69090237 13.0357739,3.69090237 C12.5394903,3.69090237 12.1408689,4.08980341 12.1408689,4.58608073 L12.1408689,14.0099399 L10.1927492,14.0099399 L10.1927492,4.58608073 C10.1927492,4.08980341 9.79384304,3.69090237 9.29727467,3.69090237 C8.80127576,3.69090237 8.40236963,4.08980341 8.40236963,4.58608073 L8.40236963,14.0099399 L7.45051868,14.0099399 L6.45424991,14.0099399 L6.45424991,8.32481705 C6.45424991,7.82853974 6.05534378,7.4296387 5.55877541,7.4296387 C5.0627765,7.4296387 4.66387037,7.82853974 4.66387037,8.32481705 L4.66387037,14.0099399 L4.24844992,14.0099399 L0.470373251,14.0099399 C0.435351514,14.0099399 0.400899235,14.0122177 0.367016417,14.0159192 C0.127843577,13.105935 0,12.1509642 0,11.1663819 C0,8.0828 1.25024754,5.29077743 3.27068858,3.27036215 C5.29141434,1.25023161 8.08318778,0 11.166809,0 C14.2504303,0 17.041919,1.25023161 19.0626448,3.27036215 C21.0833705,5.29077743 22.3333333,8.0828 22.3333333,11.1663819 C22.3333333,12.1509642 22.2054898,13.105935 21.9663169,14.0159192 M1.00367174,15.7997272 L4.24844992,15.7997272 L5.55877541,15.7997272 L7.45051868,15.7997272 L9.29727467,15.7997272 L13.0357739,15.7997272 L16.7748427,15.7997272 L21.3293769,15.7997272 C20.7718764,17.0214862 20.0002592,18.1250839 19.0626448,19.0626865 C17.041919,21.0831017 14.2504303,22.3333333 11.166809,22.3333333 C8.08318778,22.3333333 5.29141434,21.0831017 3.27068858,19.0626865 C2.3330741,18.1250839 1.5617417,17.0214862 1.00367174,15.7997272" id="Plants"></path>
                </g>
            </g>
        </g>
    </g>
</svg>