<?xml version="1.0" encoding="UTF-8"?>
<svg width="17px" height="20px" viewBox="0 0 17 20" version="1.1" xmlns="http://www.w3.org/2000/svg" xmlns:xlink="http://www.w3.org/1999/xlink">
    <!-- Generator: sketchtool 41.2 (35397) - http://www.bohemiancoding.com/sketch -->
    <title>DC7356C9-1350-4B23-AC79-1E1CBCD0288B</title>
    <desc>Created with sketchtool.</desc>
    <defs></defs>
    <g id="Symbols" stroke="none" stroke-width="1" fill="none" fill-rule="evenodd">
        <g id="Home-w" transform="translate(-20.000000, -10.000000)" fill="#ffffff">
            <g id="Home">
                <g>
                    <g id="Plant" transform="translate(20.000000, 10.000000)">
                        <polygon id="Shape" points="7 10.0005 7.00025 10.0005 7 10"></polygon>
                        <path d="M8.7845219,10.7181941 C8.78411001,10.7090925 8.78431595,10.7136237 8.78456309,10.7181159 C9.0387026,10.2010061 9.4690098,9.61229454 10.1871084,9.52889602 C10.6015164,9.48077098 11.0001076,9.34506772 11.3668182,9.1670988 C11.8605573,9.61788049 12.5298051,9.86299791 13.2675922,9.86299791 C13.3047864,9.86299791 13.3422689,9.86237291 13.3797926,9.86116197 C14.1321196,9.83616195 14.8433395,9.55639605 15.3312709,9.09373935 C16.8311883,7.67127702 16.4253889,4.81920393 16.4073478,4.69850068 C16.378268,4.50353955 16.2167226,4.35037534 16.0111868,4.32279719 C15.8838699,4.30572686 12.8764975,3.92084367 11.3766213,5.34334506 C10.8887723,5.80600176 10.5937728,6.48053367 10.5674115,7.19404999 C10.5508533,7.64057387 10.6391225,8.06299616 10.8203977,8.43616058 C10.5762672,8.54409038 10.3242284,8.62248889 10.0738783,8.65155142 C9.50426805,8.71768429 8.99821327,8.96920798 8.58421713,9.37768494 C8.57227216,9.33010677 8.56024482,9.28319266 8.54829985,9.2364348 C8.43523454,8.79502812 8.32847123,8.37807459 8.32847123,7.52119875 C8.32847123,7.15487027 8.34803627,6.8691278 8.37921676,6.62733069 C9.08096307,6.6016666 9.74934586,6.29986943 10.2705172,5.76959548 C10.7838213,5.24736841 11.078203,4.57260212 11.078203,3.91830461 C11.078203,1.90662296 8.6647427,0.16205094 8.56201597,0.0887696179 C8.39610447,-0.0295898726 8.16762605,-0.0295898726 8.00175574,0.0887696179 C7.89898782,0.16205094 5.48556868,1.90662296 5.48556868,3.91830461 C5.48556868,4.57264118 5.77990919,5.24736841 6.29325451,5.76959548 C6.62985549,6.11205675 7.02791128,6.35916637 7.4565709,6.49838525 C7.41999458,6.77502615 7.39639297,7.10342491 7.39639297,7.52115969 C7.39639297,8.45561373 7.51431864,8.94338764 7.63195599,9.40338809 C7.21334662,8.97991111 6.69835371,8.71901242 6.11704563,8.65151235 C5.94330812,8.63135609 5.77088868,8.58842636 5.60234105,8.52991067 C5.81607361,8.13451966 5.92106576,7.67834734 5.90314831,7.19401093 C5.876787,6.48053367 5.58178746,5.80600176 5.09393847,5.34334506 C3.5940211,3.92084367 0.586648688,4.3056878 0.459372987,4.32279719 C0.253795956,4.35037534 0.0922917413,4.50357862 0.0632119209,4.69850068 C0.0452120887,4.81920393 -0.360587331,7.67127702 1.13928884,9.09373935 C1.62713784,9.55639605 2.33844013,9.83612289 3.09076721,9.86116197 C3.12833208,9.86241198 3.165691,9.86303698 3.20292635,9.86303698 C3.89367506,9.86303698 4.52436941,9.64803677 5.00723447,9.25073169 C5.32225213,9.38686464 5.65737028,9.48866161 6.00381556,9.52893509 C6.74699857,9.61522423 7.18471989,10.1849904 7.43478163,10.7182331 L2.96872259,10.7182331 C2.83662771,10.7182331 2.71071126,10.7713972 2.62235968,10.8645223 C2.5340081,10.9576474 2.49141811,11.0819444 2.5052578,11.2065149 L2.72611615,13.1951105 L2.72611615,13.195423 L3.43733606,19.6042574 C3.46233812,19.8292186 3.66235456,20 3.90084204,20 L12.2898759,20 C12.5284046,20 12.7284211,19.8292186 12.7533819,19.6042574 L13.4646018,13.195423 L13.4646018,13.1951105 L13.6854602,11.2065149 C13.6992999,11.0819054 13.6567511,10.9576474 13.5683583,10.8645223 C13.4799655,10.7713972 13.3540491,10.7182331 13.2219954,10.7182331 L8.78456309,10.7182331 C8.78476904,10.7226081 8.78497499,10.7269441 8.7845219,10.7181941 L8.7845219,10.7181941 Z M11.4988719,7.22498752 C11.5168305,6.73986986 11.717506,6.27010378 12.0356541,5.96838473 C12.7622789,5.2792825 14.058761,5.14760268 14.9435949,5.14760268 C15.1665127,5.14760268 15.3632752,5.15596207 15.5182303,5.16588395 C15.5702115,5.89650966 15.581621,7.60608165 14.6720734,8.46866061 C14.3538842,8.77041872 13.8585798,8.96073141 13.3470469,8.97776267 C12.9077603,8.99209863 12.5066565,8.88440321 12.1911446,8.67108269 C12.8777332,8.17862127 13.3327953,7.65471451 13.3660764,7.61588634 C13.5284456,7.42651116 13.4982125,7.14811245 13.2984844,6.99412792 C13.0987151,6.8401434 12.8052396,6.8688153 12.6428704,7.05822955 C12.4693388,7.26061256 12.0941432,7.63342542 11.6239645,7.96901169 C11.5325649,7.74346459 11.4890276,7.49166747 11.4988719,7.22498752 L11.4988719,7.22498752 Z M4.77822059,8.11549621 C4.06691829,7.65365982 3.55538531,7.06701862 3.54747691,7.0577608 C3.38502534,6.86873718 3.09175576,6.8401434 2.89215122,6.99408886 C2.69246429,7.14807339 2.66214878,7.42643303 2.82455917,7.61584728 C2.8598998,7.65709732 3.37023829,8.24483227 4.12857905,8.76139527 C3.84004627,8.91436417 3.49524857,8.989833 3.12326577,8.97776267 C2.61173278,8.96073141 2.11638728,8.77041872 1.79823922,8.46866061 C0.888609259,7.60604258 0.900101142,5.89623623 0.952082351,5.16592301 C1.7226564,5.11662609 3.52519337,5.10584483 4.43469976,5.96838473 C4.75288901,6.27010378 4.9535233,6.73986986 4.97152313,7.22494846 C4.98355048,7.55108159 4.916082,7.85506626 4.77822059,8.11549621 L4.77822059,8.11549621 Z M6.41752338,3.91822648 C6.41752338,2.69670185 7.70383175,1.49388818 8.28402771,1.01345802 C8.98223173,1.58869296 10.14596,2.78467069 10.14596,3.91822648 C10.14596,4.68424286 9.47691819,5.56303278 8.56992436,5.72088449 C8.68373108,5.27322781 8.7943662,4.78717264 8.7943662,3.88209363 C8.7943662,3.63799183 8.58569996,3.44010102 8.32830648,3.44010102 C8.07091299,3.44010102 7.86224675,3.63799183 7.86224675,3.88209363 C7.86224675,4.73893041 7.75544225,5.15584488 7.64241813,5.59729062 C7.64064698,5.60424375 7.63883464,5.61119689 7.63706349,5.61818908 C6.91665831,5.32553254 6.41752338,4.57990682 6.41752338,3.91822648 L6.41752338,3.91822648 Z M12.0860289,17.1712472 L11.9402591,17.1712472 C11.6828656,17.1712472 11.4741993,17.3691381 11.4741993,17.6132399 C11.4741993,17.8573417 11.6828656,18.0552325 11.9402591,18.0552325 L11.9879566,18.0552325 L11.8702368,19.1160148 L4.32043996,19.1160148 L4.20272023,18.0552325 L4.25037654,18.0552325 C4.50777002,18.0552325 4.71643627,17.8573417 4.71643627,17.6132399 C4.71643627,17.3691381 4.50777002,17.1712472 4.25037654,17.1712472 L4.10460673,17.1712472 L3.70729236,13.5911266 L12.4833432,13.5911266 L12.0860289,17.1712472 L12.0860289,17.1712472 Z M12.5814979,12.7071413 L3.60917886,12.7071413 L3.48647519,11.6021793 L12.7042428,11.6021793 L12.5814979,12.7071413 L12.5814979,12.7071413 Z" id="Shape"></path>
                        <path d="M5.29629727,11 L5.70370273,11 C5.86734053,11 6,10.7761379 6,10.5 C6,10.2238621 5.86734053,10 5.70370273,10 L5.29629727,10 C5.13265947,10 5,10.2238621 5,10.5 C5,10.7761379 5.13265947,11 5.29629727,11 L5.29629727,11 Z" id="Shape"></path>
                        <path d="M7.29629727,11 L7.70370273,11 C7.86734053,11 8,10.7761379 8,10.5 C8,10.2238621 7.86731434,10 7.70370273,10 L7.29629727,10 C7.13265947,10 7,10.2238621 7,10.5 C7,10.7761379 7.13263329,11 7.29629727,11 L7.29629727,11 Z" id="Shape"></path>
                    </g>
                </g>
            </g>
        </g>
    </g>
</svg>