<?xml version="1.0" encoding="UTF-8" standalone="no"?>
<svg width="15px" height="15px" viewBox="0 0 15 15" version="1.1" xmlns="http://www.w3.org/2000/svg" xmlns:xlink="http://www.w3.org/1999/xlink">
    <!-- Generator: sketchtool 40.1 (33804) - http://www.bohemiancoding.com/sketch -->
    <title>94518BD0-7B49-4D45-A4C8-C75B3E75D89F</title>
    <desc>Created with sketchtool.</desc>
    <defs></defs>
    <g id="Web-Design" stroke="none" stroke-width="1" fill="none" fill-rule="evenodd">
        <g id="FAQ-d" transform="translate(-399.000000, -505.000000)" fill="#ffffff">
            <path d="M404.157649,507.342416 L404.157649,510.157474 L401.342755,510.157474 C400.045951,510.157474 399,511.202113 399,512.499588 C399,513.797633 400.044976,514.842272 401.342755,514.842272 L404.157649,514.842272 L404.157649,517.657062 C404.157649,518.954638 405.202188,519.999848 406.500134,519.999848 C407.797745,519.999848 408.842553,518.95494 408.842553,517.657062 L408.842553,514.842272 L411.657447,514.842272 C412.955192,514.842272 414,513.797633 414,512.499588 C414,511.202113 412.955192,510.157474 411.657447,510.157474 L408.842553,510.157474 L408.842553,507.342416 C408.842553,506.04474 407.797745,505 406.500134,505 C405.202356,505 404.157649,506.04474 404.157649,507.342416 L404.157649,507.342416 Z" id="Plus"></path>
        </g>
    </g>
</svg>