<?xml version="1.0" encoding="UTF-8" standalone="no"?>
<svg width="38px" height="31px" viewBox="0 0 38 31" version="1.1" xmlns="http://www.w3.org/2000/svg" xmlns:xlink="http://www.w3.org/1999/xlink">
    <!-- Generator: sketchtool 40.1 (33804) - http://www.bohemiancoding.com/sketch -->
    <title>9DEBE08B-4455-4266-A6CA-8B27F2AABEB2</title>
    <desc>Created with sketchtool.</desc>
    <defs></defs>
    <g id="Web-Design" stroke="none" stroke-width="1" fill="none" fill-rule="evenodd">
        <g id="FAQ-d" transform="translate(-398.000000, -1066.000000)" fill="#8B5B29">
            <g id="Pro-line" transform="translate(398.000000, 1066.000000)">
                <g id="tractor-(1)">
                    <path d="M32.6668279,11.5774371 L32.1006548,11.5774371 L32.1006548,9.87629076 L32.6746945,9.87629076 C33.1107717,9.87629076 33.4632105,9.51561833 33.4632105,9.07121838 L33.4632105,4.48234368 C33.4632105,4.03794372 33.1107717,3.67727129 32.6746945,3.67727129 L32.1006548,3.67727129 L32.1006548,2.64109578 C32.1006548,1.18469142 30.9399592,0.000458359974 29.5135059,0.000458359974 C29.078245,0.000458359974 28.7249898,0.360297301 28.7249898,0.805530744 C28.7249898,1.2499307 29.078245,1.61060313 29.5135059,1.61060313 C30.0701796,1.61060313 30.5236227,2.07273362 30.5236227,2.64109578 L30.5236227,3.67719552 L29.9487667,3.67719552 C29.5135059,3.67719552 29.1602507,4.03786795 29.1602507,4.48226791 L29.1602507,9.07121838 C29.1602507,9.51561833 29.5135059,9.87629076 29.9487667,9.87629076 L30.5236227,9.87629076 L30.5236227,11.5774371 L24.4102301,11.5774371 L19.6830672,1.79495523 C19.2817218,0.964120532 18.4687154,0.44804072 17.5619776,0.44804072 L6.95630702,0.44804072 C4.78237759,0.44804072 3.01372684,2.25382755 3.01372684,4.47340264 L3.01372684,14.1729905 C1.09449736,16.0005995 0,18.5558424 0,21.2448221 C0,26.5752726 4.24774516,30.912207 9.46857478,30.912207 C12.664421,30.912207 15.6624146,29.2408389 17.4018996,26.5213233 L26.3808151,26.5213233 C26.6583728,28.9896563 28.7163811,30.912207 31.2073496,30.912207 C33.6975018,30.912207 35.7555101,28.9896563 36.0338841,26.5213233 L37.2087545,26.5213233 C37.6440153,26.5213233 37.9972705,26.1606509 37.9972705,25.7162509 L37.9972705,17.0205599 C37.9971963,14.0192501 35.6055993,11.5774371 32.6668279,11.5774371 L32.6668279,11.5774371 Z M30.7372828,5.28741606 L31.8861785,5.28741606 L31.8861785,8.26622177 L30.7372828,8.26622177 L30.7372828,5.28741606 L30.7372828,5.28741606 Z M19.329812,4.70291457 L22.6518208,11.5774371 L15.6032666,11.5774371 L15.6032666,4.70291457 L19.329812,4.70291457 L19.329812,4.70291457 Z M4.59075892,4.47347841 C4.59075892,3.14186974 5.65208295,2.05826126 6.95630702,2.05826126 L17.5619034,2.05826126 C17.8638772,2.05826126 18.1351267,2.23056569 18.2684137,2.50751059 L18.5514632,3.0927698 L7.18102482,3.0927698 C6.31131946,3.0927698 5.60399275,3.81494814 5.60399275,4.70291457 L5.60399275,11.5774371 C5.60399275,11.8519573 5.67182368,12.110414 5.79086177,12.336592 C5.37764226,12.5145035 4.97629687,12.7221932 4.59075892,12.9589034 L4.59075892,4.47347841 L4.59075892,4.47347841 Z M14.0261604,4.70291457 L14.0261604,11.5774371 L7.18102482,11.5774371 L7.18102482,4.70291457 L14.0261604,4.70291457 L14.0261604,4.70291457 Z M16.2837282,25.309661 C14.8715238,27.7723868 12.2607008,29.3020623 9.46857478,29.3020623 C5.11752473,29.3020623 1.57703207,25.6873062 1.57703207,21.2448221 C1.57703207,18.8988601 2.57609117,16.6744356 4.31713457,15.1407443 C5.74514639,13.8839979 7.57057029,13.1900066 9.45825913,13.1876577 L9.48668281,13.1876577 C13.8298662,13.1981141 17.3600433,16.8080966 17.3600433,21.2448978 C17.3600433,22.6770553 16.9878637,24.081935 16.2837282,25.309661 L16.2837282,25.309661 Z M14.694822,13.1876577 L20.2625986,13.1876577 C19.6672597,13.936356 19.3092549,14.8895617 19.3092549,15.926495 L19.3092549,20.4397497 L18.9039762,20.4397497 C18.6587756,17.4151022 17.0438205,14.7809054 14.694822,13.1876577 L14.694822,13.1876577 Z M31.2072754,29.3020623 C29.3968426,29.3020623 27.9238575,27.7989827 27.9238575,25.9505365 C27.9238575,24.1020903 29.3968426,22.5990107 31.2072754,22.5990107 C33.0177082,22.5990107 34.489877,24.1020903 34.489877,25.9505365 C34.489877,27.7989827 33.0177082,29.3020623 31.2072754,29.3020623 L31.2072754,29.3020623 Z M36.4201642,24.9111785 L36.4201642,24.9111785 L35.9588545,24.9111785 C35.4896782,22.6722817 33.5380917,20.9888659 31.2072012,20.9888659 C28.8763107,20.9888659 26.9247242,22.6722817 26.4555479,24.9111785 L18.2304908,24.9111785 C18.5955459,24.0006322 18.8226385,23.0353788 18.9030857,22.0499702 L20.0976967,22.0499702 C20.5329576,22.0499702 20.8862128,21.6892978 20.8862128,21.2448978 L20.8862128,15.9265707 C20.8862128,14.4194752 22.0839408,13.1933405 23.5584843,13.1877334 L32.6666795,13.1877334 C34.7365619,13.1877334 36.4200158,14.907368 36.4200158,17.0207115 L36.4200158,24.9111785 L36.4201642,24.9111785 Z" id="Shape"></path>
                    <path d="M30.4013935,15.0306483 L26.2478992,15.0306483 C25.8124157,15.0306483 25.4593831,15.3910934 25.4593831,15.8357207 C25.4593831,16.2802722 25.8124157,16.6407931 26.2478992,16.6407931 L30.4013935,16.6407931 C30.836877,16.6407931 31.1899095,16.2802722 31.1899095,15.8357207 C31.1899095,15.3910934 30.836877,15.0306483 30.4013935,15.0306483 L30.4013935,15.0306483 Z" id="Shape"></path>
                    <path d="M30.4013935,17.738192 L26.2478992,17.738192 C25.8124157,17.738192 25.4593831,18.0986371 25.4593831,18.5432644 C25.4593831,18.9878159 25.8124157,19.3483367 26.2478992,19.3483367 L30.4013935,19.3483367 C30.836877,19.3483367 31.1899095,18.9878159 31.1899095,18.5432644 C31.1899095,18.0985613 30.836877,17.738192 30.4013935,17.738192 L30.4013935,17.738192 Z" id="Shape"></path>
                    <path d="M9.46857478,15.9691543 C6.61492596,15.9691543 4.30140136,18.3312556 4.30140136,21.2456556 C4.30140136,24.159222 6.61492596,26.5213233 9.46857478,26.5213233 C12.3222236,26.5213233 14.6365645,24.159222 14.6365645,21.2456556 C14.6364903,18.3312556 12.3222236,15.9691543 9.46857478,15.9691543 L9.46857478,15.9691543 Z M9.46857478,24.9111785 C7.48544767,24.9111785 5.8776913,23.2696644 5.8776913,21.2456556 C5.8776913,19.220889 7.48544767,17.5793749 9.46857478,17.5793749 C11.4517019,17.5793749 13.0594583,19.220889 13.0594583,21.2456556 C13.0594583,23.2695886 11.4517019,24.9111785 9.46857478,24.9111785 L9.46857478,24.9111785 Z" id="Shape"></path>
                </g>
            </g>
        </g>
    </g>
</svg>