<?xml version="1.0" encoding="UTF-8" standalone="no"?>
<svg width="54px" height="48px" viewBox="0 0 54 48" version="1.1" xmlns="http://www.w3.org/2000/svg" xmlns:xlink="http://www.w3.org/1999/xlink">
    <!-- Generator: sketchtool 40.1 (33804) - http://www.bohemiancoding.com/sketch -->
    <title>960B2E6F-7016-4FC8-B77B-B2B3AFDD1310</title>
    <desc>Created with sketchtool.</desc>
    <defs></defs>
    <g id="Web-Design" stroke="none" stroke-width="1" fill="none" fill-rule="evenodd">
        <g id="Product-line-professionals" transform="translate(-786.000000, -2473.000000)" fill="#8B5B29">
            <g id="pumpkin" transform="translate(786.000000, 2473.000000)">
                <path d="M49.1847652,16.1173565 C46.3826087,12.5154783 42.6304696,10.5318261 38.6194435,10.5318261 C37.7245565,10.5318261 36.8313391,10.6338783 35.9594087,10.8336 C35.2425391,10.6335652 34.5081391,10.5318261 33.7710261,10.5318261 C32.3538783,10.5318261 30.9790957,10.8976696 29.6723478,11.6182957 C28.9285565,11.0402087 28.1371826,10.686887 27.3144,10.5735652 C27.4037217,9.3410087 27.143687,8.1314087 26.5996174,7.06737391 C26.5873043,7.03732174 26.5746783,7.00726957 26.5596522,6.97773913 C26.16,6.19116522 26.0904,5.2968 26.3634783,4.45972174 C26.6365565,3.62253913 27.2201739,2.94146087 28.0068522,2.5418087 C28.0071652,2.5416 28.0075826,2.5413913 28.008,2.54107826 C28.0081043,2.54097391 28.008313,2.54097391 28.0084174,2.54086957 C28.697113,2.19088696 29.5417043,2.46667826 29.8914783,3.15516522 C30.1132174,3.59186087 29.9385391,4.12747826 29.5020522,4.34932174 C29.2668522,4.46890435 28.9783304,4.37467826 28.8587478,4.13947826 C28.5683478,3.56775652 27.8695304,3.33975652 27.2978087,3.63026087 C26.726087,3.92076522 26.498087,4.61958261 26.7885913,5.19130435 C27.2820522,6.16267826 28.2682435,6.72292174 29.289913,6.72292174 C29.7161739,6.72292174 30.148487,6.62535652 30.5536696,6.41958261 C32.1318261,5.61777391 32.7633391,3.6816 31.9616348,2.10344348 C31.0318957,0.273391304 28.7863304,-0.458817391 26.9568,0.470713043 C26.956487,0.470921739 26.9560696,0.471130435 26.9556522,0.47133913 C26.9555478,0.471443478 26.9553391,0.471443478 26.9552348,0.471547826 C25.6156174,1.152 24.6216,2.31276522 24.1561043,3.73951304 C24.0925565,3.93412174 24.0410087,4.13050435 23.9992696,4.32803478 C23.570713,4.08114783 23.1090783,3.87725217 22.6162435,3.72709565 C22.002887,3.54041739 21.3541565,3.88643478 21.1673739,4.4997913 C20.9806957,5.11314783 21.326713,5.76187826 21.9400696,5.94866087 C24.0824348,6.60073043 25.3530783,8.77262609 24.930887,10.9245913 C24.5452174,11.0966609 24.1692522,11.3254957 23.8045565,11.6074435 C22.5042783,10.8941217 21.1365913,10.5318261 19.7273739,10.5318261 C18.9796174,10.5318261 18.2346783,10.6360696 17.5081043,10.8414261 C16.6226087,10.6362783 15.7160348,10.5318261 14.808,10.5318261 C10.7969739,10.5318261 7.04462609,12.5154783 4.24226087,16.1173565 C1.50657391,19.6330435 0,24.290713 0,29.2325217 C0,34.1742261 1.50657391,38.831687 4.24205217,42.3471652 C7.04452174,45.9487304 10.7967652,47.9320696 14.8077913,47.9320696 C15.7158261,47.9320696 16.6224,47.8276174 17.5078957,47.6224696 C18.2346783,47.8278261 18.9796174,47.9320696 19.7270609,47.9320696 C21.1357565,47.9320696 22.5034435,47.5701913 23.8041391,46.8571826 C24.7181217,47.563513 25.703687,47.9323826 26.7312,47.9323826 C27.7641391,47.9323826 28.754713,47.5595478 29.6727652,46.845913 C30.9794087,47.5663304 32.3539826,47.9320696 33.7708174,47.9320696 C34.5076174,47.9320696 35.2421217,47.8303304 35.9586783,47.6302957 C36.830713,47.8300174 37.7240348,47.9320696 38.6192348,47.9320696 C42.6302609,47.9320696 46.3824,45.9486261 49.1845565,42.3471652 C51.9197217,38.8317913 53.4258783,34.1742261 53.4258783,29.2325217 C53.426087,24.290713 51.9199304,19.6330435 49.1847652,16.1173565 L49.1847652,16.1173565 Z M2.32205217,29.2325217 C2.32205217,20.646887 7.38417391,13.5837913 13.7986435,12.907513 C12.4495304,14.0762087 11.2483826,15.6446609 10.2757565,17.5361739 C8.58250435,20.8286609 7.65005217,24.9824348 7.65005217,29.2325217 C7.65005217,33.4825043 8.58250435,37.6361739 10.2757565,40.9283478 C11.2483826,42.8195478 12.4494261,44.3877913 13.7983304,45.556487 C7.38396522,44.8798957 2.32205217,37.8173217 2.32205217,29.2325217 L2.32205217,29.2325217 Z M19.7269565,45.6101217 C19.1125565,45.6101217 18.4984696,45.5110957 17.9011826,45.3156522 C15.7636174,44.6175652 13.7888348,42.6823304 12.340487,39.8662957 C10.8131478,36.8964522 9.972,33.1201043 9.972,29.2325217 C9.972,25.3449391 10.8131478,21.5681739 12.340487,18.5981217 C13.7888348,15.7817739 15.763513,13.8462261 17.9018087,13.1480348 C18.4982609,12.9528 19.1123478,12.8538783 19.7268522,12.8538783 C20.5471304,12.8538783 21.3558261,13.0291826 22.1428174,13.3747826 C21.5457391,14.207687 20.9981217,15.2147478 20.5123826,16.3852174 C19.0806261,19.835687 18.2921739,24.3981913 18.2921739,29.232313 C18.2921739,34.0664348 19.0806261,38.6289391 20.5123826,42.0793043 C20.9980174,43.2497739 21.5455304,44.2566261 22.1426087,45.0895304 C21.3554087,45.4349217 20.5469217,45.6101217 19.7269565,45.6101217 L19.7269565,45.6101217 Z M28.8046957,44.5185391 C28.7480348,44.5657043 28.6953391,44.6186087 28.6473391,44.6774609 C28.0178087,45.2858087 27.3665739,45.6104348 26.7313043,45.6104348 C26.1012522,45.6104348 25.4554435,45.2911304 24.830713,44.6922783 C24.7797913,44.6293565 24.7234435,44.5729043 24.6626087,44.5233391 C22.4893565,42.2511652 20.6145391,36.5928 20.6145391,29.232313 C20.6145391,21.8743304 22.488,16.2175304 24.660313,13.943687 C24.7224,13.8933913 24.7797913,13.835687 24.8316522,13.771513 C25.4560696,13.1731826 26.1015652,12.8541913 26.7313043,12.8541913 C27.369913,12.8541913 28.024487,13.1822609 28.6570435,13.7967652 C28.7006609,13.8491478 28.7479304,13.8968348 28.7986435,13.9397217 C30.9724174,16.2108522 32.8480696,21.8701565 32.8480696,29.2324174 C32.8480696,36.587687 30.9758609,42.2432348 28.8046957,44.5185391 L28.8046957,44.5185391 Z M35.5951304,45.3157565 C35.5926261,45.3165913 35.5901217,45.3174261 35.5876174,45.3180522 C35.5831304,45.3194087 35.5785391,45.3208696 35.5740522,45.3223304 C35.5722783,45.3229565 35.5706087,45.3233739 35.5688348,45.324 C34.9813565,45.513913 34.3764522,45.6102261 33.7711304,45.6102261 C32.9412522,45.6101217 32.1234783,45.4310609 31.3278261,45.0778435 C31.9216696,44.2472348 32.4664696,43.2443478 32.949913,42.0794087 C34.3816696,38.6289391 35.1701217,34.0664348 35.1701217,29.2324174 C35.1701217,24.3982957 34.3816696,19.8357913 32.949913,16.3853217 C32.4663652,15.2200696 31.9214609,14.2169739 31.327513,13.3862609 C32.1232696,13.0329391 32.9411478,12.8537739 33.7710261,12.8537739 C34.3764522,12.8537739 34.9813565,12.950087 35.5687304,13.14 C35.5710261,13.1407304 35.5733217,13.1411478 35.5757217,13.1419826 C35.5764522,13.1421913 35.5769739,13.1424 35.5777043,13.142713 C35.5794783,13.1433391 35.5811478,13.1439652 35.5830261,13.1445913 C37.7214261,13.8375652 39.6975652,15.767687 41.1486261,18.5813217 C42.6817043,21.5539826 43.526087,25.3368 43.526087,29.2326261 C43.526087,33.1283478 42.6818087,36.9108522 41.1486261,39.8834087 C39.700487,42.6913043 37.7290435,44.6193391 35.5951304,45.3157565 L35.5951304,45.3157565 Z M39.7098783,45.546887 C41.0500174,44.3834087 42.2438609,42.8254957 43.212313,40.9476522 C44.9119304,37.6521391 45.8479304,33.491687 45.8479304,29.2326261 C45.8479304,24.9733565 44.9118261,20.8126957 43.212313,17.5169739 C42.2437565,15.6388174 41.049913,14.0806957 39.7096696,12.917113 C46.0849043,13.644313 51.1039304,20.6834087 51.1039304,29.2326261 C51.1040348,37.781113 46.085113,44.819687 39.7098783,45.546887 L39.7098783,45.546887 Z" id="Shape"></path>
            </g>
        </g>
    </g>
</svg>