<?xml version="1.0" encoding="UTF-8" standalone="no"?>
<svg width="13px" height="13px" viewBox="0 0 13 13" version="1.1" xmlns="http://www.w3.org/2000/svg" xmlns:xlink="http://www.w3.org/1999/xlink">
    <!-- Generator: sketchtool 40.1 (33804) - http://www.bohemiancoding.com/sketch -->
    <title>9B4E671C-4C7F-46D8-838A-716C0074910A</title>
    <desc>Created with sketchtool.</desc>
    <defs></defs>
    <g id="Symbols" stroke="none" stroke-width="1" fill="none" fill-rule="evenodd">
        <g id="Header" transform="translate(-985.000000, -8.000000)" fill="#A72729">
            <g id="Group-28" transform="translate(823.000000, 1.000000)">
                <g id="Search" transform="translate(162.000000, 7.000000)">
                    <path d="M10.1348768,5.28249563 C10.1348768,2.60259954 7.96239173,0.430114508 5.28249563,0.430114508 C2.60259954,0.430114508 0.430114508,2.60259954 0.430114508,5.28249563 C0.430114508,7.96239173 2.60259954,10.1348768 5.28249563,10.1348768 C7.96239173,10.1348768 10.1348768,7.96239173 10.1348768,5.28249563 Z M1.64320979,5.28249563 C1.64320979,3.27257356 3.27257356,1.64320979 5.28249563,1.64320979 C7.2924177,1.64320979 8.92178148,3.27257356 8.92178148,5.28249563 C8.92178148,7.2924177 7.2924177,8.92178148 5.28249563,8.92178148 C3.27257356,8.92178148 1.64320979,7.2924177 1.64320979,5.28249563 Z" id="Oval-2"></path>
                    <path d="M11.5758253,12.4336132 C11.8126968,12.6704847 12.1967416,12.6704847 12.4336132,12.4336132 C12.6704847,12.1967416 12.6704847,11.8126968 12.4336132,11.5758253 L8.74412779,7.88633989 C8.5072562,7.6494683 8.12321147,7.6494683 7.88633989,7.88633989 C7.6494683,8.12321147 7.6494683,8.5072562 7.88633989,8.74412779 L11.5758253,12.4336132 Z" id="Path-3"></path>
                </g>
            </g>
        </g>
    </g>
</svg>