<?xml version="1.0" encoding="utf-8"?><svg xmlns="http://www.w3.org/2000/svg" xmlns:xlink="http://www.w3.org/1999/xlink"><symbol viewBox="0 0 11 23" id="facebook"><title>5658D89A-CADD-436B-960E-09CB2ECF4ACA</title><path d="M7.314 23H2.438V11.5H0V7.537h2.438v-2.38C2.438 1.925 3.814 0 7.722 0h3.254v3.964H8.944c-1.524 0-1.624.555-1.624 1.59l-.006 1.982H11l-.432 3.965H7.314V23z" fill-rule="evenodd"/></symbol><symbol viewBox="0 0 34 23" id="google"><title>746A571E-66D5-457E-B92C-5D396565EDB8</title><path d="M.007 11.515C-.213 5.585 4.857.106 10.652.035c2.953-.258 5.826.917 8.06 2.833-.916 1.032-1.849 2.053-2.845 3.008C13.899 4.652 11.53 3.72 9.23 4.548c-3.709 1.081-5.955 5.567-4.582 9.283 1.136 3.882 5.745 6.012 9.358 4.381 1.87-.686 3.103-2.453 3.644-4.353-2.143-.044-4.287-.016-6.431-.077-.005-1.306-.01-2.608-.005-3.914 3.574-.006 7.155-.017 10.735.016.22 3.201-.241 6.627-2.273 9.196-2.782 3.667-7.921 4.743-12.102 3.305C3.137 20.892-.09 16.313.007 11.515zM28.015 7h2.975c.005.995.015 1.995.02 2.99.995.01 1.995.015 2.99.02v2.98l-2.99.015c-.01 1-.015 1.995-.02 2.995-.995-.005-1.99 0-2.98 0-.01-1-.01-1.995-.02-2.99-.995-.01-1.995-.015-2.99-.02v-2.98c.995-.005 1.99-.01 2.99-.02.005-.995.015-1.995.025-2.99z" fill-rule="evenodd"/></symbol><symbol viewBox="0 0 24 22" id="inlink"><title>1C7589A4-EA27-455A-9FBB-53F92013A6C7</title><path d="M22.227 22H1.774C.794 22 0 21.293 0 20.422V1.577C0 .707.794 0 1.774 0h20.453C23.206 0 24 .707 24 1.577v18.845c0 .871-.794 1.578-1.773 1.578zM4.159 18.376h3.535V8.443H4.159v9.933zM5.95 3.656c-1.21 0-1.999.74-1.999 1.716 0 .952.767 1.716 1.953 1.716h.022c1.233 0 2-.764 2-1.716-.022-.975-.767-1.716-1.976-1.716zm14.488 9.025c0-3.051-1.745-4.47-4.07-4.47-1.876 0-2.714.962-3.184 1.64V8.443H9.649c.047.933 0 9.933 0 9.933h3.535v-5.547c0-.295.023-.593.116-.804.255-.593.838-1.207 1.813-1.207 1.28 0 1.79.91 1.79 2.246v5.312h3.535V12.68zM13.16 9.884l.024-.033v.033h-.024z" fill-rule="evenodd"/></symbol><symbol viewBox="0 0 19 24" id="pinterest"><title>669E7843-FA20-446F-A759-D6012E17D241</title><path d="M10.704 17.101c-1.435-.11-2.039-.823-3.164-1.506-.619 3.246-1.375 6.358-3.614 7.983-.693-4.906 1.014-8.59 1.807-12.502-1.351-2.274.162-6.852 3.012-5.724 3.507 1.387-3.037 8.457 1.356 9.34 4.587.921 6.459-7.958 3.615-10.847C9.606-.325 1.754 3.751 2.72 9.72c.235 1.46 1.743 1.903.602 3.916C.692 13.054-.092 10.98.008 8.214.171 3.687 4.076.518 7.992.08c4.953-.554 9.602 1.82 10.244 6.478.722 5.258-2.236 10.953-7.532 10.544z" fill-rule="evenodd"/></symbol><symbol viewBox="0 0 27 20" id="twitter"><title>9A518864-5B6C-400C-8F65-E55D619B58E6</title><path d="M27 2.302c-.993.391-2.062.653-3.18.772 1.143-.608 2.02-1.57 2.435-2.714-1.072.56-2.257.97-3.52 1.19C21.728.595 20.287 0 18.695 0c-3.06 0-5.541 2.198-5.541 4.907 0 .385.049.76.144 1.119C8.693 5.821 4.61 3.867 1.879.899a4.466 4.466 0 0 0-.75 2.468c0 1.7.979 3.205 2.464 4.084a6.085 6.085 0 0 1-2.508-.615V6.9c0 2.377 1.908 4.36 4.443 4.81a6.376 6.376 0 0 1-2.501.085c.704 1.948 2.75 3.368 5.174 3.409-1.896 1.315-4.284 2.099-6.88 2.099-.447 0-.888-.023-1.321-.068 2.45 1.391 5.363 2.205 8.491 2.205 10.19 0 15.761-7.48 15.761-13.963 0-.214-.006-.424-.017-.636A10.675 10.675 0 0 0 27 2.302z" fill-rule="evenodd"/></symbol><symbol viewBox="0 0 20 24" id="youtube"><title>014063AF-073E-4951-B79C-51B35DE51C76</title><path d="M5.857 0l-.902 3.467L4.016 0H2.624c.28.818.57 1.64.849 2.46.424 1.233.688 2.161.809 2.794v3.577h1.322V5.254L7.195 0H5.857zm4.872 4.395c0-.702-.121-1.218-.371-1.55-.329-.45-.794-.675-1.39-.675-.595 0-1.06.225-1.39.675-.254.334-.372.848-.372 1.55V6.7c0 .699.118 1.218.372 1.548.33.449.795.674 1.39.674.596 0 1.061-.225 1.39-.674.25-.33.371-.849.371-1.548V4.395zm4.409-2.145h-1.192v5.03c-.264.373-.514.558-.754.558-.159 0-.253-.094-.28-.28-.014-.038-.014-.183-.014-.463V2.25h-1.189v5.203c0 .465.041.78.105.98.121.332.385.489.77.489.435 0 .886-.264 1.362-.809v.718h1.192V2.25zm4.051 9.461c-.239-1.039-1.089-1.804-2.112-1.92-2.421-.269-4.871-.271-7.312-.269-2.439-.002-4.89 0-7.312.269-1.021.116-1.871.881-2.108 1.92C.004 13.19 0 14.804 0 16.327c0 1.521 0 3.137.339 4.614.24 1.039 1.088 1.804 2.111 1.92 2.421.27 4.872.271 7.312.27 2.441.001 4.89 0 7.312-.27 1.023-.116 1.871-.881 2.11-1.92.341-1.477.341-3.093.341-4.614 0-1.523.003-3.137-.336-4.616zM17.77 19.75c-.327.474-.81.707-1.427.707s-1.088-.222-1.429-.668c-.25-.325-.377-.839-.377-1.53v-2.282c0-.696.113-1.204.363-1.535.341-.446.81-.668 1.413-.668.593 0 1.063.222 1.392.668.248.331.365.839.365 1.535v1.348h-2.36v1.156c0 .602.199.902.603.902.292 0 .46-.157.528-.472.011-.064.026-.327.026-.799h1.203v.171c0 .382-.014.642-.024.761-.04.261-.133.498-.276.706zm-2.058-3.407h1.18v-.601c0-.604-.198-.905-.589-.905-.394 0-.591.301-.591.905v.601zm-3.156 4.114c-.42 0-.826-.234-1.221-.721v.632h-1.18v-8.741h1.18v2.854c.381-.469.787-.707 1.221-.707.468 0 .785.248.942.737.079.262.119.692.119 1.309v2.593c0 .601-.04 1.035-.119 1.311-.157.484-.474.733-.942.733zm-.119-4.731c0-.588-.173-.889-.512-.889-.195 0-.392.093-.59.287v3.969c.198.198.395.29.59.29.34 0 .512-.29.512-.877v-2.78zm-4.483 3.93c-.469.538-.914.801-1.348.801-.38 0-.642-.156-.761-.485-.065-.197-.105-.508-.105-.968v-5.149h1.18v4.794c0 .276 0 .42.011.458.03.184.119.276.276.276.238 0 .485-.182.747-.552v-4.976h1.182v6.513H7.954v-.712zm-3.798.712H2.843v-7.512H1.455v-1.229h4.114v1.229H4.156v7.512zm4.812-12.53c-.385 0-.57-.304-.57-.915V4.156c0-.608.185-.913.57-.913.383 0 .568.305.568.913v2.767c0 .611-.185.915-.568.915z" fill-rule="evenodd"/></symbol></svg>