<?xml version="1.0" encoding="UTF-8" standalone="no"?>
<svg width="23px" height="23px" viewBox="0 0 23 23" version="1.1" xmlns="http://www.w3.org/2000/svg" xmlns:xlink="http://www.w3.org/1999/xlink">
    <!-- Generator: sketchtool 40.1 (33804) - http://www.bohemiancoding.com/sketch -->
    <title>6AA32F9C-6BF7-40FA-83F4-ABAEB2059EEE</title>
    <desc>Created with sketchtool.</desc>
    <defs></defs>
    <g id="Web-Design" stroke="none" stroke-width="1" fill="none" fill-rule="evenodd">
        <g id="Produktai-d" transform="translate(-395.000000, -417.000000)" fill="#CD3033">
            <g id="Group-22-Copy" transform="translate(395.000000, 417.000000)">
                <path d="M22.6330116,8.31738846 C22.5988725,8.32120384 22.5649896,8.32353862 22.5300248,8.32353862 L18.3362945,8.32353862 L18.3362945,14.0087982 C18.3362945,14.5050255 17.9374164,14.9038182 17.4414453,14.9038182 C16.944677,14.9038182 16.5457988,14.5050255 16.5457988,14.0087982 L16.5457988,8.32353862 L14.5976766,8.32353862 L14.5976766,17.7475869 C14.5976766,18.2436149 14.1988269,18.6424931 13.7025142,18.6424931 C13.2061445,18.6424931 12.8075226,18.2436149 12.8075226,17.7475869 L12.8075226,8.32353862 L10.8593149,8.32353862 L10.8593149,17.7475869 C10.8593149,18.2436149 10.4605222,18.6424931 9.96398166,18.6424931 C9.46786823,18.6424931 9.06899006,18.2436149 9.06899006,17.7475869 L9.06899006,8.32353862 L8.11716637,8.32353862 L7.12086786,8.32353862 L7.12086786,14.0087982 C7.12086786,14.5050255 6.72198969,14.9038182 6.2253068,14.9038182 C5.72925031,14.9038182 5.33045756,14.5050255 5.33045756,14.0087982 L5.33045756,8.32353862 L4.91512201,8.32353862 L1.13704052,8.32353862 C1.10210415,8.32353862 1.06748099,8.32120384 1.03365508,8.31738846 C0.794510407,9.22732838 0.666666667,10.182398 0.666666667,11.1670511 C0.666666667,14.2507047 1.91671649,17.0426525 3.9371601,19.0631531 C5.9581447,21.0834259 8.75003559,22.3335611 11.8334899,22.3335611 C14.9169728,22.3335611 17.7087782,21.0834259 19.729535,19.0631531 C21.7499502,17.0426525 23,14.2507047 23,11.1670511 C23,10.182398 22.8722417,9.22732838 22.6330116,8.31738846 L22.6330116,8.31738846 Z M1.67053899,6.53335611 L4.91512201,6.53335611 L6.2253068,6.53335611 L8.11716637,6.53335611 L9.96398166,6.53335611 L13.7025142,6.53335611 L17.4414453,6.53335611 L21.9962131,6.53335611 C21.4384841,5.31172233 20.6668945,4.20816605 19.729535,3.27055038 C17.7087782,1.25010677 14.9169728,0 11.8334899,0 C8.75003559,0 5.9581447,1.25010677 3.9371601,3.27055038 C2.99977222,4.20816605 2.22843883,5.31172233 1.67053899,6.53335611 L1.67053899,6.53335611 Z" id="Soil"></path>
            </g>
        </g>
    </g>
</svg>