<?xml version="1.0" encoding="UTF-8" standalone="no"?>
<svg width="40px" height="41px" viewBox="0 0 40 41" version="1.1" xmlns="http://www.w3.org/2000/svg" xmlns:xlink="http://www.w3.org/1999/xlink">
    <!-- Generator: sketchtool 40.1 (33804) - http://www.bohemiancoding.com/sketch -->
    <title>069B7F87-07E9-4490-AE28-43059DD79DFC</title>
    <desc>Created with sketchtool.</desc>
    <defs></defs>
    <g id="Web-Design" stroke="none" stroke-width="1" fill="none" fill-rule="evenodd">
        <g id="Product-line-professionals" transform="translate(-445.000000, -913.000000)">
            <g id="Sprout" transform="translate(445.000000, 913.000000)">
                <g id="sprout" fill="#658D1B">
                    <g id="Layer_1">
                        <path d="M26.097085,17.2206016 C27.6063158,17.2206016 29.2791093,16.9463329 30.9568421,16.1516898 C35.4041296,14.0455495 38.4359514,8.98606013 39.9680162,1.11427658 C40.0135223,0.879852051 39.9553036,0.637506696 39.8080972,0.448446917 C39.6607287,0.259387137 39.4385425,0.141614816 39.1977328,0.125293108 C30.1362753,-0.493651646 24.034413,1.18268373 21.0597571,5.10325391 C18.2265587,8.83716455 19.1807287,13.3646782 19.6221053,14.8897178 C18.1507692,17.1223514 17.1823482,19.2484938 16.548502,21.1249301 C15.9196761,19.3972294 14.9016194,18.1018138 13.7632389,17.1311523 C13.7671255,16.0217562 13.5331984,13.3578775 11.3936842,11.4280756 C9.14323887,9.39810324 5.54461538,8.84540541 0.697975709,9.78638386 C0.461052632,9.83238867 0.255384615,9.97640374 0.133117409,10.1821853 C0.0108502024,10.3881268 -0.016194332,10.6357527 0.0585425101,10.8624164 C1.77093117,16.0527995 4.14493927,19.0792761 7.11489879,19.8580776 C7.63951417,19.995612 8.14955466,20.0540181 8.63781377,20.0540181 C10.5497976,20.0540181 12.1221053,19.1592845 12.9150607,18.6039464 C14.6433198,20.2101144 15.5210526,22.3945029 15.5210526,25.1279889 C15.5210526,25.1907955 15.5293927,25.2514418 15.5426721,25.310248 C15.4506649,25.9442162 15.1080192,28.6868812 15.3302024,29.1983348 C15.5523857,29.7097883 17.2317166,31.5284531 17.2317166,29.1983348 C17.2317166,26.8682164 17.2516263,25.0685201 17.5245344,23.8634566 C18.0017004,21.7565162 18.9494737,19.0634344 20.8094737,16.1475294 C21.7670445,16.5471712 23.7310931,17.2206016 26.097085,17.2206016 Z M22.4095547,6.10319852 C24.9187854,2.79589251 30.2012146,1.32773891 38.119919,1.73082108 C36.651336,8.50985031 34.0038057,12.8512645 30.2435628,14.6409717 C26.8265587,16.2673819 23.3134413,15.3079215 21.7768421,14.729701 C23.1182996,12.8835079 24.8365992,10.9741881 27.0391903,9.08799079 C27.3912551,8.78659926 27.4293117,8.26022419 27.1242105,7.91226779 C26.8191903,7.56495145 26.2863968,7.52662744 25.934332,7.82841902 C23.9080972,9.56364056 22.2703644,11.3215045 20.9435628,13.0412844 C20.6642105,11.2538174 20.6306883,8.44752379 22.4095547,6.10319852 L22.4095547,6.10319852 Z M7.00923077,15.9561493 C7.03052632,15.9582296 9.16437247,16.1618509 11.2958704,17.4064611 C11.3643725,17.4464653 11.4282591,17.4897498 11.4950607,17.5308741 C10.6178947,18.0510085 9.14955466,18.6665129 7.54736842,18.246869 C5.36008097,17.673209 3.44437247,15.2628768 1.97797571,11.2542174 C5.7697166,10.6607953 8.54753036,11.1280442 10.2437247,12.6481233 C11.3335223,13.6247054 11.7798381,14.8913979 11.9590283,15.8831817 C9.55012146,14.5374409 7.21052632,14.3005361 7.16210526,14.2962157 C6.69813765,14.2534912 6.28777328,14.5924867 6.24566802,15.0507746 C6.20340081,15.5091426 6.54534413,15.914465 7.00923077,15.9561493 L7.00923077,15.9561493 Z" id="Shape"></path>
                    </g>
                </g>
                <g id="sprout" transform="translate(2.000000, 26.000000)" fill="#373737">
                    <g id="Layer_1">
                        <path d="M13.3055061,2.41198568 C12.4793522,1.93350694 11.5326316,1.67294922 10.5440486,1.67294922 C8.63465587,1.67294922 6.87214575,2.66419271 5.88145749,4.24817491 C5.61133603,4.20449436 5.33716599,4.18241319 5.0611336,4.18241319 C2.27036437,4.18241319 0,6.43388889 0,9.20126085 C-0.00024291498,11.9686328 2.27012146,14.2201085 5.06097166,14.2201085 L29.5231579,14.2201085 C32.3139271,14.2201085 34.5842915,11.9686328 34.5842915,9.20126085 C34.5842915,6.43388889 32.3139271,4.18241319 29.5231579,4.18241319 C28.5040486,4.18241319 27.5152227,4.49243273 26.68583,5.04807509 C25.7897166,2.11714193 23.0349798,-1.77635684e-15 19.8225911,-1.77635684e-15 C17.9906073,-1.77635684e-15 16.2794332,0.682508681 14.9812146,1.86365017 C14.9746694,1.40862446 13.2841719,1.90836006 13.3055061,2.41198568 Z M19.8225911,1.67302951 C22.7091498,1.67302951 25.1126316,3.90796441 25.294413,6.76109158 C25.3167611,7.11149957 25.557166,7.41075955 25.8965992,7.51032552 C26.2361134,7.60997179 26.6021862,7.4891276 26.8131984,7.20745226 C27.4574899,6.34813368 28.4452632,5.85536241 29.5231579,5.85536241 C31.3836437,5.85536241 32.897247,7.35631944 32.897247,9.20126085 C32.897247,11.0462023 31.3836437,12.5471593 29.5231579,12.5471593 L5.06097166,12.5471593 C3.20048583,12.5471593 1.68688259,11.0462023 1.68688259,9.20126085 C1.68688259,7.35631944 3.20048583,5.85536241 5.06097166,5.85536241 C5.40469636,5.85536241 5.74315789,5.90618924 6.06688259,6.00647786 C6.47319838,6.13205946 6.91012146,5.938227 7.08615385,5.55409505 C7.70121457,4.21260417 9.05838057,3.34589844 10.5438866,3.34589844 C11.7121457,3.34589844 12.7983806,3.86789714 13.5238057,4.77804253 C13.7018623,5.00150391 13.9821053,5.12154514 14.2684211,5.09175564 C14.4070445,5.07818576 14.5373279,5.03057075 14.6500405,4.95685981 C14.9582186,4.83561415 15.1626721,4.54623047 15.1787854,4.22183811 C16.1782186,2.63930122 17.9152227,1.67302951 19.8225911,1.67302951 Z" id="Shape"></path>
                    </g>
                    <circle id="Oval-2-Copy-5" cx="20" cy="6" r="1"></circle>
                    <circle id="Oval-2-Copy-8" cx="24" cy="10" r="1"></circle>
                    <circle id="Oval-2-Copy-9" cx="8" cy="9" r="1"></circle>
                    <circle id="Oval-2-Copy-7" cx="14.5" cy="8.5" r="1.5"></circle>
                </g>
            </g>
        </g>
    </g>
</svg>