<?xml version="1.0" encoding="UTF-8"?>
<svg width="18px" height="20px" viewBox="0 0 18 20" version="1.1" xmlns="http://www.w3.org/2000/svg" xmlns:xlink="http://www.w3.org/1999/xlink">
    <!-- Generator: sketchtool 41.2 (35397) - http://www.bohemiancoding.com/sketch -->
    <title>9E268E17-A774-413A-9DD5-EB9D1B934ABA</title>
    <desc>Created with sketchtool.</desc>
    <defs></defs>
    <g id="Symbols" stroke="none" stroke-width="1" fill="none" fill-rule="evenodd">
        <g id="Distributors" transform="translate(-20.000000, -10.000000)" fill="#373737">
            <g id="sprout-(1)" transform="translate(20.000000, 10.000000)">
                <path d="M9.48608187,5.07118908 C9.28421053,4.92230019 8.99980507,4.96506823 8.85087719,5.16690058 C8.63040936,5.46557505 8.60736842,5.49680312 8.58101365,5.58982456 C8.51270955,5.83118908 8.65302144,6.08230019 8.89438596,6.15060429 C8.9357115,6.16233918 8.97738791,6.16791423 9.0182846,6.16791423 C9.1797271,6.16791423 9.33052632,6.08120858 9.41146199,5.9408577 C9.42487329,5.92136452 9.4654191,5.86401559 9.58175439,5.70643275 C9.73072125,5.50460039 9.68791423,5.22019493 9.48608187,5.07118908 L9.48608187,5.07118908 Z" id="Shape"></path>
                <path d="M10.4421442,3.80237817 C10.5245224,3.8654191 10.6215595,3.89594542 10.7178947,3.89594542 C10.7903314,3.89594542 10.8623782,3.87863548 10.9273294,3.84499025 C11.0788304,3.9234308 11.2683041,3.9128655 11.4125926,3.80237817 C11.6118129,3.64994152 11.6497466,3.36479532 11.497271,3.16557505 C11.3021832,2.91064327 11.2812086,2.88721248 11.2659259,2.87013645 C11.1797661,2.77380117 11.0566472,2.71875244 10.9273684,2.71875244 C10.7980897,2.71875244 10.6750097,2.77380117 10.5888109,2.87013645 C10.574308,2.88631579 10.5523977,2.91083821 10.3574269,3.16553606 C10.2050682,3.36479532 10.242963,3.64990253 10.4421442,3.80237817 L10.4421442,3.80237817 Z" id="Shape"></path>
                <path d="M12.4433918,5.94077973 C12.5243275,6.08116959 12.6751267,6.16791423 12.8365692,6.16791423 C12.8775049,6.16791423 12.9191423,6.16233918 12.9605458,6.15060429 C13.2018713,6.08230019 13.3421832,5.83122807 13.2738791,5.58982456 C13.2475244,5.49680312 13.2245224,5.46557505 13.0040546,5.16690058 C12.8551267,4.96499025 12.5705653,4.92226121 12.3688499,5.07118908 C12.1670175,5.22019493 12.1241715,5.5045614 12.2731384,5.70639376 C12.3893567,5.86389864 12.4299805,5.92128655 12.4433918,5.94077973 L12.4433918,5.94077973 Z" id="Shape"></path>
                <path d="M17.0012476,13.7355166 C16.5762573,13.4700975 16.0536842,13.442924 15.6035088,13.662729 L14.6132943,14.1462768 C14.291501,12.9358285 13.4237817,11.945848 12.2901754,11.4582456 L12.2901754,9.18035088 C13.0556335,8.95419103 13.7422222,8.54233918 14.2446784,7.98670565 C14.8846394,7.27906433 15.1870955,6.39095517 15.0964912,5.48557505 C14.9982456,4.39469786 13.8426121,3.06011696 12.9139961,1.98744639 C12.9124366,1.98573099 12.9109552,1.98393762 12.9093177,1.98222222 C12.3297466,1.33329435 11.8337232,0.782729045 11.5373879,0.45380117 C11.4069396,0.309005848 11.3024172,0.193021442 11.2776608,0.164951267 C11.1926706,0.0620662768 11.0649513,0 10.9274074,0 C10.7900195,0 10.6623002,0.0619883041 10.5773489,0.164834308 C10.5528265,0.192631579 10.4495906,0.307290448 10.3207018,0.450214425 C10.0239376,0.779610136 9.52721248,1.33091618 8.94549708,1.98226121 C8.94393762,1.98397661 8.94241715,1.98576998 8.9408577,1.98752437 C8.0122807,3.06007797 6.85680312,4.39469786 6.75840156,5.48545809 C6.6677193,6.39083821 6.97017544,7.27894737 7.61009747,7.98666667 C8.11267057,8.54237817 8.79922027,8.95430799 9.56475634,9.18042885 L9.56475634,11.2011306 C8.26479532,11.4468616 7.1819883,12.3141131 6.63871345,13.4817154 C6.36861598,13.4348928 6.10120858,13.3716959 5.83820663,13.2903314 L3.7945809,12.6577778 L3.7945809,11.8150877 C3.7945809,11.5642495 3.59122807,11.3608577 3.34035088,11.3608577 L0.474074074,11.3608577 C0.223196881,11.3608577 0.0198440546,11.5642495 0.0198440546,11.8150877 L0.0198440546,19.4106823 C0.0198440546,19.6615205 0.223196881,19.8649123 0.474074074,19.8649123 L3.34035088,19.8649123 C3.59122807,19.8649123 3.7945809,19.6615205 3.7945809,19.4106823 L3.7945809,18.5968811 L4.15461988,18.8864717 C5.01625731,19.5794932 6.09968811,19.9610916 7.20538012,19.9610916 L9.96639376,19.9610916 C10.9496296,19.9610916 11.8985185,19.6681092 12.7106043,19.1138402 L17.0502924,16.1517739 C17.4446394,15.8826511 17.68,15.437037 17.68,14.9596881 C17.68,14.4585965 17.4262768,14.0009747 17.0012476,13.7355166 L17.0012476,13.7355166 Z M2.88612086,18.9563743 L0.928304094,18.9563743 L0.928304094,12.2692398 L2.88608187,12.2692398 L2.88608187,18.9563743 L2.88612086,18.9563743 Z M9.56471735,7.27898635 L9.56471735,8.22444444 C9.06346979,8.03699805 8.61922027,7.74807018 8.28389864,7.37730994 C7.95423002,7.01274854 7.57879142,6.40393762 7.66249513,5.57415205 C7.66269006,5.5722807 7.662846,5.57040936 7.66300195,5.568577 C7.73364522,4.7705653 8.82623782,3.50779727 9.62538012,2.58479532 C10.1623002,1.98362573 10.6267057,1.46779727 10.9274074,1.13407407 C11.2275244,1.46721248 11.6925926,1.98378168 12.2293957,2.58479532 C13.028538,3.50775828 14.1211696,4.77048733 14.1918129,5.568577 C14.1920078,5.57044834 14.1921248,5.57231969 14.1923587,5.57415205 C14.2760624,6.40405458 13.9005458,7.01282651 13.5708382,7.3774269 C13.2355166,7.74822612 12.791384,8.03707602 12.2901365,8.22452242 L12.2901365,7.27902534 C12.2901365,6.52764133 11.6788304,5.91633528 10.9274464,5.91633528 C10.1760624,5.91633528 9.56471735,6.52760234 9.56471735,7.27898635 L9.56471735,7.27898635 Z M11.3816764,7.27898635 L11.3816764,11.1894347 C11.1574659,11.1508772 10.9272904,11.1299025 10.6922417,11.1299025 L10.4732164,11.1299025 L10.4732164,7.27898635 C10.4732164,7.02853801 10.6769981,6.82475634 10.9274464,6.82475634 C11.1778947,6.82475634 11.3816764,7.02853801 11.3816764,7.27898635 L11.3816764,7.27898635 Z M10.3197271,12.0383626 L10.6922417,12.0383626 C12.2119298,12.0383626 13.4832359,13.1204678 13.777115,14.5545419 L12.3448733,15.2539181 L12.3448733,15.0451852 C12.3448733,14.2356335 11.6862378,13.5769981 10.8766472,13.5769981 L7.73434698,13.5769981 C7.69520468,13.5769981 7.65617934,13.5755166 7.61707602,13.5748148 C8.16752437,12.6555166 9.17247563,12.0383626 10.3197271,12.0383626 L10.3197271,12.0383626 Z M16.5382066,15.4013645 L12.1984405,18.3634308 C11.5379337,18.814308 10.7661598,19.0525926 9.96639376,19.0525926 L7.20538012,19.0525926 C6.30604288,19.0525926 5.42479532,18.7421832 4.72393762,18.1785185 L3.7945809,17.4310721 L3.7945809,13.6087329 L5.56959064,14.1581287 C6.27146199,14.3753606 6.99980507,14.4854971 7.73438596,14.4854971 L10.8766862,14.4854971 C11.1853411,14.4854971 11.4364522,14.7365692 11.4364522,15.0451852 L11.4364522,15.6413255 C10.84846,15.7978558 9.49820663,16.0836647 8.11711501,15.8614035 C7.86955166,15.8215984 7.63637427,15.9900585 7.59649123,16.2376998 C7.55664717,16.4853801 7.7251462,16.7184795 7.97278752,16.7583236 C8.38701754,16.8249903 8.79617934,16.8517349 9.1862768,16.8517349 C10.7198441,16.8517349 11.9569981,16.4385575 12.0361014,16.4115789 C12.0361404,16.4115789 12.0362183,16.41154 12.0362963,16.41154 C12.0367641,16.411384 12.0376608,16.4110721 12.0380117,16.4109552 C12.0548148,16.4051852 12.0709162,16.3983236 12.0865497,16.3908772 C12.0876803,16.3903314 12.0889279,16.3900195 12.0900195,16.3894737 L16.0021832,14.4791033 C16.171462,14.3964522 16.3601949,14.4062378 16.520039,14.5060819 C16.679883,14.6058869 16.77154,14.7712671 16.77154,14.9596881 C16.77154,15.1364912 16.6843275,15.3016764 16.5382066,15.4013645 L16.5382066,15.4013645 Z" id="Shape"></path>
            </g>
        </g>
    </g>
</svg>