<?xml version="1.0" encoding="UTF-8" standalone="no"?>
<svg width="14px" height="20px" viewBox="0 0 14 20" version="1.1" xmlns="http://www.w3.org/2000/svg" xmlns:xlink="http://www.w3.org/1999/xlink">
    <!-- Generator: sketchtool 40.1 (33804) - http://www.bohemiancoding.com/sketch -->
    <title>AF577588-DD36-4359-9806-D0ED5D64D8F2</title>
    <desc>Created with sketchtool.</desc>
    <defs></defs>
    <g id="Symbols" stroke="none" stroke-width="1" fill="none" fill-rule="evenodd" opacity="0.5">
        <g id="Preke" transform="translate(-27.000000, -342.000000)" fill="#8B5B29">
            <g id="Group-3">
                <g id="Group-2" transform="translate(27.000000, 341.000000)">
                    <g id="soap" transform="translate(7.000000, 11.000000) scale(-1, 1) translate(-7.000000, -11.000000) translate(0.000000, 1.000000)">
                        <path d="M7.59839662,0 L2.40160338,0 L2.40160338,4.63970917 C0.961434599,5.33248291 0.0215189873,6.80301356 0.0215189873,8.43094086 L0.0215189873,17.1064536 C0.0215189873,18.4407488 1.10375527,19.5263158 2.43405063,19.5263158 L11.5659494,19.5263158 C12.8962025,19.5263158 13.978481,18.4407911 13.978481,17.1064536 L13.978481,8.43094086 C13.978481,6.80301356 9.0385654,5.33244059 7.59839662,4.63970917 L7.59839662,0 Z M6.33257384,4.42754748 L3.66742616,4.42754748 L3.66742616,1.26966902 L6.33257384,1.26966902 L6.33257384,4.42754748 Z M6.8521519,5.69721649 C7.96919831,6.13533695 11.9475219,7.93725104 12.4283447,8.21362305 C12.9091675,8.48999505 12.7126582,9.06577537 12.7126582,9.06577537 L1.28734177,9.06577537 L1.28734177,8.43094086 C1.28734177,7.22107325 2.03080169,6.13533695 3.1478481,5.69721649 L6.8521519,5.69721649 Z M12.7126582,15.2940857 L1.28734177,15.2940857 L1.28734177,10.3354444 L12.7126582,10.3354444 L12.7126582,15.2940857 Z M2.43405063,18.2566468 C1.80177215,18.2566468 1.28734177,17.7406956 1.28734177,17.1064536 L1.28734177,16.5637547 L12.7126582,16.5637547 L12.7126582,17.1064536 C12.7126582,17.7406956 12.1982278,18.2566468 11.5659494,18.2566468 L2.43405063,18.2566468 Z" id="TARA"></path>
                    </g>
                </g>
            </g>
        </g>
    </g>
</svg>