<?xml version="1.0" encoding="UTF-8" standalone="no"?>
<svg width="54px" height="43px" viewBox="0 0 54 43" version="1.1" xmlns="http://www.w3.org/2000/svg" xmlns:xlink="http://www.w3.org/1999/xlink">
    <!-- Generator: sketchtool 40.1 (33804) - http://www.bohemiancoding.com/sketch -->
    <title>6F9D5464-2B42-4B98-80AE-D607A94DC09E</title>
    <desc>Created with sketchtool.</desc>
    <defs></defs>
    <g id="Web-Design" stroke="none" stroke-width="1" fill="none" fill-rule="evenodd">
        <g id="Product-line-professionals" transform="translate(-786.000000, -2189.000000)" fill="#8B5B29">
            <g id="tractor" transform="translate(786.000000, 2189.000000)">
                <path d="M46.3342105,16.0850526 L45.5311579,16.0850526 L45.5311579,13.7217895 L46.3453684,13.7217895 C46.9638947,13.7217895 47.4637895,13.2207368 47.4637895,12.6033684 L47.4637895,6.22842105 C47.4637895,5.61105263 46.9638947,5.11 46.3453684,5.11 L45.5311579,5.11 L45.5311579,3.67052632 C45.5311579,1.64726316 43.8848421,0.00210526316 41.8615789,0.00210526316 C41.2442105,0.00210526316 40.7431579,0.502 40.7431579,1.12052632 C40.7431579,1.73789474 41.2442105,2.23894737 41.8615789,2.23894737 C42.6511579,2.23894737 43.2943158,2.88094737 43.2943158,3.67052632 L43.2943158,5.10989474 L42.4789474,5.10989474 C41.8615789,5.10989474 41.3605263,5.61094737 41.3605263,6.22831579 L41.3605263,12.6033684 C41.3605263,13.2207368 41.8615789,13.7217895 42.4789474,13.7217895 L43.2943158,13.7217895 L43.2943158,16.0850526 L34.6231579,16.0850526 L27.9182105,2.49505263 C27.3489474,1.34084211 26.1957895,0.623894737 24.9096842,0.623894737 L9.86673684,0.623894737 C6.78326316,0.623894737 4.27463158,3.13252632 4.27463158,6.216 L4.27463158,19.6908421 C1.55242105,22.2297895 0,25.7795789 0,29.5151579 C0,36.9203158 6.02494737,42.9452632 13.4301053,42.9452632 C17.9630526,42.9452632 22.2153684,40.6233684 24.6826316,36.8453684 L37.4182105,36.8453684 C37.8118947,40.2744211 40.7309474,42.9452632 44.2641053,42.9452632 C47.7961053,42.9452632 50.7151579,40.2744211 51.11,36.8453684 L52.7764211,36.8453684 C53.3937895,36.8453684 53.8948421,36.3443158 53.8948421,35.7269474 L53.8948421,23.6467368 C53.8947368,19.4772632 50.5025263,16.0850526 46.3342105,16.0850526 L46.3342105,16.0850526 Z M43.5973684,7.34684211 L45.2269474,7.34684211 L45.2269474,11.4850526 L43.5973684,11.4850526 L43.5973684,7.34684211 L43.5973684,7.34684211 Z M27.4171579,6.53484211 L32.1290526,16.0850526 L22.1314737,16.0850526 L22.1314737,6.53484211 L27.4171579,6.53484211 L27.4171579,6.53484211 Z M6.51147368,6.21610526 C6.51147368,4.36621053 8.01684211,2.86084211 9.86673684,2.86084211 L24.9095789,2.86084211 C25.3378947,2.86084211 25.7226316,3.10021053 25.9116842,3.48494737 L26.3131579,4.298 L10.1854737,4.298 C8.95189474,4.298 7.94863158,5.30126316 7.94863158,6.53484211 L7.94863158,16.0850526 C7.94863158,16.4664211 8.04484211,16.8254737 8.21368421,17.1396842 C7.62757895,17.3868421 7.05831579,17.6753684 6.51147368,18.0042105 L6.51147368,6.21610526 L6.51147368,6.21610526 Z M19.8945263,6.53484211 L19.8945263,16.0850526 L10.1854737,16.0850526 L10.1854737,6.53484211 L19.8945263,6.53484211 L19.8945263,6.53484211 Z M23.0966316,35.1621053 C21.0935789,38.5833684 17.3904211,40.7084211 13.4301053,40.7084211 C7.25863158,40.7084211 2.23684211,35.6867368 2.23684211,29.5151579 C2.23684211,26.2561053 3.65389474,23.1658947 6.12336842,21.0352632 C8.14884211,19.2893684 10.738,18.3252632 13.4154737,18.322 L13.4557895,18.322 C19.6161053,18.3365263 24.6232632,23.3515789 24.6232632,29.5152632 C24.6232632,31.5048421 24.0953684,33.4565263 23.0966316,35.1621053 L23.0966316,35.1621053 Z M20.8429474,18.322 L28.7402105,18.322 C27.8957895,19.3621053 27.388,20.6863158 27.388,22.1268421 L27.388,28.3967368 L26.8131579,28.3967368 C26.4653684,24.1948421 24.1747368,20.5353684 20.8429474,18.322 L20.8429474,18.322 Z M44.264,40.7084211 C41.6961053,40.7084211 39.6068421,38.6203158 39.6068421,36.0524211 C39.6068421,33.4845263 41.6961053,31.3964211 44.264,31.3964211 C46.8318947,31.3964211 48.92,33.4845263 48.92,36.0524211 C48.92,38.6203158 46.8318947,40.7084211 44.264,40.7084211 L44.264,40.7084211 Z M51.6578947,34.6085263 L51.6578947,34.6085263 L51.0035789,34.6085263 C50.3381053,31.4982105 47.57,29.1595789 44.2638947,29.1595789 C40.9577895,29.1595789 38.1896842,31.4982105 37.5242105,34.6085263 L25.8578947,34.6085263 C26.3756842,33.3435789 26.6977895,32.0026316 26.8118947,30.6336842 L28.5063158,30.6336842 C29.1236842,30.6336842 29.6247368,30.1326316 29.6247368,29.5152632 L29.6247368,22.1269474 C29.6247368,20.0332632 31.3235789,18.3298947 33.4150526,18.3221053 L46.334,18.3221053 C49.2698947,18.3221053 51.6576842,20.7110526 51.6576842,23.6469474 L51.6576842,34.6085263 L51.6578947,34.6085263 Z" id="Shape"></path>
                <path d="M43.1209474,20.8823158 L37.2296842,20.8823158 C36.612,20.8823158 36.1112632,21.3830526 36.1112632,22.0007368 C36.1112632,22.6183158 36.612,23.1191579 37.2296842,23.1191579 L43.1209474,23.1191579 C43.7386316,23.1191579 44.2393684,22.6183158 44.2393684,22.0007368 C44.2393684,21.3830526 43.7386316,20.8823158 43.1209474,20.8823158 L43.1209474,20.8823158 Z" id="Shape"></path>
                <path d="M43.1209474,24.6436842 L37.2296842,24.6436842 C36.612,24.6436842 36.1112632,25.1444211 36.1112632,25.7621053 C36.1112632,26.3796842 36.612,26.8805263 37.2296842,26.8805263 L43.1209474,26.8805263 C43.7386316,26.8805263 44.2393684,26.3796842 44.2393684,25.7621053 C44.2393684,25.1443158 43.7386316,24.6436842 43.1209474,24.6436842 L43.1209474,24.6436842 Z" id="Shape"></path>
                <path d="M13.4301053,22.1861053 C9.38252632,22.1861053 6.10105263,25.4675789 6.10105263,29.5163158 C6.10105263,33.5638947 9.38252632,36.8453684 13.4301053,36.8453684 C17.4776842,36.8453684 20.7603158,33.5638947 20.7603158,29.5163158 C20.7602105,25.4675789 17.4776842,22.1861053 13.4301053,22.1861053 L13.4301053,22.1861053 Z M13.4301053,34.6085263 C10.6172632,34.6085263 8.33684211,32.3281053 8.33684211,29.5163158 C8.33684211,26.7034737 10.6172632,24.4230526 13.4301053,24.4230526 C16.2429474,24.4230526 18.5233684,26.7034737 18.5233684,29.5163158 C18.5233684,32.328 16.2429474,34.6085263 13.4301053,34.6085263 L13.4301053,34.6085263 Z" id="Shape"></path>
            </g>
        </g>
    </g>
</svg>