<?xml version="1.0" encoding="UTF-8" standalone="no"?>
<svg width="20px" height="16.5px" viewBox="0 0 30 25" version="1.1" xmlns="http://www.w3.org/2000/svg" xmlns:xlink="http://www.w3.org/1999/xlink">
    <!-- Generator: sketchtool 40.1 (33804) - http://www.bohemiancoding.com/sketch -->
    <title>D3A9B619-9C7C-43CE-888F-2AEDD7D91EFE</title>
    <desc>Created with sketchtool.</desc>
    <defs></defs>
    <g id="Web-Design" stroke="none" stroke-width="1" fill="none" fill-rule="evenodd">
        <g id="LAB-Distributor-inner-d" transform="translate(-818.000000, -443.000000)" fill="#373737">
            <g id="tractor-(1)" transform="translate(818.000000, 443.000000)">
                <g id="Layer_1">
                    <path d="M25.7412281,9.03755754 L25.2950877,9.03755754 L25.2950877,7.70973306 L25.7474269,7.70973306 C26.0910526,7.70973306 26.3687719,7.42821132 26.3687719,7.08133632 L26.3687719,3.49950448 C26.3687719,3.15262948 26.0910526,2.87110774 25.7474269,2.87110774 L25.2950877,2.87110774 L25.2950877,2.06232417 C25.2950877,0.925532289 24.3804678,0.00118286445 23.2564327,0.00118286445 C22.9134503,0.00118286445 22.6350877,0.282054028 22.6350877,0.629579604 C22.6350877,0.976454604 22.9134503,1.25797634 23.2564327,1.25797634 C23.6950877,1.25797634 24.0523977,1.61869086 24.0523977,2.06232417 L24.0523977,2.87104859 L23.5994152,2.87104859 C23.2564327,2.87104859 22.9780702,3.15257033 22.9780702,3.49944533 L22.9780702,7.08133632 C22.9780702,7.42821132 23.2564327,7.70973306 23.5994152,7.70973306 L24.0523977,7.70973306 L24.0523977,9.03755754 L19.2350877,9.03755754 L15.510117,1.4018718 C15.1938596,0.753366368 14.5532164,0.35054188 13.8387135,0.35054188 L5.48152047,0.35054188 C3.76847953,0.35054188 2.37479532,1.76004316 2.37479532,3.49252558 L2.37479532,11.0635086 C0.86245614,12.4900432 0,14.4845301 0,16.5834047 C0,20.7440713 3.34719298,24.1292519 7.46116959,24.1292519 C9.97947368,24.1292519 12.3418713,22.8246707 13.7125731,20.7019613 L20.7878947,20.7019613 C21.0066082,22.6286109 22.6283041,24.1292519 24.5911696,24.1292519 C26.5533918,24.1292519 28.1750877,22.6286109 28.3944444,20.7019613 L29.3202339,20.7019613 C29.6632164,20.7019613 29.9415789,20.4204396 29.9415789,20.0735646 L29.9415789,13.2861701 C29.9415205,10.943507 28.0569591,9.03755754 25.7412281,9.03755754 L25.7412281,9.03755754 Z M24.2207602,4.12790121 L25.1260819,4.12790121 L25.1260819,6.45299872 L24.2207602,6.45299872 L24.2207602,4.12790121 L24.2207602,4.12790121 Z M15.2317544,3.6716704 L17.8494737,9.03755754 L12.2952632,9.03755754 L12.2952632,3.6716704 L15.2317544,3.6716704 L15.2317544,3.6716704 Z M3.61748538,3.49258472 C3.61748538,2.45320173 4.45380117,1.6073945 5.48152047,1.6073945 L13.838655,1.6073945 C14.0766082,1.6073945 14.2903509,1.74188619 14.3953801,1.95805467 L14.6184211,2.41487692 L5.65859649,2.41487692 C4.97327485,2.41487692 4.41590643,2.97857097 4.41590643,3.6716704 L4.41590643,9.03755754 C4.41590643,9.25183344 4.46935673,9.45357097 4.56315789,9.63011349 C4.23754386,9.76898178 3.92128655,9.93109335 3.61748538,10.1158568 L3.61748538,3.49258472 L3.61748538,3.49258472 Z M11.0525146,3.6716704 L11.0525146,9.03755754 L5.65859649,9.03755754 L5.65859649,3.6716704 L11.0525146,3.6716704 L11.0525146,3.6716704 Z M12.831462,19.756202 C11.718655,21.6784751 9.66134503,22.8724584 7.46116959,22.8724584 C4.0325731,22.8724584 1.24269006,20.0509719 1.24269006,16.5834047 C1.24269006,14.7522714 2.02994152,13.0160038 3.40187135,11.8188859 C4.5271345,10.8379364 5.96555556,10.2962436 7.45304094,10.2944102 L7.4754386,10.2944102 C10.8978363,10.3025719 13.6795906,13.1203325 13.6795906,16.5834639 C13.6795906,17.7013299 13.3863158,18.7979044 12.831462,19.756202 L12.831462,19.756202 Z M11.5794152,10.2944102 L15.9667836,10.2944102 C15.4976608,10.8788043 15.2155556,11.6228261 15.2155556,12.4322011 L15.2155556,15.955008 L14.8961988,15.955008 C14.7029825,13.5941288 13.4304094,11.5380147 11.5794152,10.2944102 L11.5794152,10.2944102 Z M24.5911111,22.8724584 C23.1645029,22.8724584 22.0038012,21.6992343 22.0038012,20.2564354 C22.0038012,18.8136365 23.1645029,17.6404124 24.5911111,17.6404124 C26.0177193,17.6404124 27.1777778,18.8136365 27.1777778,20.2564354 C27.1777778,21.6992343 26.0177193,22.8724584 24.5911111,22.8724584 L24.5911111,22.8724584 Z M28.6988304,19.4451678 L28.6988304,19.4451678 L28.3353216,19.4451678 C27.965614,17.6976039 26.4277778,16.3836189 24.5910526,16.3836189 C22.7543275,16.3836189 21.2164912,17.6976039 20.8467836,19.4451678 L14.3654971,19.4451678 C14.6531579,18.7344437 14.8321053,17.9810182 14.8954971,17.2118606 L15.8368421,17.2118606 C16.1798246,17.2118606 16.4581871,16.9303389 16.4581871,16.5834639 L16.4581871,12.4322602 C16.4581871,11.2559015 17.4019883,10.2988459 18.5639181,10.2944693 L25.7411111,10.2944693 C27.3721637,10.2944693 28.6987135,11.6367247 28.6987135,13.2862884 L28.6987135,19.4451678 L28.6988304,19.4451678 Z" id="Shape"></path>
                    <path d="M23.9560819,11.7329508 L20.6831579,11.7329508 C20.34,11.7329508 20.0618129,12.0142951 20.0618129,12.3613475 C20.0618129,12.7083408 20.34,12.9897442 20.6831579,12.9897442 L23.9560819,12.9897442 C24.2992398,12.9897442 24.5774269,12.7083408 24.5774269,12.3613475 C24.5774269,12.0142951 24.2992398,11.7329508 23.9560819,11.7329508 L23.9560819,11.7329508 Z" id="Shape"></path>
                    <path d="M23.9560819,13.8463155 L20.6831579,13.8463155 C20.34,13.8463155 20.0618129,14.1276598 20.0618129,14.4747123 C20.0618129,14.8217056 20.34,15.103109 20.6831579,15.103109 L23.9560819,15.103109 C24.2992398,15.103109 24.5774269,14.8217056 24.5774269,14.4747123 C24.5774269,14.1276007 24.2992398,13.8463155 23.9560819,13.8463155 L23.9560819,13.8463155 Z" id="Shape"></path>
                    <path d="M7.46116959,12.4654987 C5.21251462,12.4654987 3.38947368,14.3092295 3.38947368,16.5840553 C3.38947368,18.8582305 5.21251462,20.7019613 7.46116959,20.7019613 C9.70982456,20.7019613 11.5335088,18.8582305 11.5335088,16.5840553 C11.5334503,14.3092295 9.70982456,12.4654987 7.46116959,12.4654987 L7.46116959,12.4654987 Z M7.46116959,19.4451678 C5.89847953,19.4451678 4.63157895,18.1638891 4.63157895,16.5840553 C4.63157895,15.0036301 5.89847953,13.7223513 7.46116959,13.7223513 C9.02385965,13.7223513 10.2907602,15.0036301 10.2907602,16.5840553 C10.2907602,18.1638299 9.02385965,19.4451678 7.46116959,19.4451678 L7.46116959,19.4451678 Z" id="Shape"></path>
                </g>
            </g>
        </g>
    </g>
</svg>