<?xml version="1.0" encoding="UTF-8" standalone="no"?>
<svg width="99px" height="80px" viewBox="0 0 99 80" version="1.1" xmlns="http://www.w3.org/2000/svg" xmlns:xlink="http://www.w3.org/1999/xlink">
    <!-- Generator: sketchtool 40.1 (33804) - http://www.bohemiancoding.com/sketch -->
    <title>298191EF-32BC-4BE8-9713-FBE296F61442</title>
    <desc>Created with sketchtool.</desc>
    <defs></defs>
    <g id="Web-Design" stroke="none" stroke-width="1" fill="none" fill-rule="evenodd">
        <g id="Main-page-4-d" transform="translate(-905.000000, -321.000000)" fill="#FFFFFF">
            <g id="Tractor" transform="translate(905.000000, 321.000000)">
                <path d="M85.1056832,29.8772571 L83.6306533,29.8772571 L83.6306533,25.487202 L85.1261777,25.487202 C86.2622736,25.487202 87.1804695,24.5564344 87.1804695,23.4095958 L87.1804695,11.5673385 C87.1804695,10.4204999 86.2622736,9.48973237 85.1261777,9.48973237 L83.6306533,9.48973237 L83.6306533,6.81573104 C83.6306533,3.05726819 80.6067358,0.00118286445 76.8904495,0.00118286445 C75.7564804,0.00118286445 74.8361577,0.929799487 74.8361577,2.07878902 C74.8361577,3.22562761 75.7564804,4.15639517 76.8904495,4.15639517 C78.3407312,4.15639517 79.5220698,5.34898998 79.5220698,6.81573104 L79.5220698,9.48953683 L78.0244186,9.48953683 C76.8904495,9.48953683 75.9701268,10.4203044 75.9701268,11.567143 L75.9701268,23.4095958 C75.9701268,24.5564344 76.8904495,25.487202 78.0244186,25.487202 L79.5220698,25.487202 L79.5220698,29.8772571 L63.5950731,29.8772571 L51.2795697,4.63214253 C50.2339594,2.48805299 48.1158637,1.15623411 45.7535732,1.15623411 L18.1230104,1.15623411 C12.4593521,1.15623411 7.85155151,5.81632915 7.85155151,11.5442649 L7.85155151,36.5754593 C2.85145366,41.2918697 0,47.886045 0,54.8253473 C0,68.5813487 11.066494,79.7734375 24.668129,79.7734375 C32.9941494,79.7734375 40.8047118,75.4602294 45.3365278,68.4421247 L68.7289658,68.4421247 C69.4520765,74.8120162 74.8137297,79.7734375 81.3033583,79.7734375 C87.79086,79.7734375 93.1525132,74.8120162 93.8777507,68.4421247 L96.9385972,68.4421247 C98.0725662,68.4421247 98.9928889,67.5113571 98.9928889,66.3645185 L98.9928889,43.9240256 C98.9926956,36.1787099 92.7619561,29.8772571 85.1056832,29.8772571 L85.1056832,29.8772571 Z M80.0787103,13.6449447 L83.071886,13.6449447 L83.071886,21.3321852 L80.0787103,21.3321852 L80.0787103,13.6449447 L80.0787103,13.6449447 Z M50.359247,12.1365537 L59.0139541,29.8772571 L40.6506157,29.8772571 L40.6506157,12.1365537 L50.359247,12.1365537 L50.359247,12.1365537 Z M11.9601351,11.5444604 C11.9601351,8.10805095 14.7251635,5.31164196 18.1230104,5.31164196 L45.7533798,5.31164196 C46.5401011,5.31164196 47.2467775,5.75629856 47.5940253,6.47099507 L48.3314435,7.98134142 L18.7084594,7.98134142 C16.4426481,7.98134142 14.5998758,9.84502746 14.5998758,12.1365537 L14.5998758,29.8772571 C14.5998758,30.5856963 14.7765933,31.2526812 15.0867188,31.8363664 C14.0101733,32.2954929 12.9645629,32.8314664 11.9601351,33.4423315 L11.9601351,11.5444604 L11.9601351,11.5444604 Z M36.5418388,12.1365537 L36.5418388,29.8772571 L18.7084594,29.8772571 L18.7084594,12.1365537 L36.5418388,12.1365537 L36.5418388,12.1365537 Z M42.423397,65.3152541 C38.744233,71.6706757 31.942352,75.6182252 24.668129,75.6182252 C13.3324987,75.6182252 4.10858356,66.2898225 4.10858356,54.8253473 C4.10858356,48.7712519 6.71139541,43.0308016 11.2472717,39.0728886 C14.9676182,35.829672 19.7233279,34.0387267 24.6412541,34.0326649 L24.7153052,34.0326649 C36.030441,34.0596494 45.2274811,43.3757331 45.2274811,54.8255428 C45.2274811,58.5214331 44.2578554,62.1469291 42.423397,65.3152541 L42.423397,65.3152541 Z M38.2838783,34.0326649 L52.7894017,34.0326649 C51.2383872,35.9647898 50.3056904,38.4246755 50.3056904,41.1006322 L50.3056904,52.7477411 L49.2498328,52.7477411 C48.6110205,44.9421993 44.4036376,38.1442719 38.2838783,34.0326649 L38.2838783,34.0326649 Z M81.3031649,75.6182252 C76.586511,75.6182252 72.7489973,71.7393101 72.7489973,66.9691263 C72.7489973,62.1989426 76.586511,58.3200275 81.3031649,58.3200275 C86.0198188,58.3200275 89.8552058,62.1989426 89.8552058,66.9691263 C89.8552058,71.7393101 86.0198188,75.6182252 81.3031649,75.6182252 L81.3031649,75.6182252 Z M94.884112,64.2869124 L94.884112,64.2869124 L93.6822788,64.2869124 C92.4599511,58.5091141 87.3755547,54.1648152 81.3029716,54.1648152 C75.2303884,54.1648152 70.1459921,58.5091141 68.9236643,64.2869124 L47.4952259,64.2869124 C48.4462905,61.9371154 49.0379265,59.4461389 49.2475126,56.903149 L52.3597889,56.903149 C53.4937579,56.903149 54.4140806,55.9723814 54.4140806,54.8255428 L54.4140806,41.1008277 C54.4140806,37.211549 57.5344773,34.0473304 61.3760513,34.0328605 L85.1052965,34.0328605 C90.4978849,34.0328605 94.8837253,38.4706272 94.8837253,43.9244167 L94.8837253,64.2869124 L94.884112,64.2869124 Z" id="Shape"></path>
                <path d="M79.2036304,38.7887698 L68.3826847,38.7887698 C67.2481356,38.7887698 66.3283929,39.7189508 66.3283929,40.866376 C66.3283929,42.0136056 67.2481356,42.9439821 68.3826847,42.9439821 L79.2036304,42.9439821 C80.3381795,42.9439821 81.2579222,42.0136056 81.2579222,40.866376 C81.2579222,39.7189508 80.3381795,38.7887698 79.2036304,38.7887698 L79.2036304,38.7887698 Z" id="Shape"></path>
                <path d="M79.2036304,45.7759793 L68.3826847,45.7759793 C67.2481356,45.7759793 66.3283929,46.7061602 66.3283929,47.8535854 C66.3283929,49.0008151 67.2481356,49.9311916 68.3826847,49.9311916 L79.2036304,49.9311916 C80.3381795,49.9311916 81.2579222,49.0008151 81.2579222,47.8535854 C81.2579222,46.7059647 80.3381795,45.7759793 79.2036304,45.7759793 L79.2036304,45.7759793 Z" id="Shape"></path>
                <path d="M24.668129,41.2107209 C17.2336229,41.2107209 11.2062825,47.3064662 11.2062825,54.8274982 C11.2062825,62.3463793 17.2336229,68.4421247 24.668129,68.4421247 C32.1026351,68.4421247 38.1321023,62.3463793 38.1321023,54.8274982 C38.131909,47.3064662 32.1026351,41.2107209 24.668129,41.2107209 L24.668129,41.2107209 Z M24.668129,64.2869124 C19.501561,64.2869124 15.3129326,60.0507467 15.3129326,54.8274982 C15.3129326,49.6022943 19.501561,45.3661287 24.668129,45.3661287 C29.834697,45.3661287 34.0233254,49.6022943 34.0233254,54.8274982 C34.0233254,60.0505512 29.834697,64.2869124 24.668129,64.2869124 L24.668129,64.2869124 Z" id="Shape"></path>
            </g>
        </g>
    </g>
</svg>