<?xml version="1.0" encoding="UTF-8"?>
<svg width="47px" height="50px" viewBox="0 0 47 50" version="1.1" xmlns="http://www.w3.org/2000/svg" xmlns:xlink="http://www.w3.org/1999/xlink">
    <!-- Generator: sketchtool 41.2 (35397) - http://www.bohemiancoding.com/sketch -->
    <title>75DFC6D9-CD2F-4960-9630-D42ADC13AC09</title>
    <desc>Created with sketchtool.</desc>
    <defs></defs>
    <g id="Web-Design" stroke="none" stroke-width="1" fill="none" fill-rule="evenodd">
        <g id="Produkto-vidinis-d" transform="translate(-843.000000, -1769.000000)" fill="#658D1B">
            <g id="umbrella" transform="translate(843.000000, 1769.000000)">
                <path d="M46.2246949,27.5162644 C45.8638918,21.6702584 43.3178567,16.2246129 39.0555163,12.1825245 C35.0315951,8.36654856 29.8349174,6.14830314 24.3250032,5.8712056 L24.3250032,4.33618094 C24.3250032,3.68597356 23.7979612,3.1589315 23.1477538,3.1589315 C22.4976441,3.1589315 21.9705044,3.68597356 21.9705044,4.33618094 L21.9705044,5.8712056 C16.4637157,6.14810779 11.2692845,8.36430208 7.24643766,12.1760781 C2.98526938,16.2136735 0.437378494,21.6545331 0.072180149,27.4964368 C0.0446364386,27.9381129 0.266939577,28.3579103 0.647960905,28.5831437 C1.02878689,28.8084747 1.50396473,28.8010515 1.87756293,28.5640975 C3.30778474,27.6571085 4.96450963,27.1777307 6.66860578,27.1777307 C9.04810888,27.1777307 11.2863772,28.0979055 12.9756271,29.769672 C13.205451,30.0217653 13.5238642,30.1534282 13.8458912,30.1534282 C14.0735663,30.1534282 14.3029995,30.0874991 14.50401,29.9519293 L14.5247166,29.9379621 C14.5328235,29.9323948 14.5409303,29.9269251 14.5488418,29.9211624 C16.7157114,28.3784216 19.2176961,27.4628374 21.8499762,27.2356506 L21.8499762,45.3120408 C21.8499762,47.901638 23.956777,50.0084388 26.5463742,50.0084388 C29.1359713,50.0084388 31.2427722,47.901638 31.2427722,45.3120408 C31.2427722,44.6618335 30.7157301,44.1347914 30.0655227,44.1347914 C29.415413,44.1347914 28.8882733,44.6618335 28.8882733,45.3120408 C28.8882733,46.603372 27.8377054,47.6539399 26.5463742,47.6539399 C25.255043,47.6539399 24.2044751,46.603372 24.2044751,45.3120408 L24.2044751,27.2158231 C26.9340372,27.4054059 29.5260762,28.3278271 31.755847,29.9153997 C32.2231134,30.2481707 32.8623814,30.1954274 33.269286,29.790574 C34.9616614,28.1056217 37.2090133,27.1775354 39.5976,27.1775354 C41.3117564,27.1775354 42.9781509,27.6628712 44.4160889,28.5808972 C44.7894917,28.819414 45.2651579,28.8279115 45.646863,28.6031666 C46.0286657,28.3785193 46.2519455,27.9584289 46.2246949,27.5162644 L46.2246949,27.5162644 Z M12.6152147,26.5079888 C10.8455802,25.41171 8.8026573,24.8232318 6.66870345,24.8232318 C5.28790404,24.8232318 3.93132747,25.0727857 2.65874944,25.5547029 C3.39149028,21.1101053 5.55162042,17.0254316 8.86575389,13.8851556 C11.3336508,11.5467727 14.2926462,9.87813176 17.4964095,8.97524502 C16.7412039,9.90801961 16.0457741,11.0377024 15.4269197,12.3523774 C13.6299367,16.1696231 12.6335772,21.191662 12.6152147,26.5079888 L12.6152147,26.5079888 Z M23.1488282,24.8232318 C20.2604502,24.8232318 17.4702332,25.5325312 14.9703973,26.8883264 C14.969909,26.811458 14.9688346,26.7346872 14.9688346,26.6577211 C14.9688346,21.6253289 15.8881303,16.9009965 17.557162,13.3548903 C19.0756799,10.12876 21.0809011,8.24826688 23.0597507,8.19532826 C23.0883688,8.19464455 23.1182566,8.19474222 23.1476561,8.19474222 C23.177251,8.19474222 23.2068458,8.19464455 23.236929,8.19542593 C25.2140204,8.2481692 27.2187533,10.1286623 28.7372712,13.3547927 C30.4064005,16.9009965 31.3255986,21.6254266 31.3255986,26.6577211 C31.3255986,26.7431847 31.3315567,26.8184904 31.3411286,26.8876427 C28.8417811,25.5325312 26.0468758,24.8232318 23.1488282,24.8232318 L23.1488282,24.8232318 Z M39.5975023,24.8232318 C37.4753669,24.8232318 35.442602,25.4056543 33.6791208,26.4908961 C33.6586095,21.1810157 32.6624453,16.1657162 30.8676112,12.3522797 C30.2487568,11.0374094 29.5533269,9.9077266 28.7981213,8.974952 C32.0046195,9.87862012 34.9660567,11.5493122 37.4355164,13.891016 C40.7493568,17.0336361 42.9082172,21.1204586 43.6387116,25.5667167 C42.3565616,25.0768879 40.9893387,24.8232318 39.5975023,24.8232318 L39.5975023,24.8232318 Z" id="Shape"></path>
                <path d="M32.8814276,1.04714936 C32.2313179,1.04714936 31.7041781,1.57419142 31.7041781,2.2243988 L31.7041781,4.31879519 C31.7041781,4.9689049 32.2313179,5.49604463 32.8814276,5.49604463 C33.5315373,5.49604463 34.058677,4.96900257 34.058677,4.31879519 L34.058677,2.2243988 C34.058677,1.57419142 33.5314396,1.04714936 32.8814276,1.04714936 L32.8814276,1.04714936 Z" id="Shape"></path>
                <path d="M44.5562492,9.51684032 C43.9061395,9.51684032 43.3789998,10.0438824 43.3789998,10.6940898 L43.3789998,12.7883885 C43.3789998,13.4385959 43.9061395,13.9656379 44.5562492,13.9656379 C45.2063589,13.9656379 45.7334987,13.4385959 45.7334987,12.7883885 L45.7334987,10.6940898 C45.7334987,10.0438824 45.2063589,9.51684032 44.5562492,9.51684032 L44.5562492,9.51684032 Z" id="Shape"></path>
                <path d="M1.24708544,12.538444 C0.596878066,12.538444 0.0698360034,13.065486 0.0698360034,13.7156934 L0.0698360034,15.8099921 C0.0698360034,16.4601995 0.596975738,16.9872416 1.24708544,16.9872416 C1.89719515,16.9872416 2.42433488,16.4601995 2.42433488,15.8099921 L2.42433488,13.7156934 C2.42433488,13.065486 1.89719515,12.538444 1.24708544,12.538444 L1.24708544,12.538444 Z" id="Shape"></path>
                <path d="M11.1603794,0 C10.510172,0 9.98312994,0.527042062 9.98312994,1.17724944 L9.98312994,3.27164583 C9.98312994,3.92175554 10.5102697,4.44889527 11.1603794,4.44889527 C11.8104891,4.44889527 12.3376288,3.92185321 12.3376288,3.27164583 L12.3376288,1.17724944 C12.3376288,0.527042062 11.8103914,0 11.1603794,0 L11.1603794,0 Z" id="Shape"></path>
            </g>
        </g>
    </g>
</svg>