<?xml version="1.0" encoding="UTF-8"?>
<svg width="21px" height="23px" viewBox="0 0 21 23" version="1.1" xmlns="http://www.w3.org/2000/svg" xmlns:xlink="http://www.w3.org/1999/xlink">
    <!-- Generator: sketchtool 41.2 (35397) - http://www.bohemiancoding.com/sketch -->
    <title>A7E09F6E-AAB6-4164-866F-E85A59F0E4BB</title>
    <desc>Created with sketchtool.</desc>
    <defs></defs>
    <g id="Web-Design" stroke="none" stroke-width="1" fill="none" fill-rule="evenodd">
        <g id="Produkto-vidinis-d" transform="translate(-835.000000, -1134.000000)" fill="#658D1B">
            <g id="volumetric-flask" transform="translate(835.000000, 1134.000000)">
                <path d="M0,0 L0,2.46219841 C0,3.05322043 0.536256,3.53398126 1.195376,3.53398126 L1.550752,3.53398126 L1.550752,21.9282172 C1.550752,22.5192392 2.087008,23 2.746128,23 L18.253872,23 C18.913048,23 19.449248,22.519189 19.449248,21.9282172 L19.449248,3.53398126 L19.804624,3.53398126 C20.4638,3.53398126 21,3.05317022 21,2.46219841 L21,0 L0,0 L0,0 Z M18.609248,21.9282172 C18.609248,22.1039522 18.449816,22.2468499 18.253872,22.2468499 L2.746184,22.2468499 C2.550184,22.2468499 2.390808,22.103902 2.390808,21.9282172 L2.390808,3.53398126 L18.609248,3.53398126 L18.609248,21.9282172 L18.609248,21.9282172 Z M20.160056,2.46219841 L20.160056,2.46219841 C20.16,2.63793344 20.000568,2.78083113 19.804624,2.78083113 L1.195432,2.78083113 C0.999432,2.78083113 0.840056,2.63788323 0.840056,2.46219841 L0.840056,0.753150132 L20.160056,0.753150132 L20.160056,2.46219841 L20.160056,2.46219841 Z" id="Shape"></path>
                <path d="M18.7719228,9.54715199 C18.6777506,9.59123106 18.4915141,9.67178594 18.2243615,9.77672061 C17.7748534,9.95328254 17.2664577,10.1302107 16.7104224,10.2954611 C15.3160888,10.7098488 13.8672626,10.9799998 12.4300324,11.0380044 C11.0525211,11.0935987 9.93424206,10.9748935 7.12159462,10.5545153 C5.76873114,10.3523163 5.08511189,10.2588177 4.28425416,10.1772126 C3.46127728,10.0933537 2.71395327,10.0498047 2,10.0498047 L2,11.0498047 C2.6772992,11.0498047 3.39154135,11.0914259 4.18288197,11.1720612 C4.96341309,11.251595 5.63592069,11.3435739 6.97377652,11.5435298 C9.85223177,11.9737437 11.0065067,12.0962699 12.4703582,12.0371909 C13.9980048,11.9755373 15.526614,11.6905098 16.9953018,11.2540245 C17.5797669,11.0803249 18.1148984,10.8940924 18.5899591,10.7074936 C18.8775478,10.5945319 19.083124,10.5056118 19.1958506,10.452848 L18.7719228,9.54715199 Z" id="Path-9"></path>
                <path d="M17.0451602,8.50951608 C17.3212996,8.51080022 17.5461958,8.28798601 17.5474799,8.01184662 C17.5487641,7.73570724 17.3259499,7.51081103 17.0498105,7.50952689 L15.0023251,7.50000541 C14.7261858,7.49872127 14.5012895,7.72153547 14.5000054,7.99767486 C14.4987213,8.27381425 14.7215355,8.49871045 14.9976749,8.49999459 L17.0451602,8.50951608 Z" id="Path-10"></path>
                <path d="M17.0451602,10.9095161 C17.3212996,10.9108002 17.5461958,10.687986 17.5474799,10.4118466 C17.5487641,10.1357072 17.3259499,9.91081103 17.0498105,9.90952689 L15.0023251,9.90000541 C14.7261858,9.89872127 14.5012895,10.1215355 14.5000054,10.3976749 C14.4987213,10.6738142 14.7215355,10.8987105 14.9976749,10.8999946 L17.0451602,10.9095161 Z" id="Path-10-Copy"></path>
                <path d="M17.0451602,15.7095161 C17.3212996,15.7108002 17.5461958,15.487986 17.5474799,15.2118466 C17.5487641,14.9357072 17.3259499,14.710811 17.0498105,14.7095269 L15.0023251,14.7000054 C14.7261858,14.6987213 14.5012895,14.9215355 14.5000054,15.1976749 C14.4987213,15.4738142 14.7215355,15.6987105 14.9976749,15.6999946 L17.0451602,15.7095161 Z" id="Path-10-Copy-4"></path>
                <path d="M17.0451602,13.3095161 C17.3212996,13.3108002 17.5461958,13.087986 17.5474799,12.8118466 C17.5487641,12.5357072 17.3259499,12.310811 17.0498105,12.3095269 L15.0023251,12.3000054 C14.7261858,12.2987213 14.5012895,12.5215355 14.5000054,12.7976749 C14.4987213,13.0738142 14.7215355,13.2987105 14.9976749,13.2999946 L17.0451602,13.3095161 Z" id="Path-10-Copy-2"></path>
                <path d="M17.0451602,18.1095161 C17.3212996,18.1108002 17.5461958,17.887986 17.5474799,17.6118466 C17.5487641,17.3357072 17.3259499,17.110811 17.0498105,17.1095269 L15.0023251,17.1000054 C14.7261858,17.0987213 14.5012895,17.3215355 14.5000054,17.5976749 C14.4987213,17.8738142 14.7215355,18.0987105 14.9976749,18.0999946 L17.0451602,18.1095161 Z" id="Path-10-Copy-5"></path>
                <path d="M17.0451602,20.5095161 C17.3212996,20.5108002 17.5461958,20.287986 17.5474799,20.0118466 C17.5487641,19.7357072 17.3259499,19.510811 17.0498105,19.5095269 L15.0023251,19.5000054 C14.7261858,19.4987213 14.5012895,19.7215355 14.5000054,19.9976749 C14.4987213,20.2738142 14.7215355,20.4987105 14.9976749,20.4999946 L17.0451602,20.5095161 Z" id="Path-10-Copy-6"></path>
            </g>
        </g>
    </g>
</svg>