<?xml version="1.0" encoding="UTF-8" standalone="no"?>
<svg width="79px" height="99px" viewBox="0 0 79 99" version="1.1" xmlns="http://www.w3.org/2000/svg" xmlns:xlink="http://www.w3.org/1999/xlink">
    <!-- Generator: sketchtool 40.1 (33804) - http://www.bohemiancoding.com/sketch -->
    <title>A60AF6AB-DD3A-43F7-B6C2-6E0FF2A949B0</title>
    <desc>Created with sketchtool.</desc>
    <defs></defs>
    <g id="Web-Design" stroke="none" stroke-width="1" fill="none" fill-rule="evenodd">
        <g id="Product-line-professionals" transform="translate(-596.000000, -4513.000000)" fill="#000000">
            <g id="Group-7" transform="translate(571.000000, 4513.000000)">
                <g id="West-Europe" transform="translate(25.000000, 0.000000)">
                    <g id="Group">
                        <path d="M7.07645205,98.38125 C6.61868493,98.38125 6.19013699,98.1380543 5.95746575,97.7474348 L5.70423288,97.3202283 C5.63713699,97.2072391 5.51160274,97.1351413 5.37741096,97.1351413 L3.28012329,97.1351413 C2.56371233,97.1351413 1.98041096,96.5562065 1.98041096,95.843837 L1.98041096,85.0679022 C1.98041096,84.3555326 2.56371233,83.7765978 3.28012329,83.7765978 L13.1789315,83.7765978 C13.3326027,83.7765978 13.4700411,83.6851304 13.5284795,83.5452391 L14.9732055,80.1480326 C15.0164932,80.0447283 15.0132466,79.930663 14.9634658,79.831663 L12.4636027,74.8730543 C12.4289726,74.8052609 12.3759452,74.7493043 12.3088493,74.7137935 L11.3456986,74.1843587 C10.8370685,73.9045761 10.5849178,73.3579239 10.7028767,72.7919022 C10.8208356,72.2258804 11.2710274,71.8245 11.85,71.7685435 L12.8834932,71.6684674 C13.0436575,71.6523261 13.1778493,71.5361087 13.2168082,71.379 C13.3996986,70.6106739 14.0814795,70.1877717 14.7643425,70.3255109 L15.4829178,70.4740109 C15.6885342,70.4804674 15.7848493,70.4298913 15.8573562,70.3373478 L18.5942192,66.9067826 C18.745726,66.7173913 18.9459315,66.5742717 19.1753562,66.4924891 L21.6027123,65.6294674 C21.6817123,65.6014891 21.7520548,65.5466087 21.7975068,65.4734348 L25.0224384,60.3598696 C25.3135479,59.9014565 25.8719589,59.6700978 26.4022329,59.784163 L27.3123562,59.9832391 C27.4443836,59.9896957 27.4930822,59.9832391 27.5374521,59.9638696 L29.5817123,59.1320543 C29.6769452,59.0943913 29.7494521,59.0212174 29.788411,58.92975 C29.8273699,58.8361304 29.8273699,58.7328261 29.7873288,58.6392065 L29.0795753,56.9465217 L27.8058356,53.1317935 C27.729,52.902587 27.7192603,52.6572391 27.7766164,52.4215761 L28.4583973,49.6205217 C28.5547123,49.22775 28.8339178,48.8984674 29.2051096,48.7381304 L30.2266986,48.300163 C31.0307671,47.9515109 31.9906712,48.5551957 32.0393699,49.4149891 L32.1724795,51.8060543 C32.1822192,51.99975 32.1486712,52.1923696 32.0750822,52.3677717 L30.8554521,55.3216304 C30.8067534,55.4389239 30.8197397,55.5723587 30.8911644,55.6778152 L32.1032192,57.4608913 C32.1735616,57.5652717 32.2915205,57.6266087 32.418137,57.6266087 L35.5067123,57.3371413 C35.521863,57.3349891 35.6149315,57.3306848 35.629,57.3306848 C36.1268082,57.3306848 36.5737534,57.6083152 36.7945205,58.0527391 L37.8139452,60.1199022 C37.9080959,60.3114457 38.0823288,60.3308152 38.1526712,60.3308152 C38.2121918,60.3308152 38.4102329,60.3135978 38.5022192,60.1016087 L39.4361507,57.927913 C39.5930685,57.5631196 39.9025753,57.2940978 40.2878356,57.1886413 L44.0798356,56.1588261 C44.3222466,56.096413 44.5679041,56.2298478 44.6414932,56.466587 L44.8081507,57.012163 C44.8568493,57.1692717 45.0061918,57.2790326 45.1717671,57.2790326 L47.4303014,57.2790326 C47.5947945,57.2790326 47.738726,57.1746522 47.7906712,57.0218478 L48.844726,53.8538478 L49.9171781,49.4580326 C50.0600274,48.8758696 50.5794795,48.4701848 51.1833425,48.4701848 C51.4906849,48.4701848 51.7904521,48.5810217 52.0252877,48.78225 L52.8856301,49.5150652 C53.1572603,49.7464239 53.3542192,49.5914674 53.4559452,49.4246739 L54.3703973,47.9321413 C54.4385753,47.8202283 54.4439863,47.6781848 54.3844658,47.5630435 L53.3834384,45.6422283 C53.2092055,45.3075652 53.189726,44.9158696 53.330411,44.5672174 L53.8130685,43.3673804 C54.0121918,42.8745326 54.4851096,42.5560109 55.0186301,42.5560109 L59.5411096,42.5560109 C59.7575479,42.5560109 59.9447671,42.705587 59.9902192,42.9165 C60.0367534,43.126337 59.9285342,43.3404783 59.7315753,43.4297935 L58.9080274,43.8021196 C58.7273014,43.8839022 58.6396438,44.092663 58.7078219,44.2766739 L59.5779041,46.616087 C59.6233562,46.7344565 59.650411,46.8657391 59.6579863,47.0013261 L59.9003973,52.0890652 C59.9079726,52.2623152 60.0335068,52.407587 60.203411,52.4420217 L63.5257397,53.1135 C64.1068767,53.2297174 64.5354247,53.7236413 64.5646438,54.313337 L64.6544658,56.0910326 C64.6587945,56.1911087 64.7053288,56.2868804 64.7810822,56.3535978 L66.6078219,57.9731087 C66.9627808,58.2884022 67.1142877,58.7532717 67.0114795,59.214913 C66.9086712,59.6787065 66.5753562,60.0370435 66.1186712,60.1737065 L65.6511644,60.3146739 C65.4617808,60.3727826 65.3470685,60.5675543 65.3914384,60.7601739 L65.6955342,62.0902174 C65.7355753,62.2623913 65.8881644,62.382913 66.066726,62.382913 L68.3739589,62.382913 C69.017863,62.382913 69.5578767,62.8424022 69.6585205,63.4751413 L69.920411,65.1366196 C69.9344795,65.2194783 69.9745205,65.2958804 70.0372877,65.3550652 L72.4083699,67.5567391 C72.4494932,67.5944022 72.4960274,67.6223804 72.5479726,67.6395978 L77.7933562,69.3591848 C78.3279589,69.534587 78.6861644,70.0274348 78.6861644,70.5859239 L78.6861644,71.8298804 C78.6861644,72.257087 78.4740548,72.6563152 78.1190959,72.8973587 L71.4711918,77.4126196 C71.6183699,77.4911739 71.7503973,77.5987826 71.8596986,77.7300652 L72.0956164,78.0152283 C72.3401918,78.3079239 72.4397534,78.692087 72.3726575,79.0665652 C72.3044795,79.4399674 72.0772192,79.7638696 71.7471507,79.954337 L70.4063151,80.7291196 C69.7634932,81.1003696 68.8728493,80.8130543 68.5687534,80.1437283 L68.1845753,79.2968478 C67.9865342,78.8588804 68.047137,78.3509674 68.3425753,77.9721848 C68.4150822,77.8796413 68.4410548,77.7612717 68.4107534,77.6472065 C68.3815342,77.5331413 68.3014521,77.4405978 68.1932329,77.39325 L66.8523973,76.8186196 C66.8047808,76.7970978 66.7539178,76.787413 66.7008904,76.787413 L63.6058219,77.418 C63.4889452,77.4416739 63.3883014,77.5223804 63.3385205,77.6310652 L60.1125068,84.6751304 C60.0692192,84.7719783 60.0670548,84.8828152 60.1092603,84.9807391 L60.1557945,85.0872717 C60.3170411,85.4628261 60.2943151,85.8803478 60.090863,86.2343804 C59.8884932,86.588413 59.5411096,86.823 59.1352877,86.8768043 L58.1191096,87.0134674 C57.9870822,87.032837 57.8745342,87.1167717 57.8215068,87.2383696 L57.4633014,88.0615761 C57.1743562,88.7244457 56.3183425,89.0268261 55.6690274,88.6932391 L55.356274,88.53075 C55.2588767,88.4790978 55.1376712,88.4737174 55.0316164,88.5167609 L52.2622877,89.682163 C52.1270137,89.7391957 52.0361096,89.8694022 52.0306986,90.0146739 L51.9181507,92.8641522 C51.9159863,92.9125761 51.9224795,92.9588478 51.9387123,93.0018913 L52.8412603,95.6006413 C52.9776164,95.992337 52.9202603,96.413087 52.6843425,96.7531304 C52.4484247,97.09425 52.0750685,97.2987065 51.6584247,97.3137717 L51.3391781,97.3256087 L51.3359315,97.3256087 C50.8348767,97.3256087 50.407411,97.082413 50.1758219,96.6928696 L49.9420685,96.30225 C49.7223836,95.9342283 49.6996575,95.4833478 49.8825479,95.0959565 C49.950726,94.9485326 50.0459589,94.8183261 50.1617534,94.7096413 L49.2927534,94.358837 C49.0449315,94.259837 48.8360685,94.0887391 48.6899726,93.864913 L46.5342466,90.547337 C46.3968082,90.3375 46.3253836,90.0943043 46.3253836,89.8446522 L46.3253836,86.5281522 C46.3253836,86.4162391 46.2756027,86.3107826 46.1890274,86.2376087 L43.6761781,84.1467717 C43.6209863,84.1005 43.5549726,84.0714457 43.4846301,84.0617609 L41.6546438,83.8024239 C41.2877808,83.7496957 40.9598767,83.5452391 40.7564247,83.2396304 L39.9880685,82.0946739 L37.3334521,78.2993152 C37.1884384,78.0970109 36.8572877,78.0937826 36.7111918,78.2982391 L35.4093151,80.1415761 C35.3249041,80.2620978 35.3173288,80.4224348 35.3909178,80.548337 L38.2435753,85.4187065 C38.2684658,85.46175 38.3030959,85.499413 38.3442192,85.5306196 L40.1763699,86.9123152 L42.4630411,88.1186087 C42.6805616,88.2326739 42.8591233,88.4059239 42.981411,88.616837 L44.1263699,90.5925326 C44.2140274,90.6753913 44.2692192,90.7937609 44.2692192,90.9239674 C44.2692192,91.1757717 44.0636027,91.3813043 43.8082055,91.3813043 C43.8027945,91.3813043 43.794137,91.3823804 43.7865616,91.3813043 C43.7108082,91.3813043 43.6339726,91.3630109 43.5647123,91.3242717 L42.3613151,90.6667826 L42.265,90.7044457 L42.7076164,92.0710761 C42.8277397,92.4434022 42.7757945,92.8426304 42.5615205,93.1697609 L41.3840959,94.9851196 C41.2726301,95.1551413 41.0637671,95.2315435 40.8668082,95.175587 C40.6709315,95.1185543 40.5367397,94.9399239 40.5367397,94.7376196 L40.5367397,92.7490109 L40.1341644,90.8787717 C40.1125205,90.7808478 40.0519178,90.6947609 39.9675068,90.6409565 L35.5748904,87.8797174 C35.521863,87.8474348 35.4688356,87.8076196 35.4179726,87.7645761 L33.0403973,85.7114022 C32.8163836,85.5177065 32.6648767,85.251913 32.6129315,84.9624457 L32.1887123,82.5939783 C32.1659863,82.4637717 32.0761644,82.356163 31.9517123,82.3077391 L29.9713014,81.538337 C29.8522603,81.4942174 29.7083288,81.5125109 29.602274,81.5910652 L28.8306712,82.1764565 C28.5233288,82.4099674 28.1142603,82.4949783 27.7419863,82.405663 L27.1998082,82.2776087 C26.9963562,82.280837 26.8805616,82.3238804 26.8102192,82.4175 L26.0829863,83.3805978 C25.8849452,83.6442391 25.596,83.8207174 25.2680959,83.8788261 L21.2748082,84.5782826 C21.1070685,84.607337 20.9782877,84.7450761 20.9620548,84.9129457 L20.7878219,86.7196957 C20.7456164,87.1458261 20.4945479,87.5235326 20.1190274,87.7290652 L17.120274,89.3636413 C17.0315342,89.4120652 16.9655205,89.4938478 16.9384658,89.5906957 L15.7577945,93.7271739 C15.7080137,93.9004239 15.6236027,94.0607609 15.5056438,94.2006522 L13.0761233,97.0996304 C12.8358767,97.3869457 12.482,97.5558913 12.1043151,97.5645 L8.92483562,97.6226087 C8.86531507,97.6236848 8.80471233,97.6398261 8.75060274,97.6678043 L7.6889726,98.2349022 C7.50175342,98.3285217 7.28964384,98.38125 7.07645205,98.38125 L7.07645205,98.38125 Z M3.28012329,84.6901957 C3.07126027,84.6901957 2.89919178,84.8591413 2.89919178,85.0679022 L2.89919178,95.843837 C2.89919178,96.0515217 3.07017808,96.2215435 3.28012329,96.2215435 L5.37741096,96.2215435 C5.83517808,96.2215435 6.26372603,96.4647391 6.49639726,96.8564348 L6.74854795,97.2825652 C6.84810959,97.4482826 7.08078082,97.5193043 7.25393151,97.4224565 L8.31772603,96.8553587 C8.49845205,96.760663 8.70082192,96.7079348 8.90643836,96.7025543 L12.087,96.6444457 C12.1973836,96.6422935 12.3001918,96.5927935 12.3705342,96.5088587 L14.801137,93.6088043 C14.8346849,93.5689891 14.8606575,93.5216413 14.8736438,93.4721413 L16.0543151,89.335663 C16.1495479,89.0020761 16.3713973,88.7255217 16.6776575,88.5555 L19.6774932,86.9198478 C19.7878767,86.859587 19.8603836,86.7498261 19.8733699,86.625 L20.0476027,84.8204022 C20.1027945,84.2457717 20.5421644,83.7722935 21.1146438,83.6722174 L25.1090137,82.9727609 C25.2053288,82.9555435 25.2897397,82.9049674 25.3470959,82.8285652 L26.0743288,81.8654674 C26.3773425,81.4608587 26.9173562,81.2617826 27.4151644,81.3844565 L27.9562603,81.5125109 C28.1164247,81.5221957 28.2073288,81.4942174 28.2744247,81.4447174 L29.0460274,80.8604022 C29.4020685,80.5913804 29.8933836,80.523587 30.3046164,80.6828478 L32.2871918,81.4533261 C32.7081644,81.6158152 33.016589,81.9913696 33.0945068,82.4314891 L33.5176438,84.7978043 C33.5338767,84.8828152 33.5782466,84.9602935 33.6420959,85.01625 L36.0196712,87.0694239 L40.4577397,89.8650978 C40.7499315,90.0480326 40.9587945,90.3461087 41.0313014,90.6818478 L41.4252192,92.4703043 C41.4457808,92.5617717 41.4544384,92.6543152 41.4544384,92.7468587 L41.4544384,93.18375 L41.7866712,92.6715326 C41.8494384,92.5757609 41.864589,92.4595435 41.8299589,92.3497826 L41.2553151,90.5785435 C41.181726,90.349337 41.2975205,90.102913 41.5215342,90.0135978 L42.2195479,89.7359674 C42.3320959,89.6918478 42.4576301,89.6929239 42.5669315,89.7381196 L42.1827534,89.0730978 C42.1470411,89.0106848 42.0940137,88.9611848 42.0301644,88.92675 L39.7965205,87.7538152 C39.7337534,87.7215326 39.6731507,87.6827935 39.6168767,87.6408261 L37.784726,86.2591304 C37.6462055,86.1536739 37.5336575,86.0266957 37.446,85.8781957 L34.5933425,81.0078261 C34.3401096,80.574163 34.3628356,80.0275109 34.6539452,79.6153696 L35.9558219,77.7720326 C36.441726,77.0822609 37.6018356,77.084413 38.0855753,77.776337 L41.5193699,82.7327935 C41.5799726,82.8221087 41.6752055,82.8823696 41.7823425,82.8963587 L43.6123288,83.1556957 C43.8514932,83.1890543 44.076589,83.2891304 44.2638082,83.445163 L46.7777397,85.5370761 C47.0731781,85.7835 47.2430822,86.1439891 47.2430822,86.5281522 L47.2430822,89.8435761 C47.2430822,89.9156739 47.264726,89.9877717 47.3047671,90.0480326 L49.4659041,93.3645326 C49.5091918,93.4301739 49.5697945,93.4796739 49.6412192,93.5087283 L51.3889589,94.2135652 L51.0718767,93.2988913 C51.0188493,93.147163 50.9961233,92.9879022 51.0026164,92.8264891 L51.1151644,89.978087 C51.135726,89.4809348 51.4463151,89.0332826 51.9062466,88.8385109 L54.6766575,87.6731087 C55.034863,87.5246087 55.4460959,87.5418261 55.7848219,87.7183043 L56.0986575,87.8807935 C56.2891233,87.9840978 56.5380274,87.8915543 56.6224384,87.6967826 L56.9806438,86.8735761 C57.1624521,86.4549783 57.5433836,86.1687391 57.9979041,86.1063261 L59.0151644,85.969663 C59.1331233,85.9535217 59.2348493,85.8857283 59.2932877,85.7824239 C59.3528082,85.6780435 59.3603836,85.5564457 59.3127671,85.4456087 L59.2662329,85.3390761 C59.1223014,85.004413 59.1266301,84.6245543 59.278137,84.2941957 L62.5041507,77.2490543 C62.6762192,76.8745761 63.019274,76.60125 63.4229315,76.5194674 L66.4411644,75.896413 C66.7063014,75.8415326 66.9768493,75.870587 67.2214247,75.9760435 L68.5622603,76.5506739 C68.9345342,76.712087 69.2061644,77.0273804 69.305726,77.418 C69.4063699,77.8075435 69.3219589,78.2132283 69.0719726,78.5306739 C68.9864795,78.642587 68.9680822,78.7900109 69.0265205,78.9180652 L69.4106986,79.7649457 C69.4983562,79.9597174 69.7537534,80.0458043 69.9463836,79.9360435 L71.2872192,79.1612609 C71.4192466,79.0848587 71.4582055,78.965413 71.4701096,78.9019239 C71.4820137,78.8362826 71.4874247,78.7114565 71.3900274,78.594163 L71.1541096,78.3100761 C71.0816027,78.222913 70.9744658,78.172337 70.8608356,78.172337 L70.2126027,78.172337 C70.0102329,78.172337 69.8327534,78.0421304 69.7732329,77.8495109 C69.7137123,77.6579674 69.7873014,77.4502826 69.9528767,77.3372935 L77.6050548,72.1387174 C77.7100274,72.0676957 77.7717123,71.9514783 77.7717123,71.8266522 L77.7717123,70.5826957 C77.7717123,70.4202065 77.6656575,70.2760109 77.5098219,70.2243587 L72.2655205,68.5047717 C72.0837123,68.445587 71.9224658,68.3498152 71.7850274,68.2206848 L69.4139452,66.0190109 C69.2029178,65.822087 69.0622329,65.5584457 69.0167808,65.2765109 L68.7548904,63.6139565 C68.7256712,63.4288696 68.5676712,63.2943587 68.3793699,63.2943587 L66.072137,63.2943587 C65.462863,63.2943587 64.9412466,62.8822174 64.8048904,62.2914457 L64.5007945,60.9603261 C64.3492877,60.3017609 64.7399589,59.6324348 65.3903562,59.436587 L65.857863,59.2956196 C66.0504932,59.2364348 66.1046027,59.0804022 66.1186712,59.0147609 C66.1327397,58.9491196 66.1500548,58.7844783 66.0007123,58.6521196 L64.1739726,57.0326087 C63.9153288,56.8023261 63.7573288,56.4730435 63.7410959,56.1319239 L63.651274,54.3553043 C63.6426164,54.1831304 63.5181644,54.0389348 63.3493425,54.0055761 L60.0259315,53.3330217 C59.4426301,53.2146522 59.0151644,52.7185761 58.9870274,52.1278043 L58.7446164,47.0411413 C58.7424521,47.0024022 58.7348767,46.9658152 58.7218904,46.9324565 L57.850726,44.587663 C57.7078767,44.2045761 57.7619863,43.7924348 57.963274,43.4653043 L55.0229589,43.4653043 C54.8671233,43.4653043 54.7296849,43.5589239 54.6712466,43.7031196 L54.188589,44.9029565 C54.1474658,45.0051848 54.1528767,45.11925 54.2048219,45.2171739 L55.2047671,47.136913 C55.4125479,47.5339891 55.3963151,48.0193043 55.1614795,48.4034674 L54.2470274,49.896 C53.8466164,50.5459565 52.8758904,50.7019891 52.2915068,50.205913 L51.4311644,49.4720217 C51.3424247,49.3966957 51.2493562,49.3805543 51.186589,49.3805543 C51.0361644,49.3805543 50.8630137,49.4698696 50.8143151,49.6700217 L49.7505205,54.0367826 C49.747274,54.0518478 49.7234658,54.1314783 49.719137,54.1465435 L48.6672466,57.3070109 C48.4919315,57.8353696 47.9962877,58.1915543 47.4335479,58.1915543 L45.1750137,58.1915543 C44.5992877,58.1915543 44.1003973,57.8246087 43.9326575,57.2768804 L43.895863,57.1563587 L40.5356575,58.0699565 C40.4231096,58.100087 40.3322055,58.1797174 40.2867534,58.2851739 L39.3528219,60.4588696 C39.1450411,60.9420326 38.687274,61.243337 38.1580822,61.243337 C37.6591918,61.243337 37.2122466,60.9657065 36.9925616,60.5202065 L35.9742192,58.4541196 C35.9103699,58.3260652 35.7761781,58.2432065 35.634411,58.2432065 L32.5458356,58.5326739 C32.5306849,58.5348261 32.4386986,58.5391304 32.4246301,58.5391304 C31.9939178,58.5391304 31.5902603,58.3271413 31.3478493,57.9720326 L30.1347123,56.1868043 C29.8912192,55.8263152 29.8446849,55.3722065 30.0102603,54.9719022 L31.2309726,52.0169674 C31.2536986,51.9642391 31.2623562,51.9072065 31.2591096,51.85125 L31.126,49.4612609 C31.1108493,49.1728696 30.815411,49.041587 30.5978904,49.1362826 L29.5763014,49.57425 C29.4680822,49.6205217 29.3869178,49.7173696 29.3587808,49.8325109 L28.677,52.6324891 C28.6596849,52.7013587 28.6629315,52.7723804 28.6856575,52.8380217 L29.9258493,56.5634348 L30.6444247,58.2830217 C30.7786164,58.6026196 30.7786164,58.9555761 30.6444247,59.27625 C30.5113151,59.5969239 30.2602466,59.8444239 29.9366712,59.9746304 L27.8934932,60.8064457 C27.65,60.9043696 27.3783699,60.9269674 27.1208082,60.872087 L26.2128493,60.6730109 C26.0093973,60.6762391 25.8784521,60.7300435 25.8091918,60.8408804 L22.5831781,65.9555217 C22.4273425,66.2008696 22.1925068,66.3881087 21.9187123,66.4860326 L19.4913562,67.3490543 C19.4242603,67.3727283 19.3658219,67.4146957 19.3225342,67.4685 L16.5856712,70.8990652 C16.2815753,71.2789239 15.7859315,71.4607826 15.3054384,71.3628587 L14.5857808,71.2143587 C14.3303836,71.2089783 14.1810411,71.3251957 14.1399178,71.4962935 C13.9894932,72.1215 13.5328082,72.5175 12.9808904,72.5713043 L11.9473973,72.6713804 C11.6898356,72.6961304 11.6259863,72.9070435 11.6119178,72.9705326 C11.5989315,73.0340217 11.5729589,73.2524674 11.8002192,73.3762174 L12.7612055,73.9045761 C12.9895479,74.0283261 13.1746027,74.2198696 13.2936438,74.4555326 L15.7935068,79.4152174 C15.9644932,79.7541848 15.9763973,80.1501848 15.8270548,80.4977609 L14.383411,83.8949674 C14.1788767,84.3749022 13.7081233,84.6837391 13.1865068,84.6837391 L3.28012329,84.6837391 L3.28012329,84.6901957 Z M51.7060411,95.1196304 C51.6540959,95.1529891 51.5945753,95.176663 51.530726,95.1874239 L51.0047808,95.2713587 C50.8792466,95.2918043 50.7753562,95.3692826 50.7212466,95.4833478 C50.667137,95.597413 50.6736301,95.7265435 50.7385616,95.8352283 L50.9723151,96.2258478 C51.0404932,96.339913 51.1660274,96.4109348 51.3002192,96.4109348 L51.6324521,96.3990978 C51.7547397,96.3947935 51.8640411,96.3345326 51.9322192,96.2355326 C52.0003973,96.1365326 52.0177123,96.0138587 51.9787534,95.8987174 L51.7060411,95.1196304 L51.7060411,95.1196304 Z" id="Shape"></path>
                        <path d="M39.7781233,96.9963261 L38.1743151,96.9963261 C38.0444521,96.9963261 37.9210822,96.9414457 37.8345068,96.84675 L36.7891096,95.7028696 C36.6873836,95.5909565 36.6473425,95.4381522 36.6808904,95.2907283 C36.7155205,95.1443804 36.819411,95.0249348 36.9600959,94.9689783 L39.7835342,93.8606087 C39.9339589,93.8046522 40.0984521,93.8250978 40.2250685,93.9187174 C40.3527671,94.012337 40.4231096,94.1651413 40.4112055,94.3211739 L40.2369726,96.5745 C40.2174932,96.8123152 40.0183699,96.9963261 39.7781233,96.9963261 L39.7781233,96.9963261 Z M38.3777671,96.0816522 L39.3517397,96.0816522 L39.4372329,94.9797391 L37.9156712,95.5780435 L38.3777671,96.0816522 L38.3777671,96.0816522 Z" id="Shape"></path>
                        <path d="M29.546,92.0043587 C29.5027123,92.0043587 29.4583425,91.9979022 29.416137,91.9849891 C29.2711233,91.9430217 29.1574932,91.8321848 29.1098767,91.6912174 L28.4291781,89.6455761 C28.3674932,89.4604891 28.4302603,89.2581848 28.5860959,89.1387391 L29.946411,88.0992391 C30.0589589,88.0142283 30.2050548,87.9840978 30.3392466,88.0185326 C30.4756027,88.0529674 30.5881507,88.147663 30.646589,88.2757174 L31.4831233,90.1470326 C31.5675342,90.3375 31.5134247,90.5591739 31.3510959,90.6893804 L29.8349452,91.9032065 C29.7526986,91.9699239 29.6498904,92.0043587 29.546,92.0043587 L29.546,92.0043587 Z M29.4042329,89.6660217 L29.7743425,90.7765435 L30.4983288,90.1976087 L30.042726,89.1785543 L29.4042329,89.6660217 L29.4042329,89.6660217 Z" id="Shape"></path>
                        <path d="M30.3565616,88.7104565 C30.3273425,88.7104565 30.2970411,88.7083043 30.2678219,88.7018478 C30.127137,88.6749457 30.0070137,88.5834783 29.9431644,88.4554239 L29.5503288,87.6580435 C29.4691644,87.4934022 29.495137,87.2954022 29.6163425,87.156587 L30.4020137,86.2548261 C30.5264658,86.1106304 30.7288356,86.0589783 30.9106438,86.1256957 C31.0902877,86.1934891 31.2093288,86.3635109 31.2093288,86.5539783 L31.2093288,87.9066196 C31.2093288,88.0368261 31.1530548,88.1616522 31.0545753,88.2477391 L30.6628219,88.5942391 C30.5773288,88.6706413 30.4691096,88.7104565 30.3565616,88.7104565 L30.3565616,88.7104565 Z" id="Shape"></path>
                        <path d="M9.84145205,68.4359022 C9.79708219,68.4359022 9.66721918,68.4165326 9.6250137,68.4046957 L7.67706849,67.8236087 C7.49526027,67.7687283 7.36539726,67.6094674 7.35024658,67.4211522 C7.33509589,67.232837 7.4389863,67.0552826 7.60889041,66.9735 L10.2537671,65.7090978 L11.2872603,64.7729022 L9.09473973,64.4199457 C8.82527397,64.3769022 8.5980137,64.1907391 8.50386301,63.9357065 C8.40863014,63.6806739 8.46057534,63.3922826 8.63805479,63.1856739 L11.0621644,60.3383478 L10.6455205,55.997413 L9.38260274,56.417087 C9.33606849,56.4321522 9.19321918,56.45475 9.14343836,56.45475 C8.93673973,56.45475 8.73436986,56.367587 8.59152055,56.2158587 C8.44758904,56.0652065 8.374,55.8596739 8.3869863,55.6530652 L8.52875342,53.3706848 L6.27021918,49.4214457 C6.13927397,49.1890109 6.14143836,48.9006196 6.27887671,48.6681848 L8.23223288,45.3893478 C8.36858904,45.1612174 8.61749315,45.0191739 8.88587671,45.0191739 L10.5286438,45.0191739 C10.6985479,45.0191739 10.8543836,45.1117174 10.9344658,45.2612935 C11.0145479,45.4108696 11.0048082,45.5916522 10.9106575,45.7315435 L9.75487671,47.44575 C9.79924658,47.4382174 9.84361644,47.433913 9.88906849,47.433913 C9.92694521,47.433913 10.0416575,47.4489783 10.0795342,47.457587 L12.0989041,47.9837935 C12.4690137,48.0795652 12.7092603,48.43575 12.6594795,48.8134565 L12.4949863,50.1047609 C12.4776712,50.2328152 12.4322192,50.3490326 12.3597123,50.4480326 C11.9398219,51.021587 11.3922329,51.777 11.0470137,52.2623152 C11.3954795,52.4194239 11.929,52.6916739 12.7590411,53.1608478 C12.854274,53.2135761 12.9321918,53.2856739 13.0003699,53.3792935 L15.5013151,56.9745 C15.5727397,57.0767283 15.6181918,57.1994022 15.6322603,57.3285326 L15.9688219,60.7752391 L16.3432603,61.566163 L17.0239589,61.2648587 C17.4481781,61.0819239 17.9676301,61.3541739 18.0650274,61.7985978 L18.3117671,62.93925 C18.3539726,63.1350978 18.3139315,63.3438587 18.2024658,63.5128043 L16.3649041,66.2697391 C16.2361233,66.4645109 16.0272603,66.5871848 15.7924247,66.6065543 L11.5837808,66.9283043 L10.4031096,68.1970109 C10.2548493,68.3487391 10.0513973,68.4359022 9.84145205,68.4359022 L9.84145205,68.4359022 Z M9.07742466,67.2855652 L9.79275342,67.4986304 L10.7418356,66.4785 C10.7093699,66.5010978 10.6769041,66.5204674 10.6606712,66.5290761 L9.07742466,67.2855652 L9.07742466,67.2855652 Z M9.52328767,63.5601522 L11.7634247,63.9217174 C12.0534521,63.9690652 12.2850411,64.1713696 12.3705342,64.4522283 C12.453863,64.733087 12.3705342,65.0290109 12.1530137,65.2270109 L11.2093425,66.0749674 C11.2840137,66.0437609 11.3662603,66.0233152 11.449589,66.0179348 L15.6376712,65.6972609 L17.3940685,63.063 L17.2014384,62.1687717 L16.5553699,62.456087 C16.1787671,62.6142717 15.7350685,62.4367174 15.5673288,62.0794565 L15.1160548,61.1045217 C15.094411,61.0571739 15.0554521,60.9119022 15.0500411,60.8613261 L14.7134795,57.4178478 L12.245,53.9033478 C11.3175616,53.3943587 10.6098082,53.0500109 10.371726,52.9703804 C10.3511644,52.9736087 10.326274,52.9703804 10.3111233,52.9746848 C10.1390548,52.9746848 9.9799726,52.878913 9.9009726,52.7261087 C9.83171233,52.5905217 9.79491781,52.5205761 9.9929589,52.1891413 L9.9929589,52.1891413 L9.9929589,52.1891413 C10.1996575,51.8426413 10.6639178,51.20775 11.613,49.908913 L11.7298767,48.8328261 L9.84578082,48.3421304 L8.7159726,48.844663 C8.52875342,48.9210652 8.31231507,48.8672609 8.18353425,48.7123043 C8.05583562,48.5562717 8.0450137,48.3345978 8.15864384,48.1678043 L9.66613699,45.9327717 L8.97678082,45.9327717 L7.11865753,49.0523478 L9.35121918,53.0101957 C9.42047945,53.1317935 9.45510959,53.2759891 9.44753425,53.423413 L9.31983562,55.4808913 L10.5502877,55.0719783 C10.5968219,55.056913 10.7396712,55.0343152 10.7883699,55.0343152 C11.1822877,55.0343152 11.5069452,55.328087 11.5437397,55.7187065 L11.9841918,60.3179022 C12.0036712,60.5180543 11.9398219,60.7203587 11.8110411,60.8753152 L9.52328767,63.5601522 L9.52328767,63.5601522 Z" id="Shape"></path>
                        <path d="M1.33650685,65.055913 C1.13521918,65.055913 0.945835616,64.9784348 0.80190411,64.8363913 L0.22509589,64.2682174 C-0.0606027397,63.9862826 -0.0746712329,63.5310978 0.191547945,63.2319457 L1.4750274,61.7835326 C1.17309589,61.5597065 1.02808219,61.392913 1.03132877,61.1583261 C1.03241096,61.020587 1.10383562,60.8753152 1.21313699,60.7881522 L1.02808219,60.7655543 C0.796493151,60.7386522 0.622260274,60.5438804 0.622260274,60.3114457 L0.622260274,58.1205326 C0.622260274,57.9601957 0.672041096,57.8063152 0.767273973,57.6771848 L2.00638356,55.9705109 C2.10810959,55.8306196 2.25745205,55.7273152 2.42843836,55.6821196 L5.372,54.9116413 C5.40987671,54.9019565 5.52567123,54.8879674 5.56571233,54.8879674 C5.8849589,54.8879674 6.17282192,55.0891957 6.2810411,55.3883478 L6.98230137,57.3382174 C7.05047945,57.5211522 7.04073973,57.7331413 6.95524658,57.915 L6.10247945,59.7023804 L6.36328767,61.7103587 C6.39791781,62.0084348 6.25290411,62.2989783 5.99317808,62.4507065 L1.7250137,64.9504565 C1.60705479,65.0193261 1.47286301,65.055913 1.33650685,65.055913 L1.33650685,65.055913 Z M0.980465753,63.7247935 L1.36247945,64.1014239 L5.43584932,61.7157391 L5.2010137,59.7228261 C5.18369863,59.5797065 5.20750685,59.436587 5.26919178,59.3096087 L6.09057534,57.5846413 L5.45857534,55.8295435 L2.71630137,56.5526739 L1.51073973,58.2141522 L1.53454795,59.9036087 L2.31913699,59.9961522 C2.49661644,60.0176739 2.6459589,60.1371196 2.70223288,60.3060652 C2.75850685,60.4739348 2.7119726,60.6590217 2.58319178,60.7816957 C2.42627397,60.9291196 2.291,61.0550217 2.17736986,61.1594022 C2.33861644,61.2842283 2.44250685,61.467163 2.46631507,61.6683913 C2.49120548,61.8803804 2.42410959,62.0945217 2.28234247,62.2559348 L0.980465753,63.7247935 L0.980465753,63.7247935 Z" id="Shape"></path>
                        <path d="M37.3172192,54.1734457 C37.0066301,54.1734457 36.7306712,53.9883587 36.6137945,53.7031957 L31.8770411,42.2385652 L30.6249452,45.4506848 C30.5123973,45.7390761 30.228863,45.9327717 29.9171918,45.9327717 L25.7020548,45.9327717 C25.4628904,45.9327717 25.2432055,45.824087 25.0971096,45.6357717 C24.9520959,45.4474565 24.9055616,45.2085652 24.9683288,44.9793587 L27.1554384,36.914087 L25.1295753,37.5930978 C25.0819589,37.608163 24.9380274,37.631837 24.8882466,37.631837 C24.5451918,37.631837 24.2432603,37.4015543 24.1545205,37.0711957 L23.7919863,35.7303913 C23.7248904,35.4861196 23.7854932,35.2246304 23.9543151,35.034163 L28.1250822,30.3521087 C28.1997534,30.2670978 28.2971507,30.1982283 28.4064521,30.1530326 L33.1074932,28.2612717 L32.6681233,28.0977065 C32.463589,28.0223804 32.3001781,27.8598913 32.2222603,27.6532826 L31.8716301,26.70525 C31.7428493,26.3522935 31.8943562,25.9562935 32.2233425,25.7787391 L33.7232603,24.9770543 L38.6916027,14.6864348 C38.7013425,14.6670652 38.7348904,14.6100326 38.7467945,14.5917391 L43.7227123,7.44544565 C43.7789863,7.36258696 43.8601507,7.28618478 43.9543014,7.22915217 L49.0514247,4.14723913 L55.0164658,0.973858696 C55.1171096,0.920054348 55.2318219,0.888847826 55.3476164,0.884543478 L62.726,0.617673913 L62.7270822,0.617673913 C63.0766301,0.617673913 63.3644932,0.819978261 63.4716301,1.1223587 L63.753,1.91543478 C63.8493151,2.18983696 63.7789726,2.49759783 63.5744384,2.70097826 L61.5961918,4.6691413 L61.0713288,10.7382717 L62.8342192,12.4912174 C63.0062877,12.6633913 63.0852877,12.907663 63.0452466,13.1465543 L62.3147671,17.7705 L63.7800548,21.8208913 C63.8395753,21.9823043 63.8395753,22.163087 63.7789726,22.3277283 L62.9370274,24.7155652 L63.8211781,29.4062283 L65.1349589,31.0386522 C65.3481507,31.3109022 65.3503151,31.6896848 65.1425342,31.9619348 L59.6514932,39.1545 C59.5140548,39.3352826 59.3030274,39.4450435 59.0736027,39.4525761 L55.5662192,39.5849348 L52.9548904,40.502837 C52.9061918,40.5200543 52.7546849,40.5458804 52.7038219,40.5458804 C52.5317534,40.5458804 52.3629315,40.4866957 52.2298219,40.380163 L49.8111233,38.4582717 C49.6498767,38.3291413 49.5470685,38.1375978 49.5286712,37.9331413 L49.0600822,32.0803043 C49.0438493,31.878 49.1076986,31.6832283 49.239726,31.5293478 L52.5761233,27.6705 L55.5240137,24.0871304 L53.7773562,20.3735543 L50.9452603,20.951413 L49.318726,24.4454674 L48.8609589,27.8383696 C48.8349863,28.0395978 48.7300137,28.2171522 48.5676849,28.33875 L43.5019452,32.1825326 L41.7228219,40.3328152 L44.1187945,40.0401196 C44.420726,40.0390435 44.6360822,40.1262065 44.7789315,40.2876196 C44.922863,40.4479565 44.9910411,40.6631739 44.9661507,40.8762391 L44.8233014,42.1019022 C44.7897534,42.4064348 44.5657397,42.6646957 44.2659726,42.7454022 L41.9154521,43.3716848 L41.1903836,51.8932174 C41.1665753,52.1557826 41.0129041,52.3817609 40.7802329,52.5012065 L37.660274,54.0884348 C37.5563836,54.1433152 37.4362603,54.1734457 37.3172192,54.1734457 L37.3172192,54.1734457 Z M31.8716301,41.0527174 C32.181137,41.0527174 32.4570959,41.2367283 32.5739726,41.5218913 L37.3973014,53.1974348 L40.2813425,51.7296522 L41.0085753,43.1855217 C41.0356301,42.8702283 41.2596438,42.6022826 41.5691507,42.5194239 L43.924,41.8920652 L44.031137,40.974163 L41.6135205,41.2690109 C41.2791233,41.2647065 41.0735068,41.172163 40.927411,40.9924565 C40.7834795,40.81275 40.7282877,40.5824674 40.7780685,40.3575652 L42.6167123,31.9318043 C42.6567534,31.7531739 42.7573973,31.5982174 42.9002466,31.4906087 L47.958411,27.6511304 L48.4161781,24.2786739 C48.4226712,24.2324022 48.4605479,24.1021957 48.4811096,24.0591522 L50.1401096,20.4951522 C50.2418356,20.2788587 50.4409589,20.1206739 50.6768767,20.07225 L53.714589,19.4556522 C53.7448904,19.4491957 53.8357945,19.440587 53.8671781,19.440587 C54.1604521,19.440587 54.4299178,19.6106087 54.5543699,19.87425 L56.3973425,23.7922826 C56.5196301,24.0548478 56.4806712,24.3679891 56.2966986,24.5907391 L53.2784658,28.2591196 L49.9799452,32.0738478 L50.4366301,37.7878696 L52.7319589,39.612913 L55.3075753,38.7154565 C55.350863,38.7003913 55.4850548,38.6745652 55.531589,38.672413 L58.9632192,38.5432826 L64.334137,31.5089022 L63.0658082,29.9033804 C62.9878904,29.8043804 62.9370274,29.6892391 62.9153836,29.5697935 L62.0366438,24.7995 C62.0139178,24.6725217 62.0225753,24.539087 62.0647808,24.416413 L62.8926575,22.0748478 L61.4381918,17.9997065 C61.3970685,17.8845652 61.3840822,17.757587 61.4035616,17.633837 L62.122137,13.080913 L60.3646575,11.3333478 C60.2066575,11.1762391 60.1265753,10.9577935 60.1449726,10.7350435 L60.6817397,4.53247826 C60.6958082,4.35707609 60.7748082,4.18705435 60.9046712,4.06007609 L62.8504521,2.12527174 L62.641589,1.53557609 L55.379,1.7981413 L49.5200137,4.93278261 L44.4304658,8.01146739 L39.5075753,15.1050326 L34.4829589,25.4451522 C34.4147808,25.5871957 34.3033151,25.703413 34.1615479,25.7798152 L32.7828356,26.5180109 L33.0598767,27.2658913 L34.5359863,27.8168478 C34.7134658,27.8835652 34.8314247,28.0503587 34.833589,28.23975 C34.8357534,28.4291413 34.7221233,28.598087 34.545726,28.6691087 L28.7538356,30.999913 L24.7021096,35.5732826 L25.0007945,36.6773478 L27.1435342,35.9585217 C27.1911507,35.9434565 27.3361644,35.9197826 27.3859452,35.9197826 C27.6196986,35.9197826 27.8447945,36.0306196 27.988726,36.2167826 C28.1326575,36.4050978 28.180274,36.642913 28.1175068,36.8721196 L25.9098356,45.0159457 L29.805726,45.0159457 L31.1638767,41.5315761 C31.2775068,41.2421087 31.5556301,41.0527174 31.8716301,41.0527174 L31.8716301,41.0527174 Z" id="Shape"></path>
                    </g>
                </g>
            </g>
        </g>
    </g>
</svg>