<?xml version="1.0" encoding="UTF-8" standalone="no"?>
<svg width="37px" height="54px" viewBox="0 0 37 54" version="1.1" xmlns="http://www.w3.org/2000/svg" xmlns:xlink="http://www.w3.org/1999/xlink">
    <!-- Generator: sketchtool 40.1 (33804) - http://www.bohemiancoding.com/sketch -->
    <title>CB6B2076-CB65-425F-AE47-3EB6EAC0B01E</title>
    <desc>Created with sketchtool.</desc>
    <defs></defs>
    <g id="Web-Design" stroke="none" stroke-width="1" fill="none" fill-rule="evenodd">
        <g id="Product-line-professionals" transform="translate(-1088.000000, -2469.000000)" fill="#8B5B29">
            <g id="wheat" transform="translate(1088.000000, 2469.000000)">
                <path d="M12.6029474,0 C11.9625263,0 11.4434737,0.519157895 11.4434737,1.15947368 L11.4434737,12.6308421 C10.9955789,12.6493684 10.5554737,12.804 10.1822105,13.0905263 L8.07526316,14.7072632 L8.07526316,8.73863158 C8.07526316,8.09821053 7.556,7.57915789 6.91578947,7.57915789 C6.27536842,7.57915789 5.75631579,8.09831579 5.75631579,8.73863158 L5.75631579,14.7342105 L3.61410526,13.0905263 C3.24073684,12.804 2.80073684,12.6494737 2.35294737,12.6308421 L2.35294737,1.15947368 C2.35273684,0.519157895 1.83357895,0 1.19326316,0 C0.552947368,0 0.0337894737,0.519157895 0.0337894737,1.15947368 L0.0337894737,14.8561053 L0.0337894737,19.7298947 C0.0337894737,20.2135789 0.195578947,20.6832632 0.481052632,21.0651579 C0.195684211,21.4428421 0.0337894737,21.9087368 0.0337894737,22.4053684 L0.0337894737,27.2791579 C0.0337894737,27.7628421 0.195578947,28.2325263 0.481052632,28.6144211 C0.195684211,28.9922105 0.0337894737,29.4581053 0.0337894737,29.9547368 L0.0337894737,34.8284211 C0.0337894737,35.5155789 0.359263158,36.1756842 0.904421053,36.594 L4.47726316,39.3354737 C4.85063158,39.622 5.29063158,39.7754737 5.73863158,39.794 L5.73863158,52.7353684 C5.73863158,53.3757895 6.25789474,53.8948421 6.89810526,53.8948421 C7.53852632,53.8948421 8.05757895,53.3756842 8.05757895,52.7353684 L8.05757895,39.7937895 C8.50547368,39.7752632 8.94557895,39.6216842 9.31884211,39.3353684 L12.8917895,36.5937895 C13.4369474,36.1754737 13.7624211,35.5153684 13.7624211,34.8282105 L13.7624211,29.9545263 C13.7624211,29.4578947 13.6005263,28.992 13.3151579,28.6142105 C13.6006316,28.2323158 13.7624211,27.7625263 13.7624211,27.2789474 L13.7624211,22.4052632 C13.7624211,21.9086316 13.6005263,21.4427368 13.3151579,21.0650526 C13.6006316,20.6831579 13.7624211,20.2133684 13.7624211,19.7297895 L13.7624211,14.856 L13.7624211,1.15947368 C13.7625263,0.519157895 13.2432632,0 12.6029474,0 L12.6029474,0 Z M5.73852632,37.3801053 L2.35273684,34.7821053 L2.35273684,30.156 L4.47715789,31.7862105 C4.53073684,31.8273684 4.586,31.8652632 4.64210526,31.9010526 L5.73842105,32.7423158 L5.73842105,37.3801053 L5.73852632,37.3801053 Z M5.73852632,29.8190526 L3.614,28.1888421 C3.56178947,28.1488421 3.508,28.1123158 3.45347368,28.0773684 L2.35273684,27.2327368 L2.35273684,22.6066316 L4.47715789,24.2368421 C4.53073684,24.278 4.586,24.3158947 4.64210526,24.3516842 L5.73842105,25.1929474 L5.73842105,29.8190526 L5.73852632,29.8190526 Z M5.73852632,22.2698947 L3.614,20.6396842 C3.56178947,20.5996842 3.508,20.5631579 3.45347368,20.5282105 L2.35273684,19.6835789 L2.35273684,15.0456842 L5.73852632,17.6435789 L5.73852632,22.2698947 L5.73852632,22.2698947 Z M11.4433684,34.7821053 L8.05757895,37.38 L8.05757895,32.7421053 L9.15378947,31.9009474 C9.21,31.8652632 9.26526316,31.8272632 9.31894737,31.7861053 L11.4433684,30.156 L11.4433684,34.7821053 L11.4433684,34.7821053 Z M11.4434737,27.2329474 L10.3432632,28.0771579 C10.2884211,28.1121053 10.2345263,28.1487368 10.1822105,28.1888421 L8.05778947,29.8190526 L8.05778947,25.1929474 L9.154,24.3517895 C9.21021053,24.3161053 9.26547368,24.2782105 9.31915789,24.2369474 L11.4435789,22.6067368 L11.4435789,27.2329474 L11.4434737,27.2329474 Z M11.4434737,19.6836842 L10.3432632,20.5278947 C10.2885263,20.5629474 10.2345263,20.5995789 10.1822105,20.6396842 L8.05778947,22.2697895 L8.05778947,17.6436842 L11.4435789,15.0456842 L11.4435789,19.6836842 L11.4434737,19.6836842 Z" id="Shape"></path>
                <path d="M35.2277895,6.60231579 C34.5874737,6.60231579 34.0683158,7.12147368 34.0683158,7.76178947 L34.0683158,19.2330526 C33.6204211,19.2514737 33.1804211,19.4062105 32.8071579,19.6926316 L30.7,21.3094737 L30.7,15.3409474 C30.7,14.7005263 30.1807368,14.1814737 29.5405263,14.1814737 C28.9003158,14.1814737 28.3810526,14.7006316 28.3810526,15.3409474 L28.3810526,21.3364211 L26.2388421,19.6927368 C25.8654737,19.4063158 25.4254737,19.2516842 24.9776842,19.2332632 L24.9776842,7.76189474 C24.9776842,7.12147368 24.4584211,6.60242105 23.8182105,6.60242105 C23.178,6.60242105 22.6587368,7.12157895 22.6587368,7.76189474 L22.6587368,21.4585263 L22.6587368,26.3322105 C22.6587368,26.8157895 22.8205263,27.2855789 23.106,27.6674737 C22.8206316,28.0452632 22.6587368,28.5110526 22.6587368,29.0076842 L22.6587368,33.8813684 C22.6587368,34.3650526 22.8205263,34.8348421 23.106,35.2166316 C22.8206316,35.5943158 22.6587368,36.0602105 22.6587368,36.5568421 L22.6587368,41.4306316 C22.6587368,42.1178947 22.9843158,42.778 23.5293684,43.1962105 L27.1023158,45.9377895 C27.4756842,46.2242105 27.9155789,46.3776842 28.3634737,46.3962105 L28.3634737,52.7352632 C28.3634737,53.3756842 28.8827368,53.8947368 29.5229474,53.8947368 C30.1632632,53.8947368 30.6824211,53.3755789 30.6824211,52.7352632 L30.6824211,46.3962105 C31.1302105,46.3776842 31.5704211,46.2241053 31.9436842,45.9377895 L35.5165263,43.1963158 C36.0616842,42.778 36.3873684,42.118 36.3873684,41.4306316 L36.3873684,36.5568421 C36.3873684,36.0602105 36.2254737,35.5943158 35.9401053,35.2166316 C36.2255789,34.8347368 36.3873684,34.3649474 36.3873684,33.8813684 L36.3873684,29.0076842 C36.3873684,28.5110526 36.2254737,28.0451579 35.9401053,27.6673684 C36.2255789,27.2854737 36.3873684,26.8156842 36.3873684,26.3321053 L36.3873684,21.4584211 L36.3873684,7.76189474 C36.3872632,7.12147368 35.8682105,6.60231579 35.2277895,6.60231579 L35.2277895,6.60231579 Z M24.9776842,21.6481053 L28.3634737,24.2461053 L28.3634737,28.8722105 L26.2389474,27.2421053 C26.1867368,27.2021053 26.1328421,27.1654737 26.0782105,27.1305263 L24.9776842,26.2862105 L24.9776842,21.6481053 L24.9776842,21.6481053 Z M24.9776842,29.2091579 L27.1022105,30.8393684 C27.1557895,30.8804211 27.2109474,30.9183158 27.2669474,30.954 L28.3633684,31.7952632 L28.3633684,36.4213684 L26.2388421,34.7912632 C26.1865263,34.7511579 26.1326316,34.7146316 26.078,34.6795789 L24.9775789,33.8353684 L24.9775789,29.2091579 L24.9776842,29.2091579 Z M28.3634737,43.9824211 L24.9776842,41.3844211 L24.9776842,36.7583158 L27.1022105,38.3886316 C27.1558947,38.4297895 27.2110526,38.4676842 27.2673684,38.5034737 L28.3634737,39.3444211 L28.3634737,43.9824211 L28.3634737,43.9824211 Z M30.6825263,24.2461053 L34.0683158,21.6482105 L34.0683158,26.2861053 L32.9671579,27.1310526 C32.9127368,27.1658947 32.8591579,27.2022105 32.8072632,27.2421053 L30.6825263,28.8722105 L30.6825263,24.2461053 L30.6825263,24.2461053 Z M34.0683158,41.3843158 L30.6825263,43.9823158 L30.6825263,39.3443158 L31.7785263,38.5034737 C31.8347368,38.4676842 31.8901053,38.4296842 31.9438947,38.3884211 L34.0683158,36.7583158 L34.0683158,41.3843158 L34.0683158,41.3843158 Z M34.0684211,33.8353684 L32.9675789,34.6801053 C32.9130526,34.7149474 32.8592632,34.7512632 32.8073684,34.7912632 L30.6826316,36.4215789 L30.6826316,31.7953684 L31.7790526,30.9541053 C31.8351579,30.9184211 31.8903158,30.8804211 31.9438947,30.8394737 L34.0683158,29.2093684 L34.0683158,33.8353684 L34.0684211,33.8353684 Z" id="Shape"></path>
            </g>
        </g>
    </g>
</svg>