<?xml version="1.0" encoding="UTF-8" standalone="no"?>
<svg width="22px" height="40px" viewBox="0 0 22 40" version="1.1" xmlns="http://www.w3.org/2000/svg" xmlns:xlink="http://www.w3.org/1999/xlink">
    <!-- Generator: sketchtool 40.1 (33804) - http://www.bohemiancoding.com/sketch -->
    <title>570F6BCC-BF14-46A9-9D0C-2718267C10E6</title>
    <desc>Created with sketchtool.</desc>
    <defs></defs>
    <g id="Web-Design" stroke="none" stroke-width="1" fill="none" fill-rule="evenodd">
        <g id="Main-page-4-d" transform="translate(-1358.000000, -2008.000000)" fill="#a7272a">
            <path d="M1359.9343,2008.33321 C1359.49002,2007.88893 1358.77749,2007.88893 1358.33321,2008.33321 C1357.88893,2008.77749 1357.88893,2009.49002 1358.33321,2009.9343 L1376.39786,2027.99895 L1358.33321,2046.0636 C1357.88893,2046.50788 1357.88893,2047.22041 1358.33321,2047.66469 C1358.55116,2047.88264 1358.84455,2048 1359.12956,2048 C1359.41458,2048 1359.70797,2047.89103 1359.92592,2047.66469 C1359.92592,2047.66469 1365.59145,2041.99916 1368.42421,2039.1664 C1371.88124,2035.70937 1378.79531,2028.79531 1378.79531,2028.79531 C1379.23959,2028.35941 1379.23959,2027.6385 1378.80369,2027.2026 L1359.9343,2008.33321 Z" id="Arrow-right"></path>
        </g>
    </g>
</svg>